<svg xmlns="http://www.w3.org/2000/svg" xmlns:xlink="http://www.w3.org/1999/xlink" width="103" height="103" viewBox="0 0 103 103">
  <defs>
    <filter id="Trazado_978624" x="0" y="0" width="103" height="103" filterUnits="userSpaceOnUse">
      <feOffset dy="3" input="SourceAlpha"/>
      <feGaussianBlur stdDeviation="3" result="blur"/>
      <feFlood flood-opacity="0.161"/>
      <feComposite operator="in" in2="blur"/>
      <feComposite in="SourceGraphic"/>
    </filter>
  </defs>
  <g id="Grupo_1178926" data-name="Grupo 1178926" transform="translate(-185 -9393)">
    <g id="Grupo_1178463" data-name="Grupo 1178463" transform="translate(14 6527)">
      <g id="Grupo_1176881" data-name="Grupo 1176881">
        <g id="Grupo_1175148" data-name="Grupo 1175148" transform="translate(0 1580)">
          <g id="Grupo_1173798" data-name="Grupo 1173798" transform="translate(-3 -3520)">
            <g id="Grupo_1171925" data-name="Grupo 1171925" transform="translate(-22 -2246)">
              <g id="Grupo_1164524" data-name="Grupo 1164524" transform="translate(205 7058)">
                <g id="Grupo_1144123" data-name="Grupo 1144123">
                  <g transform="matrix(1, 0, 0, 1, -9, -6)" filter="url(#Trazado_978624)">
                    <g id="Trazado_978624-2" data-name="Trazado 978624" transform="translate(9 6)" fill="#f4f4f4">
                      <path d="M 42.5 83.5 C 36.96437835693359 83.5 31.59512901306152 82.41617584228516 26.54141235351562 80.27863311767578 C 21.65934181213379 78.21369171142578 17.27447128295898 75.25723266601562 13.50862312316895 71.49137878417969 C 9.742764472961426 67.72553253173828 6.786305904388428 63.34066009521484 4.721364498138428 58.45858764648438 C 2.583823442459106 53.40486907958984 1.5 48.03562164306641 1.5 42.5 C 1.5 36.96437835693359 2.583823442459106 31.59512901306152 4.721364498138428 26.54141235351562 C 6.786305904388428 21.65934181213379 9.742764472961426 17.27447128295898 13.50862312316895 13.50862312316895 C 17.27447128295898 9.742764472961426 21.65934181213379 6.786305904388428 26.54141235351562 4.721364498138428 C 31.59512901306152 2.583823442459106 36.96437835693359 1.5 42.5 1.5 C 48.03562164306641 1.5 53.40486907958984 2.583823442459106 58.45858764648438 4.721364498138428 C 63.34066009521484 6.786305904388428 67.72553253173828 9.742764472961426 71.49137878417969 13.50862312316895 C 75.25723266601562 17.27447128295898 78.21369171142578 21.65934181213379 80.27863311767578 26.54141235351562 C 82.41617584228516 31.59512901306152 83.5 36.96437835693359 83.5 42.5 C 83.5 48.03562164306641 82.41617584228516 53.40486907958984 80.27863311767578 58.45858764648438 C 78.21369171142578 63.34066009521484 75.25723266601562 67.72553253173828 71.49137878417969 71.49137878417969 C 67.72553253173828 75.25723266601562 63.34066009521484 78.21369171142578 58.45858764648438 80.27863311767578 C 53.40486907958984 82.41617584228516 48.03562164306641 83.5 42.5 83.5 Z" stroke="none"/>
                      <path d="M 42.5 3 C 37.16621398925781 3 31.99356079101562 4.043960571289062 27.125732421875 6.102882385253906 C 22.42246627807617 8.092185974121094 18.19785308837891 10.94070434570312 14.56928253173828 14.56928253173828 C 10.94070434570312 18.19785308837891 8.092185974121094 22.42246627807617 6.102882385253906 27.125732421875 C 4.043960571289062 31.99356079101562 3 37.16621398925781 3 42.5 C 3 47.83378601074219 4.043960571289062 53.00643920898438 6.102882385253906 57.87425231933594 C 8.092185974121094 62.57753372192383 10.94070434570312 66.80213165283203 14.56928253173828 70.43071746826172 C 18.19786834716797 74.05929565429688 22.42246627807617 76.90781402587891 27.125732421875 78.89711761474609 C 31.99356079101562 80.95603942871094 37.16621398925781 82 42.5 82 C 47.83378601074219 82 53.00642395019531 80.95603942871094 57.87425231933594 78.89711761474609 C 62.57753372192383 76.90781402587891 66.80213165283203 74.05929565429688 70.43071746826172 70.43071746826172 C 74.05929565429688 66.80213165283203 76.90781402587891 62.57753372192383 78.89711761474609 57.87425231933594 C 80.95603942871094 53.00642395019531 82 47.83378601074219 82 42.5 C 82 37.16621398925781 80.95603942871094 31.99356079101562 78.89711761474609 27.125732421875 C 76.90781402587891 22.42246627807617 74.05929565429688 18.19786834716797 70.43071746826172 14.56928253173828 C 66.80213165283203 10.94070434570312 62.57753372192383 8.092185974121094 57.87425231933594 6.102882385253906 C 53.00643920898438 4.043960571289062 47.83378601074219 3 42.5 3 M 42.5 0 C 65.97209167480469 0 85 19.02789306640625 85 42.5 C 85 65.97209167480469 65.97209167480469 85 42.5 85 C 19.02789306640625 85 0 65.97209167480469 0 42.5 C 0 19.02789306640625 19.02789306640625 0 42.5 0 Z" stroke="none" fill="#797979"/>
                    </g>
                  </g>
                </g>
              </g>
            </g>
          </g>
        </g>
      </g>
    </g>
    <g id="learning-process_14781901_2_" data-name="learning-process_14781901 (2)" transform="translate(212.439 9414.209)">
      <g id="Grupo_1177458" data-name="Grupo 1177458" transform="translate(0 0)">
        <ellipse id="Elipse_12451" data-name="Elipse 12451" cx="5.154" cy="5.154" rx="5.154" ry="5.154" transform="translate(3.7)" fill="#4d5263"/>
        <ellipse id="Elipse_12452" data-name="Elipse 12452" cx="5.154" cy="5.154" rx="5.154" ry="5.154" transform="translate(23.42)" fill="#4d5263"/>
        <path id="Trazado_1035206" data-name="Trazado 1035206" d="M78.006,39.119c0,8.088-7.948,13.96-16.037,13.96-3.05,0-6.2,2.223-8.92-8.021V34.377A10.816,10.816,0,0,1,66.27,23.844l.775.591.775-.591a10.9,10.9,0,0,1,2.424-.274,10.685,10.685,0,0,1,2.535.3C81.042,30.155,78.006,35.7,78.006,39.119Z" transform="translate(-48.344 -21.91)" fill="#73788c"/>
        <path id="Trazado_1035207" data-name="Trazado 1035207" d="M81.042,37.022v37H53.05V47.7A14.646,14.646,0,0,0,72.779,26.52,10.811,10.811,0,0,1,81.042,37.022Z" transform="translate(-48.344 -24.555)" fill="#5e6577"/>
        <path id="Trazado_1035208" data-name="Trazado 1035208" d="M60.939,403.874l-6.677,1.766H30.795c-4.8-1.434-3.781-3.056-5.413-5.4l2.175-2.9a7.311,7.311,0,0,1,1.854-.64l6.228-1.52,2.181-.9c.137-.159,1.8,1.859,3.649,2.348a11.5,11.5,0,0,0,1.533,0c1.848-.489,3.513-2.506,3.65-2.348l2.181.895,6.228,1.521A7.313,7.313,0,0,1,60.939,403.874Z" transform="translate(-23.534 -354.319)" fill="#8ac9fe"/>
        <path id="Trazado_1035209" data-name="Trazado 1035209" d="M14.761,432.232H7.81a.31.31,0,0,1-.31-.31v-1.456a7.309,7.309,0,0,1,4.022-6.526l.218.311C13.372,426.591,14.864,429.3,14.761,432.232Z" transform="translate(-7.5 -380.911)" fill="#60b7ff"/>
        <path id="Trazado_1035210" data-name="Trazado 1035210" d="M144.612,350.553l-.261-2.324a1.923,1.923,0,0,0,.641-1.389v-3.994h7.843v3.994a1.648,1.648,0,0,0,.641,1.389l.165,2.13-4.727.616Z" transform="translate(-130.211 -308.196)" fill="#ffb09e"/>
        <path id="Trazado_1035211" data-name="Trazado 1035211" d="M125.657,396.8l-.761-.4a2.869,2.869,0,0,1-1.208-3.878l.074-.14a1.018,1.018,0,0,1,1.374-.426l4.953,2.6-.547,1.039A2.879,2.879,0,0,1,125.657,396.8Z" transform="translate(-111.387 -352.123)" fill="#eaf6ff"/>
        <path id="Trazado_1035212" data-name="Trazado 1035212" d="M192.937,396.8l.761-.4a2.869,2.869,0,0,0,1.208-3.878l-.074-.14a1.018,1.018,0,0,0-1.374-.426l-4.953,2.6.547,1.039A2.879,2.879,0,0,0,192.937,396.8Z" transform="translate(-169.803 -352.123)" fill="#eaf6ff"/>
        <path id="Trazado_1035213" data-name="Trazado 1035213" d="M63.965,203.817h-21a5.06,5.06,0,0,1-5.06-5.06v-.775a2.013,2.013,0,0,1,2.013-2.013h27.1a2.013,2.013,0,0,1,2.013,2.013v.775A5.06,5.06,0,0,1,63.965,203.817Z" transform="translate(-34.762 -176.494)" fill="#ffb09e"/>
        <path id="Trazado_1035214" data-name="Trazado 1035214" d="M90.666,119.8a7.228,7.228,0,0,0,4.95-1.953l3.8-3.554a7.955,7.955,0,0,0,2.523-5.81v-6.642h0a1.378,1.378,0,0,1-1.325-1h0a14.007,14.007,0,0,0-7.739-8.911l-2-.9a.505.505,0,0,0-.413,0l-2,.9a14.007,14.007,0,0,0-7.739,8.911h0a1.378,1.378,0,0,1-1.325,1h0v6.642a7.955,7.955,0,0,0,2.523,5.81l3.8,3.554A7.229,7.229,0,0,0,90.666,119.8Z" transform="translate(-71.964 -82.365)" fill="#ffcebf"/>
        <g id="Grupo_1177457" data-name="Grupo 1177457" transform="translate(29.362 32.028)">
          <path id="Trazado_1035215" data-name="Trazado 1035215" d="M323.12,325.36l.75,1.217v4.368l-.75,1.285H306.03v-6.87Z" transform="translate(-304.546 -324.545)" fill="#eaf6ff"/>
          <rect id="Rectángulo_416042" data-name="Rectángulo 416042" width="16.655" height="6.87" transform="translate(1.919 10.462)" fill="#eaf6ff"/>
          <rect id="Rectángulo_416043" data-name="Rectángulo 416043" width="2.76" height="6.87" transform="translate(17.747 10.462)" fill="#d8ecfe"/>
          <path id="Trazado_1035216" data-name="Trazado 1035216" d="M313.183,404.075l-.269,4.739c0,1.56-1.9,2.334-3.465,2.334H293.036a1.366,1.366,0,0,1-1.366-1.366v-.007a1.366,1.366,0,0,1,1.366-1.366h17.591a.31.31,0,0,0,.31-.31v-3.556a.311.311,0,0,0-.31-.31H293.036a1.365,1.365,0,1,1,0-2.731h1.46l1.266-1.075h12.747l.941,1.075C311.01,401.5,313.183,402.514,313.183,404.075Z" transform="translate(-291.67 -391.855)" fill="#fe93bb"/>
          <path id="Trazado_1035217" data-name="Trazado 1035217" d="M467.952,413.656v4a2.825,2.825,0,0,1-2.825,2.825H463.74a2.825,2.825,0,0,0,2.826-2.825v-4a2.825,2.825,0,0,0-2.826-2.826h1.387A2.825,2.825,0,0,1,467.952,413.656Z" transform="translate(-445.961 -401.184)" fill="#fe76a8"/>
          <g id="Grupo_1177456" data-name="Grupo 1177456">
            <rect id="Rectángulo_416044" data-name="Rectángulo 416044" width="1.499" height="6.87" transform="translate(18.574 0.815)" fill="#d8ecfe"/>
            <path id="Trazado_1035218" data-name="Trazado 1035218" d="M313.183,325.742v.008c0,.754-2.047,1.366-2.8,1.366H294.5a2.825,2.825,0,0,1-2.826-2.825v-4a2.826,2.826,0,0,1,2.826-2.826h15.887a6.393,6.393,0,0,1,2.216.4,1.581,1.581,0,0,1,.584.963c0,.753-2.088,1.368-2.841,1.368h-16.1c-.631,0-.757.535-.757,1.165v1.574c0,.807.269,1.438,1.076,1.438h15.82C311.137,324.377,313.183,324.988,313.183,325.742Z" transform="translate(-291.67 -317.47)" fill="#bbf49b"/>
            <path id="Trazado_1035219" data-name="Trazado 1035219" d="M476.057,318.836a1.365,1.365,0,0,1-1.366,1.365H472.78a1.365,1.365,0,0,0,0-2.731h1.912a1.365,1.365,0,0,1,1.366,1.366Z" transform="translate(-454.067 -317.47)" fill="#9be69d"/>
            <path id="Trazado_1035220" data-name="Trazado 1035220" d="M476.057,385.686v.007a1.366,1.366,0,0,1-1.366,1.366H472.78a1.365,1.365,0,0,0,1.365-1.366v-.007a1.365,1.365,0,0,0-1.365-1.366h1.912A1.366,1.366,0,0,1,476.057,385.686Z" transform="translate(-454.067 -377.413)" fill="#9be69d"/>
            <path id="Trazado_1035221" data-name="Trazado 1035221" d="M307.133,348.076H306.06a.53.53,0,0,1-.53-.53V344.43a.531.531,0,0,1,.531-.531h1.071a.31.31,0,0,0-.31.31v3.556A.31.31,0,0,0,307.133,348.076Z" transform="translate(-304.098 -341.168)" fill="#9be69d"/>
          </g>
        </g>
      </g>
      <g id="Grupo_1177469" data-name="Grupo 1177469">
        <g id="Grupo_1177464" data-name="Grupo 1177464">
          <path id="Trazado_1035222" data-name="Trazado 1035222" d="M44.886,16.369A5.154,5.154,0,1,1,52.5,9.454" transform="translate(-39.605 -7.5)" fill="none" stroke="#000" stroke-linecap="round" stroke-linejoin="round" stroke-miterlimit="10" stroke-width="1.2"/>
          <path id="Trazado_1035223" data-name="Trazado 1035223" d="M245.008,9.446a5.154,5.154,0,1,1,7.588,6.94" transform="translate(-220.467 -7.5)" fill="none" stroke="#000" stroke-linecap="round" stroke-linejoin="round" stroke-miterlimit="10" stroke-width="1.2"/>
          <path id="Trazado_1035224" data-name="Trazado 1035224" d="M53.048,41.378V34.373A10.817,10.817,0,0,1,66.284,23.842h0a3.41,3.41,0,0,0,1.52,0h0A10.818,10.818,0,0,1,81.029,33.885" transform="translate(-48.342 -21.905)" fill="none" stroke="#000" stroke-linecap="round" stroke-linejoin="round" stroke-miterlimit="10" stroke-width="1.2"/>
          <line id="Línea_978" data-name="Línea 978" y1="7.846" transform="translate(4.706 25.969)" fill="none" stroke="#000" stroke-linecap="round" stroke-linejoin="round" stroke-miterlimit="10" stroke-width="1.2"/>
          <line id="Línea_979" data-name="Línea 979" y1="5.205" transform="translate(4.706 37.432)" fill="none" stroke="#000" stroke-linecap="round" stroke-linejoin="round" stroke-miterlimit="10" stroke-width="1.2"/>
          <line id="Línea_980" data-name="Línea 980" y2="6.042" transform="translate(32.698 25.981)" fill="none" stroke="#000" stroke-linecap="round" stroke-linejoin="round" stroke-miterlimit="10" stroke-width="1.2"/>
          <line id="Línea_981" data-name="Línea 981" y2="3.877" transform="translate(32.698 15.596)" fill="none" stroke="#000" stroke-linecap="round" stroke-linejoin="round" stroke-miterlimit="10" stroke-width="1.2"/>
          <g id="Grupo_1177459" data-name="Grupo 1177459" transform="translate(0 36.327)">
            <path id="Trazado_1035225" data-name="Trazado 1035225" d="M253.014,403.3l.057.024,4.376,1.054" transform="translate(-227.646 -398.729)" fill="none" stroke="#000" stroke-linecap="round" stroke-linejoin="round" stroke-miterlimit="10" stroke-width="1.2"/>
            <path id="Trazado_1035226" data-name="Trazado 1035226" d="M226.454,359.076v2.317a2.029,2.029,0,0,0,.5,1.33l.121.05" transform="translate(-203.83 -359.076)" fill="none" stroke="#000" stroke-linecap="round" stroke-linejoin="round" stroke-miterlimit="10" stroke-width="1.2"/>
            <path id="Trazado_1035227" data-name="Trazado 1035227" d="M144.94,362.934l.084-.035a2.029,2.029,0,0,0,.5-1.329v-2.3" transform="translate(-130.739 -359.253)" fill="none" stroke="#000" stroke-linecap="round" stroke-linejoin="round" stroke-miterlimit="10" stroke-width="1.2"/>
            <path id="Trazado_1035228" data-name="Trazado 1035228" d="M7.5,413.686v-1.766a7.313,7.313,0,0,1,5.876-7.165l6.1-1.47.067-.028" transform="translate(-7.5 -398.693)" fill="none" stroke="#000" stroke-linecap="round" stroke-linejoin="round" stroke-miterlimit="10" stroke-width="1.2"/>
          </g>
          <path id="Trazado_1035229" data-name="Trazado 1035229" d="M48.545,426.951c1.632,2.34,3.123,5.047,3.02,7.98" transform="translate(-44.304 -383.611)" fill="none" stroke="#000" stroke-linecap="round" stroke-linejoin="round" stroke-miterlimit="10" stroke-width="1.2"/>
          <g id="Grupo_1177460" data-name="Grupo 1177460" transform="translate(11.971 39.712)">
            <path id="Trazado_1035230" data-name="Trazado 1035230" d="M125.657,396.8l-.761-.4a2.869,2.869,0,0,1-1.208-3.878l.074-.14a1.018,1.018,0,0,1,1.374-.426l4.953,2.6-.547,1.039A2.879,2.879,0,0,1,125.657,396.8Z" transform="translate(-123.358 -391.835)" fill="none" stroke="#000" stroke-linecap="round" stroke-linejoin="round" stroke-miterlimit="10" stroke-width="1.2"/>
            <path id="Trazado_1035231" data-name="Trazado 1035231" d="M192.937,396.8l.761-.4a2.869,2.869,0,0,0,1.208-3.878l-.074-.14a1.018,1.018,0,0,0-1.374-.426l-4.953,2.6.547,1.039A2.879,2.879,0,0,0,192.937,396.8Z" transform="translate(-181.774 -391.835)" fill="none" stroke="#000" stroke-linecap="round" stroke-linejoin="round" stroke-miterlimit="10" stroke-width="1.2"/>
          </g>
          <line id="Línea_982" data-name="Línea 982" y2="5.981" transform="translate(18.702 42.427)" fill="none" stroke="#000" stroke-linecap="round" stroke-linejoin="round" stroke-miterlimit="10" stroke-width="1.2"/>
          <path id="Trazado_1035232" data-name="Trazado 1035232" d="M42.19,203.757a5.061,5.061,0,0,1-4.287-5v-.775a2.013,2.013,0,0,1,2.013-2.013H42.13" transform="translate(-34.762 -176.494)" fill="none" stroke="#000" stroke-linecap="round" stroke-linejoin="round" stroke-miterlimit="10" stroke-width="1.2"/>
          <path id="Trazado_1035233" data-name="Trazado 1035233" d="M297.68,195.967h2.208a2.013,2.013,0,0,1,2.013,2.013v.775a5.062,5.062,0,0,1-4.287,5" transform="translate(-267.639 -176.494)" fill="none" stroke="#000" stroke-linecap="round" stroke-linejoin="round" stroke-miterlimit="10" stroke-width="1.2"/>
          <path id="Trazado_1035234" data-name="Trazado 1035234" d="M90.666,119.8a7.228,7.228,0,0,0,4.95-1.953l3.8-3.554a7.955,7.955,0,0,0,2.523-5.81v-6.642h0a1.378,1.378,0,0,1-1.325-1h0a14.007,14.007,0,0,0-7.739-8.911l-2-.9a.505.505,0,0,0-.413,0l-2,.9a14.007,14.007,0,0,0-7.739,8.911h0a1.378,1.378,0,0,1-1.325,1h0v6.642a7.955,7.955,0,0,0,2.523,5.81l3.8,3.554A7.229,7.229,0,0,0,90.666,119.8Z" transform="translate(-71.964 -82.365)" fill="none" stroke="#000" stroke-linecap="round" stroke-linejoin="round" stroke-miterlimit="10" stroke-width="1.2"/>
          <line id="Línea_983" data-name="Línea 983" y1="6.268" transform="translate(18.702 2.111)" fill="none" stroke="#000" stroke-linecap="round" stroke-linejoin="round" stroke-miterlimit="10" stroke-width="1.2"/>
          <g id="Grupo_1177461" data-name="Grupo 1177461" transform="translate(12.679 17.988)">
            <path id="Trazado_1035235" data-name="Trazado 1035235" d="M130.214,182.014a3.456,3.456,0,0,1,3.327,0" transform="translate(-130.214 -181.587)" fill="none" stroke="#000" stroke-linecap="round" stroke-linejoin="round" stroke-miterlimit="10" stroke-width="1.2"/>
          </g>
          <g id="Grupo_1177462" data-name="Grupo 1177462" transform="translate(21.398 17.774)">
            <path id="Trazado_1035236" data-name="Trazado 1035236" d="M214.594,179.949a3.456,3.456,0,0,1,3.327,0" transform="translate(-214.594 -179.522)" fill="none" stroke="#000" stroke-linecap="round" stroke-linejoin="round" stroke-miterlimit="10" stroke-width="1.2"/>
          </g>
          <g id="Grupo_1177463" data-name="Grupo 1177463" transform="translate(14.401 21.02)">
            <path id="Trazado_1035237" data-name="Trazado 1035237" d="M179.11,262.335a2.7,2.7,0,0,1-2.447,0" transform="translate(-173.585 -257.024)" fill="none" stroke="#000" stroke-linecap="round" stroke-linejoin="round" stroke-miterlimit="10" stroke-width="1.2"/>
            <path id="Trazado_1035238" data-name="Trazado 1035238" d="M171.377,302.208a4.918,4.918,0,0,1-4.461,0" transform="translate(-164.845 -292.777)" fill="none" stroke="#000" stroke-linecap="round" stroke-linejoin="round" stroke-miterlimit="10" stroke-width="1.2"/>
            <line id="Línea_984" data-name="Línea 984" y2="1.737" transform="translate(0)" fill="none" stroke="#000" stroke-linecap="round" stroke-linejoin="round" stroke-miterlimit="10" stroke-width="1.2"/>
            <line id="Línea_985" data-name="Línea 985" y2="1.737" transform="translate(8.602)" fill="none" stroke="#000" stroke-linecap="round" stroke-linejoin="round" stroke-miterlimit="10" stroke-width="1.2"/>
          </g>
        </g>
        <g id="Grupo_1177468" data-name="Grupo 1177468" transform="translate(29.362 32.06)">
          <g id="Grupo_1177465" data-name="Grupo 1177465">
            <line id="Línea_986" data-name="Línea 986" y1="4.012" transform="translate(20.072 2.806)" fill="none" stroke="#000" stroke-linecap="round" stroke-linejoin="round" stroke-miterlimit="10" stroke-width="1.2"/>
            <path id="Trazado_1035239" data-name="Trazado 1035239" d="M307.937,320.513h4.36a1.366,1.366,0,0,0,1.366-1.366h0a1.366,1.366,0,0,0-1.366-1.366H294.5a2.826,2.826,0,0,0-2.826,2.825v4a2.826,2.826,0,0,0,2.826,2.825h17.8a1.366,1.366,0,0,0,1.366-1.366v-.008a1.366,1.366,0,0,0-1.366-1.366H294.4v-4.176h9.924" transform="translate(-291.672 -317.782)" fill="none" stroke="#000" stroke-linecap="round" stroke-linejoin="round" stroke-miterlimit="10" stroke-width="1.2"/>
          </g>
          <g id="Grupo_1177467" data-name="Grupo 1177467" transform="translate(0 9.646)">
            <g id="Grupo_1177466" data-name="Grupo 1177466">
              <line id="Línea_987" data-name="Línea 987" y1="4.012" transform="translate(1.918 2.81)" fill="none" stroke="#000" stroke-linecap="round" stroke-linejoin="round" stroke-miterlimit="10" stroke-width="1.2"/>
              <path id="Trazado_1035240" data-name="Trazado 1035240" d="M310.837,411.14a2.826,2.826,0,0,1,2.826,2.825v4a2.826,2.826,0,0,1-2.826,2.825h-17.8a1.366,1.366,0,0,1-1.366-1.366v-.008a1.366,1.366,0,0,1,1.366-1.366h5.8" transform="translate(-291.672 -411.14)" fill="none" stroke="#000" stroke-linecap="round" stroke-linejoin="round" stroke-miterlimit="10" stroke-width="1.2"/>
              <path id="Trazado_1035241" data-name="Trazado 1035241" d="M316.994,411.14" transform="translate(-314.378 -411.14)" fill="none" stroke="#000" stroke-linecap="round" stroke-linejoin="round" stroke-miterlimit="10" stroke-width="1.2"/>
              <path id="Trazado_1035242" data-name="Trazado 1035242" d="M302.45,418.048h8.488v-4.176h-17.9a1.365,1.365,0,0,1-1.366-1.366h0a1.366,1.366,0,0,1,1.366-1.365h1.46" transform="translate(-291.672 -411.141)" fill="none" stroke="#000" stroke-linecap="round" stroke-linejoin="round" stroke-miterlimit="10" stroke-width="1.2"/>
            </g>
          </g>
        </g>
      </g>
    </g>
  </g>
</svg>
