<svg xmlns="http://www.w3.org/2000/svg" xmlns:xlink="http://www.w3.org/1999/xlink" width="103" height="103" viewBox="0 0 103 103">
  <defs>
    <filter id="Trazado_978624" x="0" y="0" width="103" height="103" filterUnits="userSpaceOnUse">
      <feOffset dy="3" input="SourceAlpha"/>
      <feGaussianBlur stdDeviation="3" result="blur"/>
      <feFlood flood-opacity="0.161"/>
      <feComposite operator="in" in2="blur"/>
      <feComposite in="SourceGraphic"/>
    </filter>
  </defs>
  <g id="Grupo_1220479" data-name="Grupo 1220479" transform="translate(-185 -1495)">
    <g id="Grupo_1220229" data-name="Grupo 1220229" transform="translate(0 -7898)">
      <g id="Grupo_1178463" data-name="Grupo 1178463" transform="translate(14 6527)">
        <g id="Grupo_1176881" data-name="Grupo 1176881">
          <g id="Grupo_1175148" data-name="Grupo 1175148" transform="translate(0 1580)">
            <g id="Grupo_1173798" data-name="Grupo 1173798" transform="translate(-3 -3520)">
              <g id="Grupo_1171925" data-name="Grupo 1171925" transform="translate(-22 -2246)">
                <g id="Grupo_1164524" data-name="Grupo 1164524" transform="translate(205 7058)">
                  <g id="Grupo_1144123" data-name="Grupo 1144123">
                    <g transform="matrix(1, 0, 0, 1, -9, -6)" filter="url(#Trazado_978624)">
                      <g id="Trazado_978624-2" data-name="Trazado 978624" transform="translate(9 6)" fill="#f4f4f4">
                        <path d="M 42.5 83.5 C 36.96437835693359 83.5 31.59512901306152 82.41617584228516 26.54141235351562 80.27863311767578 C 21.65934181213379 78.21369171142578 17.27447128295898 75.25723266601562 13.50862312316895 71.49137878417969 C 9.742764472961426 67.72553253173828 6.786305904388428 63.34066009521484 4.721364498138428 58.45858764648438 C 2.583823442459106 53.40486907958984 1.5 48.03562164306641 1.5 42.5 C 1.5 36.96437835693359 2.583823442459106 31.59512901306152 4.721364498138428 26.54141235351562 C 6.786305904388428 21.65934181213379 9.742764472961426 17.27447128295898 13.50862312316895 13.50862312316895 C 17.27447128295898 9.742764472961426 21.65934181213379 6.786305904388428 26.54141235351562 4.721364498138428 C 31.59512901306152 2.583823442459106 36.96437835693359 1.5 42.5 1.5 C 48.03562164306641 1.5 53.40486907958984 2.583823442459106 58.45858764648438 4.721364498138428 C 63.34066009521484 6.786305904388428 67.72553253173828 9.742764472961426 71.49137878417969 13.50862312316895 C 75.25723266601562 17.27447128295898 78.21369171142578 21.65934181213379 80.27863311767578 26.54141235351562 C 82.41617584228516 31.59512901306152 83.5 36.96437835693359 83.5 42.5 C 83.5 48.03562164306641 82.41617584228516 53.40486907958984 80.27863311767578 58.45858764648438 C 78.21369171142578 63.34066009521484 75.25723266601562 67.72553253173828 71.49137878417969 71.49137878417969 C 67.72553253173828 75.25723266601562 63.34066009521484 78.21369171142578 58.45858764648438 80.27863311767578 C 53.40486907958984 82.41617584228516 48.03562164306641 83.5 42.5 83.5 Z" stroke="none"/>
                        <path d="M 42.5 3 C 37.16621398925781 3 31.99356079101562 4.043960571289062 27.125732421875 6.102882385253906 C 22.42246627807617 8.092185974121094 18.19785308837891 10.94070434570312 14.56928253173828 14.56928253173828 C 10.94070434570312 18.19785308837891 8.092185974121094 22.42246627807617 6.102882385253906 27.125732421875 C 4.043960571289062 31.99356079101562 3 37.16621398925781 3 42.5 C 3 47.83378601074219 4.043960571289062 53.00643920898438 6.102882385253906 57.87425231933594 C 8.092185974121094 62.57753372192383 10.94070434570312 66.80213165283203 14.56928253173828 70.43071746826172 C 18.19786834716797 74.05929565429688 22.42246627807617 76.90781402587891 27.125732421875 78.89711761474609 C 31.99356079101562 80.95603942871094 37.16621398925781 82 42.5 82 C 47.83378601074219 82 53.00642395019531 80.95603942871094 57.87425231933594 78.89711761474609 C 62.57753372192383 76.90781402587891 66.80213165283203 74.05929565429688 70.43071746826172 70.43071746826172 C 74.05929565429688 66.80213165283203 76.90781402587891 62.57753372192383 78.89711761474609 57.87425231933594 C 80.95603942871094 53.00642395019531 82 47.83378601074219 82 42.5 C 82 37.16621398925781 80.95603942871094 31.99356079101562 78.89711761474609 27.125732421875 C 76.90781402587891 22.42246627807617 74.05929565429688 18.19786834716797 70.43071746826172 14.56928253173828 C 66.80213165283203 10.94070434570312 62.57753372192383 8.092185974121094 57.87425231933594 6.102882385253906 C 53.00643920898438 4.043960571289062 47.83378601074219 3 42.5 3 M 42.5 0 C 65.97209167480469 0 85 19.02789306640625 85 42.5 C 85 65.97209167480469 65.97209167480469 85 42.5 85 C 19.02789306640625 85 0 65.97209167480469 0 42.5 C 0 19.02789306640625 19.02789306640625 0 42.5 0 Z" stroke="none" fill="#797979"/>
                      </g>
                    </g>
                  </g>
                </g>
              </g>
            </g>
          </g>
        </g>
      </g>
    </g>
    <g id="measurement_15587043" transform="translate(202.41 1515.252)">
      <g id="Grupo_1220478" data-name="Grupo 1220478" transform="translate(8.395 1.855)">
        <g id="Grupo_1220476" data-name="Grupo 1220476" transform="translate(2.181 7.871)">
          <g id="Grupo_1220474" data-name="Grupo 1220474" transform="translate(0 16.969)">
            <path id="Trazado_1044816" data-name="Trazado 1044816" d="M83.806,262.865a1.351,1.351,0,1,1,0,2.7H42.495v2.493a1.351,1.351,0,0,1-2.7,0v-2.493H37.3a1.351,1.351,0,1,1,0-2.7h2.493V242.816a1.351,1.351,0,1,1,2.7,0v20.049Z" transform="translate(-35.949 -241.465)" fill="#b4d2d7" fill-rule="evenodd"/>
            <path id="Trazado_1044817" data-name="Trazado 1044817" d="M85.119,264.845a1.351,1.351,0,0,1-1.313,1.034H42.495v-1H84.8A1.35,1.35,0,0,0,85.119,264.845Zm-42.662,3.844a1.351,1.351,0,0,1-2.664-.317v-2.493H37.3a1.351,1.351,0,0,1-.317-2.664,1.352,1.352,0,0,0,1.313,1.668h2.493v2.493a1.353,1.353,0,0,0,1.668,1.314Zm-2.664-5.512v-20.05a1.351,1.351,0,0,1,1.034-1.313,1.356,1.356,0,0,0-.038.317v21.046Z" transform="translate(-35.949 -241.777)" fill="#9bb9c3" fill-rule="evenodd"/>
          </g>
          <g id="Grupo_1220475" data-name="Grupo 1220475" transform="translate(9.84)">
            <path id="Trazado_1044818" data-name="Trazado 1044818" d="M130.425,325.684h4.718a.6.6,0,0,1,.6.6v7.02a.6.6,0,0,1-.6.6h-4.718a.6.6,0,0,1-.6-.6v-7.02A.6.6,0,0,1,130.425,325.684Z" transform="translate(-129.635 -299.716)" fill="#fc685b" fill-rule="evenodd"/>
            <path id="Trazado_1044819" data-name="Trazado 1044819" d="M130.425,325.684h4.718a.6.6,0,0,1,.6.6v.519h-4.179a.6.6,0,0,0-.6.6v6.5h-.54a.6.6,0,0,1-.6-.6v-7.02A.6.6,0,0,1,130.425,325.684Z" transform="translate(-129.635 -299.716)" fill="#f35244" fill-rule="evenodd"/>
            <path id="Trazado_1044820" data-name="Trazado 1044820" d="M227.064,275.026h4.718a.6.6,0,0,1,.6.6v12.433a.6.6,0,0,1-.6.6h-4.718a.6.6,0,0,1-.6-.6V275.624A.6.6,0,0,1,227.064,275.026Z" transform="translate(-215.948 -254.471)" fill="#ffda2d" fill-rule="evenodd"/>
            <path id="Trazado_1044821" data-name="Trazado 1044821" d="M227.064,275.026h4.718a.6.6,0,0,1,.6.6v.519H228.2a.6.6,0,0,0-.6.6v11.913h-.54a.6.6,0,0,1-.6-.6V275.624A.6.6,0,0,1,227.064,275.026Z" transform="translate(-215.948 -254.471)" fill="#ffc700" fill-rule="evenodd"/>
            <path id="Trazado_1044822" data-name="Trazado 1044822" d="M323.7,224.365h4.718a.6.6,0,0,1,.6.6v17.846a.6.6,0,0,1-.6.6H323.7a.6.6,0,0,1-.6-.6V224.963A.6.6,0,0,1,323.7,224.365Z" transform="translate(-302.261 -209.223)" fill="#72d561" fill-rule="evenodd"/>
            <path id="Trazado_1044823" data-name="Trazado 1044823" d="M323.7,224.365h4.718a.6.6,0,0,1,.6.6v.519H324.84a.6.6,0,0,0-.6.6v17.327H323.7a.6.6,0,0,1-.6-.6V224.963A.6.6,0,0,1,323.7,224.365Z" transform="translate(-302.261 -209.223)" fill="#3cbe52" fill-rule="evenodd"/>
            <path id="Trazado_1044824" data-name="Trazado 1044824" d="M406.638,137.728V160.2a.6.6,0,0,1-.6.6h-4.718a.6.6,0,0,1-.6-.6V137.728h-1.889a.385.385,0,0,1-.282-.648l4.67-5a.626.626,0,0,1,.916,0l4.67,5a.385.385,0,0,1-.282.648Z" transform="translate(-369.555 -126.619)" fill="#64b5f6" fill-rule="evenodd"/>
            <path id="Trazado_1044825" data-name="Trazado 1044825" d="M400.129,137.728h-1.293a.385.385,0,0,1-.282-.648l4.67-5a.626.626,0,0,1,.916,0l.891.955a.626.626,0,0,0-.67.162Zm1.733,23.074V137.728h-1.137V160.2a.6.6,0,0,0,.6.6h.54Z" transform="translate(-369.555 -126.619)" fill="#42a5f5" fill-rule="evenodd"/>
            <path id="Trazado_1044826" data-name="Trazado 1044826" d="M151.107,85.139l-.973-1.685a.528.528,0,0,1,.529-.788l6.38.862a.528.528,0,0,1,.418.725l-2.444,5.956a.528.528,0,0,1-.947.063l-.973-1.685-22.727,13.121a.694.694,0,0,1-.946-.254l-1.3-2.248a.694.694,0,0,1,.254-.946Z" transform="translate(-128.035 -82.66)" fill="#ffd6bd" fill-rule="evenodd"/>
            <path id="Trazado_1044827" data-name="Trazado 1044827" d="M164.491,90.636l.11.015a.528.528,0,0,1,.418.725l-2.444,5.956a.528.528,0,0,1-.947.063l-.486-.842a.528.528,0,0,0,.947-.063Zm-3.835,5.075L137.93,108.832a.694.694,0,0,1-.946-.254l-.486-.842a.694.694,0,0,0,.946.253L160.17,94.868Z" transform="translate(-135.593 -89.784)" fill="#f9c6aa" fill-rule="evenodd"/>
          </g>
        </g>
        <g id="Grupo_1220477" data-name="Grupo 1220477" transform="translate(0)">
          <path id="Trazado_1044828" data-name="Trazado 1044828" d="M31.246,9a15.7,15.7,0,0,1,13.6,7.852l-4.827,2.787A10.135,10.135,0,0,0,22.469,29.774l-4.827,2.787A15.71,15.71,0,0,1,31.246,9Z" transform="translate(-15.539 -9)" fill="#fc685b" fill-rule="evenodd"/>
          <path id="Trazado_1044829" data-name="Trazado 1044829" d="M73.537,53.153A10.135,10.135,0,0,0,55.983,63.287l-1.354.782a11.7,11.7,0,0,1,20.263-11.7Z" transform="translate(-49.053 -42.513)" fill="#f35244" fill-rule="evenodd"/>
          <path id="Trazado_1044830" data-name="Trazado 1044830" d="M26.177,33.5,23.39,28.672a15.7,15.7,0,0,0-7.852,13.6h5.573A10.129,10.129,0,0,1,26.177,33.5Z" transform="translate(-15.538 -26.57)" fill="#f35244" fill-rule="evenodd"/>
          <path id="Trazado_1044831" data-name="Trazado 1044831" d="M59.692,62.53l-.782-1.354a11.692,11.692,0,0,0-5.848,10.131h1.564a10.128,10.128,0,0,1,5.066-8.777Z" transform="translate(-49.052 -55.601)" fill="#eb423f" fill-rule="evenodd"/>
          <path id="Trazado_1044832" data-name="Trazado 1044832" d="M40.96,11.1a15.784,15.784,0,0,0-5.75,5.75l4.827,2.787a10.129,10.129,0,0,1,8.777-5.066V9A15.635,15.635,0,0,0,40.96,11.1Z" transform="translate(-33.108 -8.999)" fill="#72d561" fill-rule="evenodd"/>
          <path id="Trazado_1044833" data-name="Trazado 1044833" d="M67.716,52.372l1.354.782a10.129,10.129,0,0,1,8.777-5.066V46.524h0A11.692,11.692,0,0,0,67.716,52.372Z" transform="translate(-62.141 -42.514)" fill="#57ca5a" fill-rule="evenodd"/>
          <path id="Trazado_1044834" data-name="Trazado 1044834" d="M96.877,10.219V9a15.635,15.635,0,0,0-7.855,2.1l2.787,4.827a10.145,10.145,0,0,1,10.135,0l2.787-4.827A15.634,15.634,0,0,0,96.877,9Z" transform="translate(-81.17 -9)" fill="#57ca5a" fill-rule="evenodd"/>
          <path id="Trazado_1044835" data-name="Trazado 1044835" d="M107.789,48.089l.782,1.354a10.145,10.145,0,0,1,10.135,0l.782-1.354a11.709,11.709,0,0,0-11.7,0Z" transform="translate(-97.932 -42.513)" fill="#3cbe52" fill-rule="evenodd"/>
          <path id="Trazado_1044836" data-name="Trazado 1044836" d="M170.385,11.1A15.634,15.634,0,0,0,162.53,9v5.573a10.129,10.129,0,0,1,8.777,5.066l.075-.044.009-.005.066-.038.052-.03.023-.013.075-.044.019-.011.056-.032.062-.036.013-.008.075-.044.029-.017.046-.027.151-.087.04-.023.036-.021.075-.043.007,0,.069-.04.05-.029.026-.015.075-.043.017-.01.058-.034.06-.034.016-.009.075-.043.027-.016.048-.028.07-.04.006,0,.075-.043.037-.021.038-.022.075-.044,0,0,.071-.041.047-.027.028-.016.075-.044.014-.008.061-.035.057-.033.018-.011.075-.044.024-.014.051-.029.067-.039.008,0,.075-.044.035-.02.041-.024.075-.043h0l.074-.043.045-.026.031-.018.075-.043.012-.007.064-.037.055-.032.021-.012.075-.043.022-.013.054-.031.065-.037.011-.006.075-.044.032-.018.043-.025.075-.043h0l.075-.044.042-.024.033-.019.075-.044.009-.005L175,17.5l.052-.03.023-.013.075-.044.019-.011.056-.032.062-.036.013-.008.075-.044.029-.017.046-.027.072-.042,0,0,.075-.044.04-.023.036-.021.075-.044.007,0,.069-.04.05-.029.026-.015.075-.044.017-.01.059-.034.06-.035.016-.009a15.793,15.793,0,0,0-5.751-5.749Z" transform="translate(-146.823 -9)" fill="#ffda2d" fill-rule="evenodd"/>
          <path id="Trazado_1044837" data-name="Trazado 1044837" d="M162.53,46.524v1.564a10.129,10.129,0,0,1,8.777,5.066l.085-.049.118-.068.118-.068.118-.068.118-.068.118-.068.118-.068.118-.068.118-.068.118-.068.118-.068.088-.051A11.692,11.692,0,0,0,162.53,46.524Z" transform="translate(-146.823 -42.514)" fill="#ffc700" fill-rule="evenodd"/>
          <path id="Trazado_1044838" data-name="Trazado 1044838" d="M218.491,34.421a15.784,15.784,0,0,0-5.75-5.75L209.954,33.5a10.182,10.182,0,0,1,3.71,3.71Z" transform="translate(-189.18 -26.569)" fill="#ffc700" fill-rule="evenodd"/>
          <path id="Trazado_1044839" data-name="Trazado 1044839" d="M210.737,61.176l-.782,1.354a10.182,10.182,0,0,1,3.71,3.71l1.354-.782a11.755,11.755,0,0,0-4.282-4.282Z" transform="translate(-189.181 -55.601)" fill="#fdb800" fill-rule="evenodd"/>
          <path id="Trazado_1044840" data-name="Trazado 1044840" d="M142.674,138.512a2.375,2.375,0,1,0-2.375-2.375A2.38,2.38,0,0,0,142.674,138.512Z" transform="translate(-126.968 -120.43)" fill="#64b5f6" fill-rule="evenodd"/>
          <path id="Trazado_1044841" data-name="Trazado 1044841" d="M148.882,136.7a2.375,2.375,0,1,1-2.954,3.641,2.375,2.375,0,0,0,2.954-3.641Z" transform="translate(-131.995 -123.052)" fill="#42a5f5" fill-rule="evenodd"/>
        </g>
      </g>
      <path id="Trazado_1044842" data-name="Trazado 1044842" d="M43.916,12.945a.855.855,0,0,0,.313-1.168l-.641-1.109,5.3.716-2.032,4.952-.641-1.11a.855.855,0,0,0-1.168-.312L22.466,27.952,21.33,25.985Zm-1.6-1.053L20.334,24.585a1.551,1.551,0,0,0-.566,2.115l1.3,2.248a1.547,1.547,0,0,0,2.114.566L45.167,16.82l.545.944A1.382,1.382,0,0,0,48.19,17.6l2.444-5.956a1.381,1.381,0,0,0-1.094-1.9l-6.38-.862a1.383,1.383,0,0,0-1.384,2.062ZM35.993,43.054h-4.2V31.135h4.2ZM30.934,29.426h5.914a.855.855,0,0,1,.855.855V43.908a.855.855,0,0,1-.855.855H30.934a.855.855,0,0,1-.855-.855V30.281A.855.855,0,0,1,30.934,29.426ZM46.319,43.054V25.722h-4.2V43.054Zm.855-19.041H41.261a.855.855,0,0,0-.855.855V43.908a.855.855,0,0,0,.855.855h5.913a.855.855,0,0,0,.855-.855V24.867A.855.855,0,0,0,47.174,24.012ZM25.666,43.054h-4.2V36.549h4.2Zm-5.058-8.215a.855.855,0,0,0-.855.855v8.215a.855.855,0,0,0,.855.855h5.913a.855.855,0,0,0,.855-.855V35.694a.855.855,0,0,0-.855-.855ZM54.544,15.946l3.766,4.035H57.5a.855.855,0,0,0-.855.855V43.054h-4.2V20.836a.855.855,0,0,0-.855-.855h-.809Zm-5.984,5a1.24,1.24,0,0,0,1.139.746h1.034V43.908a.855.855,0,0,0,.855.855H57.5a.855.855,0,0,0,.855-.855V21.691h1.034A1.24,1.24,0,0,0,60.3,19.6l-4.669-5a1.482,1.482,0,0,0-2.166,0l-4.669,5a1.243,1.243,0,0,0-.231,1.341Zm9.874,29a.5.5,0,0,0,0-.993H17.122a.855.855,0,0,1-.855-.855V28.045a.5.5,0,0,0-.993,0V48.1a.854.854,0,0,1-.855.855H11.927a.5.5,0,0,0,0,.993H14.42a.854.854,0,0,1,.855.855V53.29a.5.5,0,0,0,.993,0V50.8a.855.855,0,0,1,.855-.855Zm0-2.7H17.977v-19.2a2.206,2.206,0,0,0-4.412,0v19.2H11.927a2.206,2.206,0,0,0,0,4.412h1.638V53.29a2.206,2.206,0,0,0,4.412,0V51.653H58.433a2.206,2.206,0,0,0,0-4.412ZM24.1,18.548a.986.986,0,1,0-.986-.986A.987.987,0,0,0,24.1,18.548Zm6.563-4.775A.855.855,0,0,0,29.5,13.46l-3.609,2.083a2.695,2.695,0,1,0,.911,2.018,2.6,2.6,0,0,0-.055-.538l3.608-2.083A.854.854,0,0,0,30.665,13.773ZM15.951,5.153l1.935,3.353a11.077,11.077,0,0,0-2.84,2.84L11.693,9.411A14.991,14.991,0,0,1,15.951,5.153ZM36.516,9.407a14.865,14.865,0,0,0-4.265-4.251L30.317,8.507a11,11,0,0,1,2.845,2.837Zm-13.269-2.8V2.736A14.738,14.738,0,0,0,17.43,4.3l1.935,3.352A10.89,10.89,0,0,1,23.247,6.607Zm1.71-3.871A14.863,14.863,0,0,1,30.772,4.3L28.836,7.652a10.987,10.987,0,0,0-3.879-1.044V2.736ZM9.276,16.707h3.872a10.9,10.9,0,0,1,1.04-3.882L10.836,10.89a14.746,14.746,0,0,0-1.56,5.817Zm1.556,7.529a14.842,14.842,0,0,1-1.557-5.819h3.873A10.973,10.973,0,0,0,14.186,22.3ZM10.5,26.27a.844.844,0,0,0,.426-.114l4.828-2.786a.855.855,0,0,0,.312-1.169A9.28,9.28,0,0,1,32.14,12.922a.854.854,0,0,0,1.167.312l4.828-2.786a.853.853,0,0,0,.312-1.168A16.563,16.563,0,0,0,9.758,25.844a.851.851,0,0,0,.74.426Z" transform="translate(0 0)" fill-rule="evenodd"/>
    </g>
  </g>
</svg>
