<svg xmlns="http://www.w3.org/2000/svg" xmlns:xlink="http://www.w3.org/1999/xlink" width="113" height="113" viewBox="0 0 113 113">
  <defs>
    <filter id="Trazado_982547" x="0" y="0" width="113" height="113" filterUnits="userSpaceOnUse">
      <feOffset dy="3" input="SourceAlpha"/>
      <feGaussianBlur stdDeviation="3" result="blur"/>
      <feFlood flood-opacity="0.161"/>
      <feComposite operator="in" in2="blur"/>
      <feComposite in="SourceGraphic"/>
    </filter>
  </defs>
  <g id="Grupo_1220315" data-name="Grupo 1220315" transform="translate(-1456 -2432.504)">
    <g id="Grupo_1202512" data-name="Grupo 1202512" transform="translate(664 1495.881)">
      <g id="Grupo_1202357" data-name="Grupo 1202357" transform="translate(-1.49 -525)">
        <g id="Grupo_1177632" data-name="Grupo 1177632" transform="translate(-4493 -458.649)">
          <g id="Grupo_1176928" data-name="Grupo 1176928" transform="translate(5295.49 1926.273)">
            <g id="Grupo_1172322" data-name="Grupo 1172322" transform="translate(0 0)">
              <g id="Grupo_1164700" data-name="Grupo 1164700">
                <g id="Grupo_1160931" data-name="Grupo 1160931">
                  <g id="Grupo_1160749" data-name="Grupo 1160749">
                    <g id="Grupo_1158891" data-name="Grupo 1158891">
                      <g id="Grupo_1157406" data-name="Grupo 1157406">
                        <g id="Grupo_1155793" data-name="Grupo 1155793">
                          <g id="Grupo_1154704" data-name="Grupo 1154704">
                            <g id="Grupo_1150790" data-name="Grupo 1150790">
                              <g id="Grupo_1154214" data-name="Grupo 1154214">
                                <g id="Grupo_1152583" data-name="Grupo 1152583">
                                  <g id="Grupo_1146973" data-name="Grupo 1146973">
                                    <g id="Grupo_1146954" data-name="Grupo 1146954">
                                      <g transform="matrix(1, 0, 0, 1, -9, -6)" filter="url(#Trazado_982547)">
                                        <g id="Trazado_982547-2" data-name="Trazado 982547" transform="translate(9 6)" fill="#eaf4fb">
                                          <path d="M 47.5000114440918 93.49987030029297 C 41.28938293457031 93.49987030029297 35.26534652709961 92.28384399414062 29.5951976776123 89.88558959960938 C 24.11773109436035 87.56881713867188 19.19814491271973 84.25183868408203 14.97310447692871 80.02680206298828 C 10.74805164337158 75.80176544189453 7.43107795715332 70.88218688964844 5.114304542541504 65.40472412109375 C 2.716038227081299 59.73458862304688 1.500011444091797 53.71054840087891 1.500011444091797 47.49993515014648 C 1.500011444091797 41.28932189941406 2.716038227081299 35.26528167724609 5.114304542541504 29.59514808654785 C 7.43107795715332 24.1176815032959 10.74805164337158 19.1981086730957 14.97310447692871 14.97306823730469 C 19.19814491271973 10.74802875518799 24.11773109436035 7.431055068969727 29.5951976776123 5.11428165435791 C 35.26534652709961 2.716028451919556 41.28938293457031 1.500001788139343 47.5000114440918 1.500001788139343 C 53.71063995361328 1.500001788139343 59.73467636108398 2.716028451919556 65.40482330322266 5.11428165435791 C 70.88229370117188 7.431055068969727 75.8018798828125 10.74802875518799 80.02691650390625 14.97306823730469 C 84.25196838378906 19.1981086730957 87.56894683837891 24.1176815032959 89.88571929931641 29.59514808654785 C 92.28398132324219 35.26528167724609 93.50001525878906 41.28932189941406 93.50001525878906 47.49993515014648 C 93.50001525878906 53.71054840087891 92.28398132324219 59.73458862304688 89.88571929931641 65.40472412109375 C 87.56894683837891 70.88218688964844 84.25196838378906 75.80176544189453 80.02691650390625 80.02680206298828 C 75.8018798828125 84.25183868408203 70.88229370117188 87.56881713867188 65.40482330322266 89.88558959960938 C 59.73467636108398 92.28384399414062 53.71063995361328 93.49987030029297 47.5000114440918 93.49987030029297 Z" stroke="none"/>
                                          <path d="M 47.5000114440918 3 C 41.49122619628906 3 35.66378021240234 4.1761474609375 30.17951965332031 6.495796203613281 C 24.880859375 8.7369384765625 20.12153625488281 11.94596862792969 16.03376770019531 16.03373718261719 C 11.94598388671875 20.12149047851562 8.736968994140625 24.88081359863281 6.495811462402344 30.17947387695312 C 4.176162719726562 35.66371917724609 3.000007629394531 41.49116516113281 3.000007629394531 47.49993515014648 C 3.000007629394531 53.50870513916016 4.176162719726562 59.33615112304688 6.495811462402344 64.82039642333984 C 8.736968994140625 70.11905670166016 11.94598388671875 74.87837982177734 16.03376770019531 78.96613311767578 C 20.12153625488281 83.05390167236328 24.880859375 86.26293182373047 30.17951965332031 88.50407409667969 C 35.66378021240234 90.82372283935547 41.49122619628906 91.99987030029297 47.5000114440918 91.99987030029297 C 53.50879669189453 91.99987030029297 59.33624267578125 90.82372283935547 64.82050323486328 88.50407409667969 C 70.11916351318359 86.26293182373047 74.87848663330078 83.05390167236328 78.96625518798828 78.96613311767578 C 83.05403900146484 74.87837982177734 86.2630615234375 70.11905670166016 88.50421142578125 64.82039642333984 C 90.82386016845703 59.33615112304688 92.00001525878906 53.50870513916016 92.00001525878906 47.49993515014648 C 92.00001525878906 41.49116516113281 90.82386016845703 35.66371917724609 88.50421142578125 30.17947387695312 C 86.2630615234375 24.88081359863281 83.05403900146484 20.12149047851562 78.96625518798828 16.03373718261719 C 74.87848663330078 11.94596862792969 70.11916351318359 8.7369384765625 64.82050323486328 6.495796203613281 C 59.33624267578125 4.1761474609375 53.50879669189453 3 47.5000114440918 3 M 47.5000114440918 0 C 73.73353576660156 0 95.00001525878906 21.26644134521484 95.00001525878906 47.49993515014648 C 95.00001525878906 73.73342895507812 73.73353576660156 94.99987030029297 47.5000114440918 94.99987030029297 C 21.26648712158203 94.99987030029297 7.62939453125e-06 73.73342895507812 7.62939453125e-06 47.49993515014648 C 7.62939453125e-06 21.26644134521484 21.26648712158203 0 47.5000114440918 0 Z" stroke="none" fill="#3c97da"/>
                                        </g>
                                      </g>
                                    </g>
                                  </g>
                                </g>
                              </g>
                            </g>
                          </g>
                        </g>
                      </g>
                    </g>
                  </g>
                </g>
              </g>
            </g>
          </g>
        </g>
      </g>
    </g>
    <g id="Laptop_global_world_money_brain" transform="translate(1480.502 2454.008)">
      <path id="Trazado_1044347" data-name="Trazado 1044347" d="M7,19V57H57V19a4,4,0,0,0-4-4H11A4,4,0,0,0,7,19Z" fill="#ff7956"/>
      <path id="Trazado_1044348" data-name="Trazado 1044348" d="M57,19V57H53V19a4,4,0,0,0-4-4h4A4,4,0,0,1,57,19Z" fill="#ff5023"/>
      <path id="Trazado_1044349" data-name="Trazado 1044349" d="M11,19H53V49H11Z" fill="#46f8ff"/>
      <path id="Trazado_1044350" data-name="Trazado 1044350" d="M49,19h4V49H49Z" fill="#00d7df"/>
      <circle id="Elipse_12670" data-name="Elipse 12670" cx="11" cy="11" r="11" transform="translate(3 3)" fill="#ffd422"/>
      <path id="Trazado_1044351" data-name="Trazado 1044351" d="M25,14A11.017,11.017,0,0,1,12,24.82,11,11,0,0,0,12,3.18,11.017,11.017,0,0,1,25,14Z" fill="#ebbf00"/>
      <path id="Trazado_1044352" data-name="Trazado 1044352" d="M61,14H55a21.311,21.311,0,0,0-.77-5.85A10.779,10.779,0,0,0,57.55,6,10.925,10.925,0,0,1,61,14Z" fill="#2488ff"/>
      <path id="Trazado_1044353" data-name="Trazado 1044353" d="M55,14h6a10.925,10.925,0,0,1-3.45,8,10.779,10.779,0,0,0-3.32-2.15A21.311,21.311,0,0,0,55,14Z" fill="#57a4ff"/>
      <path id="Trazado_1044354" data-name="Trazado 1044354" d="M59,53v4a4,4,0,0,1-4,4H9a4,4,0,0,1-4-4V53H17v2a2.006,2.006,0,0,0,2,2H45a2.006,2.006,0,0,0,2-2V53Z" fill="#acabb1"/>
      <path id="Trazado_1044355" data-name="Trazado 1044355" d="M59,53v4a4,4,0,0,1-4,4H50a4,4,0,0,0,4-4V53Z" fill="#787680"/>
      <path id="Trazado_1044356" data-name="Trazado 1044356" d="M57.55,22c-.18.17-.36.33-.55.49a10.87,10.87,0,0,1-4,2.09A10.609,10.609,0,0,1,50,25c1.78,0,3.35-2.05,4.23-5.15A10.779,10.779,0,0,1,57.55,22Z" fill="#2488ff"/>
      <path id="Trazado_1044357" data-name="Trazado 1044357" d="M55,14H45a21.311,21.311,0,0,1,.77-5.85A10.83,10.83,0,0,0,50,9a10.83,10.83,0,0,0,4.23-.85A21.311,21.311,0,0,1,55,14Z" fill="#57a4ff"/>
      <path id="Trazado_1044358" data-name="Trazado 1044358" d="M45,14H55a21.311,21.311,0,0,1-.77,5.85,10.95,10.95,0,0,0-8.46,0A21.311,21.311,0,0,1,45,14Z" fill="#2488ff"/>
      <path id="Trazado_1044359" data-name="Trazado 1044359" d="M57.55,6a10.779,10.779,0,0,1-3.32,2.15C53.35,5.05,51.78,3,50,3a10.967,10.967,0,0,1,7.55,3Z" fill="#57a4ff"/>
      <path id="Trazado_1044360" data-name="Trazado 1044360" d="M50,19a10.83,10.83,0,0,1,4.23.85C53.35,22.95,51.78,25,50,25s-3.35-2.05-4.23-5.15A10.83,10.83,0,0,1,50,19Z" fill="#57a4ff"/>
      <path id="Trazado_1044361" data-name="Trazado 1044361" d="M54.23,8.15A10.83,10.83,0,0,1,50,9a10.83,10.83,0,0,1-4.23-.85C46.65,5.05,48.22,3,50,3S53.35,5.05,54.23,8.15Z" fill="#2488ff"/>
      <path id="Trazado_1044362" data-name="Trazado 1044362" d="M50,3c-1.78,0-3.35,2.05-4.23,5.15A10.779,10.779,0,0,1,42.45,6,10.967,10.967,0,0,1,50,3Z" fill="#57a4ff"/>
      <path id="Trazado_1044363" data-name="Trazado 1044363" d="M45.77,19.85C46.65,22.95,48.22,25,50,25a10.967,10.967,0,0,1-7.55-3,10.779,10.779,0,0,1,3.32-2.15Z" fill="#2488ff"/>
      <path id="Trazado_1044364" data-name="Trazado 1044364" d="M45.77,8.15A21.311,21.311,0,0,0,45,14H39a10.98,10.98,0,0,1,3.45-8,10.779,10.779,0,0,0,3.32,2.15Z" fill="#2488ff"/>
      <path id="Trazado_1044365" data-name="Trazado 1044365" d="M45,14a21.311,21.311,0,0,0,.77,5.85A10.779,10.779,0,0,0,42.45,22a10.882,10.882,0,0,1-2.25-3,10.635,10.635,0,0,1-1.15-4c-.03-.33-.05-.66-.05-1Z" fill="#57a4ff"/>
      <path id="Trazado_1044366" data-name="Trazado 1044366" d="M39.74,30.41a3.981,3.981,0,0,1,0,7.18A3.881,3.881,0,0,1,40,39a4,4,0,0,1-8,0V29a3.657,3.657,0,0,1,.13-1A4,4,0,0,1,40,29a3.881,3.881,0,0,1-.26,1.41Z" fill="#fee9ab"/>
      <path id="Trazado_1044367" data-name="Trazado 1044367" d="M39.74,37.59A3.881,3.881,0,0,1,40,39a3.994,3.994,0,0,1-6,3.46A3.98,3.98,0,0,0,36,39a3.881,3.881,0,0,0-.26-1.41,3.981,3.981,0,0,0,0-7.18A3.881,3.881,0,0,0,36,29a3.977,3.977,0,0,0-2.01-3.46A4,4,0,0,1,40,29a3.881,3.881,0,0,1-.26,1.41,3.981,3.981,0,0,1,0,7.18Z" fill="#ffde55"/>
      <circle id="Elipse_12671" data-name="Elipse 12671" cx="2" cy="2" r="2" transform="translate(30 7)" fill="#ff3051"/>
      <path id="Trazado_1044368" data-name="Trazado 1044368" d="M34,9a2,2,0,0,1-3,1.73,2,2,0,0,0,0-3.46A2,2,0,0,1,34,9Z" fill="#cd2a00"/>
      <path id="Trazado_1044369" data-name="Trazado 1044369" d="M24.26,37.59a3.981,3.981,0,0,1,0-7.18A3.881,3.881,0,0,1,24,29a4,4,0,0,1,7.87-1A3.657,3.657,0,0,1,32,29V39a4,4,0,0,1-8,0,3.881,3.881,0,0,1,.26-1.41Z" fill="#fee9ab"/>
      <path id="Trazado_1044370" data-name="Trazado 1044370" d="M59,52H58V22.92A11.988,11.988,0,1,0,39.62,8h-4.8a2.988,2.988,0,0,0-5.64,0h-4.8A11.989,11.989,0,1,0,6,22.92V52H5a1,1,0,0,0-1,1v4a5,5,0,0,0,5,5H55a5,5,0,0,0,5-5V53a1,1,0,0,0-1-1ZM57.48,20.62a12.91,12.91,0,0,0-2.06-1.33A23.1,23.1,0,0,0,55.98,15h3.97A9.955,9.955,0,0,1,57.48,20.62ZM17,52H8V24.38a12.529,12.529,0,0,0,2,.92V49a1,1,0,0,0,1,1H53a1,1,0,0,0,1-1V25.3a12.529,12.529,0,0,0,2-.92V52H47a1,1,0,0,0-1,1v2a1,1,0,0,1-1,1H19a1,1,0,0,1-1-1V53A1,1,0,0,0,17,52ZM46.02,15h7.96a20.55,20.55,0,0,1-.46,3.53,11.954,11.954,0,0,0-7.04,0A20.551,20.551,0,0,1,46.02,15Zm.04,8.19a9.935,9.935,0,0,1-2.04-1.2,10.491,10.491,0,0,1,1.14-.73,13.317,13.317,0,0,0,.9,1.93Zm8.78-1.93a10.491,10.491,0,0,1,1.14.73,9.935,9.935,0,0,1-2.04,1.2,13.317,13.317,0,0,0,.9-1.93ZM50,20a9.973,9.973,0,0,1,2.98.46C52.19,22.65,51.06,24,50,24s-2.19-1.35-2.98-3.54A9.973,9.973,0,0,1,50,20Zm9.95-7H55.98a23.1,23.1,0,0,0-.56-4.29,12.91,12.91,0,0,0,2.06-1.33A9.955,9.955,0,0,1,59.95,13ZM55.98,6.01a10.491,10.491,0,0,1-1.14.73,13.316,13.316,0,0,0-.9-1.93,9.935,9.935,0,0,1,2.04,1.2ZM50,4c1.06,0,2.19,1.35,2.98,3.54A9.973,9.973,0,0,1,50,8a9.973,9.973,0,0,1-2.98-.46C47.81,5.35,48.94,4,50,4Zm0,6a12.2,12.2,0,0,0,3.52-.53A20.55,20.55,0,0,1,53.98,13H46.02a20.55,20.55,0,0,1,.46-3.53A12.2,12.2,0,0,0,50,10ZM46.06,4.81a13.317,13.317,0,0,0-.9,1.93,10.491,10.491,0,0,1-1.14-.73,9.935,9.935,0,0,1,2.04-1.2ZM42.52,7.38a12.91,12.91,0,0,0,2.06,1.33A23.1,23.1,0,0,0,44.02,13H40.05a9.955,9.955,0,0,1,2.47-5.62ZM44.02,15a23.1,23.1,0,0,0,.56,4.29,12.91,12.91,0,0,0-2.06,1.33A9.955,9.955,0,0,1,40.05,15Zm-9.2-5H38.7a11.8,11.8,0,0,0-.7,4H33V11.82A3.035,3.035,0,0,0,34.82,10Zm3.88,8H33V16h5.18a11.98,11.98,0,0,0,.52,2ZM32,8a1,1,0,1,1-1,1A1,1,0,0,1,32,8Zm4.5,23.41a2.926,2.926,0,0,1,2.81-.1,2.992,2.992,0,1,1-2.81,5.28l-1,1.74A5.037,5.037,0,0,0,38,39a5.359,5.359,0,0,0,.99-.1c0,.03.01.06.01.1a3,3,0,1,1-6,0V29a2.614,2.614,0,0,1,.1-.75A3,3,0,0,1,39,29c0,.04-.01.07-.01.11a5.039,5.039,0,0,0-3.49.56ZM29.18,10A3.035,3.035,0,0,0,31,11.82V14H26a11.8,11.8,0,0,0-.7-4Zm-3.36,6H31v2H25.3A11.979,11.979,0,0,0,25.82,16ZM31,20v5a5,5,0,0,0-8,4,4.318,4.318,0,0,0,.1.95,4.962,4.962,0,0,0-.01,8.1A4.988,4.988,0,0,0,32,41.97,4.985,4.985,0,0,0,41,39a4.318,4.318,0,0,0-.1-.95,4.962,4.962,0,0,0,.01-8.1A5,5,0,0,0,33,25V20h6.62A11.874,11.874,0,0,0,52,25.82V48H12V25.82A11.874,11.874,0,0,0,24.38,20ZM27.5,36.59a2.926,2.926,0,0,1-2.81.1,2.986,2.986,0,0,1,.02-5.39,2.946,2.946,0,0,1,2.79.11l1-1.74a5.1,5.1,0,0,0-3.49-.56c0-.04-.01-.07-.01-.11a3,3,0,0,1,5.91-.73A2.753,2.753,0,0,1,31,29V39a3,3,0,1,1-6,0c0-.04.01-.07.01-.1A5.359,5.359,0,0,0,26,39a5.037,5.037,0,0,0,2.5-.67ZM4,14A10,10,0,1,1,14,24,10,10,0,0,1,4,14ZM58,57a3.009,3.009,0,0,1-3,3H9a3.009,3.009,0,0,1-3-3V54H16v1a3.009,3.009,0,0,0,3,3H45a3.009,3.009,0,0,0,3-3V54H58Z"/>
      <path id="Trazado_1044371" data-name="Trazado 1044371" d="M27,52H37v2H27Z"/>
      <path id="Trazado_1044372" data-name="Trazado 1044372" d="M8,56h2v2H8Z"/>
      <path id="Trazado_1044373" data-name="Trazado 1044373" d="M12,56h2v2H12Z"/>
      <path id="Trazado_1044374" data-name="Trazado 1044374" d="M50,56h2v2H50Z"/>
      <path id="Trazado_1044375" data-name="Trazado 1044375" d="M54,56h2v2H54Z"/>
      <path id="Trazado_1044376" data-name="Trazado 1044376" d="M18,17a4,4,0,0,1-3,3.86V22H13V20.86A4,4,0,0,1,10,17h2a2,2,0,1,0,2-2,3.993,3.993,0,0,1-1-7.86V6h2V7.14A4,4,0,0,1,18,11H16a2,2,0,1,0-2,2A4,4,0,0,1,18,17Z"/>
      <path id="Trazado_1044377" data-name="Trazado 1044377" d="M23,2h2V4H23Z"/>
      <path id="Trazado_1044378" data-name="Trazado 1044378" d="M27,2h2V4H27Z"/>
      <path id="Trazado_1044379" data-name="Trazado 1044379" d="M31,2h2V4H31Z"/>
      <path id="Trazado_1044380" data-name="Trazado 1044380" d="M35,2h2V4H35Z"/>
      <path id="Trazado_1044381" data-name="Trazado 1044381" d="M39,2h2V4H39Z"/>
    </g>
  </g>
</svg>
