<svg xmlns="http://www.w3.org/2000/svg" xmlns:xlink="http://www.w3.org/1999/xlink" width="113" height="113" viewBox="0 0 113 113">
  <defs>
    <filter id="Trazado_982547" x="0" y="0" width="113" height="113" filterUnits="userSpaceOnUse">
      <feOffset dy="3" input="SourceAlpha"/>
      <feGaussianBlur stdDeviation="3" result="blur"/>
      <feFlood flood-opacity="0.161"/>
      <feComposite operator="in" in2="blur"/>
      <feComposite in="SourceGraphic"/>
    </filter>
  </defs>
  <g id="Grupo_1220317" data-name="Grupo 1220317" transform="translate(-272 -3822.334)">
    <g id="Grupo_1202672" data-name="Grupo 1202672" transform="translate(0 1137.428)">
      <g id="Grupo_1178487" data-name="Grupo 1178487" transform="translate(281 2690.906)">
        <g id="Grupo_1172010" data-name="Grupo 1172010" transform="translate(0)">
          <g id="Grupo_1171046" data-name="Grupo 1171046">
            <g id="Grupo_1148525" data-name="Grupo 1148525">
              <g transform="matrix(1, 0, 0, 1, -9, -6)" filter="url(#Trazado_982547)">
                <g id="Trazado_982547-2" data-name="Trazado 982547" transform="translate(9 6)" fill="#fef4ec">
                  <path d="M 47.5 93.5 C 41.28937149047852 93.5 35.26533508300781 92.28397369384766 29.59518623352051 89.88570404052734 C 24.11771965026855 87.56893157958984 19.19813346862793 84.25196075439453 14.97309303283691 80.02691650390625 C 10.74804019927979 75.80186462402344 7.431066513061523 70.88229370117188 5.114293098449707 65.40481567382812 C 2.716026782989502 59.73468017578125 1.5 53.71062850952148 1.5 47.5 C 1.5 41.28937149047852 2.716026782989502 35.26533508300781 5.114293098449707 29.59518623352051 C 7.431066513061523 24.11771965026855 10.74804019927979 19.19813346862793 14.97309303283691 14.97309303283691 C 19.19813346862793 10.74804019927979 24.11771965026855 7.431066513061523 29.59518623352051 5.114293098449707 C 35.26533508300781 2.716026782989502 41.28937149047852 1.5 47.5 1.5 C 53.71062850952148 1.5 59.73468017578125 2.716026782989502 65.40481567382812 5.114293098449707 C 70.88229370117188 7.431066513061523 75.80186462402344 10.74804019927979 80.02691650390625 14.97309303283691 C 84.25196075439453 19.19813346862793 87.56893157958984 24.11771965026855 89.88570404052734 29.59518623352051 C 92.28397369384766 35.26533508300781 93.5 41.28937149047852 93.5 47.5 C 93.5 53.71062850952148 92.28397369384766 59.73468017578125 89.88570404052734 65.40481567382812 C 87.56893157958984 70.88229370117188 84.25196075439453 75.80186462402344 80.02691650390625 80.02691650390625 C 75.80186462402344 84.25196075439453 70.88229370117188 87.56893157958984 65.40481567382812 89.88570404052734 C 59.73468017578125 92.28397369384766 53.71062850952148 93.5 47.5 93.5 Z" stroke="none"/>
                  <path d="M 47.5 3 C 41.49121475219727 3 35.66376876831055 4.176155090332031 30.17950439453125 6.495796203613281 C 24.88084411621094 8.736953735351562 20.12152099609375 11.94598388671875 16.03375244140625 16.03375244140625 C 11.94598388671875 20.12152099609375 8.736953735351562 24.88084411621094 6.495796203613281 30.17950439453125 C 4.176155090332031 35.66376876831055 3 41.49121475219727 3 47.5 C 3 53.50878524780273 4.176155090332031 59.33623123168945 6.495796203613281 64.82049560546875 C 8.736953735351562 70.11915588378906 11.94598388671875 74.87847900390625 16.03375244140625 78.96624755859375 C 20.12152099609375 83.05401611328125 24.88084411621094 86.26304626464844 30.17950439453125 88.50419616699219 C 35.66376876831055 90.82384490966797 41.49121475219727 92 47.5 92 C 53.50878524780273 92 59.33623123168945 90.82384490966797 64.82049560546875 88.50419616699219 C 70.11915588378906 86.26304626464844 74.87847900390625 83.05401611328125 78.96624755859375 78.96624755859375 C 83.05401611328125 74.87847900390625 86.26304626464844 70.11915588378906 88.50419616699219 64.82049560546875 C 90.82384490966797 59.33623123168945 92 53.50878524780273 92 47.5 C 92 41.49121475219727 90.82384490966797 35.66376876831055 88.50419616699219 30.17950439453125 C 86.26304626464844 24.88084411621094 83.05401611328125 20.12152099609375 78.96624755859375 16.03375244140625 C 74.87847900390625 11.94598388671875 70.11915588378906 8.736953735351562 64.82049560546875 6.495796203613281 C 59.33623123168945 4.176155090332031 53.50878524780273 3 47.5 3 M 47.5 0 C 73.7335205078125 0 95 21.2664794921875 95 47.5 C 95 73.7335205078125 73.7335205078125 95 47.5 95 C 21.2664794921875 95 0 73.7335205078125 0 47.5 C 0 21.2664794921875 21.2664794921875 0 47.5 0 Z" stroke="none" fill="#fe9d52"/>
                </g>
              </g>
            </g>
          </g>
        </g>
      </g>
    </g>
    <g id="arrow-message-element-infographic-diagram" transform="translate(296.5 3843.834)">
      <path id="Trazado_1044382" data-name="Trazado 1044382" d="M29,47H21.065L17.02,43l-3.967,4H5a2,2,0,0,0-2,2V59a2,2,0,0,0,2,2H29a2,2,0,0,0,2-2V49A2,2,0,0,0,29,47Z" fill="#ffcd00"/>
      <path id="Trazado_1044383" data-name="Trazado 1044383" d="M19.065,47h2L17.02,43l-.99,1Z" fill="#ebbf00"/>
      <path id="Trazado_1044384" data-name="Trazado 1044384" d="M29,47H27a2,2,0,0,1,2,2V59a2,2,0,0,1-2,2h2a2,2,0,0,0,2-2V49A2,2,0,0,0,29,47Z" fill="#ebbf00"/>
      <path id="Trazado_1044385" data-name="Trazado 1044385" d="M59,3H35a2,2,0,0,0-2,2V15a2,2,0,0,0,2,2h7.935l4.045,4,3.967-4H59a2,2,0,0,0,2-2V5a2,2,0,0,0-2-2Z" fill="#ed1c24"/>
      <path id="Trazado_1044386" data-name="Trazado 1044386" d="M45.97,20l1.01,1,3.967-4h-2Z" fill="#d80027"/>
      <path id="Trazado_1044387" data-name="Trazado 1044387" d="M59,3H57a2,2,0,0,1,2,2V15a2,2,0,0,1-2,2h2a2,2,0,0,0,2-2V5A2,2,0,0,0,59,3Z" fill="#d80027"/>
      <path id="Trazado_1044388" data-name="Trazado 1044388" d="M56,47V33a8,8,0,0,0-8-8H24V17h5L15.9,3,3,17H8V31a8,8,0,0,0,8,8H40v8H35L48.1,61,61,47Z" fill="#7ed63e"/>
      <path id="Trazado_1044389" data-name="Trazado 1044389" d="M18,32a2,2,0,0,1-2-2V3.107L15.9,3,3,17H8V31a8,8,0,0,0,8,8H40v8H35L48,60.893V34a2,2,0,0,0-2-2Z" fill="#5eac24"/>
      <g id="Grupo_1220316" data-name="Grupo 1220316">
        <path id="Trazado_1044390" data-name="Trazado 1044390" d="M29,46H21.477l-3.754-3.711a1,1,0,0,0-1.413.007L12.636,46H5a3,3,0,0,0-3,3V59a3,3,0,0,0,3,3H29a3,3,0,0,0,3-3V49A3,3,0,0,0,29,46Zm1,13a1,1,0,0,1-1,1H5a1,1,0,0,1-1-1V49a1,1,0,0,1,1-1h8.053a1,1,0,0,0,.71-.3l3.264-3.291,3.335,3.3a1,1,0,0,0,.7.289H29a1,1,0,0,1,1,1Z" fill="#231f20"/>
        <path id="Trazado_1044391" data-name="Trazado 1044391" d="M25,51H9a1,1,0,0,0,0,2H25a1,1,0,0,0,0-2Z" fill="#231f20"/>
        <path id="Trazado_1044392" data-name="Trazado 1044392" d="M25,55H9a1,1,0,0,0,0,2H25a1,1,0,0,0,0-2Z" fill="#231f20"/>
        <path id="Trazado_1044393" data-name="Trazado 1044393" d="M59,2H35a3,3,0,0,0-3,3V15a3,3,0,0,0,3,3h7.523l3.754,3.711A1,1,0,0,0,47.69,21.7L51.364,18H59a3,3,0,0,0,3-3V5a3,3,0,0,0-3-3Zm1,13a1,1,0,0,1-1,1H50.947a1,1,0,0,0-.71.3l-3.264,3.291-3.335-3.3a1,1,0,0,0-.7-.289H35a1,1,0,0,1-1-1V5a1,1,0,0,1,1-1H59a1,1,0,0,1,1,1Z" fill="#231f20"/>
        <path id="Trazado_1044394" data-name="Trazado 1044394" d="M55,11H39a1,1,0,0,0,0,2H55a1,1,0,0,0,0-2Z" fill="#231f20"/>
        <path id="Trazado_1044395" data-name="Trazado 1044395" d="M55,7H39a1,1,0,0,0,0,2H55a1,1,0,0,0,0-2Z" fill="#231f20"/>
        <path id="Trazado_1044396" data-name="Trazado 1044396" d="M61.92,46.6A1,1,0,0,0,61,46H57V33a9.014,9.014,0,0,0-9-9H25V18h4a1.011,1.011,0,0,0,.92-.6,1,1,0,0,0-.19-1.08l-13.1-14A.94.94,0,0,0,15.9,2a1.029,1.029,0,0,0-.74.32l-12.9,14a1.018,1.018,0,0,0-.18,1.08A1,1,0,0,0,3,18H7V31a9.014,9.014,0,0,0,9,9H39v6H35a1.011,1.011,0,0,0-.92.6,1,1,0,0,0,.19,1.08l13.1,14a.97.97,0,0,0,.73.32,1.181,1.181,0,0,0,.74-.32l12.9-14a1.018,1.018,0,0,0,.18-1.08ZM48.09,59.53,37.31,48H40a1,1,0,0,0,1-1V33a1,1,0,0,0-2,0v5H16a7.008,7.008,0,0,1-7-7V17a1,1,0,0,0-1-1H5.28L15.91,4.47,26.69,16H24a1,1,0,0,0-1,1V31a1,1,0,0,0,2,0V26H48a7.008,7.008,0,0,1,7,7V47a1,1,0,0,0,1,1h2.72Z" fill="#231f20"/>
      </g>
    </g>
  </g>
</svg>
