<svg xmlns="http://www.w3.org/2000/svg" xmlns:xlink="http://www.w3.org/1999/xlink" width="113" height="113" viewBox="0 0 113 113">
  <defs>
    <filter id="Trazado_982547" x="0" y="0" width="113" height="113" filterUnits="userSpaceOnUse">
      <feOffset dy="3" input="SourceAlpha"/>
      <feGaussianBlur stdDeviation="3" result="blur"/>
      <feFlood flood-opacity="0.161"/>
      <feComposite operator="in" in2="blur"/>
      <feComposite in="SourceGraphic"/>
    </filter>
  </defs>
  <g id="Grupo_1220333" data-name="Grupo 1220333" transform="translate(-586.56 -3822.334)">
    <g id="Grupo_1202673" data-name="Grupo 1202673" transform="translate(314.56 1137.428)">
      <g id="Grupo_1178487" data-name="Grupo 1178487" transform="translate(281 2690.906)">
        <g id="Grupo_1172010" data-name="Grupo 1172010" transform="translate(0)">
          <g id="Grupo_1171046" data-name="Grupo 1171046">
            <g id="Grupo_1148525" data-name="Grupo 1148525">
              <g transform="matrix(1, 0, 0, 1, -9, -6)" filter="url(#Trazado_982547)">
                <g id="Trazado_982547-2" data-name="Trazado 982547" transform="translate(9 6)" fill="#fef4ec">
                  <path d="M 47.5 93.5 C 41.28937149047852 93.5 35.26533508300781 92.28397369384766 29.59518623352051 89.88570404052734 C 24.11771965026855 87.56893157958984 19.19813346862793 84.25196075439453 14.97309303283691 80.02691650390625 C 10.74804019927979 75.80186462402344 7.431066513061523 70.88229370117188 5.114293098449707 65.40481567382812 C 2.716026782989502 59.73468017578125 1.5 53.71062850952148 1.5 47.5 C 1.5 41.28937149047852 2.716026782989502 35.26533508300781 5.114293098449707 29.59518623352051 C 7.431066513061523 24.11771965026855 10.74804019927979 19.19813346862793 14.97309303283691 14.97309303283691 C 19.19813346862793 10.74804019927979 24.11771965026855 7.431066513061523 29.59518623352051 5.114293098449707 C 35.26533508300781 2.716026782989502 41.28937149047852 1.5 47.5 1.5 C 53.71062850952148 1.5 59.73468017578125 2.716026782989502 65.40481567382812 5.114293098449707 C 70.88229370117188 7.431066513061523 75.80186462402344 10.74804019927979 80.02691650390625 14.97309303283691 C 84.25196075439453 19.19813346862793 87.56893157958984 24.11771965026855 89.88570404052734 29.59518623352051 C 92.28397369384766 35.26533508300781 93.5 41.28937149047852 93.5 47.5 C 93.5 53.71062850952148 92.28397369384766 59.73468017578125 89.88570404052734 65.40481567382812 C 87.56893157958984 70.88229370117188 84.25196075439453 75.80186462402344 80.02691650390625 80.02691650390625 C 75.80186462402344 84.25196075439453 70.88229370117188 87.56893157958984 65.40481567382812 89.88570404052734 C 59.73468017578125 92.28397369384766 53.71062850952148 93.5 47.5 93.5 Z" stroke="none"/>
                  <path d="M 47.5 3 C 41.49121475219727 3 35.66376876831055 4.176155090332031 30.17950439453125 6.495796203613281 C 24.88084411621094 8.736953735351562 20.12152099609375 11.94598388671875 16.03375244140625 16.03375244140625 C 11.94598388671875 20.12152099609375 8.736953735351562 24.88084411621094 6.495796203613281 30.17950439453125 C 4.176155090332031 35.66376876831055 3 41.49121475219727 3 47.5 C 3 53.50878524780273 4.176155090332031 59.33623123168945 6.495796203613281 64.82049560546875 C 8.736953735351562 70.11915588378906 11.94598388671875 74.87847900390625 16.03375244140625 78.96624755859375 C 20.12152099609375 83.05401611328125 24.88084411621094 86.26304626464844 30.17950439453125 88.50419616699219 C 35.66376876831055 90.82384490966797 41.49121475219727 92 47.5 92 C 53.50878524780273 92 59.33623123168945 90.82384490966797 64.82049560546875 88.50419616699219 C 70.11915588378906 86.26304626464844 74.87847900390625 83.05401611328125 78.96624755859375 78.96624755859375 C 83.05401611328125 74.87847900390625 86.26304626464844 70.11915588378906 88.50419616699219 64.82049560546875 C 90.82384490966797 59.33623123168945 92 53.50878524780273 92 47.5 C 92 41.49121475219727 90.82384490966797 35.66376876831055 88.50419616699219 30.17950439453125 C 86.26304626464844 24.88084411621094 83.05401611328125 20.12152099609375 78.96624755859375 16.03375244140625 C 74.87847900390625 11.94598388671875 70.11915588378906 8.736953735351562 64.82049560546875 6.495796203613281 C 59.33623123168945 4.176155090332031 53.50878524780273 3 47.5 3 M 47.5 0 C 73.7335205078125 0 95 21.2664794921875 95 47.5 C 95 73.7335205078125 73.7335205078125 95 47.5 95 C 21.2664794921875 95 0 73.7335205078125 0 47.5 C 0 21.2664794921875 21.2664794921875 0 47.5 0 Z" stroke="none" fill="#fe9d52"/>
                </g>
              </g>
            </g>
          </g>
        </g>
      </g>
    </g>
    <g id="asset_3881991_1_" data-name="asset_3881991 (1)" transform="translate(612.115 3844.834)">
      <g id="Grupo_1220331" data-name="Grupo 1220331">
        <g id="Grupo_1220318" data-name="Grupo 1220318">
          <path id="Trazado_1044397" data-name="Trazado 1044397" d="M45.723,49.18V60a1,1,0,0,0,1,1h-4.39a11.943,11.943,0,0,1-6.61-2V48a10.3,10.3,0,0,1,8.83-5h8.17a1,1,0,0,1,1,1,2.993,2.993,0,0,1-.88,2.12,2.838,2.838,0,0,1-1.12.7,2.772,2.772,0,0,1-1,.18h-3A5.329,5.329,0,0,1,45.723,49.18Z" fill="#f5e0cd"/>
        </g>
        <g id="Grupo_1220319" data-name="Grupo 1220319">
          <path id="Trazado_1044398" data-name="Trazado 1044398" d="M51.723,53v7a1,1,0,0,1-1,1h-4a1,1,0,0,1-1-1V49.18a5.329,5.329,0,0,0,2-2.18h3a2.772,2.772,0,0,0,1-.18V53Z" fill="#b27946"/>
        </g>
        <g id="Grupo_1220320" data-name="Grupo 1220320">
          <path id="Trazado_1044399" data-name="Trazado 1044399" d="M55.723,52v2a1,1,0,0,1-1,1h-1a2.006,2.006,0,0,1-2-2,2.015,2.015,0,0,1,2-2h1A1,1,0,0,1,55.723,52Z" fill="#f5e0cd"/>
        </g>
        <g id="Grupo_1220321" data-name="Grupo 1220321">
          <path id="Trazado_1044400" data-name="Trazado 1044400" d="M54.723,55a1,1,0,0,1,1,1v2a1,1,0,0,1-1,1h-1a2.006,2.006,0,0,1-2-2,2.015,2.015,0,0,1,2-2Z" fill="#f5e0cd"/>
        </g>
        <g id="Grupo_1220322" data-name="Grupo 1220322">
          <path id="Trazado_1044401" data-name="Trazado 1044401" d="M57.723,47a2.006,2.006,0,0,1,2,2,2.015,2.015,0,0,1-2,2h-6V47Z" fill="#f5e0cd"/>
        </g>
        <g id="Grupo_1220323" data-name="Grupo 1220323">
          <path id="Trazado_1044402" data-name="Trazado 1044402" d="M33.723,29a13.867,13.867,0,0,0,.58,4h-.58V31.95a2.164,2.164,0,0,0-1.35-2.01l-.03-.01a2.156,2.156,0,0,0-2.36.47l-.75.74-1.82-1.82-3.83-3.83.75-.76a2.16,2.16,0,0,0,.47-2.34l-.02-.05a2.157,2.157,0,0,0-2-1.34h-1.06V13h1.05a2.164,2.164,0,0,0,2.01-1.35l.01-.03a2.156,2.156,0,0,0-.47-2.36l-.74-.75,5.65-5.65.76.75a2.137,2.137,0,0,0,2.35.46.037.037,0,0,0,.03-.01,2.151,2.151,0,0,0,1.35-2V1h8V2.05a2.164,2.164,0,0,0,1.35,2.01l.03.01a2.156,2.156,0,0,0,2.36-.47l.75-.74,5.65,5.65-.75.76a2.16,2.16,0,0,0-.47,2.34l.02.05a2.157,2.157,0,0,0,2,1.34h1.06v3.35a13.888,13.888,0,0,0-6-1.35,1.34,1.34,0,0,0-.2.01v-.03a10,10,0,1,0-13.54,11.3,14.335,14.335,0,0,0-.26,2.72Z" fill="#ed5565"/>
        </g>
        <g id="Grupo_1220324" data-name="Grupo 1220324">
          <path id="Trazado_1044403" data-name="Trazado 1044403" d="M47.523,14.98v.03a13.611,13.611,0,0,0-3.96.62,6,6,0,1,0-8.24,6.87,13.936,13.936,0,0,0-1.34,3.78,10,10,0,1,1,13.54-11.3Z" fill="#ef7385"/>
        </g>
        <g id="Grupo_1220325" data-name="Grupo 1220325">
          <path id="Trazado_1044404" data-name="Trazado 1044404" d="M53.723,16.35a14.007,14.007,0,1,1-20,12.65,14.335,14.335,0,0,1,.26-2.72,14.045,14.045,0,0,1,9.58-10.65,13.611,13.611,0,0,1,3.96-.62,1.34,1.34,0,0,1,.2-.01,13.888,13.888,0,0,1,6,1.35Zm4,12.65a10,10,0,1,0-10,10A10,10,0,0,0,57.723,29Z" fill="#fcd770"/>
        </g>
        <g id="Grupo_1220326" data-name="Grupo 1220326">
          <circle id="Elipse_12672" data-name="Elipse 12672" cx="10" cy="10" r="10" transform="translate(37.723 19)" fill="#ffeaa7"/>
        </g>
        <g id="Grupo_1220327" data-name="Grupo 1220327">
          <path id="Trazado_1044405" data-name="Trazado 1044405" d="M34.723,47h-32V61h32a1,1,0,0,0,1-1V48A1,1,0,0,0,34.723,47Z" fill="#656d78"/>
        </g>
        <g id="Grupo_1220328" data-name="Grupo 1220328">
          <path id="Trazado_1044406" data-name="Trazado 1044406" d="M1.723,17h2V44h4V17h2l-4-7Z" fill="#b4dd7f"/>
        </g>
        <g id="Grupo_1220329" data-name="Grupo 1220329">
          <path id="Trazado_1044407" data-name="Trazado 1044407" d="M11.723,31h2V44h4V31h2l-4-6Z" fill="#b4dd7f"/>
        </g>
        <g id="Grupo_1220330" data-name="Grupo 1220330">
          <path id="Trazado_1044408" data-name="Trazado 1044408" d="M25.723,31l-4,6h2v7h4V37h2Z" fill="#b4dd7f"/>
        </g>
      </g>
      <g id="Grupo_1220332" data-name="Grupo 1220332">
        <path id="Trazado_1044409" data-name="Trazado 1044409" d="M48.723,36V34h2V31a3,3,0,0,0-3-3,1,1,0,0,1-1-1V26h1a1,1,0,0,1,1,1v1h2V27a3,3,0,0,0-2-2.816V22h-2v2h-2v3a3,3,0,0,0,3,3,1,1,0,0,1,1,1v1h-1a1,1,0,0,1-1-1V30h-2v1a3,3,0,0,0,2,2.816V36Z"/>
        <path id="Trazado_1044410" data-name="Trazado 1044410" d="M58.723,29a11,11,0,1,0-11,11A11.013,11.013,0,0,0,58.723,29Zm-20,0a9,9,0,1,1,9,9A9.011,9.011,0,0,1,38.723,29Z"/>
        <path id="Trazado_1044411" data-name="Trazado 1044411" d="M57.723,46H54.167a3.949,3.949,0,0,0,.556-2,1.991,1.991,0,0,0-.622-1.443,14.976,14.976,0,0,0,.622-26.813V12H52.661a1.175,1.175,0,0,1-1.092-.768,1.157,1.157,0,0,1,.252-1.26l1.458-1.458L46.208,1.443,44.759,2.892a1.2,1.2,0,0,1-2.036-.843V0h-10V2.062a1.174,1.174,0,0,1-.758,1.088,1.167,1.167,0,0,1-1.27-.248L29.237,1.444,22.166,8.515l1.449,1.449A1.2,1.2,0,0,1,22.772,12H20.723V22h2.062a1.175,1.175,0,0,1,1.092.768,1.157,1.157,0,0,1-.252,1.26l-1.458,1.458,7.071,7.071,1.449-1.449a1.2,1.2,0,0,1,2.036.843V34H33.6a15.06,15.06,0,0,0,7.663,8.516,11.383,11.383,0,0,0-5.552,3.755A1.967,1.967,0,0,0,34.723,46h-32v2h32V60h-32v2h32A2,2,0,0,0,36.6,60.655,12.855,12.855,0,0,0,42.329,62h8.4a2,2,0,0,0,2-2v-.184a2.966,2.966,0,0,0,1,.184h1a2,2,0,0,0,2-2V56a1.978,1.978,0,0,0-.278-1,1.978,1.978,0,0,0,.278-1V52h1a3,3,0,1,0,0-6ZM29.273,29.693l-.035.035-4.243-4.243.044-.043A3.2,3.2,0,0,0,22.785,20h-.062V14h.049a3.2,3.2,0,0,0,2.259-5.45L25,8.515l4.243-4.243.043.044a3.2,3.2,0,0,0,5.442-2.255V2h6v.049a3.2,3.2,0,0,0,5.45,2.259l.035-.035,4.243,4.243-.043.043A3.2,3.2,0,0,0,52.662,14h.062v.875a14.879,14.879,0,0,0-4.413-.845A11,11,0,1,0,32.89,26.883,14.94,14.94,0,0,0,32.723,29a3.168,3.168,0,0,0-3.45.693Zm5.687-8.534a5,5,0,1,1,7.358-6.135A15.064,15.064,0,0,0,34.96,21.159Zm9.263-6.73a7,7,0,1,0-10.209,8.509,14.816,14.816,0,0,0-.692,1.9A8.994,8.994,0,1,1,46.228,14.076a14.924,14.924,0,0,0-2.005.353ZM34.723,29a13,13,0,1,1,13,13A13.015,13.015,0,0,1,34.723,29Zm7.606,31a10.861,10.861,0,0,1-5.6-1.558V48.309A9.337,9.337,0,0,1,44.554,44h8.169a2,2,0,0,1-2,2H47.1l-.276.553a4.368,4.368,0,0,1-2.543,2.206l-.879.293.633,1.9.684-.228V60Zm8.394,0h-4V49.7A6.3,6.3,0,0,0,48.306,48h2.417Zm3-2a1,1,0,1,1,0-2h1v2Zm1-4h-1a1,1,0,0,1,0-2h1Zm3-4h-5V48h5a1,1,0,0,1,0,2Z"/>
        <path id="Trazado_1044412" data-name="Trazado 1044412" d="M2.723,44h2V16H3.446l2.277-3.984L8,16H6.723V44h2V18h2.723L5.723,7.984,0,18H2.723Z"/>
        <path id="Trazado_1044413" data-name="Trazado 1044413" d="M9.854,32h2.869V44h2V30H13.592l2.131-3.2L17.854,30H16.723V44h2V32h2.869l-5.869-8.8Z"/>
        <path id="Trazado_1044414" data-name="Trazado 1044414" d="M26.723,44h2V38h2.869l-5.869-8.8L19.854,38h2.869v6h2V36H23.592l2.131-3.2L27.854,36H26.723Z"/>
      </g>
    </g>
  </g>
</svg>
