<svg xmlns="http://www.w3.org/2000/svg" xmlns:xlink="http://www.w3.org/1999/xlink" width="113" height="113" viewBox="0 0 113 113">
  <defs>
    <filter id="Trazado_982547" x="0" y="0" width="113" height="113" filterUnits="userSpaceOnUse">
      <feOffset dy="3" input="SourceAlpha"/>
      <feGaussianBlur stdDeviation="3" result="blur"/>
      <feFlood flood-opacity="0.161"/>
      <feComposite operator="in" in2="blur"/>
      <feComposite in="SourceGraphic"/>
    </filter>
  </defs>
  <g id="Grupo_1220335" data-name="Grupo 1220335" transform="translate(-1216.561 -3822.334)">
    <g id="Grupo_1202675" data-name="Grupo 1202675" transform="translate(944.561 1137.428)">
      <g id="Grupo_1178487" data-name="Grupo 1178487" transform="translate(281 2690.906)">
        <g id="Grupo_1172010" data-name="Grupo 1172010" transform="translate(0)">
          <g id="Grupo_1171046" data-name="Grupo 1171046">
            <g id="Grupo_1148525" data-name="Grupo 1148525">
              <g transform="matrix(1, 0, 0, 1, -9, -6)" filter="url(#Trazado_982547)">
                <g id="Trazado_982547-2" data-name="Trazado 982547" transform="translate(9 6)" fill="#fef4ec">
                  <path d="M 47.5 93.5 C 41.28937149047852 93.5 35.26533508300781 92.28397369384766 29.59518623352051 89.88570404052734 C 24.11771965026855 87.56893157958984 19.19813346862793 84.25196075439453 14.97309303283691 80.02691650390625 C 10.74804019927979 75.80186462402344 7.431066513061523 70.88229370117188 5.114293098449707 65.40481567382812 C 2.716026782989502 59.73468017578125 1.5 53.71062850952148 1.5 47.5 C 1.5 41.28937149047852 2.716026782989502 35.26533508300781 5.114293098449707 29.59518623352051 C 7.431066513061523 24.11771965026855 10.74804019927979 19.19813346862793 14.97309303283691 14.97309303283691 C 19.19813346862793 10.74804019927979 24.11771965026855 7.431066513061523 29.59518623352051 5.114293098449707 C 35.26533508300781 2.716026782989502 41.28937149047852 1.5 47.5 1.5 C 53.71062850952148 1.5 59.73468017578125 2.716026782989502 65.40481567382812 5.114293098449707 C 70.88229370117188 7.431066513061523 75.80186462402344 10.74804019927979 80.02691650390625 14.97309303283691 C 84.25196075439453 19.19813346862793 87.56893157958984 24.11771965026855 89.88570404052734 29.59518623352051 C 92.28397369384766 35.26533508300781 93.5 41.28937149047852 93.5 47.5 C 93.5 53.71062850952148 92.28397369384766 59.73468017578125 89.88570404052734 65.40481567382812 C 87.56893157958984 70.88229370117188 84.25196075439453 75.80186462402344 80.02691650390625 80.02691650390625 C 75.80186462402344 84.25196075439453 70.88229370117188 87.56893157958984 65.40481567382812 89.88570404052734 C 59.73468017578125 92.28397369384766 53.71062850952148 93.5 47.5 93.5 Z" stroke="none"/>
                  <path d="M 47.5 3 C 41.49121475219727 3 35.66376876831055 4.176155090332031 30.17950439453125 6.495796203613281 C 24.88084411621094 8.736953735351562 20.12152099609375 11.94598388671875 16.03375244140625 16.03375244140625 C 11.94598388671875 20.12152099609375 8.736953735351562 24.88084411621094 6.495796203613281 30.17950439453125 C 4.176155090332031 35.66376876831055 3 41.49121475219727 3 47.5 C 3 53.50878524780273 4.176155090332031 59.33623123168945 6.495796203613281 64.82049560546875 C 8.736953735351562 70.11915588378906 11.94598388671875 74.87847900390625 16.03375244140625 78.96624755859375 C 20.12152099609375 83.05401611328125 24.88084411621094 86.26304626464844 30.17950439453125 88.50419616699219 C 35.66376876831055 90.82384490966797 41.49121475219727 92 47.5 92 C 53.50878524780273 92 59.33623123168945 90.82384490966797 64.82049560546875 88.50419616699219 C 70.11915588378906 86.26304626464844 74.87847900390625 83.05401611328125 78.96624755859375 78.96624755859375 C 83.05401611328125 74.87847900390625 86.26304626464844 70.11915588378906 88.50419616699219 64.82049560546875 C 90.82384490966797 59.33623123168945 92 53.50878524780273 92 47.5 C 92 41.49121475219727 90.82384490966797 35.66376876831055 88.50419616699219 30.17950439453125 C 86.26304626464844 24.88084411621094 83.05401611328125 20.12152099609375 78.96624755859375 16.03375244140625 C 74.87847900390625 11.94598388671875 70.11915588378906 8.736953735351562 64.82049560546875 6.495796203613281 C 59.33623123168945 4.176155090332031 53.50878524780273 3 47.5 3 M 47.5 0 C 73.7335205078125 0 95 21.2664794921875 95 47.5 C 95 73.7335205078125 73.7335205078125 95 47.5 95 C 21.2664794921875 95 0 73.7335205078125 0 47.5 C 0 21.2664794921875 21.2664794921875 0 47.5 0 Z" stroke="none" fill="#fe9d52"/>
                </g>
              </g>
            </g>
          </g>
        </g>
      </g>
    </g>
    <g id="Layer_x0020_1" transform="translate(1241.007 3843.553)">
      <path id="Trazado_1044431" data-name="Trazado 1044431" d="M8.707,31.475a1.5,1.5,0,0,1-1.489-1.7l.38-2.85L5.615,24.841a1.5,1.5,0,0,1,.816-2.513l2.828-.52,1.368-2.529a1.5,1.5,0,0,1,2.643,0l1.368,2.529,2.828.52a1.5,1.5,0,0,1,.817,2.513L16.3,26.924l.38,2.85a1.5,1.5,0,0,1-2.138,1.554l-2.593-1.242L9.355,31.328a1.5,1.5,0,0,1-.648.147ZM23.425,55.48V29.115H21.335a1.5,1.5,0,0,1-1.5-1.5V23.021a6.1,6.1,0,0,1,6.094-6.094h2.039l.238-.877A9.681,9.681,0,0,1,25.961,12.6a3.315,3.315,0,0,1-1.1-4.849A6.969,6.969,0,0,1,24.3,5.9a1.5,1.5,0,0,1-.014-.205c0-3.6,2.146-4.879,4.154-4.879.16,0,.312.008.452.02a4.158,4.158,0,0,1,2.57-.755,7.324,7.324,0,0,1,.967.067,8.172,8.172,0,0,1,2.021.609,7.522,7.522,0,0,0,2.074.6,3.374,3.374,0,0,1,2.829,1.782c.74,1.448.259,3.275-.223,4.47a3.315,3.315,0,0,1-.988,4.99,9.707,9.707,0,0,1-2.2,3.415l.226.915h2.013a6.1,6.1,0,0,1,6.094,6.094v4.592a1.5,1.5,0,0,1-1.5,1.5h-2.09V55.48H43.53V35.611a1.5,1.5,0,0,1,1.5-1.5H49.26a1.5,1.5,0,1,1,0,3H46.535v3.166H57.784V37.113H54.237a1.5,1.5,0,1,1,0-3h5.05a1.5,1.5,0,0,1,1.5,1.5V55.48h1.816a1.5,1.5,0,0,1,0,3.005H1.5a1.5,1.5,0,1,1,0-3.005H3.319V35.611a1.5,1.5,0,0,1,1.5-1.5h3.6a1.5,1.5,0,1,1,0,3h-2.1v3.166H17.574V37.113H13.4a1.5,1.5,0,0,1,0-3h5.674a1.5,1.5,0,0,1,1.5,1.5V55.48h2.846Zm14.254,0V50.486H26.43V55.48Zm0-21.372V29.115H26.43v4.993ZM6.325,55.48H17.574V52.313H6.325Zm40.21,0H57.784V52.313H46.535Zm-20.106-8H37.678V37.113H26.429Zm5.625-29.759a4.943,4.943,0,0,1-1.153-.136l-.107.4,1.261,1.261,1.277-1.277-.1-.387a4.938,4.938,0,0,1-1.181.143Zm1.884-12.1a7.2,7.2,0,0,0,1.419.634h0l.02.006.044.013q.153.045.313.084l.014,0,.011,0,.057.013h0l.057.012.011,0,.046.009h0l.049.01h.007l.034.007.024,0,.046.008.013,0h.008l.112.018.01,0,.051.007.062.008A3.316,3.316,0,0,0,36.682,4.5c-.029-.055-.194-.13-.489-.163a10.365,10.365,0,0,1-2.86-.8,5.8,5.8,0,0,0-1.3-.418c-.689-.092-1.264-.014-1.391.171a1.5,1.5,0,0,1-1.681.584,2.267,2.267,0,0,0-.519-.061c-.4,0-1.055,0-1.141,1.525l.135-.113.007-.005.13-.1.011-.008.057-.044.036-.027.032-.024h0l.059-.044.006,0,.04-.029.027-.02,0,0,.061-.043h0l.044-.03.023-.016L28,4.809l.044-.029h0l.046-.029.019-.012,0,0,.049-.03.014-.009.006,0,.046-.028.015-.009.031-.018.036-.02.01-.006.046-.025.011-.006.035-.019.031-.017.014-.007.045-.024.007,0,.039-.019.027-.013.018-.009.045-.021.027-.013.018-.008.023-.011.022-.01.044-.019h0l.006,0,.053-.022.013-.005.048-.019.01,0,.005,0,.045-.017.015-.006L29,4.3l.036-.013.009,0,.045-.015.011,0,.034-.011.032-.01.013,0,.045-.013.007,0,.038-.011.028-.008.017,0,.045-.012h0l.042-.01.024-.005.021,0,.045-.01h0l.046-.009.02,0h.008l.043-.008.015,0h0l.046-.007.016,0,.012,0,.055-.008h.009l.046-.005h.012l.034,0,.033,0h.013l.046,0h.012l.06,0h.021l.046,0h.139A5.685,5.685,0,0,1,33.229,5.2l.05.03.033.021.016.01.025.016.025.015L33.4,5.3l.033.02.009.006.041.025h0l.042.025.007,0,.035.021.016.009.027.016.024.014.018.011.032.019.01.006.041.024h0l.043.025.007,0,.1.059.02.011.032.018Zm-6.55,3.8a.306.306,0,0,0,.092.559,1.5,1.5,0,0,1,1.108,1.022c.656,2.116,2.146,3.711,3.467,3.711s2.811-1.6,3.467-3.711a1.5,1.5,0,0,1,1.108-1.022.307.307,0,0,0,.237-.3.3.3,0,0,0-.048-.164,9.9,9.9,0,0,1-5.159-1.76,3.805,3.805,0,0,0-1.422-.674c-.209,0-.831.174-2.137,1.76a1.518,1.518,0,0,1-.714.577ZM22.837,26.11H41.27V23.021a3.092,3.092,0,0,0-3.089-3.089H35.615l-2.5,2.5a1.5,1.5,0,0,1-2.126,0l-2.5-2.5H25.926a3.092,3.092,0,0,0-3.089,3.089Zm23.7,23.2H57.784V43.285H46.535Zm-40.21,0H17.574V43.285H6.325ZM55.4,31.475a1.5,1.5,0,0,1-.649-.147L52.16,30.086l-2.593,1.242a1.5,1.5,0,0,1-2.138-1.554l.379-2.85-1.982-2.083a1.5,1.5,0,0,1,.817-2.513l2.828-.52,1.368-2.529a1.5,1.5,0,0,1,2.643,0l1.368,2.529,2.828.52a1.5,1.5,0,0,1,.817,2.513l-1.982,2.083.379,2.85a1.5,1.5,0,0,1-1.49,1.7Zm-5.485-6.694.564.592a1.5,1.5,0,0,1,.4,1.234l-.107.811.737-.353a1.505,1.505,0,0,1,1.3,0l.737.353-.108-.811a1.5,1.5,0,0,1,.4-1.234l.564-.592-.8-.148a1.5,1.5,0,0,1-1.05-.763l-.389-.719-.389.72a1.5,1.5,0,0,1-1.05.763l-.8.147Zm-40.21,0,.564.592a1.5,1.5,0,0,1,.4,1.234l-.108.811.738-.353a1.5,1.5,0,0,1,1.3,0l.737.353-.108-.81a1.5,1.5,0,0,1,.4-1.234l.564-.593-.8-.148a1.5,1.5,0,0,1-1.05-.763l-.389-.719-.389.72a1.5,1.5,0,0,1-1.05.763l-.8.147Z" transform="translate(0 0)" fill="#000002" fill-rule="evenodd"/>
      <path id="Trazado_1044432" data-name="Trazado 1044432" d="M11.418,2.524H7.246a1.5,1.5,0,0,1-1.5-1.5H3.771a1.5,1.5,0,0,1-1.5,1.5H.169V5.69H11.418V2.524Z" transform="translate(6.156 34.589)" fill="#49bda0" fill-rule="evenodd"/>
      <path id="Trazado_1044433" data-name="Trazado 1044433" d="M11.418,1.226H.169V7.25H11.418Z" transform="translate(6.156 42.059)" fill="#5cccb0" fill-rule="evenodd"/>
      <path id="Trazado_1044434" data-name="Trazado 1044434" d="M11.418,1.466H.169V4.633H11.418Z" transform="translate(6.156 50.847)" fill="#49bda0" fill-rule="evenodd"/>
      <path id="Trazado_1044435" data-name="Trazado 1044435" d="M.7,1.418V6.411H11.952V1.418Z" transform="translate(25.726 49.069)" fill="#e56353" fill-rule="evenodd"/>
      <path id="Trazado_1044436" data-name="Trazado 1044436" d="M.7,11.43H11.952V1.062H.7Z" transform="translate(25.726 36.052)" fill="#ed7363" fill-rule="evenodd"/>
      <path id="Trazado_1044437" data-name="Trazado 1044437" d="M.7,5.842H11.952V.849H.7Z" transform="translate(25.726 28.266)" fill="#e56353" fill-rule="evenodd"/>
      <path id="Trazado_1044438" data-name="Trazado 1044438" d="M2.7,6.783H19.041V3.694A3.092,3.092,0,0,0,15.952.6H13.386l-2.5,2.5a1.5,1.5,0,0,1-2.126,0L6.263.6H3.7A3.092,3.092,0,0,0,.608,3.694V6.783Z" transform="translate(22.229 19.327)" fill="#30649d" fill-rule="evenodd"/>
      <path id="Trazado_1044439" data-name="Trazado 1044439" d="M3.963,2.524H1.239V5.69H12.488V2.524H8.94a1.5,1.5,0,0,1-1.5-1.5H5.466a1.5,1.5,0,0,1-1.5,1.5Z" transform="translate(45.297 34.589)" fill="#fe9d30" fill-rule="evenodd"/>
      <path id="Trazado_1044440" data-name="Trazado 1044440" d="M12.488,1.226H1.239V7.25H12.488Z" transform="translate(45.296 42.059)" fill="#ffb35c" fill-rule="evenodd"/>
      <path id="Trazado_1044441" data-name="Trazado 1044441" d="M12.488,1.466H1.239V4.633H12.488Z" transform="translate(45.296 50.847)" fill="#fe9d30" fill-rule="evenodd"/>
      <path id="Trazado_1044442" data-name="Trazado 1044442" d="M2.923,4.6a1.505,1.505,0,0,1,1.3,0l.737.353-.108-.811a1.5,1.5,0,0,1,.4-1.234l.564-.592-.8-.148a1.5,1.5,0,0,1-1.05-.763L3.573.69l-.389.72a1.5,1.5,0,0,1-1.05.763l-.8.147.564.592a1.5,1.5,0,0,1,.4,1.234l-.107.811L2.923,4.6Z" transform="translate(48.588 22.462)" fill="#ffd630" fill-rule="evenodd"/>
      <path id="Trazado_1044443" data-name="Trazado 1044443" d="M5.537,7.891C6.858,7.891,8.348,6.3,9,4.18a1.5,1.5,0,0,1,1.108-1.022.307.307,0,0,0,.237-.3A.3.3,0,0,0,10.3,2.7,9.9,9.9,0,0,1,5.143.937,3.805,3.805,0,0,0,3.721.263c-.209,0-.831.174-2.137,1.76A1.518,1.518,0,0,1,.871,2.6a.306.306,0,0,0,.092.559A1.5,1.5,0,0,1,2.07,4.18C2.726,6.3,4.217,7.891,5.537,7.891Z" transform="translate(26.517 6.828)" fill="#ffbd86" fill-rule="evenodd"/>
      <path id="Trazado_1044444" data-name="Trazado 1044444" d="M7.361,2.7a7.207,7.207,0,0,0,1.42.634l.02.006.044.013q.153.045.313.084l.014,0,.011,0,.057.013.057.012.011,0,.046.009h0l.049.01h.007l.034.007.024,0,.046.008.013,0h.008l.112.018.01,0,.051.007.062.008a3.316,3.316,0,0,0,.332-1.969c-.029-.055-.194-.13-.489-.163a10.365,10.365,0,0,1-2.86-.8A5.8,5.8,0,0,0,5.459.2C4.77.1,4.195.181,4.068.366A1.5,1.5,0,0,1,2.386.95,2.267,2.267,0,0,0,1.868.889c-.4,0-1.055,0-1.141,1.525L.862,2.3.868,2.3l.13-.1.011-.008.057-.044L1.1,2.111l.032-.024h0l.059-.044.006,0,.04-.029.027-.02,0,0,.061-.043h0l.044-.03L1.4,1.9l.023-.015.044-.029h0l.046-.029.019-.012,0,0,.049-.03L1.6,1.769l.006,0,.046-.028.015-.009L1.7,1.711l.036-.02.01-.006.046-.025L1.8,1.654l.035-.019.031-.017.014-.007.045-.024.007,0,.039-.019L2,1.551l.018-.009.045-.021.027-.013L2.109,1.5l.023-.011.022-.01L2.2,1.46l.006,0,.053-.022.013-.005.048-.019.01,0,.005,0,.045-.017L2.4,1.382l.03-.011.036-.013.009,0,.045-.015.011,0,.034-.011.032-.01.013,0L2.652,1.3l.007,0L2.7,1.286l.028-.008.017,0,.045-.012h0l.042-.01.024-.005.021,0,.046-.01.046-.009.02,0H3l.043-.008.015,0h0L3.108,1.2l.016,0,.012,0,.055-.008H3.2l.046-.005h.012l.034,0,.033,0h.013l.046,0h.012l.06,0h.021l.046,0h.139A5.685,5.685,0,0,1,6.652,2.274l.05.03.033.021.016.01.025.016.025.015.017.011.033.02.009.006.042.025.042.025.007,0,.035.021L7,2.487l.027.016.024.014.018.011.032.019.01.006.041.024h0L7.2,2.6l.007,0,.1.059.02.011.032.018Z" transform="translate(26.577 2.928)" fill="#c57a44" fill-rule="evenodd"/>
      <path id="Trazado_1044445" data-name="Trazado 1044445" d="M3.94,2.172a1.5,1.5,0,0,1-1.05-.763L2.5.69l-.389.72a1.5,1.5,0,0,1-1.05.763l-.8.147.564.592a1.5,1.5,0,0,1,.4,1.234l-.108.811L1.853,4.6a1.5,1.5,0,0,1,1.3,0l.737.353-.108-.81a1.5,1.5,0,0,1,.4-1.234l.564-.593-.8-.148Z" transform="translate(9.448 22.462)" fill="#ffd630" fill-rule="evenodd"/>
      <path id="Trazado_1044446" data-name="Trazado 1044446" d="M.82.944,2.08,2.206,3.357.929l-.1-.387A4.938,4.938,0,0,1,2.08.685,4.942,4.942,0,0,1,.927.549L.82.944Z" transform="translate(29.974 17.038)" fill="#ea9b58" fill-rule="evenodd"/>
    </g>
  </g>
</svg>
