<svg xmlns="http://www.w3.org/2000/svg" xmlns:xlink="http://www.w3.org/1999/xlink" width="103" height="103" viewBox="0 0 103 103">
  <defs>
    <filter id="Trazado_978624" x="0" y="0" width="103" height="103" filterUnits="userSpaceOnUse">
      <feOffset dy="3" input="SourceAlpha"/>
      <feGaussianBlur stdDeviation="3" result="blur"/>
      <feFlood flood-opacity="0.161"/>
      <feComposite operator="in" in2="blur"/>
      <feComposite in="SourceGraphic"/>
    </filter>
  </defs>
  <g id="Grupo_1220371" data-name="Grupo 1220371" transform="translate(-185 -6714)">
    <g id="Grupo_1220034" data-name="Grupo 1220034" transform="translate(0 -2679)">
      <g id="Grupo_1178463" data-name="Grupo 1178463" transform="translate(14 6527)">
        <g id="Grupo_1176881" data-name="Grupo 1176881">
          <g id="Grupo_1175148" data-name="Grupo 1175148" transform="translate(0 1580)">
            <g id="Grupo_1173798" data-name="Grupo 1173798" transform="translate(-3 -3520)">
              <g id="Grupo_1171925" data-name="Grupo 1171925" transform="translate(-22 -2246)">
                <g id="Grupo_1164524" data-name="Grupo 1164524" transform="translate(205 7058)">
                  <g id="Grupo_1144123" data-name="Grupo 1144123">
                    <g transform="matrix(1, 0, 0, 1, -9, -6)" filter="url(#Trazado_978624)">
                      <g id="Trazado_978624-2" data-name="Trazado 978624" transform="translate(9 6)" fill="#f4f4f4">
                        <path d="M 42.5 83.5 C 36.96437835693359 83.5 31.59512901306152 82.41617584228516 26.54141235351562 80.27863311767578 C 21.65934181213379 78.21369171142578 17.27447128295898 75.25723266601562 13.50862312316895 71.49137878417969 C 9.742764472961426 67.72553253173828 6.786305904388428 63.34066009521484 4.721364498138428 58.45858764648438 C 2.583823442459106 53.40486907958984 1.5 48.03562164306641 1.5 42.5 C 1.5 36.96437835693359 2.583823442459106 31.59512901306152 4.721364498138428 26.54141235351562 C 6.786305904388428 21.65934181213379 9.742764472961426 17.27447128295898 13.50862312316895 13.50862312316895 C 17.27447128295898 9.742764472961426 21.65934181213379 6.786305904388428 26.54141235351562 4.721364498138428 C 31.59512901306152 2.583823442459106 36.96437835693359 1.5 42.5 1.5 C 48.03562164306641 1.5 53.40486907958984 2.583823442459106 58.45858764648438 4.721364498138428 C 63.34066009521484 6.786305904388428 67.72553253173828 9.742764472961426 71.49137878417969 13.50862312316895 C 75.25723266601562 17.27447128295898 78.21369171142578 21.65934181213379 80.27863311767578 26.54141235351562 C 82.41617584228516 31.59512901306152 83.5 36.96437835693359 83.5 42.5 C 83.5 48.03562164306641 82.41617584228516 53.40486907958984 80.27863311767578 58.45858764648438 C 78.21369171142578 63.34066009521484 75.25723266601562 67.72553253173828 71.49137878417969 71.49137878417969 C 67.72553253173828 75.25723266601562 63.34066009521484 78.21369171142578 58.45858764648438 80.27863311767578 C 53.40486907958984 82.41617584228516 48.03562164306641 83.5 42.5 83.5 Z" stroke="none"/>
                        <path d="M 42.5 3 C 37.16621398925781 3 31.99356079101562 4.043960571289062 27.125732421875 6.102882385253906 C 22.42246627807617 8.092185974121094 18.19785308837891 10.94070434570312 14.56928253173828 14.56928253173828 C 10.94070434570312 18.19785308837891 8.092185974121094 22.42246627807617 6.102882385253906 27.125732421875 C 4.043960571289062 31.99356079101562 3 37.16621398925781 3 42.5 C 3 47.83378601074219 4.043960571289062 53.00643920898438 6.102882385253906 57.87425231933594 C 8.092185974121094 62.57753372192383 10.94070434570312 66.80213165283203 14.56928253173828 70.43071746826172 C 18.19786834716797 74.05929565429688 22.42246627807617 76.90781402587891 27.125732421875 78.89711761474609 C 31.99356079101562 80.95603942871094 37.16621398925781 82 42.5 82 C 47.83378601074219 82 53.00642395019531 80.95603942871094 57.87425231933594 78.89711761474609 C 62.57753372192383 76.90781402587891 66.80213165283203 74.05929565429688 70.43071746826172 70.43071746826172 C 74.05929565429688 66.80213165283203 76.90781402587891 62.57753372192383 78.89711761474609 57.87425231933594 C 80.95603942871094 53.00642395019531 82 47.83378601074219 82 42.5 C 82 37.16621398925781 80.95603942871094 31.99356079101562 78.89711761474609 27.125732421875 C 76.90781402587891 22.42246627807617 74.05929565429688 18.19786834716797 70.43071746826172 14.56928253173828 C 66.80213165283203 10.94070434570312 62.57753372192383 8.092185974121094 57.87425231933594 6.102882385253906 C 53.00643920898438 4.043960571289062 47.83378601074219 3 42.5 3 M 42.5 0 C 65.97209167480469 0 85 19.02789306640625 85 42.5 C 85 65.97209167480469 65.97209167480469 85 42.5 85 C 19.02789306640625 85 0 65.97209167480469 0 42.5 C 0 19.02789306640625 19.02789306640625 0 42.5 0 Z" stroke="none" fill="#797979"/>
                      </g>
                    </g>
                  </g>
                </g>
              </g>
            </g>
          </g>
        </g>
      </g>
    </g>
    <g id="agile_18536674_1_" data-name="agile_18536674 (1)" transform="translate(203.612 6733.241)">
      <g id="Grupo_1220370" data-name="Grupo 1220370" transform="translate(13.898 7.179)">
        <g id="Grupo_1220368" data-name="Grupo 1220368">
          <path id="Trazado_1044486" data-name="Trazado 1044486" d="M83.4,59.631h4.565a1.186,1.186,0,0,1,1.183,1.183v2.154a3.154,3.154,0,0,0,5.384,2.23l1.523-1.523a1.186,1.186,0,0,1,1.673,0l3.228,3.229a1.186,1.186,0,0,1,0,1.672L99.429,70.1a3.154,3.154,0,0,0,2.23,5.384h2.154A1.186,1.186,0,0,1,105,76.665v4.566a1.186,1.186,0,0,1-1.183,1.183h-2.154a3.154,3.154,0,0,0-2.23,5.384l1.523,1.523a1.186,1.186,0,0,1,0,1.672l-3.228,3.228a1.186,1.186,0,0,1-1.673,0L94.528,92.7a3.154,3.154,0,0,0-5.384,2.23v2.154a1.186,1.186,0,0,1-1.183,1.183H83.4a1.186,1.186,0,0,1-1.183-1.183V94.928a3.154,3.154,0,0,0-5.384-2.23l-1.523,1.523a1.186,1.186,0,0,1-1.672,0l-3.228-3.229a1.186,1.186,0,0,1,0-1.672L71.928,87.8a3.154,3.154,0,0,0-2.23-5.384H67.545a1.186,1.186,0,0,1-1.183-1.183V76.665a1.186,1.186,0,0,1,1.183-1.183H69.7a3.154,3.154,0,0,0,2.23-5.384l-1.523-1.523a1.186,1.186,0,0,1,0-1.672l3.228-3.229a1.186,1.186,0,0,1,1.672,0L76.829,65.2a3.154,3.154,0,0,0,5.384-2.23V60.814A1.186,1.186,0,0,1,83.4,59.631Z" transform="translate(-66.362 -59.631)" fill="#ffc328" fill-rule="evenodd"/>
          <path id="Trazado_1044487" data-name="Trazado 1044487" d="M150.4,59.631h4.565a1.186,1.186,0,0,1,1.183,1.183v2.154a3.154,3.154,0,0,0,5.384,2.23l1.523-1.523a1.186,1.186,0,0,1,1.673,0l3.228,3.229a1.186,1.186,0,0,1,0,1.672L166.432,70.1a3.154,3.154,0,0,0,2.23,5.384h2.154A1.186,1.186,0,0,1,172,76.665v4.566a1.186,1.186,0,0,1-1.183,1.183h-2.154a3.154,3.154,0,0,0-2.23,5.384l1.365,1.364a27.789,27.789,0,0,1-26.536-25.813,1.184,1.184,0,0,1,1.049.326l1.523,1.523a3.154,3.154,0,0,0,5.384-2.23V60.813a1.186,1.186,0,0,1,1.183-1.182Z" transform="translate(-133.366 -59.631)" fill="#ffd54f" fill-rule="evenodd"/>
          <circle id="Elipse_12675" data-name="Elipse 12675" cx="10.39" cy="10.39" r="10.39" transform="translate(8.927 8.927)" fill="#e0dfe1"/>
          <path id="Trazado_1044488" data-name="Trazado 1044488" d="M181.321,163.05a27.883,27.883,0,0,1-14.97-13.906,10.391,10.391,0,1,1,14.97,13.906Z" transform="translate(-155.811 -135.39)" fill="#f0f0f0" fill-rule="evenodd"/>
        </g>
        <g id="Grupo_1220369" data-name="Grupo 1220369" transform="translate(13.147 14.03)">
          <path id="Trazado_1044489" data-name="Trazado 1044489" d="M203.421,195.241l-.9-2.508H191.984l-.9,2.508v8.065h12.339v-8.065Z" transform="translate(-191.082 -192.733)" fill="#b77442" fill-rule="evenodd"/>
          <path id="Trazado_1044490" data-name="Trazado 1044490" d="M249.1,195.241l-.9-2.508h-6.055c0,.01,0,.02,0,.03a11.843,11.843,0,0,0,6.441,10.543h.516v-8.065Z" transform="translate(-236.762 -192.733)" fill="#cc8758" fill-rule="evenodd"/>
          <path id="Trazado_1044491" data-name="Trazado 1044491" d="M235.087,211.709v-4.147h-3.881v4.147l1.94-.987Z" transform="translate(-226.976 -205.999)" fill="#e0dfe1" fill-rule="evenodd"/>
          <path id="Trazado_1044492" data-name="Trazado 1044492" d="M243.08,207.562a11.76,11.76,0,0,0,.919,3.277l1.71.87v-4.147Z" transform="translate(-237.599 -205.999)" fill="#f0f0f0" fill-rule="evenodd"/>
          <path id="Trazado_1044493" data-name="Trazado 1044493" d="M202.519,192.733H191.984l-.9,2.508h12.339Z" transform="translate(-191.082 -192.733)" fill="#a56832" fill-rule="evenodd"/>
          <path id="Trazado_1044494" data-name="Trazado 1044494" d="M248.2,192.733h-6.055c0,.01,0,.02,0,.03a11.89,11.89,0,0,0,.26,2.478h6.7Z" transform="translate(-236.761 -192.733)" fill="#b77442" fill-rule="evenodd"/>
        </g>
      </g>
      <path id="Trazado_1044495" data-name="Trazado 1044495" d="M38.593,30.992V24.508H36.1v2.267a.791.791,0,0,1-1.215.667l-1.671-1.066-1.67,1.066a.791.791,0,0,1-1.215-.667V24.508H27.834v6.484Zm-6.684-5.658v-.826h2.61v.826l-.88-.562a.8.8,0,0,0-.85,0ZM28.5,22l-.333.927H38.258L37.925,22Zm10.724-1.058.9,2.507a.8.8,0,0,1,.047.268v8.065a.79.79,0,0,1-.79.79H27.043a.79.79,0,0,1-.791-.79V23.717a.8.8,0,0,1,.047-.268l.9-2.507a.791.791,0,0,1,.744-.523H38.481a.792.792,0,0,1,.744.523ZM42.813,26.5a9.6,9.6,0,1,1-9.6-9.6,9.61,9.61,0,0,1,9.6,9.6Zm1.581,0a11.18,11.18,0,1,1-11.181-11.18A11.193,11.193,0,0,1,44.394,26.5Zm1.156,5.11a3.884,3.884,0,0,0,.855,4.3l1.523,1.522a.4.4,0,0,1,0,.556L44.7,41.21a.4.4,0,0,1-.554,0l-1.523-1.523a3.945,3.945,0,0,0-6.734,2.789v2.155a.4.4,0,0,1-.392.391H30.93a.4.4,0,0,1-.392-.391V42.476A3.883,3.883,0,0,0,28.1,38.832a4.014,4.014,0,0,0-1.534-.31A3.89,3.89,0,0,0,23.8,39.687L22.282,41.21a.4.4,0,0,1-.554,0L18.5,37.983a.4.4,0,0,1,0-.555l1.523-1.523a3.945,3.945,0,0,0-2.789-6.734H15.079a.4.4,0,0,1-.392-.392V24.214a.4.4,0,0,1,.392-.392h2.154a3.944,3.944,0,0,0,2.789-6.734L18.5,15.565a.4.4,0,0,1,0-.554l3.229-3.228a.4.4,0,0,1,.554,0L23.8,13.3a3.944,3.944,0,0,0,6.733-2.788V8.363a.4.4,0,0,1,.392-.392H35.5a.4.4,0,0,1,.392.392v2.154a3.944,3.944,0,0,0,6.734,2.789l1.523-1.523a.4.4,0,0,1,.554,0l3.228,3.228a.4.4,0,0,1,0,.554L46.4,17.088a3.944,3.944,0,0,0,2.789,6.734h2.154a.4.4,0,0,1,.392.392V28.78a.4.4,0,0,1-.392.392H49.193A3.883,3.883,0,0,0,45.549,31.606Zm1.461.605a2.3,2.3,0,0,0,.512,2.575l1.523,1.523a1.975,1.975,0,0,1,0,2.79l-3.229,3.229a1.975,1.975,0,0,1-2.791,0L41.5,40.806a2.363,2.363,0,0,0-4.034,1.67v2.155A1.975,1.975,0,0,1,35.5,46.6H30.93a1.975,1.975,0,0,1-1.973-1.972V42.476a2.363,2.363,0,0,0-4.034-1.67L23.4,42.329a1.975,1.975,0,0,1-2.791,0L17.381,39.1a1.975,1.975,0,0,1,0-2.79L18.9,34.787a2.363,2.363,0,0,0-1.671-4.034H15.079a1.976,1.976,0,0,1-1.973-1.973V24.214a1.976,1.976,0,0,1,1.973-1.973h2.154A2.363,2.363,0,0,0,18.9,18.206l-1.523-1.523a1.975,1.975,0,0,1,0-2.79l3.229-3.229a1.975,1.975,0,0,1,2.791,0l1.523,1.523a2.363,2.363,0,0,0,4.034-1.671V8.363A1.976,1.976,0,0,1,30.93,6.389H35.5a1.976,1.976,0,0,1,1.973,1.974v2.154A2.363,2.363,0,0,0,41.5,12.188l1.523-1.523a1.975,1.975,0,0,1,2.791,0l3.229,3.229a1.975,1.975,0,0,1,0,2.79l-1.523,1.523a2.363,2.363,0,0,0,1.671,4.034h2.154a1.976,1.976,0,0,1,1.973,1.973v4.565a1.975,1.975,0,0,1-1.973,1.973H49.193a2.3,2.3,0,0,0-2.183,1.459ZM60.059,51.2a.791.791,0,0,1-.79.79H10.415l1.416,1.415a.791.791,0,0,1-1.118,1.119L7.948,51.762a.791.791,0,0,1,0-1.119l2.765-2.765A.791.791,0,0,1,11.831,49l-1.416,1.415H24.34A25.493,25.493,0,1,1,57.112,35.4l1.857-.762a.79.79,0,1,1,.6,1.462l-3.618,1.486a.8.8,0,0,1-.3.059.791.791,0,0,1-.732-.49l-1.485-3.618a.791.791,0,1,1,1.463-.6l.758,1.846A23.92,23.92,0,1,0,33.213,50.412H59.269a.79.79,0,0,1,.79.791Z" transform="translate(0 0)" fill-rule="evenodd"/>
    </g>
  </g>
</svg>
