<svg xmlns="http://www.w3.org/2000/svg" xmlns:xlink="http://www.w3.org/1999/xlink" width="98" height="98" viewBox="0 0 98 98">
  <defs>
    <filter id="Trazado_982547" x="0" y="0" width="98" height="98" filterUnits="userSpaceOnUse">
      <feOffset dy="3" input="SourceAlpha"/>
      <feGaussianBlur stdDeviation="3" result="blur"/>
      <feFlood flood-opacity="0.161"/>
      <feComposite operator="in" in2="blur"/>
      <feComposite in="SourceGraphic"/>
    </filter>
  </defs>
  <g id="Grupo_1220250" data-name="Grupo 1220250" transform="translate(-610.5 -951.34)">
    <g id="Grupo_1178928" data-name="Grupo 1178928" transform="translate(332.5 -2470.705)">
      <g id="Grupo_1178491" data-name="Grupo 1178491" transform="translate(287 3428.045)">
        <g id="Grupo_1172010" data-name="Grupo 1172010" transform="translate(0)">
          <g id="Grupo_1171046" data-name="Grupo 1171046">
            <g id="Grupo_1148525" data-name="Grupo 1148525">
              <g transform="matrix(1, 0, 0, 1, -9, -6)" filter="url(#Trazado_982547)">
                <g id="Trazado_982547-2" data-name="Trazado 982547" transform="translate(9 6)" fill="#fdeffe">
                  <path d="M 40 78.5 C 34.80187606811523 78.5 29.76003265380859 77.48227691650391 25.01452255249023 75.47509765625 C 20.43014526367188 73.53606414794922 16.31264495849609 70.75986480712891 12.77638912200928 67.22360992431641 C 9.240133285522461 63.68735504150391 6.46393346786499 59.56985473632812 4.524899959564209 54.98547744750977 C 2.517722129821777 50.23996734619141 1.5 45.19812393188477 1.5 40 C 1.5 34.80187606811523 2.517722129821777 29.76003265380859 4.524899959564209 25.01452255249023 C 6.46393346786499 20.43014526367188 9.240133285522461 16.31264495849609 12.77638912200928 12.77638912200928 C 16.31264495849609 9.240133285522461 20.43014526367188 6.46393346786499 25.01452255249023 4.524899959564209 C 29.76003265380859 2.517722129821777 34.80187606811523 1.5 40 1.5 C 45.19812393188477 1.5 50.23996734619141 2.517722129821777 54.98547744750977 4.524899959564209 C 59.56985473632812 6.46393346786499 63.68735504150391 9.240133285522461 67.22360992431641 12.77638912200928 C 70.75986480712891 16.31264495849609 73.53606414794922 20.43014526367188 75.47509765625 25.01452255249023 C 77.48227691650391 29.76003265380859 78.5 34.80187606811523 78.5 40 C 78.5 45.19812393188477 77.48227691650391 50.23996734619141 75.47509765625 54.98547744750977 C 73.53606414794922 59.56985473632812 70.75986480712891 63.68735504150391 67.22360992431641 67.22360992431641 C 63.68735504150391 70.75986480712891 59.56985473632812 73.53606414794922 54.98547744750977 75.47509765625 C 50.23996734619141 77.48227691650391 45.19812393188477 78.5 40 78.5 Z" stroke="none"/>
                  <path d="M 40 3 C 35.00370788574219 3 30.15846633911133 3.977851867675781 25.59885406494141 5.906410217285156 C 21.19327926635742 7.769813537597656 17.23603820800781 10.43806457519531 13.83705139160156 13.83705139160156 C 10.43806457519531 17.23603820800781 7.769813537597656 21.19327926635742 5.906410217285156 25.59885406494141 C 3.977851867675781 30.15846633911133 3 35.00370788574219 3 40 C 3 44.99629211425781 3.977851867675781 49.84153366088867 5.906410217285156 54.40114593505859 C 7.769813537597656 58.80672073364258 10.43806457519531 62.76396179199219 13.83705139160156 66.16294860839844 C 17.23603820800781 69.56193542480469 21.19327926635742 72.23018646240234 25.59885406494141 74.09358978271484 C 30.15846633911133 76.02214813232422 35.00370788574219 77 40 77 C 44.99629211425781 77 49.84153366088867 76.02214813232422 54.40114593505859 74.09358978271484 C 58.80672073364258 72.23018646240234 62.76396179199219 69.56193542480469 66.16294860839844 66.16294860839844 C 69.56193542480469 62.76396179199219 72.23018646240234 58.80672073364258 74.09358978271484 54.40114593505859 C 76.02214813232422 49.84153366088867 77 44.99629211425781 77 40 C 77 35.00370788574219 76.02214813232422 30.15846633911133 74.09358978271484 25.59885406494141 C 72.23018646240234 21.19327926635742 69.56193542480469 17.23603820800781 66.16294860839844 13.83705139160156 C 62.76396179199219 10.43806457519531 58.80672073364258 7.769813537597656 54.40114593505859 5.906410217285156 C 49.84153366088867 3.977851867675781 44.99629211425781 3 40 3 M 40 0 C 62.09138488769531 0 80 17.90861511230469 80 40 C 80 62.09138488769531 62.09138488769531 80 40 80 C 17.90861511230469 80 0 62.09138488769531 0 40 C 0 17.90861511230469 17.90861511230469 0 40 0 Z" stroke="none" fill="#ee70f7"/>
                </g>
              </g>
            </g>
          </g>
        </g>
      </g>
    </g>
    <g id="Layer_x0020_1" transform="translate(631.789 491.239)">
      <path id="Trazado_1044247" data-name="Trazado 1044247" d="M418.231,1430.573H402.467a.624.624,0,1,1,0-1.247H417.6v-27.891a1.177,1.177,0,0,0-1.18-1.18H403.76a.629.629,0,0,1-.631-.624.635.635,0,0,1,.631-.631H416.42a2.439,2.439,0,0,1,2.434,2.434v28.515A.622.622,0,0,1,418.231,1430.573Zm-30.844,0H371.624a.622.622,0,0,1-.624-.624v-28.515a2.437,2.437,0,0,1,2.427-2.434H386.1a.635.635,0,0,1,.631.631.629.629,0,0,1-.631.624H373.427a1.187,1.187,0,0,0-1.18,1.18v27.891h15.14a.624.624,0,1,1,0,1.247Z" transform="translate(-367.22 -911.102)" fill-rule="evenodd"/>
      <path id="Trazado_1044248" data-name="Trazado 1044248" d="M721.6,1737.251a.622.622,0,0,1-.624-.624v-27.373H709.709a.635.635,0,0,1-.631-.631.629.629,0,0,1,.631-.624H721.6a.628.628,0,0,1,.631.624v28A.628.628,0,0,1,721.6,1737.251Zm-41.964,0a.628.628,0,0,1-.631-.624v-28a.629.629,0,0,1,.631-.624h11.887a.622.622,0,0,1,.624.624.628.628,0,0,1-.624.631H680.255v27.373A.622.622,0,0,1,679.631,1737.251Z" transform="translate(-672.906 -1217.781)" fill-rule="evenodd"/>
      <path id="Trazado_1044249" data-name="Trazado 1044249" d="M49.929,5443.979H5.486A4.494,4.494,0,0,1,1,5439.485v-3.862a.622.622,0,0,1,.624-.624H20.167a.622.622,0,0,1,.624.624v2.021a1.4,1.4,0,0,0,1.4,1.4H33.226a1.4,1.4,0,0,0,1.4-1.4v-2.021a.628.628,0,0,1,.631-.624H53.791a.629.629,0,0,1,.631.624v3.862A4.505,4.505,0,0,1,49.929,5443.979Zm-47.682-7.731v3.238a3.244,3.244,0,0,0,3.238,3.238H49.929a3.244,3.244,0,0,0,3.238-3.238v-3.238H35.879v1.4a2.657,2.657,0,0,1-2.652,2.652H22.189a2.652,2.652,0,0,1-2.652-2.652v-1.4Z" transform="translate(0 -4916.777)" fill-rule="evenodd"/>
      <path id="Trazado_1044250" data-name="Trazado 1044250" d="M3015.55,1242.37a.628.628,0,0,1-.443-1.067l6.875-6.867a.613.613,0,0,1,.879,0,.622.622,0,0,1,0,.887l-6.868,6.868A.619.619,0,0,1,3015.55,1242.37Z" transform="translate(-2991.28 -747.59)" fill-rule="evenodd"/>
      <path id="Trazado_1044251" data-name="Trazado 1044251" d="M2815.96,1038.417a2.709,2.709,0,0,1-1.916-4.629,2.712,2.712,0,0,1,3.832,3.84A2.693,2.693,0,0,1,2815.96,1038.417Zm0-4.17a1.46,1.46,0,1,0,1.03,2.494A1.463,1.463,0,0,0,2815.96,1034.247Z" transform="translate(-2791.12 -547.852)" fill-rule="evenodd"/>
      <path id="Trazado_1044252" data-name="Trazado 1044252" d="M3578.961,1800.673a2.658,2.658,0,0,1-1.916-.8,2.71,2.71,0,1,1,3.832,0A2.671,2.671,0,0,1,3578.961,1800.673Zm0-4.17a1.461,1.461,0,1,0,1.029,2.495A1.465,1.465,0,0,0,3578.961,1796.5Z" transform="translate(-3548.387 -1304.375)" fill-rule="evenodd"/>
      <path id="Trazado_1044253" data-name="Trazado 1044253" d="M2394.793,2775.6a.647.647,0,0,1-.489-.233l-8.16-10.173a.627.627,0,0,1,.488-1.015h3.239v-4.553a.624.624,0,0,1,1.247,0v5.177a.629.629,0,0,1-.624.631h-2.554l6.853,8.536,6.86-8.536H2399.1a.635.635,0,0,1-.631-.631v-5.177a.629.629,0,0,1,.631-.624.622.622,0,0,1,.624.624v4.553h3.238a.628.628,0,0,1,.489,1.015l-8.167,10.173A.623.623,0,0,1,2394.793,2775.6Z" transform="translate(-2367.09 -2260.884)" fill-rule="evenodd"/>
      <path id="Trazado_1044254" data-name="Trazado 1044254" d="M2271.715,500.445a9.723,9.723,0,1,1,9.722-9.723A9.732,9.732,0,0,1,2271.715,500.445Zm0-18.191a8.468,8.468,0,1,0,8.475,8.468A8.477,8.477,0,0,0,2271.715,482.255Z" transform="translate(-2244.011 0)" fill-rule="evenodd"/>
      <path id="Trazado_1044255" data-name="Trazado 1044255" d="M1248.573,4182.247h-7.949a.624.624,0,0,1,0-1.247h7.949a.624.624,0,1,1,0,1.247Z" transform="translate(-1229.691 -3672.199)" fill-rule="evenodd"/>
      <path id="Trazado_1044256" data-name="Trazado 1044256" d="M1252.3,4802.255h-11.676a.627.627,0,0,1,0-1.255H1252.3a.627.627,0,0,1,0,1.255Z" transform="translate(-1229.691 -4287.541)" fill-rule="evenodd"/>
      <path id="Trazado_1044257" data-name="Trazado 1044257" d="M4654.581,4182.247h-7.95a.624.624,0,1,1,0-1.247h7.95a.624.624,0,0,1,0,1.247Z" transform="translate(-4610.099 -3672.199)" fill-rule="evenodd"/>
      <path id="Trazado_1044258" data-name="Trazado 1044258" d="M4163.3,4802.255h-11.677a.627.627,0,0,1,0-1.255H4163.3a.627.627,0,0,1,0,1.255Z" transform="translate(-4118.818 -4287.541)" fill-rule="evenodd"/>
      <path id="Trazado_1044259" data-name="Trazado 1044259" d="M2433.034,660.525a.627.627,0,0,1-.443-1.067l6.875-6.868a.612.612,0,0,1,.879,0,.622.622,0,0,1,0,.887l-6.867,6.868A.619.619,0,0,1,2433.034,660.525ZM2428,656.6a8.469,8.469,0,0,0,16.936,0v-.007a.027.027,0,0,1,.008-.023v-.1a8.472,8.472,0,0,0-16.943,0v.128Zm9.422,4.651a2.71,2.71,0,1,1,3.832,0,2.7,2.7,0,0,1-3.832,0Zm-3.817-4.937a2.709,2.709,0,1,1,1.916-.789A2.695,2.695,0,0,1,2433.605,656.31Z" transform="translate(-2408.764 -165.745)" fill="#5b5e8b" fill-rule="evenodd"/>
      <path id="Trazado_1044260" data-name="Trazado 1044260" d="M4832.12,1567.067h11.271a.628.628,0,0,1,.631.624v27.38h1.06V1567.18a1.177,1.177,0,0,0-1.179-1.18H4832A10.069,10.069,0,0,1,4832.12,1567.067Z" transform="translate(-4794.701 -1076.847)" fill="#273941" fill-rule="evenodd"/>
      <path id="Trazado_1044261" data-name="Trazado 1044261" d="M549.969,1567.067c.023-.361.06-.714.113-1.067h-11.9a1.187,1.187,0,0,0-1.18,1.18v27.891h1.067v-27.38a.629.629,0,0,1,.631-.624Z" transform="translate(-531.973 -1076.847)" fill="#273941" fill-rule="evenodd"/>
      <path id="Trazado_1044262" data-name="Trazado 1044262" d="M2649.853,2973.721a9.645,9.645,0,0,1-3.674-.721v4.193a.628.628,0,0,1-.624.631H2643l6.853,8.536,6.86-8.536h-2.555a.635.635,0,0,1-.631-.631V2973A9.645,9.645,0,0,1,2649.853,2973.721Z" transform="translate(-2622.149 -2473.276)" fill="#fa3c48" fill-rule="evenodd"/>
      <path id="Trazado_1044263" data-name="Trazado 1044263" d="M861.884,1897.616a.627.627,0,0,1-.624.624H849.584a.627.627,0,0,1,0-1.255H861.26A.628.628,0,0,1,861.884,1897.616Zm3.982.391-8.16-10.174a.627.627,0,0,1,.488-1.014h3.238v-4.193a9.745,9.745,0,0,1-4.771-7.626H846v26.749h12.818a.622.622,0,0,1,.624.624v2.021a1.4,1.4,0,0,0,1.4,1.4h11.038a1.4,1.4,0,0,0,1.4-1.4v-2.021a.622.622,0,0,1,.624-.624h12.818V1875H876.047a9.718,9.718,0,0,1-4.764,7.626v4.193h3.238a.627.627,0,0,1,.488,1.014l-8.167,10.174a.624.624,0,0,1-.488.233A.647.647,0,0,1,865.866,1898.007Zm-8.333-4.433h-7.95a.624.624,0,1,1,0-1.247h7.95a.624.624,0,0,1,0,1.247Zm25.6,4.666H871.456a.627.627,0,0,1,0-1.255h11.676a.627.627,0,0,1,0,1.255Zm0-4.666h-7.95a.624.624,0,1,1,0-1.247h7.95a.624.624,0,0,1,0,1.247Z" transform="translate(-838.651 -1383.526)" fill="#77b5fe" fill-rule="evenodd"/>
      <path id="Trazado_1044264" data-name="Trazado 1044264" d="M184.289,5601H167v3.238a3.244,3.244,0,0,0,3.238,3.238h44.444a3.244,3.244,0,0,0,3.238-3.238V5601H200.631v1.4a2.657,2.657,0,0,1-2.652,2.652H186.941a2.652,2.652,0,0,1-2.652-2.652Z" transform="translate(-164.753 -5081.53)" fill="#3d4d54" fill-rule="evenodd"/>
      <g id="Grupo_1220249" data-name="Grupo 1220249" transform="translate(23.383 486.395)">
        <path id="Trazado_1044265" data-name="Trazado 1044265" d="M3743.726,1962a1.461,1.461,0,1,0,1.029,2.495A1.465,1.465,0,0,0,3743.726,1962Z" transform="translate(-3736.535 -1956.267)" fill="#fefefe" fill-rule="evenodd"/>
        <path id="Trazado_1044266" data-name="Trazado 1044266" d="M2980.446,1201.495a1.46,1.46,0,1,0,1.029-2.495A1.451,1.451,0,0,0,2980.446,1201.495Z" transform="translate(-2980.018 -1199)" fill="#fefefe" fill-rule="evenodd"/>
      </g>
    </g>
  </g>
</svg>
