<svg xmlns="http://www.w3.org/2000/svg" xmlns:xlink="http://www.w3.org/1999/xlink" width="113" height="113" viewBox="0 0 113 113">
  <defs>
    <filter id="Trazado_982547" x="0" y="0" width="113" height="113" filterUnits="userSpaceOnUse">
      <feOffset dy="3" input="SourceAlpha"/>
      <feGaussianBlur stdDeviation="3" result="blur"/>
      <feFlood flood-opacity="0.161"/>
      <feComposite operator="in" in2="blur"/>
      <feComposite in="SourceGraphic"/>
    </filter>
  </defs>
  <g id="Grupo_1220284" data-name="Grupo 1220284" transform="translate(-1111 -2042.504)">
    <g id="Grupo_1202509" data-name="Grupo 1202509" transform="translate(0 1105.881)">
      <g id="Grupo_1202358" data-name="Grupo 1202358" transform="translate(317.51 -525)">
        <g id="Grupo_1177632" data-name="Grupo 1177632" transform="translate(-4493 -458.649)">
          <g id="Grupo_1176928" data-name="Grupo 1176928" transform="translate(5295.49 1926.273)">
            <g id="Grupo_1172322" data-name="Grupo 1172322" transform="translate(0 0)">
              <g id="Grupo_1164700" data-name="Grupo 1164700">
                <g id="Grupo_1160931" data-name="Grupo 1160931">
                  <g id="Grupo_1160749" data-name="Grupo 1160749">
                    <g id="Grupo_1158891" data-name="Grupo 1158891">
                      <g id="Grupo_1157406" data-name="Grupo 1157406">
                        <g id="Grupo_1155793" data-name="Grupo 1155793">
                          <g id="Grupo_1154704" data-name="Grupo 1154704">
                            <g id="Grupo_1150790" data-name="Grupo 1150790">
                              <g id="Grupo_1154214" data-name="Grupo 1154214">
                                <g id="Grupo_1152583" data-name="Grupo 1152583">
                                  <g id="Grupo_1146973" data-name="Grupo 1146973">
                                    <g id="Grupo_1146954" data-name="Grupo 1146954">
                                      <g transform="matrix(1, 0, 0, 1, -9, -6)" filter="url(#Trazado_982547)">
                                        <g id="Trazado_982547-2" data-name="Trazado 982547" transform="translate(9 6)" fill="#eaf4fb">
                                          <path d="M 47.5000114440918 93.49987030029297 C 41.28938293457031 93.49987030029297 35.26534652709961 92.28384399414062 29.5951976776123 89.88558959960938 C 24.11773109436035 87.56881713867188 19.19814491271973 84.25183868408203 14.97310447692871 80.02680206298828 C 10.74805164337158 75.80176544189453 7.43107795715332 70.88218688964844 5.114304542541504 65.40472412109375 C 2.716038227081299 59.73458862304688 1.500011444091797 53.71054840087891 1.500011444091797 47.49993515014648 C 1.500011444091797 41.28932189941406 2.716038227081299 35.26528167724609 5.114304542541504 29.59514808654785 C 7.43107795715332 24.1176815032959 10.74805164337158 19.1981086730957 14.97310447692871 14.97306823730469 C 19.19814491271973 10.74802875518799 24.11773109436035 7.431055068969727 29.5951976776123 5.11428165435791 C 35.26534652709961 2.716028451919556 41.28938293457031 1.500001788139343 47.5000114440918 1.500001788139343 C 53.71063995361328 1.500001788139343 59.73467636108398 2.716028451919556 65.40482330322266 5.11428165435791 C 70.88229370117188 7.431055068969727 75.8018798828125 10.74802875518799 80.02691650390625 14.97306823730469 C 84.25196838378906 19.1981086730957 87.56894683837891 24.1176815032959 89.88571929931641 29.59514808654785 C 92.28398132324219 35.26528167724609 93.50001525878906 41.28932189941406 93.50001525878906 47.49993515014648 C 93.50001525878906 53.71054840087891 92.28398132324219 59.73458862304688 89.88571929931641 65.40472412109375 C 87.56894683837891 70.88218688964844 84.25196838378906 75.80176544189453 80.02691650390625 80.02680206298828 C 75.8018798828125 84.25183868408203 70.88229370117188 87.56881713867188 65.40482330322266 89.88558959960938 C 59.73467636108398 92.28384399414062 53.71063995361328 93.49987030029297 47.5000114440918 93.49987030029297 Z" stroke="none"/>
                                          <path d="M 47.5000114440918 3 C 41.49122619628906 3 35.66378021240234 4.1761474609375 30.17951965332031 6.495796203613281 C 24.880859375 8.7369384765625 20.12153625488281 11.94596862792969 16.03376770019531 16.03373718261719 C 11.94598388671875 20.12149047851562 8.736968994140625 24.88081359863281 6.495811462402344 30.17947387695312 C 4.176162719726562 35.66371917724609 3.000007629394531 41.49116516113281 3.000007629394531 47.49993515014648 C 3.000007629394531 53.50870513916016 4.176162719726562 59.33615112304688 6.495811462402344 64.82039642333984 C 8.736968994140625 70.11905670166016 11.94598388671875 74.87837982177734 16.03376770019531 78.96613311767578 C 20.12153625488281 83.05390167236328 24.880859375 86.26293182373047 30.17951965332031 88.50407409667969 C 35.66378021240234 90.82372283935547 41.49122619628906 91.99987030029297 47.5000114440918 91.99987030029297 C 53.50879669189453 91.99987030029297 59.33624267578125 90.82372283935547 64.82050323486328 88.50407409667969 C 70.11916351318359 86.26293182373047 74.87848663330078 83.05390167236328 78.96625518798828 78.96613311767578 C 83.05403900146484 74.87837982177734 86.2630615234375 70.11905670166016 88.50421142578125 64.82039642333984 C 90.82386016845703 59.33615112304688 92.00001525878906 53.50870513916016 92.00001525878906 47.49993515014648 C 92.00001525878906 41.49116516113281 90.82386016845703 35.66371917724609 88.50421142578125 30.17947387695312 C 86.2630615234375 24.88081359863281 83.05403900146484 20.12149047851562 78.96625518798828 16.03373718261719 C 74.87848663330078 11.94596862792969 70.11916351318359 8.7369384765625 64.82050323486328 6.495796203613281 C 59.33624267578125 4.1761474609375 53.50879669189453 3 47.5000114440918 3 M 47.5000114440918 0 C 73.73353576660156 0 95.00001525878906 21.26644134521484 95.00001525878906 47.49993515014648 C 95.00001525878906 73.73342895507812 73.73353576660156 94.99987030029297 47.5000114440918 94.99987030029297 C 21.26648712158203 94.99987030029297 7.62939453125e-06 73.73342895507812 7.62939453125e-06 47.49993515014648 C 7.62939453125e-06 21.26644134521484 21.26648712158203 0 47.5000114440918 0 Z" stroke="none" fill="#3c97da"/>
                                        </g>
                                      </g>
                                    </g>
                                  </g>
                                </g>
                              </g>
                            </g>
                          </g>
                        </g>
                      </g>
                    </g>
                  </g>
                </g>
              </g>
            </g>
          </g>
        </g>
      </g>
    </g>
    <g id="Laptop" transform="translate(1136 2061.891)">
      <path id="Trazado_1044301" data-name="Trazado 1044301" d="M61,57l-.62,2.49A1.992,1.992,0,0,1,58.44,61H5.56a1.992,1.992,0,0,1-1.94-1.51L3,57H28v2h8V57Z" fill="#c6c5ca"/>
      <path id="Trazado_1044302" data-name="Trazado 1044302" d="M14,47a2,2,0,1,0,2-2,2,2,0,0,0-2,2Zm14,0a2,2,0,1,0-2,2,2,2,0,0,0,2-2Z" fill="#57a4ff"/>
      <rect id="Rectángulo_421417" data-name="Rectángulo 421417" width="54" height="34" rx="2" transform="translate(5 19)" fill="#57a4ff"/>
      <path id="Trazado_1044303" data-name="Trazado 1044303" d="M61,57l-.62,2.49A1.992,1.992,0,0,1,58.44,61h-4a1.992,1.992,0,0,0,1.94-1.51L57,57Z" fill="#acabb1"/>
      <path id="Trazado_1044304" data-name="Trazado 1044304" d="M59,21V51a2.006,2.006,0,0,1-2,2H53a2.006,2.006,0,0,0,2-2V21a2.006,2.006,0,0,0-2-2h4a2.006,2.006,0,0,1,2,2Z" fill="#2488ff"/>
      <path id="Trazado_1044305" data-name="Trazado 1044305" d="M56.1,23.13,53.26,24.5l.23,3.14-3.13.32-.86,3.03-3.05-.77L44.6,32.77,42,31l-2.6,1.77-1.85-2.55-3.05.77-.86-3.03-3.13-.32.23-3.14L27.9,23.13l1.3-2.87L27,18l2.2-2.26L28.86,15l-.96-2.13,2.84-1.37-.23-3.14,3.13-.32.86-3.03,3.05.77L39.4,3.23,42,5l2.6-1.77,1.85,2.55,3.05-.77.86,3.03,3.13.32-.23,3.14,2.84,1.37L55.14,15l-.34.74L57,18l-2.2,2.26Z" fill="#ff7956"/>
      <path id="Trazado_1044306" data-name="Trazado 1044306" d="M56.1,23.13,53.26,24.5l.23,3.14-3.13.32-.86,3.03-3.05-.77L44.6,32.77,42,31l-2.6,1.77-1.85-2.55-3.05.77-.86-3.03-3.13-.32.12-1.66A22.4,22.4,0,0,0,46,21,22.586,22.586,0,0,0,53.49,8.43l-.23,3.07,2.84,1.37L55.14,15l-.34.74L57,18l-2.2,2.26Z" fill="#ff5023"/>
      <g id="Grupo_1220283" data-name="Grupo 1220283">
        <circle id="Elipse_12658" data-name="Elipse 12658" cx="3" cy="3" r="3" transform="translate(44 20)" fill="#ffde55"/>
        <circle id="Elipse_12659" data-name="Elipse 12659" cx="3" cy="3" r="3" transform="translate(34 10)" fill="#ffde55"/>
        <path id="Trazado_1044307" data-name="Trazado 1044307" d="M31,33l-2,8H15V33Z" fill="#ffde55"/>
      </g>
      <circle id="Elipse_12660" data-name="Elipse 12660" cx="2" cy="2" r="2" transform="translate(24 45)" fill="#00eed1"/>
      <circle id="Elipse_12661" data-name="Elipse 12661" cx="2" cy="2" r="2" transform="translate(14 45)" fill="#00eed1"/>
      <circle id="Elipse_12662" data-name="Elipse 12662" cx="5" cy="5" r="5" transform="translate(18 27)" fill="#00eed1"/>
      <path id="Trazado_1044308" data-name="Trazado 1044308" d="M61.788,56.385A1,1,0,0,0,61,56H36a1,1,0,0,0-1,1v1H29V57a1,1,0,0,0-1-1H3a1,1,0,0,0-.97,1.243l.621,2.485A3,3,0,0,0,5.562,62H58.438a3,3,0,0,0,2.911-2.273l.621-2.484A1,1,0,0,0,61.788,56.385ZM5.562,60a1,1,0,0,1-.971-.758L4.281,58H27v1a1,1,0,0,0,1,1Zm53.847-.758a1,1,0,0,1-.971.758H36a1,1,0,0,0,1-1V58H59.719Z"/>
      <path id="Trazado_1044309" data-name="Trazado 1044309" d="M7,54H57a3,3,0,0,0,3-3V21a3,3,0,0,0-2.033-2.826.985.985,0,0,0-.25-.871L56,15.531l1.014-2.252a1,1,0,0,0-.477-1.312L54.308,10.9l.181-2.464a1,1,0,0,0-.9-1.068L51.131,7.12l-.669-2.378a1,1,0,0,0-1.208-.7l-2.4.606-1.446-2A1,1,0,0,0,44.042,2.4L42,3.79,39.958,2.4a1,1,0,0,0-1.374.242l-1.445,2-2.4-.605a1,1,0,0,0-1.208.7l-.669,2.377L30.4,7.362a1,1,0,0,0-.9,1.068l.18,2.464-2.225,1.073a1,1,0,0,0-.477,1.311L28,15.531,26.283,17.3A1,1,0,0,0,26,18H7a3,3,0,0,0-3,3V51a3,3,0,0,0,3,3ZM30.107,15.33l-.894-1.985,1.96-.945a1,1,0,0,0,.564-.973l-.159-2.173,2.167-.218a1,1,0,0,0,.862-.724l.59-2.1,2.11.534a1,1,0,0,0,1.056-.385L39.637,4.6l1.8,1.227a1,1,0,0,0,1.126,0l1.8-1.227,1.274,1.766a1,1,0,0,0,1.056.384L48.8,6.216l.59,2.1a1,1,0,0,0,.862.724l2.167.219-.159,2.172a1,1,0,0,0,.563.974l1.96.945-.894,1.984a1,1,0,0,0,.194,1.108L55.606,18l-1.519,1.563a1,1,0,0,0-.194,1.107l.894,1.985-1.96.945a1,1,0,0,0-.564.973l.159,2.173-2.167.218a1,1,0,0,0-.862.724l-.59,2.1-2.11-.534a.994.994,0,0,0-1.056.385L44.363,31.4l-1.8-1.227a1,1,0,0,0-1.126,0l-1.8,1.227-1.274-1.766a1,1,0,0,0-.811-.415.974.974,0,0,0-.245.031l-2.111.534-.59-2.1a1,1,0,0,0-.862-.724l-2.167-.219.159-2.172a1,1,0,0,0-.563-.974l-1.96-.945.894-1.984a1,1,0,0,0-.194-1.107L28.394,18l1.519-1.563a1,1,0,0,0,.194-1.107ZM6,21a1,1,0,0,1,1-1H27.549l.455.469L26.99,22.721a1,1,0,0,0,.477,1.312l2.225,1.072-.181,2.464a1,1,0,0,0,.9,1.068l2.458.248.669,2.378a1,1,0,0,0,1.208.7l2.4-.606,1.446,2a1,1,0,0,0,1.374.242L42,32.21l2.042,1.39a1,1,0,0,0,1.374-.242l1.445-2,2.4.6a1,1,0,0,0,1.208-.7l.669-2.377,2.458-.248a1,1,0,0,0,.9-1.068l-.18-2.464,2.225-1.073a1,1,0,0,0,.477-1.311L56,20.469,56.451,20H57a1,1,0,0,1,1,1V51a1,1,0,0,1-1,1H7a1,1,0,0,1-1-1Z"/>
      <path id="Trazado_1044310" data-name="Trazado 1044310" d="M9.005,46.9A1,1,0,0,0,10,48h3.184a2.982,2.982,0,0,0,5.632,0h4.368a2.982,2.982,0,0,0,5.632,0H32V46H28.816a2.982,2.982,0,0,0-5.632,0H18.816a2.982,2.982,0,0,0-5.632,0H11.1L13,27.1A1,1,0,0,0,12,26H8v2h2.9ZM26,46a1,1,0,1,1-1,1A1,1,0,0,1,26,46ZM16,46a1,1,0,1,1-1,1A1,1,0,0,1,16,46Z"/>
      <path id="Trazado_1044311" data-name="Trazado 1044311" d="M15,42H29a1,1,0,0,0,.97-.757l2-8A1,1,0,0,0,31,32H29a6,6,0,0,0-12,0H15a1,1,0,0,0-1,1v8A1,1,0,0,0,15,42Zm8-14a4,4,0,1,1-4,4A4,4,0,0,1,23,28Zm-7,6h1.35a5.99,5.99,0,0,0,11.3,0h1.069l-1.5,6H16Z"/>
      <path id="Trazado_1044312" data-name="Trazado 1044312" d="M22.45,34.825c.027.018.049.041.078.057a1,1,0,0,0,1.027-.05l3-2-1.11-1.664L24,32.131V30H22v2.132l-1.445-.964-1.11,1.664,3,2Z"/>
      <path id="Trazado_1044313" data-name="Trazado 1044313" d="M47,19a4,4,0,1,0,4,4A4,4,0,0,0,47,19Zm0,6a2,2,0,1,1,2-2A2,2,0,0,1,47,25Z"/>
      <path id="Trazado_1044314" data-name="Trazado 1044314" d="M37,17a4,4,0,1,0-4-4A4,4,0,0,0,37,17Zm0-6a2,2,0,1,1-2,2A2,2,0,0,1,37,11Z"/>
      <path id="Trazado_1044315" data-name="Trazado 1044315" d="M30.686,17H53.313v2H30.686Z" transform="translate(-0.426 34.971) rotate(-45)"/>
    </g>
  </g>
</svg>
