<svg xmlns="http://www.w3.org/2000/svg" xmlns:xlink="http://www.w3.org/1999/xlink" width="103" height="103" viewBox="0 0 103 103">
  <defs>
    <filter id="Trazado_978624" x="0" y="0" width="103" height="103" filterUnits="userSpaceOnUse">
      <feOffset dy="3" input="SourceAlpha"/>
      <feGaussianBlur stdDeviation="3" result="blur"/>
      <feFlood flood-opacity="0.161"/>
      <feComposite operator="in" in2="blur"/>
      <feComposite in="SourceGraphic"/>
    </filter>
  </defs>
  <g id="Grupo_1220424" data-name="Grupo 1220424" transform="translate(-185 -3657)">
    <g id="Grupo_1220143" data-name="Grupo 1220143" transform="translate(0 -5736)">
      <g id="Grupo_1178463" data-name="Grupo 1178463" transform="translate(14 6527)">
        <g id="Grupo_1176881" data-name="Grupo 1176881">
          <g id="Grupo_1175148" data-name="Grupo 1175148" transform="translate(0 1580)">
            <g id="Grupo_1173798" data-name="Grupo 1173798" transform="translate(-3 -3520)">
              <g id="Grupo_1171925" data-name="Grupo 1171925" transform="translate(-22 -2246)">
                <g id="Grupo_1164524" data-name="Grupo 1164524" transform="translate(205 7058)">
                  <g id="Grupo_1144123" data-name="Grupo 1144123">
                    <g transform="matrix(1, 0, 0, 1, -9, -6)" filter="url(#Trazado_978624)">
                      <g id="Trazado_978624-2" data-name="Trazado 978624" transform="translate(9 6)" fill="#f4f4f4">
                        <path d="M 42.5 83.5 C 36.96437835693359 83.5 31.59512901306152 82.41617584228516 26.54141235351562 80.27863311767578 C 21.65934181213379 78.21369171142578 17.27447128295898 75.25723266601562 13.50862312316895 71.49137878417969 C 9.742764472961426 67.72553253173828 6.786305904388428 63.34066009521484 4.721364498138428 58.45858764648438 C 2.583823442459106 53.40486907958984 1.5 48.03562164306641 1.5 42.5 C 1.5 36.96437835693359 2.583823442459106 31.59512901306152 4.721364498138428 26.54141235351562 C 6.786305904388428 21.65934181213379 9.742764472961426 17.27447128295898 13.50862312316895 13.50862312316895 C 17.27447128295898 9.742764472961426 21.65934181213379 6.786305904388428 26.54141235351562 4.721364498138428 C 31.59512901306152 2.583823442459106 36.96437835693359 1.5 42.5 1.5 C 48.03562164306641 1.5 53.40486907958984 2.583823442459106 58.45858764648438 4.721364498138428 C 63.34066009521484 6.786305904388428 67.72553253173828 9.742764472961426 71.49137878417969 13.50862312316895 C 75.25723266601562 17.27447128295898 78.21369171142578 21.65934181213379 80.27863311767578 26.54141235351562 C 82.41617584228516 31.59512901306152 83.5 36.96437835693359 83.5 42.5 C 83.5 48.03562164306641 82.41617584228516 53.40486907958984 80.27863311767578 58.45858764648438 C 78.21369171142578 63.34066009521484 75.25723266601562 67.72553253173828 71.49137878417969 71.49137878417969 C 67.72553253173828 75.25723266601562 63.34066009521484 78.21369171142578 58.45858764648438 80.27863311767578 C 53.40486907958984 82.41617584228516 48.03562164306641 83.5 42.5 83.5 Z" stroke="none"/>
                        <path d="M 42.5 3 C 37.16621398925781 3 31.99356079101562 4.043960571289062 27.125732421875 6.102882385253906 C 22.42246627807617 8.092185974121094 18.19785308837891 10.94070434570312 14.56928253173828 14.56928253173828 C 10.94070434570312 18.19785308837891 8.092185974121094 22.42246627807617 6.102882385253906 27.125732421875 C 4.043960571289062 31.99356079101562 3 37.16621398925781 3 42.5 C 3 47.83378601074219 4.043960571289062 53.00643920898438 6.102882385253906 57.87425231933594 C 8.092185974121094 62.57753372192383 10.94070434570312 66.80213165283203 14.56928253173828 70.43071746826172 C 18.19786834716797 74.05929565429688 22.42246627807617 76.90781402587891 27.125732421875 78.89711761474609 C 31.99356079101562 80.95603942871094 37.16621398925781 82 42.5 82 C 47.83378601074219 82 53.00642395019531 80.95603942871094 57.87425231933594 78.89711761474609 C 62.57753372192383 76.90781402587891 66.80213165283203 74.05929565429688 70.43071746826172 70.43071746826172 C 74.05929565429688 66.80213165283203 76.90781402587891 62.57753372192383 78.89711761474609 57.87425231933594 C 80.95603942871094 53.00642395019531 82 47.83378601074219 82 42.5 C 82 37.16621398925781 80.95603942871094 31.99356079101562 78.89711761474609 27.125732421875 C 76.90781402587891 22.42246627807617 74.05929565429688 18.19786834716797 70.43071746826172 14.56928253173828 C 66.80213165283203 10.94070434570312 62.57753372192383 8.092185974121094 57.87425231933594 6.102882385253906 C 53.00643920898438 4.043960571289062 47.83378601074219 3 42.5 3 M 42.5 0 C 65.97209167480469 0 85 19.02789306640625 85 42.5 C 85 65.97209167480469 65.97209167480469 85 42.5 85 C 19.02789306640625 85 0 65.97209167480469 0 42.5 C 0 19.02789306640625 19.02789306640625 0 42.5 0 Z" stroke="none" fill="#797979"/>
                      </g>
                    </g>
                  </g>
                </g>
              </g>
            </g>
          </g>
        </g>
      </g>
    </g>
    <g id="presentation_1281772" transform="translate(208.908 3681.408)">
      <path id="Trazado_1044663" data-name="Trazado 1044663" d="M24,88H70.23v31.371H24Zm0,0" transform="translate(-21.523 -78.919)" fill="#e6e9ed"/>
      <path id="Trazado_1044664" data-name="Trazado 1044664" d="M56,120H95.626v24.766H56Zm0,0" transform="translate(-50.221 -107.617)" fill="#f5f7fa"/>
      <path id="Trazado_1044665" data-name="Trazado 1044665" d="M248,456h24.766a3.3,3.3,0,0,1-3.3,3.3H251.3A3.3,3.3,0,0,1,248,456Zm0,0" transform="translate(-222.408 -408.944)" fill="#444a53"/>
      <path id="Trazado_1044666" data-name="Trazado 1044666" d="M255.285,473.651h18.162A3.287,3.287,0,0,0,276.291,472h-23.85a3.287,3.287,0,0,0,2.844,1.651Zm0,0" transform="translate(-226.391 -423.293)" fill="#666d77"/>
      <path id="Trazado_1044667" data-name="Trazado 1044667" d="M264,328h21.464v13.209H264Zm0,0" transform="translate(-236.757 -294.153)" fill="#444a53"/>
      <path id="Trazado_1044668" data-name="Trazado 1044668" d="M288,352h16.511v8.255H288Zm0,0" transform="translate(-258.28 -315.676)" fill="#666d77"/>
      <path id="Trazado_1044669" data-name="Trazado 1044669" d="M8,56H57.533v3.3H8Zm0,0" transform="translate(-7.174 -50.221)" fill="#7c4a49"/>
      <path id="Trazado_1044670" data-name="Trazado 1044670" d="M8,56H57.533v1.651H8Zm0,0" transform="translate(-7.174 -50.221)" fill="#8d5655"/>
      <path id="Trazado_1044671" data-name="Trazado 1044671" d="M228.953,10.477A2.477,2.477,0,1,1,226.477,8,2.477,2.477,0,0,1,228.953,10.477Zm0,0" transform="translate(-200.885 -7.174)" fill="#7c4a49"/>
      <path id="Trazado_1044672" data-name="Trazado 1044672" d="M150.421,278.421a9.048,9.048,0,0,1-6.421,2.66V272Zm0,0" transform="translate(-129.141 -243.932)" fill="#eebc5a"/>
      <path id="Trazado_1044673" data-name="Trazado 1044673" d="M150.421,278.421,144,272h9.081A9.048,9.048,0,0,1,150.421,278.421Zm0,0" transform="translate(-129.141 -243.932)" fill="#98be61"/>
      <path id="Trazado_1044674" data-name="Trazado 1044674" d="M65.081,202.162V184a9.081,9.081,0,1,0,0,18.162Zm0,0" transform="translate(-50.221 -165.013)" fill="#ca5057"/>
      <path id="Trazado_1044675" data-name="Trazado 1044675" d="M185.081,161.081A9.081,9.081,0,0,0,176,152v9.081Zm0,0" transform="translate(-157.838 -136.315)" fill="#699ce6"/>
      <g id="Grupo_1220423" data-name="Grupo 1220423" transform="translate(29.72 21.464)">
        <path id="Trazado_1044676" data-name="Trazado 1044676" d="M348.953,378.477A2.477,2.477,0,1,1,346.477,376,2.477,2.477,0,0,1,348.953,378.477Zm0,0" transform="translate(-338.221 -358.664)" fill="#98be61"/>
        <path id="Trazado_1044677" data-name="Trazado 1044677" d="M291.3,249.651A1.651,1.651,0,1,1,289.651,248,1.651,1.651,0,0,1,291.3,249.651Zm0,0" transform="translate(-288 -243.872)" fill="#98be61"/>
        <path id="Trazado_1044678" data-name="Trazado 1044678" d="M347.3,209.651A1.651,1.651,0,1,1,345.651,208,1.651,1.651,0,0,1,347.3,209.651Zm0,0" transform="translate(-338.221 -208)" fill="#98be61"/>
        <path id="Trazado_1044679" data-name="Trazado 1044679" d="M411.3,265.651A1.651,1.651,0,1,1,409.651,264,1.651,1.651,0,0,1,411.3,265.651Zm0,0" transform="translate(-395.617 -258.221)" fill="#98be61"/>
      </g>
      <path id="Trazado_1044680" data-name="Trazado 1044680" d="M50.358,52.953H.826A.825.825,0,0,1,0,52.128v-3.3A.825.825,0,0,1,.826,48H50.358a.825.825,0,0,1,.826.826v3.3A.825.825,0,0,1,50.358,52.953ZM1.651,51.3H49.533V49.651H1.651Zm0,0" transform="translate(0 -43.047)"/>
      <path id="Trazado_1044681" data-name="Trazado 1044681" d="M219.3,6.6a3.3,3.3,0,1,1,3.3-3.3A3.305,3.305,0,0,1,219.3,6.6Zm0-4.953A1.651,1.651,0,1,0,220.953,3.3,1.653,1.653,0,0,0,219.3,1.651Zm0,0" transform="translate(-193.71)"/>
      <path id="Trazado_1044682" data-name="Trazado 1044682" d="M41.592,113.022H16.826A.825.825,0,0,1,16,112.2V80.826A.825.825,0,0,1,16.826,80h46.23a.825.825,0,0,1,.826.826v24.766H62.23V81.651H17.651v29.72H41.592Zm0,0" transform="translate(-14.349 -71.745)"/>
      <path id="Trazado_1044683" data-name="Trazado 1044683" d="M262.29,452.953H244.128A4.133,4.133,0,0,1,240,448.826a.825.825,0,0,1,.826-.826h24.766a.825.825,0,0,1,.826.826A4.133,4.133,0,0,1,262.29,452.953Zm-20.5-3.3a2.481,2.481,0,0,0,2.336,1.651H262.29a2.481,2.481,0,0,0,2.336-1.651Zm0,0" transform="translate(-215.234 -401.77)"/>
      <path id="Trazado_1044684" data-name="Trazado 1044684" d="M278.29,334.86H256.826a.825.825,0,0,1-.826-.826V320.826a.825.825,0,0,1,.826-.826H278.29a.825.825,0,0,1,.826.826v13.209A.825.825,0,0,1,278.29,334.86Zm-20.639-1.651h19.813V321.651H257.651Zm0,0" transform="translate(-229.583 -286.978)"/>
      <path id="Trazado_1044685" data-name="Trazado 1044685" d="M339.3,374.6a3.3,3.3,0,1,1,3.3-3.3A3.305,3.305,0,0,1,339.3,374.6Zm0-4.953a1.651,1.651,0,1,0,1.651,1.651A1.653,1.653,0,0,0,339.3,369.651Zm0,0" transform="translate(-301.327 -330.025)"/>
      <path id="Trazado_1044686" data-name="Trazado 1044686" d="M282.477,244.953a2.477,2.477,0,1,1,2.477-2.477A2.48,2.48,0,0,1,282.477,244.953Zm0-3.3a.826.826,0,1,0,.826.826A.826.826,0,0,0,282.477,241.651Zm0,0" transform="translate(-251.106 -215.234)"/>
      <path id="Trazado_1044687" data-name="Trazado 1044687" d="M338.477,204.953a2.477,2.477,0,1,1,2.477-2.477A2.48,2.48,0,0,1,338.477,204.953Zm0-3.3a.826.826,0,1,0,.826.826A.826.826,0,0,0,338.477,201.651Zm0,0" transform="translate(-301.327 -179.361)"/>
      <path id="Trazado_1044688" data-name="Trazado 1044688" d="M402.477,260.953a2.477,2.477,0,1,1,2.477-2.477A2.48,2.48,0,0,1,402.477,260.953Zm0-3.3a.826.826,0,1,0,.826.826A.826.826,0,0,0,402.477,257.651Zm0,0" transform="translate(-358.723 -229.583)"/>
      <path id="Trazado_1044689" data-name="Trazado 1044689" d="M304.832,277.16l1.477-.738,4.953,9.906-1.477.738Zm0,0" transform="translate(-273.376 -247.897)"/>
      <path id="Trazado_1044690" data-name="Trazado 1044690" d="M368.832,300.685l4.127-8.255,1.477.738-4.128,8.255Zm0,0" transform="translate(-330.771 -262.253)"/>
      <path id="Trazado_1044691" data-name="Trazado 1044691" d="M308.41,226.5l3.3-1.651.738,1.477-3.3,1.651Zm0,0" transform="translate(-276.584 -201.642)"/>
      <path id="Trazado_1044692" data-name="Trazado 1044692" d="M318.582,257.752l.3-1.624,9.081,1.651-.3,1.624Zm0,0" transform="translate(-285.707 -229.698)"/>
      <path id="Trazado_1044693" data-name="Trazado 1044693" d="M57.906,195.813a9.907,9.907,0,1,1,0-19.813.825.825,0,0,1,.826.826v8.255h8.255a.825.825,0,0,1,.826.826A9.917,9.917,0,0,1,57.906,195.813Zm-.826-18.121a8.256,8.256,0,1,0,9.04,9.04H57.906a.825.825,0,0,1-.826-.826Zm0,0" transform="translate(-43.047 -157.838)"/>
      <path id="Trazado_1044694" data-name="Trazado 1044694" d="M177.906,154.732h-9.081a.825.825,0,0,1-.826-.826v-9.081a.825.825,0,0,1,.826-.826,9.917,9.917,0,0,1,9.907,9.907A.825.825,0,0,1,177.906,154.732Zm-8.255-1.651h7.389a8.272,8.272,0,0,0-7.389-7.389Zm0,0" transform="translate(-150.664 -129.14)"/>
      <path id="Trazado_1044695" data-name="Trazado 1044695" d="M138.34,267.511l1.167-1.167,6.6,6.6-1.167,1.167Zm0,0" transform="translate(-124.064 -238.859)"/>
      <path id="Trazado_1044696" data-name="Trazado 1044696" d="M136,272h1.651v9.081H136Zm0,0" transform="translate(-121.966 -243.932)"/>
      <path id="Trazado_1044697" data-name="Trazado 1044697" d="M283.511,120.464l-1.167-1.167,1.893-1.893-1.893-1.893,1.167-1.167,2.477,2.477a.825.825,0,0,1,0,1.167Zm0,0" transform="translate(-253.208 -102.544)"/>
      <path id="Trazado_1044698" data-name="Trazado 1044698" d="M379.511,120.464l-1.167-1.167,1.893-1.893-1.893-1.893,1.167-1.167,2.477,2.477a.824.824,0,0,1,0,1.167Zm0,0" transform="translate(-339.301 -102.544)"/>
      <path id="Trazado_1044699" data-name="Trazado 1044699" d="M227.511,139.886l-1.167-1.167,2.477-2.477A.822.822,0,0,1,229.4,136h5.779v1.651h-5.437Zm0,0" transform="translate(-202.986 -121.966)"/>
      <path id="Trazado_1044700" data-name="Trazado 1044700" d="M260.953,143.43H256v-1.651h4.611l5.537-5.537a.822.822,0,0,1,.584-.242h4.953v1.651h-4.611l-5.537,5.537A.822.822,0,0,1,260.953,143.43Zm0,0" transform="translate(-229.583 -121.966)"/>
    </g>
  </g>
</svg>
