<svg xmlns="http://www.w3.org/2000/svg" xmlns:xlink="http://www.w3.org/1999/xlink" width="98" height="98" viewBox="0 0 98 98">
  <defs>
    <filter id="Trazado_982547" x="0" y="0" width="98" height="98" filterUnits="userSpaceOnUse">
      <feOffset dy="3" input="SourceAlpha"/>
      <feGaussianBlur stdDeviation="3" result="blur"/>
      <feFlood flood-opacity="0.161"/>
      <feComposite operator="in" in2="blur"/>
      <feComposite in="SourceGraphic"/>
    </filter>
  </defs>
  <g id="Grupo_1220392" data-name="Grupo 1220392" transform="translate(-1030 -884.84)">
    <g id="Grupo_1220112" data-name="Grupo 1220112" transform="translate(752 -2537.205)">
      <g id="Grupo_1178491" data-name="Grupo 1178491" transform="translate(287 3428.045)">
        <g id="Grupo_1172010" data-name="Grupo 1172010" transform="translate(0)">
          <g id="Grupo_1171046" data-name="Grupo 1171046">
            <g id="Grupo_1148525" data-name="Grupo 1148525">
              <g transform="matrix(1, 0, 0, 1, -9, -6)" filter="url(#Trazado_982547)">
                <g id="Trazado_982547-2" data-name="Trazado 982547" transform="translate(9 6)" fill="#fdeffe">
                  <path d="M 40 78.5 C 34.80187606811523 78.5 29.76003265380859 77.48227691650391 25.01452255249023 75.47509765625 C 20.43014526367188 73.53606414794922 16.31264495849609 70.75986480712891 12.77638912200928 67.22360992431641 C 9.240133285522461 63.68735504150391 6.46393346786499 59.56985473632812 4.524899959564209 54.98547744750977 C 2.517722129821777 50.23996734619141 1.5 45.19812393188477 1.5 40 C 1.5 34.80187606811523 2.517722129821777 29.76003265380859 4.524899959564209 25.01452255249023 C 6.46393346786499 20.43014526367188 9.240133285522461 16.31264495849609 12.77638912200928 12.77638912200928 C 16.31264495849609 9.240133285522461 20.43014526367188 6.46393346786499 25.01452255249023 4.524899959564209 C 29.76003265380859 2.517722129821777 34.80187606811523 1.5 40 1.5 C 45.19812393188477 1.5 50.23996734619141 2.517722129821777 54.98547744750977 4.524899959564209 C 59.56985473632812 6.46393346786499 63.68735504150391 9.240133285522461 67.22360992431641 12.77638912200928 C 70.75986480712891 16.31264495849609 73.53606414794922 20.43014526367188 75.47509765625 25.01452255249023 C 77.48227691650391 29.76003265380859 78.5 34.80187606811523 78.5 40 C 78.5 45.19812393188477 77.48227691650391 50.23996734619141 75.47509765625 54.98547744750977 C 73.53606414794922 59.56985473632812 70.75986480712891 63.68735504150391 67.22360992431641 67.22360992431641 C 63.68735504150391 70.75986480712891 59.56985473632812 73.53606414794922 54.98547744750977 75.47509765625 C 50.23996734619141 77.48227691650391 45.19812393188477 78.5 40 78.5 Z" stroke="none"/>
                  <path d="M 40 3 C 35.00370788574219 3 30.15846633911133 3.977851867675781 25.59885406494141 5.906410217285156 C 21.19327926635742 7.769813537597656 17.23603820800781 10.43806457519531 13.83705139160156 13.83705139160156 C 10.43806457519531 17.23603820800781 7.769813537597656 21.19327926635742 5.906410217285156 25.59885406494141 C 3.977851867675781 30.15846633911133 3 35.00370788574219 3 40 C 3 44.99629211425781 3.977851867675781 49.84153366088867 5.906410217285156 54.40114593505859 C 7.769813537597656 58.80672073364258 10.43806457519531 62.76396179199219 13.83705139160156 66.16294860839844 C 17.23603820800781 69.56193542480469 21.19327926635742 72.23018646240234 25.59885406494141 74.09358978271484 C 30.15846633911133 76.02214813232422 35.00370788574219 77 40 77 C 44.99629211425781 77 49.84153366088867 76.02214813232422 54.40114593505859 74.09358978271484 C 58.80672073364258 72.23018646240234 62.76396179199219 69.56193542480469 66.16294860839844 66.16294860839844 C 69.56193542480469 62.76396179199219 72.23018646240234 58.80672073364258 74.09358978271484 54.40114593505859 C 76.02214813232422 49.84153366088867 77 44.99629211425781 77 40 C 77 35.00370788574219 76.02214813232422 30.15846633911133 74.09358978271484 25.59885406494141 C 72.23018646240234 21.19327926635742 69.56193542480469 17.23603820800781 66.16294860839844 13.83705139160156 C 62.76396179199219 10.43806457519531 58.80672073364258 7.769813537597656 54.40114593505859 5.906410217285156 C 49.84153366088867 3.977851867675781 44.99629211425781 3 40 3 M 40 0 C 62.09138488769531 0 80 17.90861511230469 80 40 C 80 62.09138488769531 62.09138488769531 80 40 80 C 17.90861511230469 80 0 62.09138488769531 0 40 C 0 17.90861511230469 17.90861511230469 0 40 0 Z" stroke="none" fill="#ee70f7"/>
                </g>
              </g>
            </g>
          </g>
        </g>
      </g>
    </g>
    <g id="payment_3597641" transform="translate(1057.209 906.876)">
      <g id="Grupo_1220390" data-name="Grupo 1220390" transform="translate(1.701 1.741)">
        <g id="Grupo_1220378" data-name="Grupo 1220378">
          <path id="Trazado_1044573" data-name="Trazado 1044573" d="M10.889,16.415a1.89,1.89,0,0,0,1.489,1.845l-.007.037H3.482A1.486,1.486,0,0,1,2,16.815V3.482A1.486,1.486,0,0,1,3.482,2H24.223A1.486,1.486,0,0,1,25.7,3.482v10l-1.682-.63a7.525,7.525,0,0,0-2.645-.482,7.686,7.686,0,0,0-1.7.193l-7.334,1.7a1.878,1.878,0,0,0-1.459,1.83Z" transform="translate(-2 -2)" fill="#aab2bd"/>
        </g>
        <g id="Grupo_1220379" data-name="Grupo 1220379" transform="translate(17.779 23.705)">
          <path id="Trazado_1044574" data-name="Trazado 1044574" d="M29.215,35.17a1.459,1.459,0,0,0-.985-1.089A1.405,1.405,0,0,0,27.763,34h-.281L26,54.742l3.7-3.7,3.7,3.7Z" transform="translate(-26 -34)" fill="#d3a06c"/>
        </g>
        <g id="Grupo_1220380" data-name="Grupo 1220380" transform="translate(17.779 40.742)">
          <path id="Trazado_1044575" data-name="Trazado 1044575" d="M33.408,60.7H26L29.7,57Z" transform="translate(-26 -57)" fill="#b27946"/>
        </g>
        <g id="Grupo_1220381" data-name="Grupo 1220381" transform="translate(0 23.705)">
          <path id="Trazado_1044576" data-name="Trazado 1044576" d="M2,54.742,4.778,35.274A1.489,1.489,0,0,1,6.245,34H21.26L19.779,54.742Z" transform="translate(-2 -34)" fill="#cf9e76"/>
        </g>
        <g id="Grupo_1220382" data-name="Grupo 1220382" transform="translate(3.704 29.631)">
          <path id="Trazado_1044577" data-name="Trazado 1044577" d="M17.963,42.889a3.066,3.066,0,0,1,.889,2.156,3.023,3.023,0,0,1-1.067,2.311L14.23,50.408a2.006,2.006,0,0,1-2.608,0L8.067,47.356A3.042,3.042,0,0,1,10.045,42h.141a3.033,3.033,0,0,1,2.148.889l.593.593.593-.593A3.033,3.033,0,0,1,15.667,42h.141A3.066,3.066,0,0,1,17.963,42.889Z" transform="translate(-7 -42)" fill="#ff826e"/>
        </g>
        <g id="Grupo_1220383" data-name="Grupo 1220383" transform="translate(27.409 31.112)">
          <path id="Trazado_1044578" data-name="Trazado 1044578" d="M55.378,46.63a1.2,1.2,0,0,1,0,2.148l-5.267,2.63V49.185H39V46.222H50.112V44Z" transform="translate(-39 -44)" fill="#ffeaa7"/>
        </g>
        <g id="Grupo_1220384" data-name="Grupo 1220384" transform="translate(28.149 1.482)">
          <path id="Trazado_1044579" data-name="Trazado 1044579" d="M57.038,6.222V9.185H45.926v2.222l-5.267-2.63a1.2,1.2,0,0,1,0-2.148L45.926,4V6.222Z" transform="translate(-40 -4)" fill="#ffeaa7"/>
        </g>
        <g id="Grupo_1220385" data-name="Grupo 1220385" transform="translate(26.668 11.112)">
          <path id="Trazado_1044580" data-name="Trazado 1044580" d="M48.371,17v8.889L38,24.408V18.482Z" transform="translate(-38 -17)" fill="#b4dd7f"/>
        </g>
        <g id="Grupo_1220386" data-name="Grupo 1220386" transform="translate(2.963 10.371)">
          <path id="Trazado_1044581" data-name="Trazado 1044581" d="M13.408,21.926l.007-.037a1.89,1.89,0,0,1-1.489-1.845v-.326a1.878,1.878,0,0,1,1.459-1.83l7.334-1.7a7.686,7.686,0,0,1,1.7-.193,7.525,7.525,0,0,1,2.645.482l1.682.63L29.7,18.222v5.926H26.742L16.6,26.178a10.235,10.235,0,0,1-1.956.193H14.3A9.983,9.983,0,0,1,6,21.926Z" transform="translate(-6 -16)" fill="#f0d0b4"/>
        </g>
        <g id="Grupo_1220387" data-name="Grupo 1220387" transform="translate(17.779 2.963)">
          <path id="Trazado_1044582" data-name="Trazado 1044582" d="M26,6h2.963V8.963H26Z" transform="translate(-26 -6)" fill="#ff826e"/>
        </g>
        <g id="Grupo_1220388" data-name="Grupo 1220388" transform="translate(11.852 2.963)">
          <path id="Trazado_1044583" data-name="Trazado 1044583" d="M18,6h2.963V8.963H18Z" transform="translate(-18 -6)" fill="#ff826e"/>
        </g>
        <g id="Grupo_1220389" data-name="Grupo 1220389" transform="translate(2.963 2.963)">
          <path id="Trazado_1044584" data-name="Trazado 1044584" d="M6,6h5.926v4.445H6Z" transform="translate(-6 -6)" fill="#fcd770"/>
        </g>
      </g>
      <g id="Grupo_1220391" data-name="Grupo 1220391" transform="translate(0.847 1)">
        <path id="Trazado_1044585" data-name="Trazado 1044585" d="M15.549,41H15.41a3.757,3.757,0,0,0-2.676,1.109l-.067.066-.066-.066A3.757,3.757,0,0,0,9.925,41H9.785a3.785,3.785,0,0,0-2.463,6.659l3.559,3.052a2.743,2.743,0,0,0,3.571,0l3.56-3.051A3.785,3.785,0,0,0,15.549,41Zm1.5,5.535-3.559,3.05a1.3,1.3,0,0,1-1.644,0L8.286,46.535a2.3,2.3,0,0,1,1.5-4.054h.139a2.288,2.288,0,0,1,1.629.675l1.114,1.113,1.113-1.113a2.288,2.288,0,0,1,1.629-.675h.139a2.3,2.3,0,0,1,1.5,4.054Z" transform="translate(-2.183 -11.369)"/>
        <path id="Trazado_1044586" data-name="Trazado 1044586" d="M21.245,24.7H19.48V22.2l6-1.2h2.838L39.48,22.6V12L28.453,13.574l-2.306-.864V3.222A2.225,2.225,0,0,0,23.924,1H3.183A2.225,2.225,0,0,0,.96,3.222V16.556a2.225,2.225,0,0,0,2.222,2.222H4.3a10.692,10.692,0,0,0,3.329,3.005V24.7H5.949a2.233,2.233,0,0,0-2.2,1.907L.847,46.928H27.8L23.418,26.462A2.234,2.234,0,0,0,21.245,24.7Zm.724,2.067,3.668,17.117-1.746-1.746-.712-6.409-1.473.164.7,6.314L20.36,44.26l1.282-17.947a.732.732,0,0,1,.328.459Zm1.214,16.758L25.1,45.446H21.268Zm2.222-24.011L19.48,20.7V20.26a5.94,5.94,0,0,0-1.15-3.5l.367-.137,1.193.6.663-1.325-1.77-.885-5.91,2.216a1.14,1.14,0,0,1-1.541-1.068V15.83a1.135,1.135,0,0,1,.884-1.111l7.336-1.693a6.8,6.8,0,0,1,3.909.259l4.168,1.563v4.672ZM10.17,17.385a2.605,2.605,0,0,0,3.223,1.227l3.48-1.305A4.456,4.456,0,0,1,18,20.26v.73l-2.88.572a9.283,9.283,0,0,1-1.812.179h-.337a9.22,9.22,0,0,1-3.86-.861V20.26a4.445,4.445,0,0,1,1.061-2.875Zm18.94-2.409L38,13.706v7.181l-8.889-1.27ZM2.442,16.556V3.222a.742.742,0,0,1,.741-.741H23.924a.742.742,0,0,1,.741.741v8.931l-.684-.256a8.292,8.292,0,0,0-4.762-.315l-7.336,1.693a2.6,2.6,0,0,0-2.016,2.359A5.914,5.914,0,0,0,8.433,17.3H3.183a.742.742,0,0,1-.741-.741Zm3.765,2.222H7.819a5.93,5.93,0,0,0-.179,1.273,9.217,9.217,0,0,1-1.433-1.273Zm2.9,3.728a10.729,10.729,0,0,0,3.86.717h.337a10.769,10.769,0,0,0,2.1-.208L18,22.5V24.7H9.109ZM5.216,26.822a.743.743,0,0,1,.733-.636H20.166L18.79,45.446H2.555Z" transform="translate(-0.847 -1)"/>
        <path id="Trazado_1044587" data-name="Trazado 1044587" d="M12.408,5H5v5.926h7.408ZM10.926,9.445H6.482V6.482h4.445Z" transform="translate(-1.924 -2.037)"/>
        <path id="Trazado_1044588" data-name="Trazado 1044588" d="M21.445,5H17V9.445h4.445ZM19.963,7.963H18.482V6.482h1.482Z" transform="translate(-5.034 -2.037)"/>
        <path id="Trazado_1044589" data-name="Trazado 1044589" d="M29.445,5H25V9.445h4.445ZM27.963,7.963H26.482V6.482h1.482Z" transform="translate(-7.108 -2.037)"/>
        <path id="Trazado_1044590" data-name="Trazado 1044590" d="M5,19H9.445v1.482H5Z" transform="translate(-1.924 -5.666)"/>
        <path id="Trazado_1044591" data-name="Trazado 1044591" d="M5,15H9.445v1.482H5Z" transform="translate(-1.924 -4.629)"/>
        <path id="Trazado_1044592" data-name="Trazado 1044592" d="M56.779,6.544V5.062H46.408V2.382L40.072,5.55a1.94,1.94,0,0,0,0,3.47l6.336,3.168V9.507H56.779V8.025H44.926V9.79l-4.191-2.1a.458.458,0,0,1,0-.819l4.191-2.1V6.544Z" transform="translate(-10.737 -1.358)"/>
        <path id="Trazado_1044593" data-name="Trazado 1044593" d="M55.707,45.55l-6.336-3.168v2.68H39v1.482H50.852V44.779l4.191,2.1a.458.458,0,0,1,0,.819l-4.191,2.1V48.025H39v1.482H49.371v2.68l6.337-3.168a1.94,1.94,0,0,0,0-3.47Z" transform="translate(-10.737 -11.727)"/>
      </g>
    </g>
  </g>
</svg>
