<svg xmlns="http://www.w3.org/2000/svg" xmlns:xlink="http://www.w3.org/1999/xlink" width="113" height="113" viewBox="0 0 113 113">
  <defs>
    <filter id="Trazado_982547" x="0" y="0" width="113" height="113" filterUnits="userSpaceOnUse">
      <feOffset dy="3" input="SourceAlpha"/>
      <feGaussianBlur stdDeviation="3" result="blur"/>
      <feFlood flood-opacity="0.161"/>
      <feComposite operator="in" in2="blur"/>
      <feComposite in="SourceGraphic"/>
    </filter>
  </defs>
  <g id="Grupo_1220294" data-name="Grupo 1220294" transform="translate(-1456 -2042.504)">
    <g id="Grupo_1202510" data-name="Grupo 1202510" transform="translate(664 1105.881)">
      <g id="Grupo_1202357" data-name="Grupo 1202357" transform="translate(-1.49 -525)">
        <g id="Grupo_1177632" data-name="Grupo 1177632" transform="translate(-4493 -458.649)">
          <g id="Grupo_1176928" data-name="Grupo 1176928" transform="translate(5295.49 1926.273)">
            <g id="Grupo_1172322" data-name="Grupo 1172322" transform="translate(0 0)">
              <g id="Grupo_1164700" data-name="Grupo 1164700">
                <g id="Grupo_1160931" data-name="Grupo 1160931">
                  <g id="Grupo_1160749" data-name="Grupo 1160749">
                    <g id="Grupo_1158891" data-name="Grupo 1158891">
                      <g id="Grupo_1157406" data-name="Grupo 1157406">
                        <g id="Grupo_1155793" data-name="Grupo 1155793">
                          <g id="Grupo_1154704" data-name="Grupo 1154704">
                            <g id="Grupo_1150790" data-name="Grupo 1150790">
                              <g id="Grupo_1154214" data-name="Grupo 1154214">
                                <g id="Grupo_1152583" data-name="Grupo 1152583">
                                  <g id="Grupo_1146973" data-name="Grupo 1146973">
                                    <g id="Grupo_1146954" data-name="Grupo 1146954">
                                      <g transform="matrix(1, 0, 0, 1, -9, -6)" filter="url(#Trazado_982547)">
                                        <g id="Trazado_982547-2" data-name="Trazado 982547" transform="translate(9 6)" fill="#eaf4fb">
                                          <path d="M 47.5000114440918 93.49987030029297 C 41.28938293457031 93.49987030029297 35.26534652709961 92.28384399414062 29.5951976776123 89.88558959960938 C 24.11773109436035 87.56881713867188 19.19814491271973 84.25183868408203 14.97310447692871 80.02680206298828 C 10.74805164337158 75.80176544189453 7.43107795715332 70.88218688964844 5.114304542541504 65.40472412109375 C 2.716038227081299 59.73458862304688 1.500011444091797 53.71054840087891 1.500011444091797 47.49993515014648 C 1.500011444091797 41.28932189941406 2.716038227081299 35.26528167724609 5.114304542541504 29.59514808654785 C 7.43107795715332 24.1176815032959 10.74805164337158 19.1981086730957 14.97310447692871 14.97306823730469 C 19.19814491271973 10.74802875518799 24.11773109436035 7.431055068969727 29.5951976776123 5.11428165435791 C 35.26534652709961 2.716028451919556 41.28938293457031 1.500001788139343 47.5000114440918 1.500001788139343 C 53.71063995361328 1.500001788139343 59.73467636108398 2.716028451919556 65.40482330322266 5.11428165435791 C 70.88229370117188 7.431055068969727 75.8018798828125 10.74802875518799 80.02691650390625 14.97306823730469 C 84.25196838378906 19.1981086730957 87.56894683837891 24.1176815032959 89.88571929931641 29.59514808654785 C 92.28398132324219 35.26528167724609 93.50001525878906 41.28932189941406 93.50001525878906 47.49993515014648 C 93.50001525878906 53.71054840087891 92.28398132324219 59.73458862304688 89.88571929931641 65.40472412109375 C 87.56894683837891 70.88218688964844 84.25196838378906 75.80176544189453 80.02691650390625 80.02680206298828 C 75.8018798828125 84.25183868408203 70.88229370117188 87.56881713867188 65.40482330322266 89.88558959960938 C 59.73467636108398 92.28384399414062 53.71063995361328 93.49987030029297 47.5000114440918 93.49987030029297 Z" stroke="none"/>
                                          <path d="M 47.5000114440918 3 C 41.49122619628906 3 35.66378021240234 4.1761474609375 30.17951965332031 6.495796203613281 C 24.880859375 8.7369384765625 20.12153625488281 11.94596862792969 16.03376770019531 16.03373718261719 C 11.94598388671875 20.12149047851562 8.736968994140625 24.88081359863281 6.495811462402344 30.17947387695312 C 4.176162719726562 35.66371917724609 3.000007629394531 41.49116516113281 3.000007629394531 47.49993515014648 C 3.000007629394531 53.50870513916016 4.176162719726562 59.33615112304688 6.495811462402344 64.82039642333984 C 8.736968994140625 70.11905670166016 11.94598388671875 74.87837982177734 16.03376770019531 78.96613311767578 C 20.12153625488281 83.05390167236328 24.880859375 86.26293182373047 30.17951965332031 88.50407409667969 C 35.66378021240234 90.82372283935547 41.49122619628906 91.99987030029297 47.5000114440918 91.99987030029297 C 53.50879669189453 91.99987030029297 59.33624267578125 90.82372283935547 64.82050323486328 88.50407409667969 C 70.11916351318359 86.26293182373047 74.87848663330078 83.05390167236328 78.96625518798828 78.96613311767578 C 83.05403900146484 74.87837982177734 86.2630615234375 70.11905670166016 88.50421142578125 64.82039642333984 C 90.82386016845703 59.33615112304688 92.00001525878906 53.50870513916016 92.00001525878906 47.49993515014648 C 92.00001525878906 41.49116516113281 90.82386016845703 35.66371917724609 88.50421142578125 30.17947387695312 C 86.2630615234375 24.88081359863281 83.05403900146484 20.12149047851562 78.96625518798828 16.03373718261719 C 74.87848663330078 11.94596862792969 70.11916351318359 8.7369384765625 64.82050323486328 6.495796203613281 C 59.33624267578125 4.1761474609375 53.50879669189453 3 47.5000114440918 3 M 47.5000114440918 0 C 73.73353576660156 0 95.00001525878906 21.26644134521484 95.00001525878906 47.49993515014648 C 95.00001525878906 73.73342895507812 73.73353576660156 94.99987030029297 47.5000114440918 94.99987030029297 C 21.26648712158203 94.99987030029297 7.62939453125e-06 73.73342895507812 7.62939453125e-06 47.49993515014648 C 7.62939453125e-06 21.26644134521484 21.26648712158203 0 47.5000114440918 0 Z" stroke="none" fill="#3c97da"/>
                                        </g>
                                      </g>
                                    </g>
                                  </g>
                                </g>
                              </g>
                            </g>
                          </g>
                        </g>
                      </g>
                    </g>
                  </g>
                </g>
              </g>
            </g>
          </g>
        </g>
      </g>
    </g>
    <g id="reduce-cost_8365518" transform="translate(1469.554 2053.061)">
      <g id="Grupo_1220293" data-name="Grupo 1220293" transform="translate(9.962 9.96)">
        <g id="Grupo_1220288" data-name="Grupo 1220288">
          <path id="Trazado_1044316" data-name="Trazado 1044316" d="M75.367,143.589H86.014v21.283h4.648L80.69,173.91l-9.972-9.038h4.648Z" transform="translate(-63.199 -126.054)" fill="#f76c82" fill-rule="evenodd"/>
          <g id="Grupo_1220287" data-name="Grupo 1220287">
            <path id="Trazado_1044317" data-name="Trazado 1044317" d="M49.835,36.39A3.873,3.873,0,0,0,47.1,43a1.149,1.149,0,0,1,0,1.625L44.624,47.1A1.149,1.149,0,0,1,43,47.1a3.873,3.873,0,0,0-6.609,2.737,1.149,1.149,0,0,1-1.149,1.149h-3.5a1.149,1.149,0,0,1-1.149-1.149A3.871,3.871,0,0,0,23.986,47.1a1.149,1.149,0,0,1-1.625,0l-2.474-2.474a1.149,1.149,0,0,1,0-1.625A3.873,3.873,0,0,0,17.15,36.39,1.149,1.149,0,0,1,16,35.241v-3.5a1.149,1.149,0,0,1,1.149-1.149,3.873,3.873,0,0,0,2.737-6.609,1.149,1.149,0,0,1,0-1.625l2.474-2.474a1.149,1.149,0,0,1,1.625,0,3.873,3.873,0,0,0,6.608-2.737A1.149,1.149,0,0,1,31.743,16h3.5a1.149,1.149,0,0,1,1.149,1.149A3.873,3.873,0,0,0,43,19.886a1.149,1.149,0,0,1,1.625,0L47.1,22.36a1.149,1.149,0,0,1,0,1.625,3.873,3.873,0,0,0,2.737,6.609,1.149,1.149,0,0,1,1.149,1.149v3.5a1.149,1.149,0,0,1-1.149,1.149Z" transform="translate(-16.001 -16)" fill="#636c77" fill-rule="evenodd"/>
            <g id="Grupo_1220286" data-name="Grupo 1220286" transform="translate(7.843 7.832)">
              <g id="Grupo_1220285" data-name="Grupo 1220285">
                <circle id="Elipse_12663" data-name="Elipse 12663" cx="8.405" cy="8.405" r="8.405" transform="translate(0 2.723) rotate(-9.321)" fill="#fdcd56"/>
                <circle id="Elipse_12664" data-name="Elipse 12664" cx="7.206" cy="7.206" r="7.206" transform="translate(1.381 3.707) rotate(-9.321)" fill="#f5b945"/>
              </g>
            </g>
          </g>
        </g>
        <g id="Grupo_1220292" data-name="Grupo 1220292" transform="translate(30.984 18.112)">
          <path id="Trazado_1044318" data-name="Trazado 1044318" d="M300.817,275.376h10.647v21.283h4.648l-9.971,9.038-9.971-9.038h4.648Z" transform="translate(-288.649 -257.841)" fill="#f76c82" fill-rule="evenodd"/>
          <g id="Grupo_1220291" data-name="Grupo 1220291">
            <path id="Trazado_1044319" data-name="Trazado 1044319" d="M275.285,168.178a3.873,3.873,0,0,0-2.737,6.609,1.149,1.149,0,0,1,0,1.625l-2.474,2.474a1.149,1.149,0,0,1-1.625,0,3.873,3.873,0,0,0-6.609,2.737,1.149,1.149,0,0,1-1.149,1.149h-3.5a1.149,1.149,0,0,1-1.149-1.149,3.871,3.871,0,0,0-6.609-2.737,1.149,1.149,0,0,1-1.625,0l-2.474-2.474a1.149,1.149,0,0,1,0-1.625,3.873,3.873,0,0,0-2.737-6.609,1.149,1.149,0,0,1-1.149-1.149v-3.5a1.149,1.149,0,0,1,1.149-1.149,3.873,3.873,0,0,0,2.737-6.609,1.149,1.149,0,0,1,0-1.625l2.474-2.474a1.149,1.149,0,0,1,1.625,0,3.873,3.873,0,0,0,6.609-2.737,1.149,1.149,0,0,1,1.149-1.149h3.5a1.149,1.149,0,0,1,1.149,1.149,3.873,3.873,0,0,0,6.609,2.737,1.149,1.149,0,0,1,1.625,0l2.474,2.474a1.149,1.149,0,0,1,0,1.625,3.873,3.873,0,0,0,2.737,6.609,1.149,1.149,0,0,1,1.149,1.149v3.5a1.149,1.149,0,0,1-1.149,1.149Z" transform="translate(-241.451 -147.788)" fill="#636c77" fill-rule="evenodd"/>
            <g id="Grupo_1220290" data-name="Grupo 1220290" transform="translate(5.598 5.609)">
              <g id="Grupo_1220289" data-name="Grupo 1220289" transform="translate(0 11.884) rotate(-45)">
                <circle id="Elipse_12665" data-name="Elipse 12665" cx="8.405" cy="8.405" r="8.405" transform="translate(0)" fill="#fdcd56"/>
                <circle id="Elipse_12666" data-name="Elipse 12666" cx="7.206" cy="7.206" r="7.206" transform="translate(1.198 1.198)" fill="#f5b945"/>
              </g>
            </g>
          </g>
        </g>
      </g>
      <path id="Trazado_1044320" data-name="Trazado 1044320" d="M27.48,33.656a.962.962,0,0,1-.962-.938l-.008-.355A3.813,3.813,0,0,1,24.9,31.357a.962.962,0,0,1,1.32-1.4,1.552,1.552,0,0,0,1.231.6,1.079,1.079,0,1,0,0-2.112,3.112,3.112,0,0,1-3.223-2.98,3.023,3.023,0,0,1,2.243-2.839l-.01-.4a.962.962,0,1,1,1.924-.047l.011.463a3.445,3.445,0,0,1,1.862,1.208.962.962,0,0,1-1.608,1.057,2.26,2.26,0,0,0-1.2-.5,1.2,1.2,0,0,0-1.3,1.055,1.2,1.2,0,0,0,1.3,1.055,3.112,3.112,0,0,1,3.221,2.981,3.02,3.02,0,0,1-2.241,2.838l.008.326a.963.963,0,0,1-.939.985H27.48Zm-7.469-6.2a7.442,7.442,0,1,0,7.443-7.442A7.452,7.452,0,0,0,20.011,27.451Zm16.809,0a9.367,9.367,0,1,0-9.366,9.367A9.377,9.377,0,0,0,36.821,27.451ZM34.93,49.74l-7.477,6.778L19.976,49.74h2.155a.963.963,0,0,0,.962-.962v-6.63a2.839,2.839,0,0,1,.5,1.646A2.113,2.113,0,0,0,25.7,45.906h3.5a2.113,2.113,0,0,0,2.111-2.111,2.831,2.831,0,0,1,.5-1.644v6.627a.962.962,0,0,0,.962.962ZM20.654,38.949a4.91,4.91,0,0,1,1.881.381,4.76,4.76,0,0,1,2.983,4.465.187.187,0,0,0,.187.187h3.5a.187.187,0,0,0,.187-.187,4.836,4.836,0,0,1,8.251-3.418.188.188,0,0,0,.264,0L40.379,37.9a.186.186,0,0,0,0-.264A4.836,4.836,0,0,1,43.8,29.388a.187.187,0,0,0,.187-.187V25.7a.187.187,0,0,0-.187-.187,4.836,4.836,0,0,1-3.418-8.252.186.186,0,0,0,0-.264l-2.474-2.474a.188.188,0,0,0-.264,0,4.836,4.836,0,0,1-8.251-3.418.187.187,0,0,0-.187-.187H25.7a.187.187,0,0,0-.187.187,4.836,4.836,0,0,1-8.251,3.418.187.187,0,0,0-.264,0L14.529,17a.187.187,0,0,0,0,.264,4.836,4.836,0,0,1-3.418,8.252.187.187,0,0,0-.187.187v3.5a.187.187,0,0,0,.187.187,4.836,4.836,0,0,1,3.418,8.252.187.187,0,0,0,0,.264L17,40.377a.187.187,0,0,0,.264,0,4.77,4.77,0,0,1,3.387-1.428Zm15.627,2.789a2.111,2.111,0,0,0,2.985,0l2.474-2.474a2.111,2.111,0,0,0,0-2.985A2.912,2.912,0,0,1,43.8,31.312,2.113,2.113,0,0,0,45.907,29.2V25.7A2.113,2.113,0,0,0,43.8,23.592a2.912,2.912,0,0,1-2.057-4.967,2.111,2.111,0,0,0,0-2.985l-2.474-2.474a2.11,2.11,0,0,0-2.985,0,2.912,2.912,0,0,1-4.967-2.057A2.113,2.113,0,0,0,29.2,9H25.7a2.113,2.113,0,0,0-2.111,2.111,2.911,2.911,0,0,1-4.967,2.057,2.11,2.11,0,0,0-2.985,0L13.169,15.64a2.109,2.109,0,0,0,0,2.985,2.912,2.912,0,0,1-2.058,4.967A2.113,2.113,0,0,0,9,25.7v3.5a2.113,2.113,0,0,0,2.111,2.111,2.912,2.912,0,0,1,2.058,4.967,2.109,2.109,0,0,0,0,2.985l2.474,2.474a2.111,2.111,0,0,0,2.985,0,2.834,2.834,0,0,1,2.541-.811v6.889H17.483a.962.962,0,0,0-.646,1.675l9.971,9.037a.965.965,0,0,0,1.293,0l9.971-9.037a.963.963,0,0,0-.646-1.675H33.739V40.929A2.827,2.827,0,0,1,36.281,41.737ZM61.66,47.618a3.021,3.021,0,0,1-2.241,2.839l.008.326a.964.964,0,0,1-.939.985h-.023a.963.963,0,0,1-.962-.939l-.008-.355a3.813,3.813,0,0,1-1.606-1.006.962.962,0,0,1,1.319-1.4,1.551,1.551,0,0,0,1.232.606,1.079,1.079,0,1,0,0-2.112,3.112,3.112,0,0,1-3.223-2.98,3.022,3.022,0,0,1,2.243-2.839l-.009-.4a.962.962,0,0,1,1.924-.045l.011.463a3.442,3.442,0,0,1,1.862,1.208.962.962,0,0,1-1.608,1.057,2.253,2.253,0,0,0-1.2-.5,1.078,1.078,0,1,0,0,2.111,3.112,3.112,0,0,1,3.221,2.98Zm-3.221,5.389A7.443,7.443,0,1,0,51,45.563,7.451,7.451,0,0,0,58.439,53.007Zm0-16.809A9.367,9.367,0,1,0,67.8,45.563,9.378,9.378,0,0,0,58.439,36.2ZM74.967,47.313a.187.187,0,0,1-.187.187,4.836,4.836,0,0,0-3.418,8.251.188.188,0,0,1,0,.264l-2.474,2.474a.187.187,0,0,1-.264,0,4.836,4.836,0,0,0-8.251,3.418.187.187,0,0,1-.187.187h-3.5a.187.187,0,0,1-.187-.187,4.757,4.757,0,0,0-2.984-4.465,4.9,4.9,0,0,0-1.88-.381,4.765,4.765,0,0,0-3.387,1.428.187.187,0,0,1-.264,0l-2.474-2.474a.187.187,0,0,1,0-.264A4.836,4.836,0,0,0,42.095,47.5a.187.187,0,0,1-.187-.187v-3.5a.187.187,0,0,1,.187-.187,4.835,4.835,0,0,0,3.418-8.25.188.188,0,0,1,0-.265l2.474-2.474a.187.187,0,0,1,.264,0A4.835,4.835,0,0,0,56.5,29.221a.187.187,0,0,1,.187-.187h3.5a.187.187,0,0,1,.187.187,4.835,4.835,0,0,0,8.251,3.417.187.187,0,0,1,.264,0l2.474,2.474a.189.189,0,0,1,0,.265,4.835,4.835,0,0,0,3.418,8.25.187.187,0,0,1,.187.187v3.5ZM65.916,67.852H63.762a.963.963,0,0,1-.962-.962V60.263a2.826,2.826,0,0,0-.5,1.644,2.113,2.113,0,0,1-2.111,2.111h-3.5a2.113,2.113,0,0,1-2.111-2.111,2.835,2.835,0,0,0-.5-1.647v6.63a.963.963,0,0,1-.962.962H50.959l7.478,6.777ZM74.781,41.7a2.114,2.114,0,0,1,2.111,2.111v3.5a2.113,2.113,0,0,1-2.111,2.111,2.911,2.911,0,0,0-2.057,4.967,2.11,2.11,0,0,1,0,2.985l-2.474,2.474a2.11,2.11,0,0,1-2.985,0,2.827,2.827,0,0,0-2.541-.808v6.887h3.686a.961.961,0,0,1,.645,1.674l-9.971,9.039a.965.965,0,0,1-1.293,0L47.821,67.6a.962.962,0,0,1,.645-1.674h3.686V59.038a2.83,2.83,0,0,0-2.541.811,2.11,2.11,0,0,1-2.985,0l-2.474-2.474a2.109,2.109,0,0,1,0-2.985A2.911,2.911,0,0,0,42.1,49.424a2.113,2.113,0,0,1-2.111-2.111v-3.5A2.114,2.114,0,0,1,42.1,41.7a2.91,2.91,0,0,0,2.058-4.965,2.111,2.111,0,0,1,0-2.986l2.474-2.473a2.114,2.114,0,0,1,2.985,0,2.911,2.911,0,0,0,4.967-2.056,2.113,2.113,0,0,1,2.111-2.111h3.5A2.113,2.113,0,0,1,62.3,29.222a2.912,2.912,0,0,0,4.967,2.057,2.114,2.114,0,0,1,2.985,0l2.474,2.475a2.111,2.111,0,0,1,0,2.985A2.91,2.91,0,0,0,74.781,41.7Z" fill-rule="evenodd"/>
    </g>
  </g>
</svg>
