<svg xmlns="http://www.w3.org/2000/svg" xmlns:xlink="http://www.w3.org/1999/xlink" width="113" height="113" viewBox="0 0 113 113">
  <defs>
    <filter id="Trazado_982547" x="0" y="0" width="113" height="113" filterUnits="userSpaceOnUse">
      <feOffset dy="3" input="SourceAlpha"/>
      <feGaussianBlur stdDeviation="3" result="blur"/>
      <feFlood flood-opacity="0.161"/>
      <feComposite operator="in" in2="blur"/>
      <feComposite in="SourceGraphic"/>
    </filter>
  </defs>
  <g id="Grupo_1220314" data-name="Grupo 1220314" transform="translate(-1774.938 -2042.504)">
    <g id="Grupo_1202511" data-name="Grupo 1202511" transform="translate(982.938 1105.881)">
      <g id="Grupo_1202357" data-name="Grupo 1202357" transform="translate(-1.49 -525)">
        <g id="Grupo_1177632" data-name="Grupo 1177632" transform="translate(-4493 -458.649)">
          <g id="Grupo_1176928" data-name="Grupo 1176928" transform="translate(5295.49 1926.273)">
            <g id="Grupo_1172322" data-name="Grupo 1172322" transform="translate(0 0)">
              <g id="Grupo_1164700" data-name="Grupo 1164700">
                <g id="Grupo_1160931" data-name="Grupo 1160931">
                  <g id="Grupo_1160749" data-name="Grupo 1160749">
                    <g id="Grupo_1158891" data-name="Grupo 1158891">
                      <g id="Grupo_1157406" data-name="Grupo 1157406">
                        <g id="Grupo_1155793" data-name="Grupo 1155793">
                          <g id="Grupo_1154704" data-name="Grupo 1154704">
                            <g id="Grupo_1150790" data-name="Grupo 1150790">
                              <g id="Grupo_1154214" data-name="Grupo 1154214">
                                <g id="Grupo_1152583" data-name="Grupo 1152583">
                                  <g id="Grupo_1146973" data-name="Grupo 1146973">
                                    <g id="Grupo_1146954" data-name="Grupo 1146954">
                                      <g transform="matrix(1, 0, 0, 1, -9, -6)" filter="url(#Trazado_982547)">
                                        <g id="Trazado_982547-2" data-name="Trazado 982547" transform="translate(9 6)" fill="#eaf4fb">
                                          <path d="M 47.5000114440918 93.49987030029297 C 41.28938293457031 93.49987030029297 35.26534652709961 92.28384399414062 29.5951976776123 89.88558959960938 C 24.11773109436035 87.56881713867188 19.19814491271973 84.25183868408203 14.97310447692871 80.02680206298828 C 10.74805164337158 75.80176544189453 7.43107795715332 70.88218688964844 5.114304542541504 65.40472412109375 C 2.716038227081299 59.73458862304688 1.500011444091797 53.71054840087891 1.500011444091797 47.49993515014648 C 1.500011444091797 41.28932189941406 2.716038227081299 35.26528167724609 5.114304542541504 29.59514808654785 C 7.43107795715332 24.1176815032959 10.74805164337158 19.1981086730957 14.97310447692871 14.97306823730469 C 19.19814491271973 10.74802875518799 24.11773109436035 7.431055068969727 29.5951976776123 5.11428165435791 C 35.26534652709961 2.716028451919556 41.28938293457031 1.500001788139343 47.5000114440918 1.500001788139343 C 53.71063995361328 1.500001788139343 59.73467636108398 2.716028451919556 65.40482330322266 5.11428165435791 C 70.88229370117188 7.431055068969727 75.8018798828125 10.74802875518799 80.02691650390625 14.97306823730469 C 84.25196838378906 19.1981086730957 87.56894683837891 24.1176815032959 89.88571929931641 29.59514808654785 C 92.28398132324219 35.26528167724609 93.50001525878906 41.28932189941406 93.50001525878906 47.49993515014648 C 93.50001525878906 53.71054840087891 92.28398132324219 59.73458862304688 89.88571929931641 65.40472412109375 C 87.56894683837891 70.88218688964844 84.25196838378906 75.80176544189453 80.02691650390625 80.02680206298828 C 75.8018798828125 84.25183868408203 70.88229370117188 87.56881713867188 65.40482330322266 89.88558959960938 C 59.73467636108398 92.28384399414062 53.71063995361328 93.49987030029297 47.5000114440918 93.49987030029297 Z" stroke="none"/>
                                          <path d="M 47.5000114440918 3 C 41.49122619628906 3 35.66378021240234 4.1761474609375 30.17951965332031 6.495796203613281 C 24.880859375 8.7369384765625 20.12153625488281 11.94596862792969 16.03376770019531 16.03373718261719 C 11.94598388671875 20.12149047851562 8.736968994140625 24.88081359863281 6.495811462402344 30.17947387695312 C 4.176162719726562 35.66371917724609 3.000007629394531 41.49116516113281 3.000007629394531 47.49993515014648 C 3.000007629394531 53.50870513916016 4.176162719726562 59.33615112304688 6.495811462402344 64.82039642333984 C 8.736968994140625 70.11905670166016 11.94598388671875 74.87837982177734 16.03376770019531 78.96613311767578 C 20.12153625488281 83.05390167236328 24.880859375 86.26293182373047 30.17951965332031 88.50407409667969 C 35.66378021240234 90.82372283935547 41.49122619628906 91.99987030029297 47.5000114440918 91.99987030029297 C 53.50879669189453 91.99987030029297 59.33624267578125 90.82372283935547 64.82050323486328 88.50407409667969 C 70.11916351318359 86.26293182373047 74.87848663330078 83.05390167236328 78.96625518798828 78.96613311767578 C 83.05403900146484 74.87837982177734 86.2630615234375 70.11905670166016 88.50421142578125 64.82039642333984 C 90.82386016845703 59.33615112304688 92.00001525878906 53.50870513916016 92.00001525878906 47.49993515014648 C 92.00001525878906 41.49116516113281 90.82386016845703 35.66371917724609 88.50421142578125 30.17947387695312 C 86.2630615234375 24.88081359863281 83.05403900146484 20.12149047851562 78.96625518798828 16.03373718261719 C 74.87848663330078 11.94596862792969 70.11916351318359 8.7369384765625 64.82050323486328 6.495796203613281 C 59.33624267578125 4.1761474609375 53.50879669189453 3 47.5000114440918 3 M 47.5000114440918 0 C 73.73353576660156 0 95.00001525878906 21.26644134521484 95.00001525878906 47.49993515014648 C 95.00001525878906 73.73342895507812 73.73353576660156 94.99987030029297 47.5000114440918 94.99987030029297 C 21.26648712158203 94.99987030029297 7.62939453125e-06 73.73342895507812 7.62939453125e-06 47.49993515014648 C 7.62939453125e-06 21.26644134521484 21.26648712158203 0 47.5000114440918 0 Z" stroke="none" fill="#3c97da"/>
                                        </g>
                                      </g>
                                    </g>
                                  </g>
                                </g>
                              </g>
                            </g>
                          </g>
                        </g>
                      </g>
                    </g>
                  </g>
                </g>
              </g>
            </g>
          </g>
        </g>
      </g>
    </g>
    <g id="marketing_3895908" transform="translate(1803.156 2068.156)">
      <g id="Grupo_1220308" data-name="Grupo 1220308" transform="translate(0.898 0.898)">
        <g id="Grupo_1220295" data-name="Grupo 1220295" transform="translate(0 46.707)">
          <path id="Trazado_1044321" data-name="Trazado 1044321" d="M53.1,53a1.8,1.8,0,0,1,1.8,1.8A5.4,5.4,0,0,1,49.5,60.186H6.389A5.394,5.394,0,0,1,1,54.8a1.756,1.756,0,0,1,.53-1.266A1.756,1.756,0,0,1,2.8,53H20.761v1.8a1.8,1.8,0,0,0,1.8,1.8H33.336a1.8,1.8,0,0,0,1.8-1.8V53H53.1Z" transform="translate(-1 -53)" fill="#969faa"/>
        </g>
        <g id="Grupo_1220296" data-name="Grupo 1220296" transform="translate(3.593 21.557)">
          <path id="Trazado_1044322" data-name="Trazado 1044322" d="M51.707,25V50.15H5V25H8.593V45.659a.9.9,0,0,0,.9.9H47.216a.9.9,0,0,0,.9-.9V25Z" transform="translate(-5 -25)" fill="#ccd1d9"/>
        </g>
        <g id="Grupo_1220297" data-name="Grupo 1220297" transform="translate(19.761 46.707)">
          <path id="Trazado_1044323" data-name="Trazado 1044323" d="M37.371,53v1.8a1.8,1.8,0,0,1-1.8,1.8H24.8A1.8,1.8,0,0,1,23,54.8V53Z" transform="translate(-23 -53)" fill="#ef7385"/>
        </g>
        <g id="Grupo_1220298" data-name="Grupo 1220298" transform="translate(7.186 21.557)">
          <path id="Trazado_1044324" data-name="Trazado 1044324" d="M9,25V45.659a.9.9,0,0,0,.9.9H47.623a.9.9,0,0,0,.9-.9V25Z" transform="translate(-9 -25)" fill="#69d6f4"/>
        </g>
        <g id="Grupo_1220299" data-name="Grupo 1220299" transform="translate(16.168 21.557)">
          <path id="Trazado_1044325" data-name="Trazado 1044325" d="M40.557,31.737v.9A1.872,1.872,0,0,1,39.273,34.4a1.838,1.838,0,0,0-1.132,1.06l-.135.323a1.759,1.759,0,0,0-.144.71,1.814,1.814,0,0,0,.2.835,1.855,1.855,0,0,1-.341,2.156l-.638.638a1.858,1.858,0,0,1-1.311.548,1.889,1.889,0,0,1-.844-.207,1.825,1.825,0,0,0-1.545-.054l-.323.135A1.838,1.838,0,0,0,32,41.68a1.872,1.872,0,0,1-1.769,1.284h-.9A1.872,1.872,0,0,1,27.56,41.68a1.838,1.838,0,0,0-1.06-1.132l-.323-.135a1.759,1.759,0,0,0-.71-.144,1.814,1.814,0,0,0-.835.2,1.855,1.855,0,0,1-2.156-.341l-.638-.638a1.858,1.858,0,0,1-.548-1.311,1.889,1.889,0,0,1,.207-.844,1.825,1.825,0,0,0,.054-1.545l-.135-.323a1.838,1.838,0,0,0-1.132-1.06A1.872,1.872,0,0,1,19,32.635v-.9a1.872,1.872,0,0,1,1.284-1.769,1.838,1.838,0,0,0,1.132-1.06l.135-.323a1.759,1.759,0,0,0,.144-.71,1.814,1.814,0,0,0-.2-.835A1.858,1.858,0,0,1,21.731,25h5.353l1.024,2.057a5.389,5.389,0,1,0,3.341,0L32.473,25h5.371v.018a1.9,1.9,0,0,1,.413,1.177,1.878,1.878,0,0,1-.2.844,1.825,1.825,0,0,0-.054,1.545l.135.323a1.838,1.838,0,0,0,1.132,1.06,1.872,1.872,0,0,1,1.284,1.769Z" transform="translate(-19 -25)" fill="#ffc729"/>
        </g>
        <g id="Grupo_1220300" data-name="Grupo 1220300" transform="translate(21.557 23.614)">
          <path id="Trazado_1044326" data-name="Trazado 1044326" d="M32.186,32.419a1.8,1.8,0,1,0-1.8,1.8A1.8,1.8,0,0,0,32.186,32.419Zm-1.8-3.593a1.476,1.476,0,0,0,1.3-.8l.368-.737a5.389,5.389,0,1,1-3.341,0l.368.737A1.476,1.476,0,0,0,30.389,28.826Z" transform="translate(-25 -27.29)" fill="#fcd770"/>
        </g>
        <g id="Grupo_1220301" data-name="Grupo 1220301" transform="translate(0)">
          <path id="Trazado_1044327" data-name="Trazado 1044327" d="M4.593,1H51.3a3.592,3.592,0,0,1,3.593,3.593V18.964A3.592,3.592,0,0,1,51.3,22.557H30.641l-1.024,2.057-.368.737a1.461,1.461,0,0,1-2.6,0l-.368-.737-1.024-2.057H4.593A3.592,3.592,0,0,1,1,18.964V4.593A3.592,3.592,0,0,1,4.593,1Z" transform="translate(-1 -1)" fill="#f0d0b4"/>
        </g>
        <g id="Grupo_1220302" data-name="Grupo 1220302" transform="translate(44.91 3.593)">
          <path id="Trazado_1044328" data-name="Trazado 1044328" d="M54.593,5V19.371H51V5Z" transform="translate(-51 -5)" fill="#ef7385"/>
        </g>
        <g id="Grupo_1220303" data-name="Grupo 1220303" transform="translate(41.318 7.186)">
          <path id="Trazado_1044329" data-name="Trazado 1044329" d="M50.593,9V19.779H47V9Z" transform="translate(-47 -9)" fill="#ef7385"/>
        </g>
        <g id="Grupo_1220304" data-name="Grupo 1220304" transform="translate(37.725 10.779)">
          <path id="Trazado_1044330" data-name="Trazado 1044330" d="M43,13h3.593v7.186H43Z" transform="translate(-43 -13)" fill="#ef7385"/>
        </g>
        <g id="Grupo_1220305" data-name="Grupo 1220305" transform="translate(5.389 12.575)">
          <path id="Trazado_1044331" data-name="Trazado 1044331" d="M10.593,15v3.593a1.8,1.8,0,0,1-1.8,1.8,1.81,1.81,0,0,1-1.8-1.8V15Z" transform="translate(-7 -15)" fill="#aab2bd"/>
        </g>
        <g id="Grupo_1220306" data-name="Grupo 1220306" transform="translate(3.593 5.389)">
          <path id="Trazado_1044332" data-name="Trazado 1044332" d="M11.287,7a.9.9,0,0,1,.9.9v5.389a.9.9,0,0,1-.9.9H5.9a.9.9,0,0,1-.9-.9V7.9A.9.9,0,0,1,5.9,7Z" transform="translate(-5 -7)" fill="#e6e9ed"/>
        </g>
        <g id="Grupo_1220307" data-name="Grupo 1220307" transform="translate(10.779 3.593)">
          <path id="Trazado_1044333" data-name="Trazado 1044333" d="M21.982,7.129V13.65a2.116,2.116,0,0,1-2.129,2.129,2.2,2.2,0,0,1-1.06-.278L13,12.186V8.593l5.793-3.314A2.2,2.2,0,0,1,19.853,5,2.128,2.128,0,0,1,21.982,7.129Z" transform="translate(-13 -5)" fill="#fcd770"/>
        </g>
      </g>
      <g id="Grupo_1220313" data-name="Grupo 1220313">
        <g id="Grupo_1220309" data-name="Grupo 1220309" transform="translate(21.557 23.66)">
          <path id="Trazado_1044334" data-name="Trazado 1044334" d="M30.287,38.61a6.288,6.288,0,0,1-1.942-12.269l.554,1.708a4.491,4.491,0,1,0,2.775,0l.554-1.708A6.288,6.288,0,0,1,30.287,38.61Z" transform="translate(-24 -26.341)"/>
        </g>
        <g id="Grupo_1220310" data-name="Grupo 1220310" transform="translate(25.15 26.946)">
          <path id="Trazado_1044335" data-name="Trazado 1044335" d="M30.695,35.389a2.695,2.695,0,1,1,2.695-2.695A2.7,2.7,0,0,1,30.695,35.389Zm0-3.593a.9.9,0,1,0,.9.9A.9.9,0,0,0,30.695,31.8Z" transform="translate(-28 -30)"/>
        </g>
        <g id="Grupo_1220311" data-name="Grupo 1220311" transform="translate(16.168 21.874)">
          <path id="Trazado_1044336" data-name="Trazado 1044336" d="M30.124,43.8h-.895a2.755,2.755,0,0,1-2.624-1.9.922.922,0,0,0-.535-.581c-.119-.047-.236-.093-.351-.144a.932.932,0,0,0-.786.033,2.755,2.755,0,0,1-3.2-.51l-.633-.634a2.756,2.756,0,0,1-.511-3.2.922.922,0,0,0,.034-.784c-.051-.116-.1-.233-.145-.351a.926.926,0,0,0-.581-.536A2.757,2.757,0,0,1,18,32.567v-.895a2.755,2.755,0,0,1,1.9-2.624.922.922,0,0,0,.581-.535c.047-.119.093-.236.144-.351a.926.926,0,0,0-.033-.786,2.755,2.755,0,0,1,.352-3.023l1.373,1.158a.963.963,0,0,0-.122,1.056,2.715,2.715,0,0,1,.078,2.31c-.04.094-.081.19-.119.287a2.717,2.717,0,0,1-1.694,1.591.963.963,0,0,0-.664.917v.895a.963.963,0,0,0,.663.917,2.716,2.716,0,0,1,1.7,1.591c.038.1.078.192.119.287a2.715,2.715,0,0,1-.079,2.308.964.964,0,0,0,.179,1.118l.632.633a.965.965,0,0,0,1.117.178,2.718,2.718,0,0,1,2.31-.078c.094.04.19.081.287.119a2.717,2.717,0,0,1,1.591,1.694.962.962,0,0,0,.917.665h.895a.963.963,0,0,0,.917-.663,2.716,2.716,0,0,1,1.591-1.7c.1-.038.192-.078.287-.119a2.715,2.715,0,0,1,2.308.079.962.962,0,0,0,1.118-.179l.633-.632a.964.964,0,0,0,.178-1.117,2.715,2.715,0,0,1-.078-2.31c.04-.094.081-.19.119-.287a2.717,2.717,0,0,1,1.694-1.591.962.962,0,0,0,.665-.917v-.895a.963.963,0,0,0-.663-.917,2.716,2.716,0,0,1-1.7-1.591c-.038-.1-.078-.192-.119-.287a2.715,2.715,0,0,1,.079-2.308.964.964,0,0,0-.114-1.047l1.39-1.139a2.761,2.761,0,0,1,.328,3,.922.922,0,0,0-.034.784c.051.116.1.233.145.351a.926.926,0,0,0,.581.536,2.756,2.756,0,0,1,1.9,2.624v.895a2.755,2.755,0,0,1-1.9,2.624.922.922,0,0,0-.581.535c-.047.119-.093.236-.144.351a.926.926,0,0,0,.033.786,2.757,2.757,0,0,1-.51,3.2l-.634.633a2.759,2.759,0,0,1-3.2.511.928.928,0,0,0-.784-.034c-.116.051-.233.1-.351.145a.926.926,0,0,0-.536.581,2.757,2.757,0,0,1-2.624,1.9Z" transform="translate(-18 -24.353)"/>
        </g>
        <g id="Grupo_1220312" data-name="Grupo 1220312">
          <ellipse id="Elipse_12667" data-name="Elipse 12667" cx="0.5" cy="1" rx="0.5" ry="1" transform="translate(48.844 49.844)"/>
          <circle id="Elipse_12668" data-name="Elipse 12668" cx="1" cy="1" r="1" transform="translate(44.844 49.844)"/>
          <circle id="Elipse_12669" data-name="Elipse 12669" cx="1" cy="1" r="1" transform="translate(40.844 49.844)"/>
          <path id="Trazado_1044337" data-name="Trazado 1044337" d="M5.8,17.473a2.695,2.695,0,1,0,5.389,0V14.779a1.794,1.794,0,0,0,1.69-1.208l4.558,2.6a3.027,3.027,0,0,0,4.531-2.627V7.027A3.027,3.027,0,0,0,17.435,4.4L12.875,7A1.794,1.794,0,0,0,11.186,5.8H5.8A1.8,1.8,0,0,0,4,7.593v5.389a1.8,1.8,0,0,0,1.8,1.8ZM18.327,5.959a1.229,1.229,0,0,1,1.84,1.068v6.521a1.23,1.23,0,0,1-1.841,1.068l-5.344-3.053V9.012ZM5.8,7.593h5.389l0,5.389H5.8Zm3.593,7.186v2.695a.9.9,0,0,1-1.8,0V14.779Z" transform="translate(-0.407 -0.407)"/>
          <path id="Trazado_1044338" data-name="Trazado 1044338" d="M31.593,18.371v1.8h1.8v-1.8a3.593,3.593,0,1,0,0-7.186h-1.8a1.8,1.8,0,0,1,0-3.593h1.8a1.8,1.8,0,0,1,1.8,1.8v.9h1.8v-.9A3.6,3.6,0,0,0,33.389,5.8V4h-1.8V5.8a3.593,3.593,0,1,0,0,7.186h1.8a1.8,1.8,0,0,1,0,3.593h-1.8a1.8,1.8,0,0,1-1.8-1.8v-.9H28v.9A3.6,3.6,0,0,0,31.593,18.371Z" transform="translate(-2.85 -0.407)"/>
          <path id="Trazado_1044339" data-name="Trazado 1044339" d="M56.168,18.371h-1.8V4H48.982V7.593H45.389v3.593H41.8v7.186H40v1.8H56.168ZM50.779,5.8h1.8V18.371h-1.8V5.8ZM47.186,9.389h1.8v8.982h-1.8V9.389Zm-3.593,3.593h1.8v5.389h-1.8Z" transform="translate(-4.072 -0.407)"/>
          <path id="Trazado_1044340" data-name="Trazado 1044340" d="M55.689,18.862V4.491A4.5,4.5,0,0,0,51.2,0H4.491A4.5,4.5,0,0,0,0,4.491V18.862a4.5,4.5,0,0,0,3.593,4.4V46.707h-.9A2.7,2.7,0,0,0,0,49.4a6.3,6.3,0,0,0,6.287,6.287H49.4A6.3,6.3,0,0,0,55.689,49.4a2.7,2.7,0,0,0-2.695-2.695h-.9V23.263A4.5,4.5,0,0,0,55.689,18.862Zm-53.893,0V4.491A2.7,2.7,0,0,1,4.491,1.8H51.2a2.7,2.7,0,0,1,2.695,2.695V18.862A2.7,2.7,0,0,1,51.2,21.557H29.984l-1.643,3.285a.575.575,0,0,1-.993,0L25.7,21.557H4.491A2.7,2.7,0,0,1,1.8,18.862Zm7.186,4.491H24.595l1.146,2.294a2.353,2.353,0,0,0,4.207,0l1.146-2.293H46.707V43.114H8.982ZM52.994,48.5a.9.9,0,0,1,.9.9A4.5,4.5,0,0,1,49.4,53.893H6.287A4.5,4.5,0,0,1,1.8,49.4a.9.9,0,0,1,.9-.9H19.761v.9A2.7,2.7,0,0,0,22.455,52.1H33.234A2.7,2.7,0,0,0,35.928,49.4v-.9H52.994Zm-31.437,0H34.132v.9a.9.9,0,0,1-.9.9H22.455a.9.9,0,0,1-.9-.9Zm-16.168-1.8V23.353h1.8V43.114a1.8,1.8,0,0,0,1.8,1.8H46.707a1.8,1.8,0,0,0,1.8-1.8V23.353h1.8V46.707Z"/>
          <path id="Trazado_1044341" data-name="Trazado 1044341" d="M44,44h5.389v1.8H44Z" transform="translate(-4.479 -4.479)"/>
          <path id="Trazado_1044342" data-name="Trazado 1044342" d="M44,40h5.389v1.8H44Z" transform="translate(-4.479 -4.072)"/>
          <path id="Trazado_1044343" data-name="Trazado 1044343" d="M44,36h5.389v1.8H44Z" transform="translate(-4.479 -3.664)"/>
          <path id="Trazado_1044344" data-name="Trazado 1044344" d="M12,44h5.389v1.8H12Z" transform="translate(-1.221 -4.479)"/>
          <path id="Trazado_1044345" data-name="Trazado 1044345" d="M12,40h5.389v1.8H12Z" transform="translate(-1.221 -4.072)"/>
          <path id="Trazado_1044346" data-name="Trazado 1044346" d="M12,36h5.389v1.8H12Z" transform="translate(-1.221 -3.664)"/>
        </g>
      </g>
    </g>
  </g>
</svg>
