<svg xmlns="http://www.w3.org/2000/svg" xmlns:xlink="http://www.w3.org/1999/xlink" width="103" height="103" viewBox="0 0 103 103">
  <defs>
    <filter id="Trazado_978624" x="0" y="0" width="103" height="103" filterUnits="userSpaceOnUse">
      <feOffset dy="3" input="SourceAlpha"/>
      <feGaussianBlur stdDeviation="3" result="blur"/>
      <feFlood flood-opacity="0.161"/>
      <feComposite operator="in" in2="blur"/>
      <feComposite in="SourceGraphic"/>
    </filter>
  </defs>
  <g id="Grupo_1220415" data-name="Grupo 1220415" transform="translate(-185 -1622)">
    <g id="Grupo_1220116" data-name="Grupo 1220116" transform="translate(0 -7771)">
      <g id="Grupo_1178463" data-name="Grupo 1178463" transform="translate(14 6527)">
        <g id="Grupo_1176881" data-name="Grupo 1176881">
          <g id="Grupo_1175148" data-name="Grupo 1175148" transform="translate(0 1580)">
            <g id="Grupo_1173798" data-name="Grupo 1173798" transform="translate(-3 -3520)">
              <g id="Grupo_1171925" data-name="Grupo 1171925" transform="translate(-22 -2246)">
                <g id="Grupo_1164524" data-name="Grupo 1164524" transform="translate(205 7058)">
                  <g id="Grupo_1144123" data-name="Grupo 1144123">
                    <g transform="matrix(1, 0, 0, 1, -9, -6)" filter="url(#Trazado_978624)">
                      <g id="Trazado_978624-2" data-name="Trazado 978624" transform="translate(9 6)" fill="#f4f4f4">
                        <path d="M 42.5 83.5 C 36.96437835693359 83.5 31.59512901306152 82.41617584228516 26.54141235351562 80.27863311767578 C 21.65934181213379 78.21369171142578 17.27447128295898 75.25723266601562 13.50862312316895 71.49137878417969 C 9.742764472961426 67.72553253173828 6.786305904388428 63.34066009521484 4.721364498138428 58.45858764648438 C 2.583823442459106 53.40486907958984 1.5 48.03562164306641 1.5 42.5 C 1.5 36.96437835693359 2.583823442459106 31.59512901306152 4.721364498138428 26.54141235351562 C 6.786305904388428 21.65934181213379 9.742764472961426 17.27447128295898 13.50862312316895 13.50862312316895 C 17.27447128295898 9.742764472961426 21.65934181213379 6.786305904388428 26.54141235351562 4.721364498138428 C 31.59512901306152 2.583823442459106 36.96437835693359 1.5 42.5 1.5 C 48.03562164306641 1.5 53.40486907958984 2.583823442459106 58.45858764648438 4.721364498138428 C 63.34066009521484 6.786305904388428 67.72553253173828 9.742764472961426 71.49137878417969 13.50862312316895 C 75.25723266601562 17.27447128295898 78.21369171142578 21.65934181213379 80.27863311767578 26.54141235351562 C 82.41617584228516 31.59512901306152 83.5 36.96437835693359 83.5 42.5 C 83.5 48.03562164306641 82.41617584228516 53.40486907958984 80.27863311767578 58.45858764648438 C 78.21369171142578 63.34066009521484 75.25723266601562 67.72553253173828 71.49137878417969 71.49137878417969 C 67.72553253173828 75.25723266601562 63.34066009521484 78.21369171142578 58.45858764648438 80.27863311767578 C 53.40486907958984 82.41617584228516 48.03562164306641 83.5 42.5 83.5 Z" stroke="none"/>
                        <path d="M 42.5 3 C 37.16621398925781 3 31.99356079101562 4.043960571289062 27.125732421875 6.102882385253906 C 22.42246627807617 8.092185974121094 18.19785308837891 10.94070434570312 14.56928253173828 14.56928253173828 C 10.94070434570312 18.19785308837891 8.092185974121094 22.42246627807617 6.102882385253906 27.125732421875 C 4.043960571289062 31.99356079101562 3 37.16621398925781 3 42.5 C 3 47.83378601074219 4.043960571289062 53.00643920898438 6.102882385253906 57.87425231933594 C 8.092185974121094 62.57753372192383 10.94070434570312 66.80213165283203 14.56928253173828 70.43071746826172 C 18.19786834716797 74.05929565429688 22.42246627807617 76.90781402587891 27.125732421875 78.89711761474609 C 31.99356079101562 80.95603942871094 37.16621398925781 82 42.5 82 C 47.83378601074219 82 53.00642395019531 80.95603942871094 57.87425231933594 78.89711761474609 C 62.57753372192383 76.90781402587891 66.80213165283203 74.05929565429688 70.43071746826172 70.43071746826172 C 74.05929565429688 66.80213165283203 76.90781402587891 62.57753372192383 78.89711761474609 57.87425231933594 C 80.95603942871094 53.00642395019531 82 47.83378601074219 82 42.5 C 82 37.16621398925781 80.95603942871094 31.99356079101562 78.89711761474609 27.125732421875 C 76.90781402587891 22.42246627807617 74.05929565429688 18.19786834716797 70.43071746826172 14.56928253173828 C 66.80213165283203 10.94070434570312 62.57753372192383 8.092185974121094 57.87425231933594 6.102882385253906 C 53.00643920898438 4.043960571289062 47.83378601074219 3 42.5 3 M 42.5 0 C 65.97209167480469 0 85 19.02789306640625 85 42.5 C 85 65.97209167480469 65.97209167480469 85 42.5 85 C 19.02789306640625 85 0 65.97209167480469 0 42.5 C 0 19.02789306640625 19.02789306640625 0 42.5 0 Z" stroke="none" fill="#797979"/>
                      </g>
                    </g>
                  </g>
                </g>
              </g>
            </g>
          </g>
        </g>
      </g>
    </g>
    <g id="rinse_4335886" transform="translate(204.522 1639.5)">
      <g id="Grupo_1220413" data-name="Grupo 1220413">
        <g id="Grupo_1220406" data-name="Grupo 1220406">
          <path id="Trazado_1044628" data-name="Trazado 1044628" d="M61.978,13l-6.33,14a24.011,24.011,0,0,0-45.93-5l-5.66-2a30.01,30.01,0,0,1,53.3-5Z" fill="#ff826e"/>
        </g>
        <g id="Grupo_1220407" data-name="Grupo 1220407">
          <path id="Trazado_1044629" data-name="Trazado 1044629" d="M47.978,48.89A24.12,24.12,0,0,0,54.238,40l5.66,2A30.01,30.01,0,0,1,6.6,47l-4.62,2,6.33-14a23.879,23.879,0,0,0,7.67,13.88v.01a.688.688,0,0,0,.13.11,23.988,23.988,0,0,0,31.74,0A.689.689,0,0,0,47.978,48.89Z" fill="#ff826e"/>
        </g>
        <g id="Grupo_1220408" data-name="Grupo 1220408">
          <path id="Trazado_1044630" data-name="Trazado 1044630" d="M34.978,39l-3-6-3,6h-13v9.89a.689.689,0,0,0,.13.11h31.74a.689.689,0,0,0,.13-.11V39Z" fill="#d3a06c"/>
        </g>
        <g id="Grupo_1220409" data-name="Grupo 1220409">
          <path id="Trazado_1044631" data-name="Trazado 1044631" d="M47.978,33l3,6h-16l-3-6h16Z" fill="#b27946"/>
        </g>
        <g id="Grupo_1220410" data-name="Grupo 1220410">
          <path id="Trazado_1044632" data-name="Trazado 1044632" d="M31.978,33l-3,6h-16l3-6h16Z" fill="#b27946"/>
        </g>
        <g id="Grupo_1220411" data-name="Grupo 1220411">
          <path id="Trazado_1044633" data-name="Trazado 1044633" d="M45.978,30v3h-6a8,8,0,0,0-16,0h-6V30l2.47-.31a12.3,12.3,0,0,1,1.04-2.51l-1.53-1.96,4.24-4.24,1.96,1.53a12.3,12.3,0,0,1,2.51-1.04l.31-2.47h6l.31,2.47a12.3,12.3,0,0,1,2.51,1.04l1.96-1.53L44,25.22l-1.53,1.96a12.3,12.3,0,0,1,1.04,2.51Z" fill="#ffc729"/>
        </g>
        <g id="Grupo_1220412" data-name="Grupo 1220412">
          <path id="Trazado_1044634" data-name="Trazado 1044634" d="M39.978,33h-4a4,4,0,0,0-8,0h-4a8,8,0,0,1,16,0Z" fill="#fcd770"/>
        </g>
      </g>
      <g id="Grupo_1220414" data-name="Grupo 1220414">
        <path id="Trazado_1044635" data-name="Trazado 1044635" d="M59.65,39.7l1.908.6a30.929,30.929,0,0,0,.99-4.134l-1.973-.332A28.617,28.617,0,0,1,59.65,39.7Z"/>
        <path id="Trazado_1044636" data-name="Trazado 1044636" d="M31.978,60A28.88,28.88,0,0,1,7.442,46.466l-.457-.724L3.956,47.054,8,38.111a25.013,25.013,0,0,0,47.161,2.264l-1.854-.75A23.106,23.106,0,0,1,48.978,46.5V40H52.6l-4-8H47.069V29.037l-2.734-.342a13.111,13.111,0,0,0-.573-1.392l1.689-2.173-5.6-5.6-2.173,1.689a13.026,13.026,0,0,0-1.392-.573l-.342-2.734H28.014l-.342,2.734a13.111,13.111,0,0,0-1.392.573l-2.173-1.689-5.6,5.6L20.192,27.3a13.026,13.026,0,0,0-.573,1.392l-2.734.342V32H15.358l-4,8h3.618v6.5A22.894,22.894,0,0,1,9.294,34.835l-.544-3.24L0,50.946l6.218-2.693a31.011,31.011,0,0,0,54.61-5.886l-1.861-.734A28.849,28.849,0,0,1,31.978,60ZM18.994,50H44.97a23.086,23.086,0,0,1-25.976,0ZM36.876,32a5,5,0,0,0-9.8,0H25.057A6.991,6.991,0,0,1,38.9,32Zm-4.9-2a3,3,0,0,1,2.816,2H32.6l-.618-1.236L31.359,32h-2.2A3,3,0,0,1,31.978,30Zm15,18h-14V37.236L34.359,40H46.977v8Zm2.381-10H35.6l-2-4H47.36ZM19.068,30.963l2.231-.278.2-.692a10.865,10.865,0,0,1,.938-2.278l.35-.63-1.378-1.771,2.881-2.881,1.771,1.378.63-.35a10.833,10.833,0,0,1,2.278-.938l.692-.2.278-2.231h4.074l.278,2.231.692.2a10.865,10.865,0,0,1,2.278.938l.63.35,1.771-1.378,2.881,2.881-1.378,1.771.35.63a10.834,10.834,0,0,1,.938,2.278l.2.692,2.231.278V32H40.914a9,9,0,0,0-17.882,0H19.064V30.963ZM16.6,34H30.36l-2,4H14.6Zm13,6,1.382-2.764V48h-14V40Z"/>
        <path id="Trazado_1044637" data-name="Trazado 1044637" d="M4.3,22.3,2.4,21.7a30.928,30.928,0,0,0-.99,4.134l1.973.332A28.617,28.617,0,0,1,4.3,22.3Z"/>
        <path id="Trazado_1044638" data-name="Trazado 1044638" d="M31.978,2A28.882,28.882,0,0,1,56.514,15.534l.457.724L60,14.946l-4.045,8.942A25.012,25.012,0,0,0,8.8,21.625l1.854.75a23.008,23.008,0,0,1,44.011,4.79l.544,3.24,8.752-19.352-6.218,2.693a31.012,31.012,0,0,0-54.61,5.887l1.861.734A28.847,28.847,0,0,1,31.978,2Z"/>
        <path id="Trazado_1044639" data-name="Trazado 1044639" d="M28.978,12h2v2h-2Z"/>
        <path id="Trazado_1044640" data-name="Trazado 1044640" d="M24.978,12h2v2h-2Z"/>
        <path id="Trazado_1044641" data-name="Trazado 1044641" d="M36.978,12h2v2h-2Z"/>
        <path id="Trazado_1044642" data-name="Trazado 1044642" d="M32.978,12h2v2h-2Z"/>
      </g>
    </g>
  </g>
</svg>
