<svg xmlns="http://www.w3.org/2000/svg" xmlns:xlink="http://www.w3.org/1999/xlink" width="103" height="103" viewBox="0 0 103 103">
  <defs>
    <filter id="Trazado_978624" x="0" y="0" width="103" height="103" filterUnits="userSpaceOnUse">
      <feOffset dy="3" input="SourceAlpha"/>
      <feGaussianBlur stdDeviation="3" result="blur"/>
      <feFlood flood-opacity="0.161"/>
      <feComposite operator="in" in2="blur"/>
      <feComposite in="SourceGraphic"/>
    </filter>
  </defs>
  <g id="Grupo_1220473" data-name="Grupo 1220473" transform="translate(-185 -3163)">
    <g id="Grupo_1202671" data-name="Grupo 1202671" transform="translate(0 -6230)">
      <g id="Grupo_1178463" data-name="Grupo 1178463" transform="translate(14 6527)">
        <g id="Grupo_1176881" data-name="Grupo 1176881">
          <g id="Grupo_1175148" data-name="Grupo 1175148" transform="translate(0 1580)">
            <g id="Grupo_1173798" data-name="Grupo 1173798" transform="translate(-3 -3520)">
              <g id="Grupo_1171925" data-name="Grupo 1171925" transform="translate(-22 -2246)">
                <g id="Grupo_1164524" data-name="Grupo 1164524" transform="translate(205 7058)">
                  <g id="Grupo_1144123" data-name="Grupo 1144123">
                    <g transform="matrix(1, 0, 0, 1, -9, -6)" filter="url(#Trazado_978624)">
                      <g id="Trazado_978624-2" data-name="Trazado 978624" transform="translate(9 6)" fill="#f4f4f4">
                        <path d="M 42.5 83.5 C 36.96437835693359 83.5 31.59512901306152 82.41617584228516 26.54141235351562 80.27863311767578 C 21.65934181213379 78.21369171142578 17.27447128295898 75.25723266601562 13.50862312316895 71.49137878417969 C 9.742764472961426 67.72553253173828 6.786305904388428 63.34066009521484 4.721364498138428 58.45858764648438 C 2.583823442459106 53.40486907958984 1.5 48.03562164306641 1.5 42.5 C 1.5 36.96437835693359 2.583823442459106 31.59512901306152 4.721364498138428 26.54141235351562 C 6.786305904388428 21.65934181213379 9.742764472961426 17.27447128295898 13.50862312316895 13.50862312316895 C 17.27447128295898 9.742764472961426 21.65934181213379 6.786305904388428 26.54141235351562 4.721364498138428 C 31.59512901306152 2.583823442459106 36.96437835693359 1.5 42.5 1.5 C 48.03562164306641 1.5 53.40486907958984 2.583823442459106 58.45858764648438 4.721364498138428 C 63.34066009521484 6.786305904388428 67.72553253173828 9.742764472961426 71.49137878417969 13.50862312316895 C 75.25723266601562 17.27447128295898 78.21369171142578 21.65934181213379 80.27863311767578 26.54141235351562 C 82.41617584228516 31.59512901306152 83.5 36.96437835693359 83.5 42.5 C 83.5 48.03562164306641 82.41617584228516 53.40486907958984 80.27863311767578 58.45858764648438 C 78.21369171142578 63.34066009521484 75.25723266601562 67.72553253173828 71.49137878417969 71.49137878417969 C 67.72553253173828 75.25723266601562 63.34066009521484 78.21369171142578 58.45858764648438 80.27863311767578 C 53.40486907958984 82.41617584228516 48.03562164306641 83.5 42.5 83.5 Z" stroke="none"/>
                        <path d="M 42.5 3 C 37.16621398925781 3 31.99356079101562 4.043960571289062 27.125732421875 6.102882385253906 C 22.42246627807617 8.092185974121094 18.19785308837891 10.94070434570312 14.56928253173828 14.56928253173828 C 10.94070434570312 18.19785308837891 8.092185974121094 22.42246627807617 6.102882385253906 27.125732421875 C 4.043960571289062 31.99356079101562 3 37.16621398925781 3 42.5 C 3 47.83378601074219 4.043960571289062 53.00643920898438 6.102882385253906 57.87425231933594 C 8.092185974121094 62.57753372192383 10.94070434570312 66.80213165283203 14.56928253173828 70.43071746826172 C 18.19786834716797 74.05929565429688 22.42246627807617 76.90781402587891 27.125732421875 78.89711761474609 C 31.99356079101562 80.95603942871094 37.16621398925781 82 42.5 82 C 47.83378601074219 82 53.00642395019531 80.95603942871094 57.87425231933594 78.89711761474609 C 62.57753372192383 76.90781402587891 66.80213165283203 74.05929565429688 70.43071746826172 70.43071746826172 C 74.05929565429688 66.80213165283203 76.90781402587891 62.57753372192383 78.89711761474609 57.87425231933594 C 80.95603942871094 53.00642395019531 82 47.83378601074219 82 42.5 C 82 37.16621398925781 80.95603942871094 31.99356079101562 78.89711761474609 27.125732421875 C 76.90781402587891 22.42246627807617 74.05929565429688 18.19786834716797 70.43071746826172 14.56928253173828 C 66.80213165283203 10.94070434570312 62.57753372192383 8.092185974121094 57.87425231933594 6.102882385253906 C 53.00643920898438 4.043960571289062 47.83378601074219 3 42.5 3 M 42.5 0 C 65.97209167480469 0 85 19.02789306640625 85 42.5 C 85 65.97209167480469 65.97209167480469 85 42.5 85 C 19.02789306640625 85 0 65.97209167480469 0 42.5 C 0 19.02789306640625 19.02789306640625 0 42.5 0 Z" stroke="none" fill="#797979"/>
                      </g>
                    </g>
                  </g>
                </g>
              </g>
            </g>
          </g>
        </g>
      </g>
    </g>
    <g id="experience_10169721" transform="translate(187.148 3174.466)">
      <g id="Grupo_1220472" data-name="Grupo 1220472" transform="translate(35.792 7.5)">
        <g id="Grupo_1220471" data-name="Grupo 1220471" transform="translate(0 0)">
          <path id="Trazado_1044798" data-name="Trazado 1044798" d="M153.777,87.645h-6.566L141.5,82.97l-5.71,4.676h-6.566a2.284,2.284,0,0,1-2.284-2.284V68.233H156.06V85.362A2.284,2.284,0,0,1,153.777,87.645Z" transform="translate(-126.942 -61.382)" fill="#e8edf2"/>
          <path id="Trazado_1044799" data-name="Trazado 1044799" d="M334.707,68.233V85.362a2.284,2.284,0,0,1-2.284,2.284h3.654a2.284,2.284,0,0,0,2.284-2.284V68.233Z" transform="translate(-309.242 -61.382)" fill="#d9e7ec"/>
          <path id="Trazado_1044800" data-name="Trazado 1044800" d="M156.06,14.351H126.942V9.784A2.284,2.284,0,0,1,129.226,7.5h24.551a2.284,2.284,0,0,1,2.284,2.284v4.568Z" transform="translate(-126.942 -7.5)" fill="#60b7ff"/>
          <path id="Trazado_1044801" data-name="Trazado 1044801" d="M336.077,7.5h-3.654a2.284,2.284,0,0,1,2.284,2.284v4.568h3.654V9.784A2.284,2.284,0,0,0,336.077,7.5Z" transform="translate(-309.242 -7.5)" fill="#26a6fe"/>
        </g>
        <path id="Trazado_1044802" data-name="Trazado 1044802" d="M185.455,160.142v-1.307a.914.914,0,0,0-.763-.9l-2.975-.5a6.8,6.8,0,0,0-.467-1.122L183,153.86a.914.914,0,0,0-.1-1.177l-.924-.924a.914.914,0,0,0-1.177-.1l-2.456,1.754a6.808,6.808,0,0,0-1.122-.467l-.5-2.975a.913.913,0,0,0-.9-.763h-1.307a.914.914,0,0,0-.9.763l-.5,2.975a6.809,6.809,0,0,0-1.122.467l-2.456-1.754a.913.913,0,0,0-1.177.1l-.924.924a.914.914,0,0,0-.1,1.177l1.754,2.456a6.8,6.8,0,0,0-.467,1.122l-2.975.5a.913.913,0,0,0-.763.9v1.307a.914.914,0,0,0,.763.9l2.975.5a6.8,6.8,0,0,0,.467,1.122l-1.754,2.456a.914.914,0,0,0,.1,1.177l.924.924a.914.914,0,0,0,1.177.1l2.456-1.754a6.8,6.8,0,0,0,1.122.467l.5,2.975a.914.914,0,0,0,.9.763h1.307a.914.914,0,0,0,.9-.763l.5-2.975a6.8,6.8,0,0,0,1.122-.467l2.456,1.754a.914.914,0,0,0,1.177-.1l.924-.924a.914.914,0,0,0,.1-1.177l-1.754-2.456a6.806,6.806,0,0,0,.467-1.122l2.975-.5A.914.914,0,0,0,185.455,160.142Zm-7.993-.653a2.284,2.284,0,1,1-2.284-2.284A2.284,2.284,0,0,1,177.462,159.488Z" transform="translate(-160.619 -133.224)" fill="#7a6d79"/>
        <path id="Trazado_1044803" data-name="Trazado 1044803" d="M202.625,175.867l-2.975-.5a6.8,6.8,0,0,0-.467-1.122l1.754-2.456a.914.914,0,0,0-.1-1.177l-.924-.924a.913.913,0,0,0-1.177-.1l-.769.549a9.394,9.394,0,0,1-12.137,12.137l-.549.769a.914.914,0,0,0,.1,1.177l.924.924a.914.914,0,0,0,1.177.1l2.456-1.754a6.808,6.808,0,0,0,1.122.467l.5,2.975a.914.914,0,0,0,.9.763h1.307a.914.914,0,0,0,.9-.763l.5-2.975a6.81,6.81,0,0,0,1.122-.467l2.456,1.754a.914.914,0,0,0,1.177-.1l.924-.924a.914.914,0,0,0,.1-1.177l-1.754-2.456a6.806,6.806,0,0,0,.467-1.122l2.975-.5a.914.914,0,0,0,.763-.9v-1.307A.914.914,0,0,0,202.625,175.867Z" transform="translate(-178.552 -151.158)" fill="#685e68"/>
      </g>
      <path id="Trazado_1044804" data-name="Trazado 1044804" d="M219.586,423.678h-7.993a1.142,1.142,0,0,1-1.142-1.142v-7.993a1.142,1.142,0,0,1,1.142-1.142h7.993a1.142,1.142,0,0,1,1.142,1.142v7.993A1.142,1.142,0,0,1,219.586,423.678Z" transform="translate(-165.238 -360.111)" fill="#6cf5c2"/>
      <path id="Trazado_1044805" data-name="Trazado 1044805" d="M264.487,413.4h-3.426a1.142,1.142,0,0,1,1.142,1.142v7.993a1.142,1.142,0,0,1-1.142,1.142h3.426a1.142,1.142,0,0,0,1.142-1.142v-7.993A1.142,1.142,0,0,0,264.487,413.4Z" transform="translate(-210.139 -360.11)" fill="#00f2a6"/>
      <path id="Trazado_1044806" data-name="Trazado 1044806" d="M33.555,423.677H25.126a.924.924,0,0,1-.924-.924h0a.923.923,0,0,1,.1-.413l4.215-8.43a.924.924,0,0,1,.826-.511h0a.924.924,0,0,1,.826.511l4.215,8.43a.923.923,0,0,1,.1.413h0A.924.924,0,0,1,33.555,423.677Z" transform="translate(0 -360.11)" fill="#ffd15b"/>
      <path id="Trazado_1044807" data-name="Trazado 1044807" d="M61.321,422.34l-4.215-8.43a.924.924,0,0,0-1.653,0l-.887,1.773L57.9,422.34a.924.924,0,0,1-.826,1.337h3.426a.924.924,0,0,0,.826-1.337Z" transform="translate(-26.939 -360.11)" fill="#ffc344"/>
      <circle id="Elipse_12679" data-name="Elipse 12679" cx="5.139" cy="5.139" r="5.139" transform="translate(66.224 53.29)" fill="#fe76a8"/>
      <path id="Trazado_1044808" data-name="Trazado 1044808" d="M408.449,418.253a5.138,5.138,0,0,1-6.9,6.9,5.138,5.138,0,1,0,6.9-6.9Z" transform="translate(-334.78 -364.415)" fill="#fe5694"/>
      <line id="Línea_1184" data-name="Línea 1184" transform="translate(60.343 10.926)" fill="none" stroke="#000" stroke-linecap="round" stroke-linejoin="round" stroke-miterlimit="10" stroke-width="1.5"/>
      <line id="Línea_1185" data-name="Línea 1185" transform="translate(56.917 10.926)" fill="none" stroke="#000" stroke-linecap="round" stroke-linejoin="round" stroke-miterlimit="10" stroke-width="1.5"/>
      <line id="Línea_1186" data-name="Línea 1186" transform="translate(53.492 10.926)" fill="none" stroke="#000" stroke-linecap="round" stroke-linejoin="round" stroke-miterlimit="10" stroke-width="1.5"/>
      <path id="Trazado_1044809" data-name="Trazado 1044809" d="M126.94,24.3V9.783A2.283,2.283,0,0,1,129.224,7.5h24.55a2.283,2.283,0,0,1,2.284,2.283v7.055" transform="translate(-91.148 0)" fill="none" stroke="#000" stroke-linecap="round" stroke-linejoin="round" stroke-miterlimit="10" stroke-width="1.5"/>
      <path id="Trazado_1044810" data-name="Trazado 1044810" d="M126.94,191.39v3.235a2.283,2.283,0,0,0,2.284,2.283h2" transform="translate(-91.148 -163.145)" fill="none" stroke="#000" stroke-linecap="round" stroke-linejoin="round" stroke-miterlimit="10" stroke-width="1.5"/>
      <path id="Trazado_1044811" data-name="Trazado 1044811" d="M351.382,125.28v10.693a2.283,2.283,0,0,1-2.284,2.283h-2" transform="translate(-286.471 -104.493)" fill="none" stroke="#000" stroke-linecap="round" stroke-linejoin="round" stroke-miterlimit="10" stroke-width="1.5"/>
      <line id="Línea_1187" data-name="Línea 1187" x2="29.118" transform="translate(35.792 14.351)" fill="none" stroke="#000" stroke-linecap="round" stroke-linejoin="round" stroke-miterlimit="10" stroke-width="1.5"/>
      <path id="Trazado_1044812" data-name="Trazado 1044812" d="M185.455,160.142v-1.307a.914.914,0,0,0-.763-.9l-2.975-.5a6.8,6.8,0,0,0-.467-1.122L183,153.86a.914.914,0,0,0-.1-1.177l-.924-.924a.914.914,0,0,0-1.177-.1l-2.456,1.754a6.808,6.808,0,0,0-1.122-.467l-.5-2.975a.913.913,0,0,0-.9-.763h-1.307a.914.914,0,0,0-.9.763l-.5,2.975a6.809,6.809,0,0,0-1.122.467l-2.456-1.754a.913.913,0,0,0-1.177.1l-.924.924a.914.914,0,0,0-.1,1.177l1.754,2.456a6.8,6.8,0,0,0-.467,1.122l-2.975.5a.913.913,0,0,0-.763.9v1.307a.914.914,0,0,0,.763.9l2.975.5a6.8,6.8,0,0,0,.467,1.122l-1.754,2.456a.914.914,0,0,0,.1,1.177l.924.924a.914.914,0,0,0,1.177.1l2.456-1.754a6.8,6.8,0,0,0,1.122.467l.5,2.975a.914.914,0,0,0,.9.763h1.307a.914.914,0,0,0,.9-.763l.5-2.975a6.8,6.8,0,0,0,1.122-.467l2.456,1.754a.914.914,0,0,0,1.177-.1l.924-.924a.914.914,0,0,0,.1-1.177l-1.754-2.456a6.806,6.806,0,0,0,.467-1.122l2.975-.5A.914.914,0,0,0,185.455,160.142Zm-7.993-.653a2.284,2.284,0,1,1-2.284-2.284A2.284,2.284,0,0,1,177.462,159.488Z" transform="translate(-124.827 -125.724)" fill="none" stroke="#000" stroke-linecap="round" stroke-linejoin="round" stroke-miterlimit="10" stroke-width="1.5"/>
      <path id="Trazado_1044813" data-name="Trazado 1044813" d="M210.45,420.787v1.749a1.142,1.142,0,0,0,1.142,1.142h7.994a1.142,1.142,0,0,0,1.142-1.142v-7.994a1.142,1.142,0,0,0-1.142-1.142h-7.994a1.142,1.142,0,0,0-1.142,1.142v2.3" transform="translate(-165.237 -360.11)" fill="none" stroke="#000" stroke-linecap="round" stroke-linejoin="round" stroke-miterlimit="10" stroke-width="1.5"/>
      <path id="Trazado_1044814" data-name="Trazado 1044814" d="M33.555,423.677H25.126a.924.924,0,0,1-.924-.924h0a.923.923,0,0,1,.1-.413l4.215-8.43a.924.924,0,0,1,.826-.511h0a.924.924,0,0,1,.826.511l4.215,8.43a.923.923,0,0,1,.1.413h0A.924.924,0,0,1,33.555,423.677Z" transform="translate(0 -360.11)" fill="none" stroke="#000" stroke-linecap="round" stroke-linejoin="round" stroke-miterlimit="10" stroke-width="1.5"/>
      <circle id="Elipse_12680" data-name="Elipse 12680" cx="5.139" cy="5.139" r="5.139" transform="translate(66.224 53.29)" fill="none" stroke="#000" stroke-linecap="round" stroke-linejoin="round" stroke-miterlimit="10" stroke-width="1.5"/>
      <line id="Línea_1188" data-name="Línea 1188" y1="9.249" transform="translate(50.351 44.041)" fill="none" stroke="#000" stroke-linecap="round" stroke-linejoin="round" stroke-miterlimit="10" stroke-width="1.5"/>
      <path id="Trazado_1044815" data-name="Trazado 1044815" d="M69.752,377.03v-4.625h42.022v4.625" transform="translate(-40.411 -323.74)" fill="none" stroke="#000" stroke-linecap="round" stroke-linejoin="round" stroke-miterlimit="10" stroke-width="1.5"/>
    </g>
  </g>
</svg>
