<svg xmlns="http://www.w3.org/2000/svg" xmlns:xlink="http://www.w3.org/1999/xlink" width="600" height="209.109" viewBox="0 0 600 209.109">
  <defs>
    <clipPath id="clip-path">
      <rect id="Rectángulo_419388" data-name="Rectángulo 419388" width="600" height="209.109" transform="translate(810 2238.941)" fill="#fff" opacity="0.4"/>
    </clipPath>
    <clipPath id="clip-path-2">
      <rect id="Rectángulo_419389" data-name="Rectángulo 419389" width="225.091" height="209.109" transform="translate(0 0)" fill="none"/>
    </clipPath>
    <filter id="Trazado_1043752" x="157.971" y="17.845" width="78.238" height="77.476" filterUnits="userSpaceOnUse">
      <feOffset dy="3" input="SourceAlpha"/>
      <feGaussianBlur stdDeviation="3" result="blur"/>
      <feFlood flood-opacity="0.161"/>
      <feComposite operator="in" in2="blur"/>
      <feComposite in="SourceGraphic"/>
    </filter>
    <clipPath id="clip-path-3">
      <rect id="Rectángulo_419390" data-name="Rectángulo 419390" width="66.85" height="92.116" fill="none"/>
    </clipPath>
    <clipPath id="clip-path-4">
      <rect id="Rectángulo_419391" data-name="Rectángulo 419391" width="92.572" height="96.95" fill="none"/>
    </clipPath>
  </defs>
  <g id="Enmascarar_grupo_1098809" data-name="Enmascarar grupo 1098809" transform="translate(-810 -2238.941)" clip-path="url(#clip-path)">
    <path id="Trazado_1043776" data-name="Trazado 1043776" d="M10,0H495a10,10,0,0,1,10,10v90.934a10,10,0,0,1-10,10H10a10,10,0,0,1-10-10V10A10,10,0,0,1,10,0Z" transform="translate(853 2312.033)" fill="#b0d5f0"/>
    <g id="Grupo_1203657" data-name="Grupo 1203657" transform="translate(-7)">
      <g id="Grupo_1203656" data-name="Grupo 1203656" transform="translate(22.091)">
        <g id="Grupo_1203648" data-name="Grupo 1203648" transform="translate(1004.909 2238.937)">
          <g id="Grupo_1203647" data-name="Grupo 1203647" transform="translate(0 0.004)" clip-path="url(#clip-path-2)">
            <path id="Trazado_1043624" data-name="Trazado 1043624" d="M2673.557,827.923a23.265,23.265,0,0,0-2.5,6.172,6.078,6.078,0,0,0,1.971,5.8c1.209,1.141,2.391,2.311,3.586,3.468.5.16.671.612.9,1.015a2.808,2.808,0,0,0,.265.491c1.48,1.715,3.1,3.357,2.743,6a4.45,4.45,0,0,0,1.182-2.079,2.176,2.176,0,0,1,2.156-1.462c2.278-.017,4.557,0,6.833-.169a30.232,30.232,0,0,1,14.987,11.451c2.449,3.452,3.461,7.628,4.447,11.711a42.482,42.482,0,0,1,.956,14.991,17.4,17.4,0,0,1-2.156,6.305,55.232,55.232,0,0,1-12.61,15.6,87.7,87.7,0,0,1-7.654,6.333c-.832-.085-.962-.793-1.193-1.382-3.328-8.475-6.265-17.089-9.251-25.687-1.628-4.687-4.158-8.965-6.5-13.324a109.5,109.5,0,0,0-7.041-11.6,9.977,9.977,0,0,0-2.239-2.482,57.716,57.716,0,0,0-5.074-5.018c-4.6-3.509-9.364-6.672-15.064-8.135-1.429-.367-1.746-.849-1.663-2.16.186-2.924-.312-3.709-3-4.724a1.7,1.7,0,0,1-.72-.418,3.493,3.493,0,0,1-.188-2.313,8.388,8.388,0,0,0-2.249-6.392c-2.907-3.289-6.767-4.361-10.939-4.858-2.406-.286-4.825-.068-7.219-.4a.829.829,0,0,1-.26-.372,2.071,2.071,0,0,1,.232-1.476,26.47,26.47,0,0,0,2.246-7.974,2.754,2.754,0,0,1,.319-1.053c.63-.611.894.051,1.193.385a10.177,10.177,0,0,0,2.174,2.12c.638.252,1.194-.078,1.773-.256,1.965-.485,2.6-1.807,2.846-3.749.843-6.719,2.4-13.319,3.557-19.988a6.721,6.721,0,0,0,.037-2.769c.646-1.4,1.664-1.536,2.568-.337a6.249,6.249,0,0,1,.734,1.642c-.066,2.388-.916,4.626-1.374,6.94-1.007,5.085-1.677,10.23-2.86,15.4.654,0,.971-.458,1.4-.654.614-.22,1.046-.749,1.65-.985a3.265,3.265,0,0,0,1.318-2.054,33.282,33.282,0,0,0,2.086-9.334c.077-1.179.693-2.349.15-3.554-.125-1.09-.979-2.028-.677-3.208a1.443,1.443,0,0,1,.517-.651,19.022,19.022,0,0,1,10.079-3.411,2.693,2.693,0,0,1,2.108,1.23c.718.828,1.471,1.605,2.736,1.3a.479.479,0,0,1,.406.061c2.179,1.934,4.37.531,6.437-.138a5.067,5.067,0,0,1,4.167.17,27.938,27.938,0,0,1,14.792,17.953c1.538,5.468.439,10.545-1.993,15.475a24.878,24.878,0,0,0-1.115,2.557" transform="translate(-2490.69 -750.608)" fill="#64b1f1"/>
            <path id="Trazado_1043625" data-name="Trazado 1043625" d="M799.733,3564.028a213.894,213.894,0,0,1-22.424-2.325,237.739,237.739,0,0,1-30.759-6.738c-1.345-1.439-.791-3.267-.932-4.927a14.9,14.9,0,0,1,.139-3.324,28.706,28.706,0,0,1,1.019-5.758c1.568-4.845,3.745-9.323,7.539-12.881,2.873-2.694,6-4.176,10.125-3.418a85.684,85.684,0,0,1,11.482,3c.448.213.939.328,1.376.568a53.155,53.155,0,0,1,5.757,2.283c.912.43,1.774.957,2.68,1.4,2.063,1.084,4.045,2.31,6.086,3.432a107.149,107.149,0,0,1,12.371,8.991,3.805,3.805,0,0,0,.822.514c1.956,1.45,3.894,2.924,5.735,4.521q2.089,1.522,4.139,3.094c.439.335.941.623,1.124,1.2.073.674-.42.991-.857,1.332-4.039,3.149-8.324,5.947-12.586,8.775a4.092,4.092,0,0,1-2.839.259" transform="translate(-709.864 -3355.638)" fill="#201f50"/>
            <path id="Trazado_1043626" data-name="Trazado 1043626" d="M2089.27,3662.74a218.807,218.807,0,0,1-30.6,5.182,311.926,311.926,0,0,1-37.322,1.776c-3.265-.05-6.529-.207-9.793-.314-.293-.5.125-.687.426-.85,6.347-3.422,11.628-8.255,17.082-12.861,5.536-4.676,11.2-9.165,17.7-12.476,4.45-2.266,8.93-4.422,13.194-4.86a41.9,41.9,0,0,0-11.611,3.844c-1.656.816-3.538,1.163-5.221,1.988a.888.888,0,0,1-1.047-.146c-.017-.953.789-1.184,1.4-1.531a54.77,54.77,0,0,1,12.449-5.56,3.32,3.32,0,0,0,.382-.174c5.04-1.4,10.123-2.433,15.4-1.885a16.685,16.685,0,0,1,2.261.3c.416.117.847.177,1.26.311.769.31,1.589.475,2.352.806.916.342,1.753.854,2.653,1.235,5.479,3.241,8.469,8.131,9.492,14.326.259,1.57.333,3.155.462,4.739-.09,1.2-.111,2.4-.083,3.6a3.347,3.347,0,0,1-.839,2.55" transform="translate(-1915.108 -3460.621)" fill="#201f50"/>
            <path id="Trazado_1043627" data-name="Trazado 1043627" d="M417.922,2271.36a100.018,100.018,0,0,0-11.9-3.023,9.782,9.782,0,0,0-8.274,2.357,25.635,25.635,0,0,0-7.292,10.264c-.43,1.06-.794,2.147-1.188,3.221-1.983-1.022-4.007-.18-6.009-.11-3.814.134-7.634.493-11.365-.7a11.5,11.5,0,0,1-1.9-5.054c-1.18-6.136.143-11.979,2.14-17.74a18.677,18.677,0,0,0,1.158-3.581,1.994,1.994,0,0,1,.282-1.73c1.019-2.252,2-4.52,3-6.782.482-1.7,1.643-3.029,2.524-4.5,4.8-8.006,9.222-16.238,14.133-24.179a125.14,125.14,0,0,1,9.641-14.084c.525-.636.974-1.571,2.115-1.177a19.748,19.748,0,0,0,2.752,3.158,4.654,4.654,0,0,1,1.205,1.7c1.853,5.207,3.458,10.466,3.381,16.079a9.922,9.922,0,0,1-.057,1.259c-.22,1.549-.936,2.052-2.416,1.593-1.611-.5-3.271-.769-4.9-1.177a6.734,6.734,0,0,0-3.187.051c-1.425.323-1.882,1.026-1.434,2.448.73,2.317,1.727,4.538,2.506,6.839a38.256,38.256,0,0,1,1.188,5.326,1.5,1.5,0,0,1-.329,1.439c-.7.367-1.164-.12-1.607-.5a46.307,46.307,0,0,1-6.27-6.905,29.046,29.046,0,0,1,1.99,3.058,34.628,34.628,0,0,0,5.9,7.744c1.2,1.3,2.52,2.5,3.74,3.783.446.47,1.011,1,.715,1.7-.286.681-1.042.711-1.694.774-2.439.236-4.451-.857-6.353-2.16a63.972,63.972,0,0,1-7.361-6.376c.4.485.9.91,1.332,1.395.822,1.1,2.054,1.851,2.681,3.12a17.091,17.091,0,0,0,.919,1.727c.89,1.439.5,2.5-1.1,3.03-1.775.584-3.618.952-5.376,1.588-3.873,1.4-7.742,2.819-10.721,5.861a10.1,10.1,0,0,0-1.5,1.845c-.3.5-.985,1.049-.6,1.576.361.5,1.15.116,1.709-.016,1.5-.354,3-.711,4.464-1.206a66.817,66.817,0,0,1,20.4-3.2c.728-.013,1.516-.14,2.108.494-.088.762-.728.735-1.248.852-2.733.618-5.524.894-8.28,1.381a71.849,71.849,0,0,0-15.432,4.468,2.254,2.254,0,0,0-1.387.964,2.619,2.619,0,0,0,1.808.5,28.677,28.677,0,0,0,7.374-.595c7.544-1.531,15.1-3,22.606-4.711,1.458-.332,2.861-.857,4.31-1.22,1.487-.373,1.952.015,1.474,1.406a3.529,3.529,0,0,0,.566,3.537,12.093,12.093,0,0,1-.139,3.247c-.029.435-.189.916-.8.924" transform="translate(-351.848 -2098.861)" fill="#fec53b"/>
            <path id="Trazado_1043628" data-name="Trazado 1043628" d="M3309.988,2344.469a45.683,45.683,0,0,0-.824-6.225,18.741,18.741,0,0,0-7.885-11.625c-.344-.23-.66-.5-.989-.756a1.343,1.343,0,0,1-.488-1.1c.25-1.583,0-3.206.4-4.771.518-.84,1.1-.456,1.642-.048a19.606,19.606,0,0,1,1.8,1.952c5.045,5,10.01,10.079,15.464,14.641a13.284,13.284,0,0,0,4.616,2.6,2.8,2.8,0,0,0,2.757-.509,13.14,13.14,0,0,0,3.19-15.451,11.581,11.581,0,0,0-1.809-2.306c-.387-.425-.968-.813-.639-1.551.836-.458,1.426.091,2.009.531a17.353,17.353,0,0,1,2.665,2.748c.745-5.816-3.134-10.505-9.126-11.025-2.682-.233-5.417-.365-7.872,1.168a13.734,13.734,0,0,1-3.734-.347,70.44,70.44,0,0,0-9.463-.565,2.5,2.5,0,0,1-1.09-.2c-.765-.428-.458-1.014-.044-1.371a56.751,56.751,0,0,0,6.448-6.793.575.575,0,0,1,.651-.117c.835.633.539,1.407.231,2.149a21.433,21.433,0,0,1-2.708,4.366,7.384,7.384,0,0,0,3.912-1.865,15.865,15.865,0,0,0,4.777-6.639,30.862,30.862,0,0,0,1.707-11.541c-.154-8.749-4.15-16.183-7.833-23.731-.889-1.822-1.017-1.721-2.239-.1a38.567,38.567,0,0,0-5.78,10.034,24.532,24.532,0,0,0-1.7,11.123,13.239,13.239,0,0,0,6.813,10.519,5.5,5.5,0,0,0,2.3.525c.71.072,1.377.354,1.331,1.154-.069,1.189.126,2.439-.549,3.541a4.628,4.628,0,0,0-1.4,1.1,43.087,43.087,0,0,1-7.673,7.116c-.16-.02-.025.32-.027.133,0-.057.036-.064.1-.08.313-.082.552-.06.545.352-.634.787-1.37.329-2.083.176a3.041,3.041,0,0,1-1.961-1.2,12.246,12.246,0,0,1-.866-3.524c-.411-2.583-1.115-5.111-1.437-7.71-.008-.543-.006-1.086-.006-1.629a64.007,64.007,0,0,1,6.011-27.653c1.04-2.238,2.349-4.346,3.582-6.487a8.752,8.752,0,0,0,1.134-2.391c.761-1.755,1.608-3.443,3.473-4.312,1.122.444,1.654,1.47,2.3,2.368,4.141,5.736,7.316,12.037,10.639,18.25,3.46,6.469,5.168,13.6,7.75,20.4,1.639,4.32,3.208,8.667,4.823,13a4.873,4.873,0,0,0,.508.825c.526,2.238,1.628,4.264,2.35,6.431a26.2,26.2,0,0,1,.472,16.377,7.587,7.587,0,0,0-.167.956c.283,1.377-.448,2.519-.945,3.68-.84,1.966-1.869,3.829-3.959,4.787a58.708,58.708,0,0,1-7.862,2.986c-2.847.04-5.55-.935-8.359-1.179-1.057-.092-2.1-.343-3.163-.417a2.507,2.507,0,0,1-1.72-.763" transform="translate(-3135.378 -2148.672)" fill="#f3a62f"/>
            <path id="Trazado_1043629" data-name="Trazado 1043629" d="M25.128,1312.332l-3.682,8.423a16.882,16.882,0,0,1-4.144-3.049A48.218,48.218,0,0,1,3.819,1299.6a50.817,50.817,0,0,1-3.677-16.269c-.93-12.369,2.7-23.275,10.413-32.863A61.293,61.293,0,0,1,24.1,1238.443a96.554,96.554,0,0,1,26.074-12.7,118.565,118.565,0,0,1,20.039-4.358,15.335,15.335,0,0,1,2.775-.264,2.468,2.468,0,0,1,1.39,2.828,1.864,1.864,0,0,1-1.409.493,118.646,118.646,0,0,0-39.942,11.492,54.584,54.584,0,0,0-17.236,13.239,59.611,59.611,0,0,0-9.533,13.955A36.158,36.158,0,0,0,2.6,1282.7a3.769,3.769,0,0,1,.035.979c-.683,4.256,1.37,7.608,3.647,10.846a66.773,66.773,0,0,0,16.706,16.026,8.455,8.455,0,0,1,2.142,1.783" transform="translate(0 -1162.618)" fill="#83c8f4"/>
            <path id="Trazado_1043630" data-name="Trazado 1043630" d="M1483.05,44.2a17.425,17.425,0,0,1-.391-4.987,39.918,39.918,0,0,1,1.269-13.053,18.514,18.514,0,0,1,7.312-10.436c-1.427-1.254-2.822-2.47-2.715-4.527a4,4,0,0,1,1.09-2.567c.727,3.163,1.917,3.855,5.07,3.088,2.964-.721,5.641-2.224,8.544-3.111,3.246-.992,6.489-1.4,9.728-.007a1.881,1.881,0,0,0,1.478-.062,15.5,15.5,0,0,1,3.6-.965c-1.021-1.277-2.01-2.429-2.9-3.651-1-1.368-.71-1.922,1-2.115a8.41,8.41,0,0,1,6.144,1.867,22.676,22.676,0,0,1,3.306,3.068c-.746-2.143-1.553-4.261-.5-6.739,2.415,4.321,6.124,6.233,10.606,6.987,2.39.4,4.622,1.161,5.926,3.637.175-1.34-.364-2.413-.549-3.558,1.624.764,2.324,2.011,2.422,4.265,1.008-1.186,1.164-1.846,1.267-5.5a4.318,4.318,0,0,1,1.675,4.335,2.288,2.288,0,0,1-2.282,2.373c.121.538.568.656.906.864,7.1,4.367,10.458,10.935,11.223,19.031.123,1.3.215,2.606.322,3.91.953,1.924.619,3.9.241,5.88-.272.466-.6.815-1.205.554-1.181-.556-1.235-1.638-1.269-2.728-.515-2.484-.206-5.023-.519-7.532a24.294,24.294,0,0,0-4.9-12.624c-1.3-1.628-3.059-2.712-4.515-4.023a15.832,15.832,0,0,1,2.328,3.384,20.667,20.667,0,0,0,2.873,4.3c1.079,1.181.88,1.741-.65,2.242-.913,0-1.252-.675-1.616-1.343a25.557,25.557,0,0,0-7-8.452,31.759,31.759,0,0,0-17.322-6.065,39.649,39.649,0,0,0-16.36,2.462,25.288,25.288,0,0,0-14.954,13.7c-.408.884-.695,1.888-1.927,1.964-1.495-.29-2.041-.858-2.183-2.267a5.912,5.912,0,0,1,4.852-6.376c-1.244-.587-1.388-.965-.7-1.825a21.944,21.944,0,0,0-6.472,14.053c-.194,3.3-.682,6.608-.115,9.921a5.055,5.055,0,0,1,.192,1.5,1.956,1.956,0,0,1-1.389,1.621.935.935,0,0,1-.938-.495" transform="translate(-1411.592 -0.004)" fill="#1f1f51"/>
            <path id="Trazado_1043631" data-name="Trazado 1043631" d="M3895.4,1694.165a28.106,28.106,0,0,1-6.677.321c-.986,0-1.574.263-1.825,1.262a18.368,18.368,0,0,1-.758,2.1c-.153.4-.334.827-.866.742-.473-.076-.472-.509-.511-.878-.034-.324-.07-.649-.085-.974-.073-1.557-.319-2.948-1.829-3.927a4.2,4.2,0,0,1-1.456-2.791c0-2.424,0-4.849.005-7.274a4.775,4.775,0,0,1,4.813-5.064c2.656-.086,5.317-.063,7.974-.015,2.022.037,4.094,1.626,4.221,3.615a42.333,42.333,0,0,1-.164,9.892,4.763,4.763,0,0,1-.279.786,2.5,2.5,0,0,1-2.563,2.205" transform="translate(-3695.476 -1597.265)" fill="#f4fefe"/>
            <path id="Trazado_1043632" data-name="Trazado 1043632" d="M4173.825,1979.128a10.134,10.134,0,0,0,2.563-2.205c3.234,1.323,6.539,2.46,9.653,4.087,6.956,3.635,11.727,9.023,12.7,16.941a34.521,34.521,0,0,1-3,18.554,41.423,41.423,0,0,1-2.918,5.884c-.2.311-.339.669-.7.85a31.772,31.772,0,0,0,1.936-11.648,47.856,47.856,0,0,0-4.761-19.684c-1.751-3.649-4.887-6.195-8.041-8.624a32.484,32.484,0,0,0-7.434-4.155" transform="translate(-3973.898 -1882.228)" fill="#82c8f4"/>
            <path id="Trazado_1043633" data-name="Trazado 1043633" d="M3023.919,753.181c.287-2.041.009-4.094.124-6.138a84.162,84.162,0,0,1,10.878-.582,40.319,40.319,0,0,1,20.548,5.545c6.887,4.12,10.665,10.28,11.511,18.321.7,6.631-1.305,12.388-5.074,17.687a9.608,9.608,0,0,1,1.356-4.366c3.678-7.926,1.865-15.172-2.69-22.061a26.914,26.914,0,0,0-10.213-8.933c-1.294-.68-2.477-1.119-4.06-.3a11.86,11.86,0,0,1-6.358,1.068c-.8-.059-.234-.743-.4-1.178-1.315,1.2-2.428.071-2.865-.666-1.356-2.289-3.265-1.845-5.141-1.347a20.493,20.493,0,0,0-7.518,3.27.219.219,0,0,1-.134-.194q0-.128.035-.128" transform="translate(-2879.04 -710.7)" fill="#82c7f4"/>
            <path id="Trazado_1043634" data-name="Trazado 1043634" d="M1913.246,3705.318c1.141.016,1.918-.9,2.949-1.155,2.887-.707,5.449-2.242,8.242-3.22a57.128,57.128,0,0,1,8.443-1.759.583.583,0,0,1,.677.254c-.58.515-1.333.272-1.968.4-5.561,1.113-10.584,3.55-15.483,6.268-6.678,3.7-12.407,8.682-18.192,13.6-4.323,3.675-8.659,7.362-13.642,10.175-.5.284-1.223.216-1.522.854a63.778,63.778,0,0,1-6.58-.372c1.655.319,2.742-.8,3.949-1.583,3.977-2.583,7.869-5.29,11.648-8.157.228-.173.453-.328.48-.642.038-.687.573-1,1.03-1.38,1.129-.931,2.4-1.667,3.5-2.637a175.5,175.5,0,0,1,14.448-10.052c.6-.361,1.169-1,2.016-.593" transform="translate(-1786.302 -3521.972)" fill="#2a3272"/>
            <path id="Trazado_1043635" data-name="Trazado 1043635" d="M299.432,3906.205a35.864,35.864,0,0,0,.347,8.426c-6.791-2.023-13.369-4.649-20.018-7.075a8.913,8.913,0,0,1-2.925-1.607c-.742-.656-.664-1.106.208-1.555a22.953,22.953,0,0,1,6.43-1.792c.4-.076.85.017,1.172-.338a.691.691,0,0,1,.546.023c2.937,1.91,6.413,1.78,9.65,2.544,1.04.245,2.1.423,3.16.594a2.035,2.035,0,0,1,1.43.779" transform="translate(-263.093 -3715.305)" fill="#62b1f2"/>
            <path id="Trazado_1043636" data-name="Trazado 1043636" d="M434.772,3850.567c-3.628-.644-7.248-1.332-10.886-1.911a7.555,7.555,0,0,1-3.9-2.029c-.4-.878-1.237-1.488-1.507-2.448.7-.634,1.419-.116,2.117-.022a50.329,50.329,0,0,0,12.592-.2c.984-.115,2.3-.65,2.665,1.029l-1.081,5.582" transform="translate(-398.434 -3659.667)" fill="#f4a52c"/>
            <path id="Trazado_1043637" data-name="Trazado 1043637" d="M3636.4,4087.619a100.656,100.656,0,0,1,10.987,1.676c.765.167,1.5.453,2.256.684a88.784,88.784,0,0,1-12.74,3.732l-.949.23a50.986,50.986,0,0,0,.448-6.322" transform="translate(-3461.788 -3891.822)" fill="#61b1f3"/>
            <path id="Trazado_1043638" data-name="Trazado 1043638" d="M1475.4,922.683l.827.29c.769.221,1.072.882,1.35,1.516a46.5,46.5,0,0,1,4.272,17.09,2.112,2.112,0,0,1-.151,1.231c-1.283.537-1.646-.471-2.135-1.27-1.468-4.87-2.91-9.75-4.55-14.568a5.162,5.162,0,0,1-.425-2.18c-.06-.831.552-1.4.813-2.109" transform="translate(-1403.943 -878.487)" fill="#385fb2"/>
            <path id="Trazado_1043639" data-name="Trazado 1043639" d="M4085.879,3906.253c2.617-2.253,3.769-5.355,4.9-8.467a19.451,19.451,0,0,1,5.32,1.646c1.692.864,1.713,1.759.022,2.785a35.746,35.746,0,0,1-6.767,3,17.118,17.118,0,0,1-3.479,1.033" transform="translate(-3890.165 -3711.082)" fill="#62b1f3"/>
            <path id="Trazado_1043641" data-name="Trazado 1043641" d="M1468.894,966.712a40.986,40.986,0,0,1,2.481,6.8c1.081,3.317,2.027,6.678,3.03,10.021-1.375.1-1.867-.376-1.906-1.837a13.345,13.345,0,0,0-1.263-2.792,61.338,61.338,0,0,1-2.531-10.162,2.637,2.637,0,0,1,.189-2.032" transform="translate(-1398.249 -920.407)" fill="#f4d23f"/>
            <path id="Trazado_1043642" data-name="Trazado 1043642" d="M1255.795,1565.6a28.366,28.366,0,0,0-3.127,4.259,2.07,2.07,0,0,1-1.057,1.591c-1.561.157-1.982,1.592-2.7,2.581a22.912,22.912,0,0,0-3.8,8.48,1.885,1.885,0,0,1-.678,1.338c-2.321,1.129-2.787,1.022-4.274-1.1-1.709-2.444-3.2-5.055-5.377-6.887a27.724,27.724,0,0,1,2.679,12.242,7.931,7.931,0,0,1-.334,2.345,26.8,26.8,0,0,1-9.3,17.126,4.1,4.1,0,0,1-1.829.984c-2.827-.886-5.551-1.911-6.633-5.083a73.441,73.441,0,0,1,.035-8.82,4.539,4.539,0,0,0-.065-1.255,5.277,5.277,0,0,1-.032-1.222,4.83,4.83,0,0,0-1.351-4.708,4.162,4.162,0,0,0-2.966-1.012c-7.556,0-15.107.29-22.662.37a39.59,39.59,0,0,0-7.941.429,2.288,2.288,0,0,0-1.027.386,10.5,10.5,0,0,0-2.253,2.731,4.519,4.519,0,0,0-.4,2.309c0,3.446.015,6.891,0,10.337-.01,1.737-.508,2.1-2.241,1.872-2.36-.315-4.734-.626-6.883.832a4.816,4.816,0,0,0-1.821,1.6c-.351.5-.711.959-1.422.842a24.986,24.986,0,0,1-7.976-7.15c-3.8-5.5-5.882-11.83-7.91-17.261.428,1.92,1.77,4.42,2.371,7.167a52.18,52.18,0,0,1,1.039,8.044,66.263,66.263,0,0,0,1.515,12.073,18.9,18.9,0,0,0,2.7,6.118c.307.452.822.922.535,1.5-.312.63-1.045.606-1.628.547-2.175-.218-4.379.236-6.539-.305a3.056,3.056,0,0,1-.654-.708c-.74-1.713-.585-3.557-.781-5.351-.262-2.4-.675-4.785-.977-7.182a3.176,3.176,0,0,0-.138-1.849c.017-1.491-.667-2.888-.587-4.388a5.443,5.443,0,0,0,.238-2.625,108.561,108.561,0,0,0-1.5-13.624,69.062,69.062,0,0,0-7.633-20.38c-.17-.293-.3-.585-.708-.555-.426-.217-.944-.231-1.313-.584.057-.828.746-1.146,1.29-1.557a48.409,48.409,0,0,1,12.974-7.415c1.01-.357,1.183-.881.834-1.911a5.274,5.274,0,0,1,1.756-6.286,2.173,2.173,0,0,1,2.184-.6c.115.345.107.684.52.953a23.415,23.415,0,0,1,4,3.231,10.925,10.925,0,0,1-2.674-3.012,4.1,4.1,0,0,0-1.771-1.7,5.121,5.121,0,0,1-.006-4.466,10.806,10.806,0,0,1,5.267-5.592c3.195-1.783,6.716-2.236,10.281-2.375a14.958,14.958,0,0,1,5.016.234,3.485,3.485,0,0,1,1.422,3.676,1.137,1.137,0,0,1-.265.4,4.41,4.41,0,0,1-2.583.4c-2.7.048-5.43-.231-8.06.65-1.513.507-3.048,1.011-3.666,2.728a5,5,0,0,0,.478,3.579c.287.726.822,1.325,1.081,2.067a4.044,4.044,0,0,0,1.7,2.933c4.835,3.907,9.5,8.032,14.669,11.513.765.515,1.62,1.055,1.289,2.238a5.811,5.811,0,0,1-.695,1.015,2.17,2.17,0,0,0,.244,2.778c.375.448.929.772,1.014,1.429a.861.861,0,0,1-1.164.863c-1.583-.5-3.248-.258-4.84-.686a17.3,17.3,0,0,1-4.569-2.058,3.365,3.365,0,0,0-1.942-.7,37.794,37.794,0,0,1-8.752-5.2c2.467,1.887,4.447,3.876,6.661,5.6a32.917,32.917,0,0,0,15.045,6.37,3.069,3.069,0,0,1,1.464.411,5.483,5.483,0,0,1,.834,3.872,10.932,10.932,0,0,1-3.346,7.343,2.182,2.182,0,0,0-.816,1.229,11.31,11.31,0,0,0,4.66-8.855c.056-1-.235-2.067.432-2.99a2.321,2.321,0,0,1,1.866-.382,62.483,62.483,0,0,0,7.963.464c.593-.016,1.236-.114,1.683.453.5,1.065.246,2.2.281,3.309a12.163,12.163,0,0,0,2.747,7.618,4.726,4.726,0,0,0,.669.714.426.426,0,0,0,.465.057c.137-.522-.338-.769-.6-1.092a12.213,12.213,0,0,1-2.581-9.973,2.049,2.049,0,0,1,.606-1.375c4.671.2,8.663-1.8,12.632-3.892a45.167,45.167,0,0,0,11.61-8.665,15.448,15.448,0,0,0,2.817-3.726,13.038,13.038,0,0,0-3.513,1.382c-2.574,1.425-5.032,3.033-7.47,4.676a4.992,4.992,0,0,1-1.852.956,4.827,4.827,0,0,0-2.393,1.016,35.149,35.149,0,0,1-5.855,2.471,1.6,1.6,0,0,1-2.095-.538,1.959,1.959,0,0,1-.246-.783c-.11-1.007-.55-1.687-1.675-1.532a1.66,1.66,0,0,0-1.54,1.927,4.706,4.706,0,0,1,0,.965,2.267,2.267,0,0,1-1.871,2.275,3.935,3.935,0,0,0-1.023.436c-3.383,2.048-6.821,1.631-10.3.283a5.389,5.389,0,0,1-1.652-1.005,1.684,1.684,0,0,1-.4-2.023,17.457,17.457,0,0,0,.64-2.392,1.678,1.678,0,0,1,1.524-1.161c1.594.356,2.75,1.49,4.055,2.346,1.547,1.016,1.736,1.061,3.193-.006,1.534-1.123,3.011-2.318,4.446-3.566a6.285,6.285,0,0,1,.62-.49,6.927,6.927,0,0,1,2.1-1.466,11.231,11.231,0,0,0,3.406-2.393c2.841-2.332,6.125-4.052,8.922-6.4,1.856-1.562,4.023-2.9,5.166-5.2.405-.627.908-1.178,1.338-1.786,2.076-2.933,1.083-6.145-2.307-7.386-2-.732-4.121-.609-6.194-.805-.876-.083-1.766.006-2.648-.031a1.955,1.955,0,0,1-1.65-.578c-.43-.809-.118-1.656-.134-2.487a.821.821,0,0,1,.427-.619c5.934-.394,11.743-.169,16.848,3.458a4.27,4.27,0,0,1,1.6,1.714,8.242,8.242,0,0,1-1.039,9.748,50.874,50.874,0,0,1-11.555,10.07c-1.545,1.006-3.084,2.021-4.641,3.008,4.151-2.592,8.161-5.39,12.139-8.236a57.56,57.56,0,0,0,5.576-4.665c.5-.46.928-1.1,1.77-.9a3.839,3.839,0,0,1,4.061,5.034c-.2.827-.275,1.407.8,1.65,5.789,1.3,10.618,4.465,15.275,7.958a31.345,31.345,0,0,1,5.44,5.409" transform="translate(-1083.853 -1457.505)" fill="#fec53d"/>
            <path id="Trazado_1043643" data-name="Trazado 1043643" d="M1861.491,622.848a38.646,38.646,0,0,1-2.917,10.475,19.438,19.438,0,0,1-11.994,9.174,17.073,17.073,0,0,1-18.191-7.247,4.967,4.967,0,0,0-1.692-2.066,19.438,19.438,0,0,1-3.45-8.547c-.089-.452-.163-.907-.276-1.355-.115-.957-.465-1.87-.544-2.835-.094-1.592-.6-3.109-.843-4.675.213-1.9-.462-3.683-.757-5.512a32.861,32.861,0,0,1-.46-10.722,6.984,6.984,0,0,1,.2-.959c.414-1.314,1.093-1.643,2.326-1.048a22.356,22.356,0,0,0,2.82,1.236,5.778,5.778,0,0,0,6.628-2.015,16.427,16.427,0,0,0,2.282-4.318c.66-1.668,1.126-1.952,2.892-1.542a9.235,9.235,0,0,0,8.7-2.233c.445-.4.911-.988,1.559-.739.753.289.782,1.1.835,1.8a4.8,4.8,0,0,1-.723,2.944,6.964,6.964,0,0,1-3.141,2.694c-.518.237-1.408.173-1.436.9-.031.808.714,1.259,1.375,1.628a5.631,5.631,0,0,0,4.357.3,11.566,11.566,0,0,0,7.065-4.935,7.63,7.63,0,0,1,1.259-1.675c.554-.489,1-.443,1.253.316a.915.915,0,0,1,.069.271c.023,2.775,1.469,4.5,3.962,5.53a2.125,2.125,0,0,1,1.126,1.824,29.686,29.686,0,0,1-.188,7.66c-.085.923-.079,1.86-.234,2.78-.282,2.472-.663,4.933-.724,7.425-.342,1.832-.076,3.793-1.143,5.474" transform="translate(-1732.909 -559.702)" fill="#febd84"/>
            <path id="Trazado_1043644" data-name="Trazado 1043644" d="M1630.615,318.258a28.472,28.472,0,0,1,.687-5.451c.76-5.824,2.315-11.5,3.15-17.311-.455,3.08-1.061,6.132-1.728,9.171-.072.327.087.955-.648.727-.018-.006-.025-.074-.021-.111a.7.7,0,0,1,.04-.134c.222-3.446.707-6.882.314-10.35-.067-.591-.094-1.1-.782-1.3-3.119-.919-4.339-3.158-4.318-6.252a3.855,3.855,0,0,0-.119-.575c-.643.973-1.154,1.831-1.747,2.627a12.061,12.061,0,0,1-8.826,5.09,4.851,4.851,0,0,1-4.887-2.362c-.475-.75-.555-1.2.572-1.343a5.748,5.748,0,0,0,3.722-2.049,5.053,5.053,0,0,0,.875-5.218c-.657.569-1.219,1.114-1.838,1.583a9.508,9.508,0,0,1-9.12,1.636c-.9-.294-1.231-.136-1.49.744a14.64,14.64,0,0,1-2.3,4.769c-2.145,2.837-4.7,3.6-8.017,2.357a16.088,16.088,0,0,1-2.022-.96c-1.674-.911-1.738-.9-2.067,1.07-.69,4.13-.069,8.193.65,12.252a16.319,16.319,0,0,1,.441,4.164c-.927.064-.964-.75-1.173-1.289-1.5-3.851-2.559-7.84-3.69-11.806a11.547,11.547,0,0,1-.4-1.481c1.544,6.642,4.113,12.957,6.131,19.448a7.778,7.778,0,0,1,.485,2.773,3.975,3.975,0,0,1-1.774,2.954,1.171,1.171,0,0,1-1.41.141,3.232,3.232,0,0,1-.78-1.609c-2.473-7.81-4.728-15.683-6.872-23.589a4.342,4.342,0,0,0-1.347-2.676,5.5,5.5,0,0,0-2.025-5.427c-.983-.908-.859-2.185.131-3.689a3.25,3.25,0,0,1,2.293-1.641,5.164,5.164,0,0,1,1.727.872c1.2.664,1.382.628,1.943-.7a20.425,20.425,0,0,1,6.717-8.568,29.323,29.323,0,0,1,14.589-6.365,34.034,34.034,0,0,1,17.647,1.773,27.755,27.755,0,0,1,7.484,4.6,37.783,37.783,0,0,1,5.168,6.381c.472.686.8,1.287,1.611.331a1.014,1.014,0,0,1,1.5-.133,2.819,2.819,0,0,1,.563,1.963c.03.883-.023,1.768.031,2.649a5.229,5.229,0,0,0,2.6,4.642c.522.294,1.143.634.884,1.382s-.971.777-1.636.785a3.057,3.057,0,0,1-1.6-.427c-.876-.514-1.168-.068-1.264.737-1.494,7.97-2.878,15.957-4.2,23.955-.107.649-.033,1.307-.13,1.951-.123.816-.075,1.7-.774,2.322a7.171,7.171,0,0,1-2.945-3.039" transform="translate(-1502.032 -255.111)" fill="#201f51"/>
            <path id="Trazado_1043645" data-name="Trazado 1043645" d="M2773.413,793.154c.886,0,1.528.644,2.326.878a1.255,1.255,0,0,1,.579,1.5q-1.8,9.47-3.513,18.956a37.67,37.67,0,0,0-.559,3.868,2.172,2.172,0,0,1-1.858,2.225,11.271,11.271,0,0,0-1.431.52,2.98,2.98,0,0,1-.424-2.661c1.2-8,2.609-15.972,4.307-23.888a2.891,2.891,0,0,1,.573-1.4" transform="translate(-2635.81 -755.162)" fill="#3659ac"/>
            <path id="Trazado_1043646" data-name="Trazado 1043646" d="M4194.043,2741.584c1.249-1.359.294-2.554.316-3.681.017-.855-.612-2.012.12-2.492.807-.53,1.94-.072,2.884.39,3.254,1.592,3.36,2.122.853,4.631a9.461,9.461,0,0,1-3.716,2.581,9.89,9.89,0,0,0-2.51,1.734,1.569,1.569,0,0,1-2.048.019c-1.3-.89-2.28-2.041-2.136-3.652a5.82,5.82,0,0,1,3.133-4.829.965.965,0,0,1,.13-.052c1.846-.666,2.358-1.363,2.322,1.5a22.349,22.349,0,0,0,.652,3.846" transform="translate(-3987.196 -2604.158)" fill="#93cdf8"/>
            <path id="Trazado_1043647" data-name="Trazado 1043647" d="M1992.992,1538.674c1.149,1.153,2.228,2.386,3.458,3.446a16.4,16.4,0,0,0,22.26-.618c1.531-1.424,2.921-3,4.376-4.506a.243.243,0,0,0,0,.232q-.062.3-.124.594c-1.542,6.114-8.437,11.658-14.723,11.758-1.275.02-2.616.5-3.839-.293-4.105-1.025-7.06-3.637-9.525-6.92-.53-.707-1.019-1.444-1.537-2.159a1.446,1.446,0,0,1-.348-1.533" transform="translate(-1897.421 -1463.374)" fill="#1a1749"/>
            <path id="Trazado_1043648" data-name="Trazado 1043648" d="M2751.955,787.34a3.108,3.108,0,0,1-.085,1.778c-1.585,7.618-3.015,15.265-4.133,22.966-.154,1.057-.162,2.135-.238,3.2-.508.3-1,.678-1.62.245.505-7.524,2.252-14.855,3.453-22.271.284-1.752.6-3.5.914-5.244.063-.349-.009-.774.42-.971l1.288.292" transform="translate(-2614.352 -749.349)" fill="#f9d444"/>
            <path id="Trazado_1043649" data-name="Trazado 1043649" d="M2925.674,885.7q.05.161.1.323c-.07,1.094,1.088,1.854.818,3-.293,2.273-1.156,4.4-1.656,6.626-.564,2.5-1.242,4.98-1.67,7.512a2.493,2.493,0,0,1-.592,1.389,3.933,3.933,0,0,1-1.351.863c-.681-.483-.576-1.22-.6-1.906-.159-3.8.66-7.488,1.333-11.189a31.458,31.458,0,0,1,1.281-5.268c.258-.7.483-1.6,1.6-1.377a.642.642,0,0,0,.747.025" transform="translate(-2780.794 -843.219)" fill="#395cad"/>
            <path id="Trazado_1043650" data-name="Trazado 1043650" d="M2641.244,1658.832c-2.585,2.2-5.038,4.552-7.824,6.528-4.037,2.863-8.247,5.448-12.465,8.023-.143.087-.309.239-.556.005a8.366,8.366,0,0,1,2.311-1.679A81.478,81.478,0,0,0,2636.12,1661c2.949-2.97,4.347-6.219,2.963-10.355a3.807,3.807,0,0,1-.089-.833,8.215,8.215,0,0,1,2.375,7.1,4.512,4.512,0,0,0-.126,1.925" transform="translate(-2494.882 -1570.783)" fill="#eea12e"/>
            <path id="Trazado_1043651" data-name="Trazado 1043651" d="M3167.17,1478.813c-2.38-.006-2.938-.355-3.315-1.9a4.616,4.616,0,0,1,1.855-3.926c.472-.275.673.156,1.015.193a3.863,3.863,0,0,1,2.856,2.014c1.179,1.869.68,3.015-1.451,3.485a8.788,8.788,0,0,1-.961.132" transform="translate(-3012.263 -1402.346)" fill="#92cefa"/>
            <path id="Trazado_1043652" data-name="Trazado 1043652" d="M2887.878,834.725c-.819.313-.949,1.1-1.17,1.786a49.188,49.188,0,0,0-2.436,17.954l-2.489,1.745c.719-3.71,1.411-7.117,2.034-10.536.8-4.4,1.615-8.79,2.618-13.146l.266-.4a3,3,0,0,0,1.177,2.6" transform="translate(-2743.745 -792.268)" fill="#222b70"/>
            <path id="Trazado_1043653" data-name="Trazado 1043653" d="M3808.749,2405.84a1.493,1.493,0,0,1-1.71-.9,2.874,2.874,0,0,1,.417-3.015c1.309-1.626,4.55-1.265,5.555.557a.985.985,0,0,1-.153,1.275,6.131,6.131,0,0,1-4.107,2.086" transform="translate(-3624.446 -2285.883)" fill="#95d0fb"/>
            <path id="Trazado_1043654" data-name="Trazado 1043654" d="M2961.332,971.823c-.187-1.9.506-3.656.9-5.454a80.642,80.642,0,0,1,2.255-8.6,3.573,3.573,0,0,1,.761-1.469c.5,1.192.124,2.4.021,3.588a35.451,35.451,0,0,1-2.444,10.434c-.3.724-.656,1.34-1.5,1.5" transform="translate(-2819.454 -910.49)" fill="#f1d043"/>
            <path id="Trazado_1043655" data-name="Trazado 1043655" d="M3010.485,1318.98c1.246-1.246,1.091-2.787,1.03-4.3-.027-.67.462-.842.941-1.043,1.762-.737,3.534-1.452,5.279-2.227.826-.367,1.139-.158,1.045.715-.128,1.187-.269,2.373-.414,3.64-.536-.189-.556-.568-.643-.9-.474-1.8-.474-1.8-2.15-1.194-.437.159-.864.355-1.31.486-1.171.342-1.836.985-1.624,2.321.242,1.518-1.109,1.864-2.154,2.5" transform="translate(-2866.282 -1248.426)" fill="#cff2fa"/>
            <path id="Trazado_1043656" data-name="Trazado 1043656" d="M4201.32,2251.123c-1.06.048-1.474-.551-1.423-1.213a1.666,1.666,0,0,1,1.75-1.5c.811-.006,1.746.6,1.671,1.388-.1,1.094-1.357,1.039-2,1.322" transform="translate(-3998.718 -2140.714)" fill="#98d0fa"/>
            <path id="Trazado_1043657" data-name="Trazado 1043657" d="M1698.658,3637.018c-4.311-3.336-8.589-6.719-13.219-9.617-1.539-1.186-1.509-1.559.33-2.293a30.4,30.4,0,0,0,5.377-2.686c2.436-1.584,5.284-1.33,7.994-1.659a1.773,1.773,0,0,1,1.431.773,5.2,5.2,0,0,0,2.651,2.331,65.9,65.9,0,0,0,7.795,2.1,29.253,29.253,0,0,0,13.745-1.38c.986-.327,2-.4,2.971-.677.557-.083,1.2-.229,1.511.365.3.568-.134,1.083-.488,1.505a24.868,24.868,0,0,1-6.656,5.726c-4.435,2.532-9.028,4.707-14.236,5.144a6.035,6.035,0,0,1-1.673,0c-1.972-.386-3.984-.49-5.958-.825-1.125-.191-1.621.035-1.576,1.191" transform="translate(-1603.654 -3447.321)" fill="#f3a630"/>
            <path id="Trazado_1043658" data-name="Trazado 1043658" d="M1966.153,3643.566a.733.733,0,0,1-.036-.135c-.047-.6-1.2-.857-.71-1.461.44-.542,1.311-.248,2-.153a52.247,52.247,0,0,0,7.157.939,20.69,20.69,0,0,0,7.851-1.747,36.807,36.807,0,0,0,9.852-5.465,21.65,21.65,0,0,0,4.308-4.5c-.435-.411-.864-.188-1.255-.223-1.266.14-2.532.253-3.789.492a2.716,2.716,0,0,1-2.245-.353c-.387-.725.264-.747.645-.889a4.285,4.285,0,0,1,1.518-.127c2.507,0,5.015-.053,7.52.014a6.739,6.739,0,0,0,5.41-2.044,1.948,1.948,0,0,1,1.474-.238,18.552,18.552,0,0,1,5.314,1.643,1.5,1.5,0,0,1,1.045,1.2,63.852,63.852,0,0,0-12.71,5.794c-.48.282-.938.6-1.407.9a95.757,95.757,0,0,0-10.443,6.8c-1.937,1.382-3.767,2.915-5.82,4.135a24.185,24.185,0,0,1-9.986-.279q-2.3-1.761-4.606-3.522c-.356-.271-.724-.525-1.087-.787" transform="translate(-1871.149 -3453.87)" fill="#ed992f"/>
            <path id="Trazado_1043659" data-name="Trazado 1043659" d="M1382.021,2646.557h8.018c-4.025-4.983-4.624-10.775-4.951-16.6a65.269,65.269,0,0,0-3.081-17.394,9.039,9.039,0,0,1-.441-2.156c1.186,3.373,3.1,6.41,4.3,9.768a29,29,0,0,0,11.15,14.815,2.784,2.784,0,0,1,1,.955.621.621,0,0,1,.022.77c-.693,1.024-1.386,2.048-2.039,3.1a.84.84,0,0,1-.819.409c-.833-.435-1.2-1.286-1.713-1.989a57.2,57.2,0,0,1-4.369-6.669,4.671,4.671,0,0,0-1.176-1.371,21.493,21.493,0,0,0,2.766,8.8c.86,1.495,1.9,2.88,2.685,4.419-.13,1.644-1.443,2.51-2.434,3.548-.694.727-1.5,1.369-2.226,2.075a1.754,1.754,0,0,1-1.132.5.96.96,0,0,1-.682-.447c-.24-.376.016-1.042-.543-1.187-.518-.135-.8.383-1.109.708-2.036,2.178-3.666,4.541-3.675,7.706,0,.753-.028,1.625-.991,1.951l-1.174-.406c.6-1.374.215-2.886.6-4.29-.412-1.475.459-2.6,1.061-3.787a13.5,13.5,0,0,1,1.849-2.231c-.123-.529-1.117-.208-.9-1" transform="translate(-1313.335 -2485.368)" fill="#f3a42f"/>
            <path id="Trazado_1043660" data-name="Trazado 1043660" d="M1528.1,3413.027l.844-.537a1.209,1.209,0,0,1,.321,1.156,17.068,17.068,0,0,0,1.571,7.883c1.071,2.645,2.473,3.268,5.206,2.426a24.837,24.837,0,0,0,4.147-2.014,4.165,4.165,0,0,1,3.965-.394c1.272.558,2.746-.135,4.138-.17.462-.011.923-.135,1.392-.115,1.027.043,1.6.472,1.329,1.6a.959.959,0,0,1-.435.782c-1.134-1.531-2.6-.393-3.884-.406a11.435,11.435,0,0,0-6.854,2.4,17.757,17.757,0,0,1-3.569,1.572c-1.624.676-1.626.67-.632,1.907l-6.138-3.481c-2.452-3.493-2.691-7.457-2.412-11.518.038-.551.232-1.138,1.012-1.086" transform="translate(-1453.858 -3249.031)" fill="#f69b6c"/>
            <path id="Trazado_1043661" data-name="Trazado 1043661" d="M1403.922,3387.769c.881-1.331.4-2.91.8-4.344.741-2.674,2.536-4.6,4.334-6.549a.8.8,0,0,1,1.144-.059,1.3,1.3,0,0,1,.161,1.775,4.127,4.127,0,0,1-.525,1.429,11.37,11.37,0,0,0-.2,8.05c.224.675.648,1.381.167,2.131l-5.885-2.432" transform="translate(-1336.674 -3214.864)" fill="#fdc33d"/>
            <path id="Trazado_1043662" data-name="Trazado 1043662" d="M1499.463,3429.726c-.87-2.6-1.809-5.185-1.156-8.026a6.738,6.738,0,0,1,1.71-3.583l.561.268c-.6.33-.54.9-.563,1.463a19.994,19.994,0,0,0,2.028,10.618c.068.126-.038.346-.064.522l-2.515-1.262" transform="translate(-1426.331 -3254.388)" fill="#ea744b"/>
            <path id="Trazado_1043663" data-name="Trazado 1043663" d="M2102.214,4045.181c.9-.6,1.793.053,2.693.036,1.891-.036,3.783-.009,5.674-.01a3.091,3.091,0,0,1,1.619.253,58.708,58.708,0,0,1-4.736,3.724,55.511,55.511,0,0,1-5.25-4" transform="translate(-2001.518 -3851.176)" fill="#e17f25"/>
            <path id="Trazado_1043664" data-name="Trazado 1043664" d="M2510.54,3086.468a17.591,17.591,0,0,0-7.605-2.518,1.612,1.612,0,0,1-1.606.059,45.365,45.365,0,0,1-7.747-3.237,4.5,4.5,0,0,1-2.357-2.474c-.253-.781-.406-1.576.542-2.058a35.947,35.947,0,0,0,6.7,1.794,47.722,47.722,0,0,0,10.3.243,3.407,3.407,0,0,0,2.245-.932.435.435,0,0,0-.547-.155c-2.2,1.661-4.774,1.29-7.237,1.228a36.512,36.512,0,0,1-8.156-1.049c-1.174-.3-2.18-1.067-3.421-1.142a3.224,3.224,0,0,1-2.622-2.042,2.259,2.259,0,0,1,.159-2.629c.68-.825,1.556-.68,2.435-.389a7.538,7.538,0,0,0,4.032.933,41.237,41.237,0,0,0,12.571-1.517,7.4,7.4,0,0,0,3.28-1.749c-1.772.609-3.276,1.211-4.817,1.7a27.689,27.689,0,0,1-13.351,1.248,8.633,8.633,0,0,1-1.826-.648,1.941,1.941,0,0,1-1.554-2.305,2.846,2.846,0,0,1,2.492-2.479c1.621-.165,3.252-.261,4.879-.356a37.759,37.759,0,0,0,6.061-1,1.683,1.683,0,0,0,1.529-1.945c-.054-1.678-.029-3.36,0-5.04.01-.645-.041-1.326.557-1.8a3.093,3.093,0,0,0,2,2.08c1.465.641,2.488,2.1,4.2,2.3a2.407,2.407,0,0,1,1.875.752,19.954,19.954,0,0,1,4.762,5.219,15.1,15.1,0,0,0,5.192,4.9c2.546,2.782,3.079,6.092,2.428,9.658-.216,1.181-.842,2.328.272,3.374-5.352-.365-10.527.675-15.671,1.969" transform="translate(-2369.478 -2909.816)" fill="#fdbe87"/>
            <path id="Trazado_1043665" data-name="Trazado 1043665" d="M2980.2,2798.341c-3.054-1.083-4.477-3.819-6.256-6.188a19.552,19.552,0,0,0-5.214-4.825c6.158-4.419,9.441-10.544,10.639-17.908.9-.568,1.4.044,1.809.69a6.318,6.318,0,0,1,.7,2.4c.75,4.3.551,8.642.568,12.974,0,.746-.045,1.5.03,2.237a2.261,2.261,0,0,0,1.144,2.087,3.17,3.17,0,0,1,.4,2.642c-.17,1.277-.183,2.568-.41,3.84a1.571,1.571,0,0,0,.393,1.655,9.546,9.546,0,0,0,.789.82c3.087,3.382,3.057,7.524,2.816,11.7a1.4,1.4,0,0,1-1.008,1.376,1.86,1.86,0,0,1-1.073-.286c-.394-.433-.286-.961-.275-1.469a32.715,32.715,0,0,0-.027-4.624c-.392-3.241-1.667-5.936-5.025-7.12" transform="translate(-2826.528 -2636.551)" fill="#ec962f"/>
            <path id="Trazado_1043666" data-name="Trazado 1043666" d="M3285.232,3369.137l-.545-.438c1.024-.971,2.045-.529,3.064.009l1.675.7c2.343,1.848,3.071,4.464,3.449,7.247a1.4,1.4,0,0,1-.325,1.175c.131,2.063-.254,4.1-.289,6.156l-2.539-1.169a30.328,30.328,0,0,0-1.847-9.982,7.79,7.79,0,0,0-2.645-3.7" transform="translate(-3127.35 -3206.792)" fill="#fde366"/>
            <path id="Trazado_1043667" data-name="Trazado 1043667" d="M3208.176,3376.748c2.08-.315,3.154,1.032,4.068,2.539,2.036,3.356,1.746,7.009,1.259,10.675a7.261,7.261,0,0,1-2.266-.322.9.9,0,0,0-.758-.279c-.774-.014-.957-.313-.663-1.063a11.071,11.071,0,0,0-1.64-11.549" transform="translate(-3054.504 -3214.958)" fill="#fec33f"/>
            <path id="Trazado_1043668" data-name="Trazado 1043668" d="M3296.056,3389.241c2.178.962,2.874,3.047,3.651,5,.968,2.433.953,5.079,1.381,7.629a1.075,1.075,0,0,1-.541,1.048l-2.3-.732a6.416,6.416,0,0,0,.6-3.918c-.184-3.232-.291-6.506-2.793-9.028" transform="translate(-3138.175 -3226.896)" fill="#f8be3c"/>
            <path id="Trazado_1043669" data-name="Trazado 1043669" d="M125.1,872.96c1.606-.416,2.064-1.936,2.939-3.055.3,1.218.618,2.433.912,3.653a17.8,17.8,0,0,0,2.871,6.167.409.409,0,0,1-.068.545c-4.425-.025-8.861-.123-13.1,1.471a12.107,12.107,0,0,0-6.46,5.072,6.485,6.485,0,0,0-.587,5.51c.109.327-.051.515-.332.639a4.665,4.665,0,0,0-3.565,6.734c.7,1.6.7,1.608-.967,2.213a48.838,48.838,0,0,0-14.551,8.666,2.124,2.124,0,0,1-1.67,1.414,22.449,22.449,0,0,0-4.3,5.114c-5.413,7.574-10.013,15.653-14.639,23.716-2.925,5.1-5.911,10.159-8.87,15.237a15.993,15.993,0,0,1-4.551-2.9,69.4,69.4,0,0,1-8.893-7.658c-3.636-3.834-7.037-7.856-9.1-12.808a6.093,6.093,0,0,1-.52-3.387,24.387,24.387,0,0,0-.157-4.454,37.472,37.472,0,0,1,2.33-14.538,61.287,61.287,0,0,1,28.119-30.908,105.6,105.6,0,0,1,17.7-6.973,96.424,96.424,0,0,1,13.817-3.5,78.844,78.844,0,0,1,10.378-1.3c.551.7.815,1.7,1.905,1.836a3.334,3.334,0,0,0,1.417,1.316c.614-.217,1.151.182,1.866.341-2.344-5.839-3.034-12-5.286-17.708a8.7,8.7,0,0,1-.71-4.052c-.037-.458-.416-.854-.245-1.351a1.354,1.354,0,0,1,1.771-1.04c.922.608,1.013,1.639,1.248,2.569,1.552,6.154,3.181,12.287,4.96,18.38.039.134.067.272.105.406,1.037,3.6,1.038,3.6,4.742,4.4a4.079,4.079,0,0,1,1.488.228" transform="translate(-37.587 -806.344)" fill="#63b2f2"/>
            <path id="Trazado_1043670" data-name="Trazado 1043670" d="M900.506,2787.752c.431.479.2,1.077.29,1.616a2.128,2.128,0,0,0-1.063,1.535c-1.041,3.758-2.547,7.378-3.333,11.213a2.635,2.635,0,0,1-.538,1.123,3.708,3.708,0,0,1-2.9.392,8.276,8.276,0,0,1-2.882-1.654c-3.154-2.4-5.992-5.18-9.065-7.682a14.677,14.677,0,0,1-2.415-2.886l-2.539-2.8c.379-1,.762-.2,1.033.043a39.861,39.861,0,0,0,5.026,4.418c2.423,1.525,4.385,3.61,6.679,5.284a2.582,2.582,0,0,0,3.969-1.348,49.835,49.835,0,0,0,1.1-5.876c-.108.811-.911,1.244-2,1.272a6.039,6.039,0,0,1-3.861-1.431,38.269,38.269,0,0,1-7.41-8.3,5.8,5.8,0,0,0-.873-1.084,22.488,22.488,0,0,1-2.618-4.536c2.911,2.86,5.2,6.3,8.516,8.751,1.98.251,3-1.225,4.15-2.388.483-.49.033-1.157-.228-1.7-.878-1.806-1.645-3.662-2.487-5.485-.252-.545-.568-1.172-.016-1.685.482-.449,1.067-.152,1.588.032,1.278.451,2.5,1.035,3.754,1.551a2.953,2.953,0,0,0,3.605-.509,1.189,1.189,0,0,1,1.265-.4c.7.405.76,1.124.874,1.813.551,3.353,1.4,6.646,2.009,9.988a1.037,1.037,0,0,0,.369.731" transform="translate(-834.097 -2641.426)" fill="#e9902b"/>
            <path id="Trazado_1043671" data-name="Trazado 1043671" d="M551.947,3131.2c2.846,2.516,5.67,5.057,8.545,7.539a34.308,34.308,0,0,0,5.5,4.207,2.661,2.661,0,0,1-3.365.052,68.153,68.153,0,0,0-22.817,3.306c-1.756.592-3.6.917-5.41,1.353-.456.11-.972.225-1.294-.22-.346-.478.081-.893.3-1.271a16.652,16.652,0,0,1,7.335-6.634,60.217,60.217,0,0,1,11.581-4.07c1-.271,1.156-.722.857-1.613-.313-.933-1.08-1.647-1.228-2.65" transform="translate(-507.445 -2981.214)" fill="#f3a52f"/>
            <path id="Trazado_1043672" data-name="Trazado 1043672" d="M1011.439,2204.615c-.091.019-.227,0-.268.061-1.824,2.483-3.95,1.507-6.084.548-.894-.4-1.795-.79-2.71-1.138-.272-.1-.63-.39-.9-.046-.237.307.034.621.167.907.942,2.027,1.846,4.072,2.856,6.064a1.793,1.793,0,0,1-.447,2.56,23.45,23.45,0,0,0-2.3,1.789,1.193,1.193,0,0,1-1.824-.351c.417-.448.211-.939.143-1.449-.555-4.155-2.261-7.948-3.674-11.835-.724-1.992-.045-2.9,2-3.317,2.806-.574,5.327.517,7.906,1.168,1.722.435,1.944.375,2.058-1.483.264-4.313-.843-8.4-1.929-12.5-.2-.763-.544-1.493-.7-2.263a9.065,9.065,0,0,0-3.233-4.916,2.668,2.668,0,0,1-1.157-2.136,3.41,3.41,0,0,1,1.67-1.415c.425-.1.831-.123,1.119.3.486.078.668.465.852.845a62.5,62.5,0,0,1,4.979,13.2,4.507,4.507,0,0,1,.148,1.249,9.834,9.834,0,0,0,.473,3.706c.659,2.993.649,6.07,1.264,9.063a1.291,1.291,0,0,1-.408,1.393" transform="translate(-948.408 -2070.63)" fill="#f3a62f"/>
            <path id="Trazado_1043673" data-name="Trazado 1043673" d="M608.55,3355.259l3.365-.052a9.264,9.264,0,0,0,3.136-.2c.433-.526,1.018-.324,1.566-.341,1.708-.052,3.465.351,5.089-.523l.35.525c.55.6,1.363.027,2.142.568a11.384,11.384,0,0,0-4.152,6.453c-2.086-1.305-.791-2.928-.353-4.633-2.034.561-3.949,1.173-5.9,1.612-8.486,1.9-16.987,3.754-25.568,5.182a14.588,14.588,0,0,1-5.981-.175c-.4-.1-.942-.1-1.022-.576-.088-.53.423-.834.819-1.018,1.352-.625,2.717-1.235,4.114-1.752a80.011,80.011,0,0,1,16.254-3.969,51.788,51.788,0,0,0,6.143-1.1" transform="translate(-553.369 -3193.476)" fill="#fadf61"/>
            <path id="Trazado_1043674" data-name="Trazado 1043674" d="M720.45,2296.931c.085,1.737-.9,3.046-1.894,4.26-4.745,5.817-9.119,11.916-13.688,17.866a37.429,37.429,0,0,1-3.215,3.322c-.157.159-.343.382-.6.253-.317-.161-.264-.49-.162-.737a13.166,13.166,0,0,1,.789-1.641c3.047-5.186,6.045-10.4,9.187-15.53a44.594,44.594,0,0,1,6.3-8.531,3.836,3.836,0,0,1,.61-.577c.614-.384,1.225-1.084,2-.693.755.384.686,1.254.674,2.008" transform="translate(-667.244 -2184.886)" fill="#fce265"/>
            <path id="Trazado_1043675" data-name="Trazado 1043675" d="M837.805,2926.166c1.537.629,2.071,2.2,3.033,3.342a36.1,36.1,0,0,0,5.781,5.861,5.348,5.348,0,0,0,3.237,1.171c1.42,0,1.874-.51,1.76-1.979a1.4,1.4,0,0,1,.018-.413c.017-.075.107-.134.247-.3.714,1.621.328,3.212.13,4.771-.128,1.011-.479,1.993-.675,3-.228,1.171-.668,2.093-2.078,1.928-.855-.1-.5.684-.777,1.024-2.321-1.321-4.113-3.247-6.189-4.806a57.55,57.55,0,0,1-7.134-6.281c-.255-.267-.512-.776-1.018-.3-.577-.543-1.162-1.076-1.725-1.633-.217-.214-.578-.464-.256-.811s.66-.168.961.128c1.461,1.438,2.94,2.854,4.463,4.231a20.98,20.98,0,0,0,6.533,4.2,7.109,7.109,0,0,0,3.166.262c.328-.022.823-.046.933-.465.1-.4-.254-.673-.51-.938-2.012-2.074-4.177-4-5.984-6.272-1.444-1.814-3.047-3.521-3.916-5.728" transform="translate(-792.177 -2786.003)" fill="#f3a52f"/>
            <path id="Trazado_1043676" data-name="Trazado 1043676" d="M3392.274,2443.743c.5-1.137.164-2.387.488-3.557.121-.437-.283-.642-.711-.651-4.12-.08-6.275-2.887-8.1-6-2.574-4.376-2.115-9.037-.981-13.71,1.327-5.47,4.306-10.066,7.661-14.469.631-.828,1.042-.869,1.541.074,3.361,6.35,6.74,12.736,8.041,19.867,1.23,6.74,1.113,13.492-2.441,19.668-1.724,3-4.048,5.478-7.636,6.307-.335.078-.792.349-1.045-.028-.327-.486.208-.737.469-1.024a18.06,18.06,0,0,0,2.754-4.361,1.533,1.533,0,0,0-.094-1.59.348.348,0,0,1,.059-.529" transform="translate(-3220.057 -2289.545)" fill="#fec53d"/>
            <path id="Trazado_1043677" data-name="Trazado 1043677" d="M3386.763,3399.359a16.506,16.506,0,0,0-3.125-8.422c.663.057,1.323.569,1.988.008a.54.54,0,0,1,.809-.046,78.864,78.864,0,0,1,14.869,1.167,1.422,1.422,0,0,1,1.07.206,25.431,25.431,0,0,0,4.626,1.934,18.1,18.1,0,0,1,5.686,3.459c.414.353.909.7.728,1.38a19.059,19.059,0,0,1,2.525,2.958c2.462,4.436,2.26,8.909-.183,13.312a11.89,11.89,0,0,1-2.223,2.85c-1.591,1.518-2.593,1.715-4.654.81a19.66,19.66,0,0,1-5.327-3.552q-7.065-6.447-13.809-13.231c-.654-.659-1.216-1.407-1.843-2.094-.31-.339-.608-.727-1.138-.74" transform="translate(-3221.561 -3228.322)" fill="#fec53c"/>
            <path id="Trazado_1043678" data-name="Trazado 1043678" d="M3764.584,3395.948a19.129,19.129,0,0,0-8.539-5.109,10.071,10.071,0,0,1-3.57-1.871c.433-1.085,1.493-1.044,2.357-1.188,4.518-.75,8.744-.189,12.287,3.036a7.409,7.409,0,0,1,2.792,6.278c-.082,1.044-.014,2.1-.014,3.48-1.925-1.769-2.89-4.062-5.313-4.626" transform="translate(-3572.73 -3225.223)" fill="#ea8320"/>
            <path id="Trazado_1043679" data-name="Trazado 1043679" d="M3288.591,2347.122c.591-.306.664-1.01,1.1-1.435.416.4.01.665-.164.959a74.914,74.914,0,0,0-7.785,17.114,55.148,55.148,0,0,0-2.465,13.962c-.04,1.479-.268,2.961-.248,4.453-.155.2-.1.438-.141.661-.137.837-.44.48-.742.094-.606-1.9.028-3.792.166-5.668.15-2.036.264-4.082.384-6.116a33.335,33.335,0,0,1,2.1-10.615c1.265-1.526,1.506-3.531,2.428-5.219a32.951,32.951,0,0,1,1.9-3.539c1.142-.879,1.546-2.276,2.372-3.375.3-.4.467-.911.907-1.21l.187-.066" transform="translate(-3120.877 -2233.329)" fill="#df7b1c"/>
            <path id="Trazado_1043680" data-name="Trazado 1043680" d="M3269.031,3147.857c-1.022.26-2.042-.158-3.064-.009-.859-.069-1.021-.521-.911-1.337a46.021,46.021,0,0,0,.607-7.225c-.741-.782-.4-1.609-.107-2.437.307-.449.583-.994,1.256-.472l2.219,11.48" transform="translate(-3108.629 -2985.942)" fill="#62addc"/>
            <path id="Trazado_1043681" data-name="Trazado 1043681" d="M3408.245,3225.678l-.809.046c-.273-.038-.65.021-.8-.136-.269-.284.11-.5.3-.637a73.7,73.7,0,0,0,8.167-7.6c.141-.144.305-.214.486-.052q-.028.265-.058.529a49.961,49.961,0,0,1-7.283,7.851" transform="translate(-3243.371 -3063.101)" fill="#de7b1c"/>
            <path id="Trazado_1043682" data-name="Trazado 1043682" d="M3279.441,3109.033c-.472-.2-.628.172-.831.458-.374-.481-.554-.926.223-1.191.592-.015.135-.74.579-.856q.015.795.03,1.59" transform="translate(-3121.259 -2958.596)" fill="#ec962f"/>
            <path id="Trazado_1043683" data-name="Trazado 1043683" d="M1510.235,898.224q2.078,7.241,4.152,14.483a57.993,57.993,0,0,0,2.819,8.235,8.151,8.151,0,0,1-2.842-1.3,49.627,49.627,0,0,0-1.565-10.478,40.658,40.658,0,0,0-3.724-9.48,3.133,3.133,0,0,0,1.159-1.462" transform="translate(-1436.791 -855.199)" fill="#242d72"/>
            <path id="Trazado_1043685" data-name="Trazado 1043685" d="M2055.155,2747.993c-.022,2.521-.093,5.043-.042,7.563a1.4,1.4,0,0,1-1.257,1.638,41.025,41.025,0,0,1-10.537,1.311,3.26,3.26,0,0,0-2.383.592c-1.258,1.113-1.118,2.6.382,3.732.112.027.157.068.135.126s-.053.1-.085.1c-.94-.044-2.005-.172-2.43.889a2.406,2.406,0,0,0,.99,2.828c.464.385.96.731,1.442,1.094q.29.088.047.27c-.483,1.628-.13,2.558,1.443,3.622a27.639,27.639,0,0,0,5.414,2.5c1.417.565,2.89.988,4.339,1.475-.776,1.966-2.492,2.371-4.3,2.438-3.11.116-6.225.107-9.338.164-.6.011-1.2.082-1.8.125-.428.651-1.107.623-1.758.626-4.344.02-8.688.047-13.032-.015-1.337-.019-2.651-.412-3.985-.566a4.016,4.016,0,0,1-2.525-2.293q0-.444,0-.886a2.628,2.628,0,0,1,1.726-.81,22.883,22.883,0,0,0,3.9-1.1,2.015,2.015,0,0,0,1.446-1.859,2.8,2.8,0,0,1,.581-1.554,1.942,1.942,0,0,0,.367-1.713,1.5,1.5,0,0,1,.995-1.9c.946-.437,1.508-1.066,1.181-2.206a1.2,1.2,0,0,1,.684-1.393,2.312,2.312,0,0,0,1.331-2.408c-.222-1.232-1.222-1.715-2.309-1.956-2.233-.493-4.519-.67-6.77-1.057-1.08-.186-2.265-.134-3.1-1.061a2.413,2.413,0,0,1-.177-1.23c.018-1.368.412-1.693,1.714-1.345a20.173,20.173,0,0,0,3.372.794,6.3,6.3,0,0,1,.942.058,4.51,4.51,0,0,0,3.114-.1,6.594,6.594,0,0,0,1.842-.631,1.377,1.377,0,0,0,.786-1.369c-.061-.638-.62-.778-1.115-.881-2.916-.607-5.811-1.308-8.72-1.947-1.9-.417-1.963-.491-1.945-2.373.036-3.629-.1-7.259.07-10.888,1.785-2.612,4.237-3.6,7.412-3.677q10.3-.246,20.6-.223a16.282,16.282,0,0,1,1.959.044c1.1.208,1.3.806.655,1.669a16.759,16.759,0,0,1-3.477,3.771c-1.9,1.376-3.144,3.4-4.719,5.1a75.737,75.737,0,0,0-4.835,5.937c-.524.3-1.058.588-1.606.845a4.739,4.739,0,0,0-2.469,4.888,4.952,4.952,0,0,0,4.745,3.993c.187,0,.373,0,.559-.011,2.242-.314,3.924-1.3,4.441-3.691a7.173,7.173,0,0,0,.251-2.445,2.167,2.167,0,0,1,1.012-1.594c4.581-3.871,8.9-8.021,13.166-12.236.506-.5.777-1.284,1.583-1.465q.04,5.348.08,10.7" transform="translate(-1919.159 -2601.6)" fill="#263173"/>
            <path id="Trazado_1043686" data-name="Trazado 1043686" d="M1583.92,2764.344c-.017,3.873-.017,7.746-.067,11.618-.009.714.373.833.916.947,3.286.692,6.571,1.389,9.848,2.117.584.13,1.41-.021,1.544.887a2.106,2.106,0,0,1-.941,2.311,4.425,4.425,0,0,1-2.379.716,9.768,9.768,0,0,1-3.126,0l-.818-.081c-.045-.188.083-.278.211-.368-1.9,0-3.593-.876-5.394-1.291-1.63-.376-3.318-.667-4.893.3-.308.188-.792.324-.736.745s.54.435.911.481c1.521.43,3.1.621,4.587,1.185a2.364,2.364,0,0,1,.513.414c2.954.461,5.91.918,8.863,1.388a10.34,10.34,0,0,1,1.64.362,2.564,2.564,0,0,1,2.053,2.221,2.679,2.679,0,0,1-1.481,2.79c-.607.322-.835.5-.467,1.271.46.96-.293,2.007-1.64,2.515-.673.254-1.473.338-.6,1.283a.813.813,0,0,1,.11.4c.068.421.169.974-.165,1.2-1.512,1.031-.359,3.7-2.814,4.238-1.91.416-3.782,1.025-5.73,1.294.219-.66.146-1.1-.714-1.015-1.25.122-2.512.163-3.751.35-1.062.16-2.07.513-2.977-.465-.352-.378-.889-.083-1.31.127-1.668.829-3.325,1.681-5,2.492a7.678,7.678,0,0,1-2.293.584c-2.09.3-3.3-.864-3.989-2.579-1.246-3.12-2.421-6.287-1.6-9.761,1.074-1.46,2.7-2.374,3.764-3.857a7.571,7.571,0,0,0,1-1.488.909.909,0,0,1,.246-.3,10.137,10.137,0,0,0,2-2.655c1.638-2.425,3.273-4.85,5.04-7.184,2.187-1.933,4.8-1.506,7.32-1.189,1.991.25,1.976.4,1.973-1.678,0-3.59-.018-7.18-.016-10.77,0-.736-.088-1.515.615-2.047a2.123,2.123,0,0,1-.244,2.492" transform="translate(-1487.132 -2629.559)" fill="#fdbe86"/>
            <path id="Trazado_1043687" data-name="Trazado 1043687" d="M1965.884,1532.535l.068-.545c.377.687,1.212,1.055,1.337,1.918,2.461,4.086,5.289,7.794,9.932,9.628.521.206,1.05.391,1.575.586.188.367.311.765.767.939a15.6,15.6,0,0,1,1.463.817c4.022,2.05,6.6,1.6,9.86-1.51a26.208,26.208,0,0,0,4.643-6.767,7.231,7.231,0,0,1,.846-1.443c.4-.452.834-.61,1.26-.008a5.548,5.548,0,0,1,.251,2.474,36.934,36.934,0,0,0,.627,7.469c.062,1.447,1.508,1.991,2.053,3.124a2.864,2.864,0,0,1-.586,3.3,17.894,17.894,0,0,0-1.81,2.441c-1.436,1.17-2.829,2.393-4.351,3.454a25.014,25.014,0,0,1-4.814,1.375,2.877,2.877,0,0,1-1.908-.062,2.157,2.157,0,0,1,.878-2.9c1.411-1.052.7-2.341.8-3.517.048-.573-.707-.5-1.122-.559a24.144,24.144,0,0,1-10.389-4.586c-3.721-2.645-6.378-6.229-8.828-10-.546-.707-.74-1.631-1.4-2.272a4.8,4.8,0,0,0-1.157-3.366" transform="translate(-1871.718 -1458.608)" fill="#f39a6d"/>
            <path id="Trazado_1043688" data-name="Trazado 1043688" d="M2381.957,2743.073c1.324-2.6,3.5-4.542,5.289-6.776.955-1.191,2.018-2.3,2.963-3.5.46-.583,1.141-.775,1.668-1.2a21.957,21.957,0,0,0,3.25-3.794c.23-.295-.056-.376-.285-.437.105-.682.676-.725,1.162-.754a20.542,20.542,0,0,1,4.171.053,3.825,3.825,0,0,1,3.567,3.77q.018.6.035,1.193a3.4,3.4,0,0,1-1.226,1.755c-1.167,1-2.208,2.145-3.294,3.237-3.286,3.3-6.8,6.355-10.311,9.413a1.284,1.284,0,0,0-.558.763c-.613.03-.736-.527-.944-.885a4.883,4.883,0,0,0-4.26-2.394c-.452-.031-.945.052-1.227-.446" transform="translate(-2267.861 -2595.933)" fill="#2d408a"/>
            <path id="Trazado_1043689" data-name="Trazado 1043689" d="M2621.631,1619.067c-.8-1.8-.567-3.745-.751-5.624-.162-1.664-.061-3.354-.077-5.033a.172.172,0,0,1,.05-.274,47.594,47.594,0,0,1,9.617.569,6.015,6.015,0,0,1,3.635,2.219,4.946,4.946,0,0,1-.077,5.992c-.516.716-1.125,1.365-1.692,2.045-.714.6-1.053,1.666-2.188,1.733a26.067,26.067,0,0,1-6.87-.712,2.415,2.415,0,0,1-1.647-.915" transform="translate(-2495.221 -1531.096)" fill="#e6791c"/>
            <path id="Trazado_1043690" data-name="Trazado 1043690" d="M3136.95,2476.7c-.338.348-.244.776-.223,1.191q-.159,1.226-.318,2.452c-.342.39-.663.465-.972-.045a4.33,4.33,0,0,1-.72-2.357c.034-3.255.084-6.513-.011-9.765a35.755,35.755,0,0,0-.844-6.739c-.191-.857-.568-1.6-1.645-1.57.76-3.82-.083-7.477-1.074-11.135-.438-1.619-1.427-3.01-1.875-4.663a39.456,39.456,0,0,1,3.735,3.464,36.2,36.2,0,0,1,3.32,4.823c.789,1.324,1.677,1.635,2.966.818.163-.1.321-.192.5-.042.3.285,0,.569,0,.854a3.125,3.125,0,0,1-.262,1.355,26.244,26.244,0,0,0-1.716,8.711c-.277,4.217-.573,8.433-.861,12.649" transform="translate(-2979.376 -2326.996)" fill="#f3a52f"/>
            <path id="Trazado_1043691" data-name="Trazado 1043691" d="M2467.814,2032.552c2.944-1.878,5.787-3.912,8.844-5.618a21.356,21.356,0,0,1,4.794-1.894,7.516,7.516,0,0,1-2.452,4,46.335,46.335,0,0,1-21.082,13.127,18.65,18.65,0,0,1-2.46.473,1.4,1.4,0,0,1-1.6-.55c-.646-.957-.018-1.683.436-2.443,2.718-2.389,6.133-3.5,9.321-5.017,1.1-.523,2.113-1.179,3.179-1.749.331-.177.616-.422,1.024-.331" transform="translate(-2336.051 -1928.041)" fill="#f4a52e"/>
            <path id="Trazado_1043692" data-name="Trazado 1043692" d="M1679.471,1623.408a3.3,3.3,0,0,1,1.939-2.4,12.565,12.565,0,0,1,5.748-1.514c2.371-.087,4.748-.019,7.122-.017a1.412,1.412,0,0,1,.68,1.152,14.454,14.454,0,0,1-.678,7.636,1.4,1.4,0,0,1-.506.648,7,7,0,0,1-3.833.1,23.767,23.767,0,0,1-6.834-1.838,5.942,5.942,0,0,1-3.639-3.77" transform="translate(-1599.024 -1541.881)" fill="#e6791c"/>
            <path id="Trazado_1043693" data-name="Trazado 1043693" d="M2057.979,2707.694c-1.016-2.549-2.105-3.317-4.883-3.287a12.279,12.279,0,0,0-4.016.218c-5.645.024-11.292-.034-16.934.11-2.607.067-5.22.093-7.825.233a6.845,6.845,0,0,0-4.657,2.557c-.193.209-.2.867-.777.451a5.306,5.306,0,0,1,.243-2.493,6.267,6.267,0,0,1,1.809-2.231,3.345,3.345,0,0,1,1.774-.287c9.945-.245,19.892-.371,29.84-.3a14.949,14.949,0,0,1,4.131.344c1.726,1.2,1.337,2.99,1.295,4.682" transform="translate(-1922.099 -2573.19)" fill="#487bc9"/>
            <path id="Trazado_1043694" data-name="Trazado 1043694" d="M1168.881,2187.994c-1.016-3.881-2.005-7.762-3.963-11.323a37.669,37.669,0,0,1-1.62-3.869c.784-1.125.952.058,1.152.383a53.733,53.733,0,0,1,4.44,9.2,63.733,63.733,0,0,1,4.294,18.16c.192,2.694.572,5.375.5,8.084-.013.5.137,1.039-.259,1.476-.626-.164-.654-.7-.772-1.2q-1.428-6.041-2.262-12.192c-.342-2.481-.85-4.93-1.427-7.363a2.215,2.215,0,0,1-.087-1.351" transform="translate(-1107.576 -2068.272)" fill="#fce267"/>
            <path id="Trazado_1043695" data-name="Trazado 1043695" d="M2247.547,1556.814q-.018.138-.049.274c-.736.152-.8.853-1.067,1.36a28.027,28.027,0,0,1-5.331,7.765c-4.061,3.815-7.6,3.051-12.036.031-.383-.261-.622-.6-.071-.957a13.713,13.713,0,0,0,8.375-.821,18.651,18.651,0,0,0,9.117-8.561c.319-.565.65-1.124.975-1.685q.044,1.3.088,2.593" transform="translate(-2121.916 -1479.774)" fill="#ec845e"/>
            <path id="Trazado_1043696" data-name="Trazado 1043696" d="M1294.353,3089.549c.028.781-.4,1.064-1.122,1.029-1.843-.089-3.7.1-5.533-.166a55.524,55.524,0,0,1,2.152-8.078c.554-1.775,1.109-3.551,1.7-5.315.242-.725.6-1.231,1.17-.191l1.637,12.72" transform="translate(-1226.017 -2928.885)" fill="#5fb0f0"/>
            <path id="Trazado_1043697" data-name="Trazado 1043697" d="M1882.328,1863.569c2.508.1,4.787-.935,7.173-1.445a9.477,9.477,0,0,1-3.056,2.605l-1.923,1.335c-3.729.684-7.306-.059-10.863-1.109a37.44,37.44,0,0,1-12.4-6.876,11.3,11.3,0,0,1-3.05-3.2.6.6,0,0,1-.18.969c-.431.239-.856-.1-1.039-.483-.476-.99-1.573-1.883-.621-3.163a3.781,3.781,0,0,1,2.073-.757,1.162,1.162,0,0,1,.971.437c.249.413.031.972.419,1.344a17.19,17.19,0,0,0,7.126,6.5c4.259,2.1,8.694,3.558,13.532,3.407a2.141,2.141,0,0,1,1.835.436" transform="translate(-1767.094 -1762.757)" fill="#66a3e6"/>
            <path id="Trazado_1043698" data-name="Trazado 1043698" d="M2099.229,2681.144a.511.511,0,0,1-.595.442c-7.863-.478-15.734-.177-23.6-.134-2.358.013-4.735.159-7.1.19a18.38,18.38,0,0,1-4.446-.258c1.132-1.134,2.611-1.138,4.046-1.167,5.783-.117,11.566-.182,17.349-.287,3.684-.067,7.367-.182,11.051-.25a3.627,3.627,0,0,1,3.3,1.464" transform="translate(-1964.644 -2551.323)" fill="#62a7e8"/>
            <path id="Trazado_1043699" data-name="Trazado 1043699" d="M2059.569,2160.4a3.405,3.405,0,0,1-.6,2.486c-.522.645-.036,1.2.245,1.76a6.062,6.062,0,0,1,1.217,2.788c.232.6-.158,1.152-.128,1.736.248,3.649-.259,7.1-2.765,9.972a18.215,18.215,0,0,1-1.815,1.739c-.368.32-.747.729-1.292.137-.65-.707.111-.912.411-1.171a10.733,10.733,0,0,0,3.889-9.982c-.066-.542-.222-1.073-.336-1.608-.448-.31-.41-.856-.626-1.279a16.774,16.774,0,0,0-1.406-3.481c-.385-.323-.794-.621-1.149-.974-1.284-1.274-1.013-3.034.649-4.332a2.483,2.483,0,0,1,3.706,2.208" transform="translate(-1955.781 -2054.498)" fill="#1a1949"/>
            <path id="Trazado_1043700" data-name="Trazado 1043700" d="M2127.517,2097.75a40.1,40.1,0,0,1-5.508,4.506c-.7.532-1.3.254-1.914-.167-1.46-1-2.929-1.986-4.395-2.978a7.459,7.459,0,0,1-3.152-1.916c-.359-.307-.836-.66-.434-1.259.071-.044.226-.124.222-.132-.17-.381-.874-.6-.5-1.126.406-.562.96-.139,1.389.06a29.886,29.886,0,0,0,13.255,2.745c.359-.006.759-.09,1.032.268" transform="translate(-2010.579 -1994.075)" fill="#5fa4ec"/>
            <path id="Trazado_1043701" data-name="Trazado 1043701" d="M1673.2,2116.415a2.386,2.386,0,0,1,.222,1.315,28.311,28.311,0,0,1-12.333-3.652,43.8,43.8,0,0,1-10.753-8.592c-.116-.122-.2-.274-.5-.7l9.293,5.365c1.157.028,1.87.957,2.825,1.4a108.328,108.328,0,0,0,11.248,4.861" transform="translate(-1570.804 -2003.97)" fill="#f0a12f"/>
            <path id="Trazado_1043702" data-name="Trazado 1043702" d="M1689.149,1709.452l-2.222.8a4.677,4.677,0,0,1-2.724,1.119,7.474,7.474,0,0,1-4.314-3.439c-1.28-1.761-2.258-3.619-1.9-5.906,3.59,4.7,8.836,5.02,14.087,5.325.323,1.168-.565,1.586-1.3,2.1-.542.2-1.085-.114-1.63,0" transform="translate(-1597.542 -1620.5)" fill="#d05c14"/>
            <path id="Trazado_1043703" data-name="Trazado 1043703" d="M2419.311,2195.087a5.046,5.046,0,0,0-.728,2.231c-1.232,4.833-.23,9.049,3.512,12.47-.928,1.117-1.611.938-2.464-.116a13.679,13.679,0,0,1-3.078-9.645c.025-.513.03-1.026.044-1.54.021-.986-.226-2,.361-2.92a6.724,6.724,0,0,1,1.1-2.328,2.143,2.143,0,0,0,.407-1.794c-.388-1.656-.059-2.675,1-3.088,2.041-.8,3.154.114,3.068,2.512a1.265,1.265,0,0,1-.66,1.291,12.515,12.515,0,0,0-2.556,2.926" transform="translate(-2300.779 -2083.267)" fill="#1e1b4b"/>
            <path id="Trazado_1043704" data-name="Trazado 1043704" d="M1806.75,1874.577a15.126,15.126,0,0,1,2.837-.829c-.245,1.38.787,2.151,1.408,3.125.048-.9-.818-1.491-.722-2.779,2.208,3.442,5.189,5.587,8.24,7.625a29.747,29.747,0,0,0,17.752,5.407,2.174,2.174,0,0,1,1.365.176l-.49.369c-5.353.073-10.572-.556-15.454-3.038.33.841,1.357.75,1.748,1.491-.671.32-1.221-.255-1.818-.105a1.659,1.659,0,0,1-1.644-.54c-3.966-3.249-8.2-6.15-12.2-9.345-.5-.4-1.084-.774-1.019-1.557" transform="translate(-1720.202 -1783.996)" fill="#4886d6"/>
            <path id="Trazado_1043705" data-name="Trazado 1043705" d="M1722.677,1828.472c4.762,4.065,9.881,7.665,14.865,11.442l3.709,3.013a1.494,1.494,0,0,0-1.334.867,3.35,3.35,0,0,0-3.706-2.209,1.729,1.729,0,0,0-.815-1.32c-5.436-3.628-10.33-7.956-15.419-12.032-.922-.739-1.708-1.575-1.5-2.909l4.2,3.149" transform="translate(-1636.129 -1737.89)" fill="#f9dd5a"/>
            <path id="Trazado_1043706" data-name="Trazado 1043706" d="M2173.634,2258.432a.844.844,0,0,1,.187,1.113c-.466,1.044-.911,2.1-1.365,3.148-2.334,1.691-5.078,1.576-7.721,1.531-1.507-.025-3.183.088-4.517-.995l-.833-2.828c3.964,1.881,7.926,2.658,11.988.2.947-.572,2.24-.676,2.261-2.173" transform="translate(-2055.95 -2150.253)" fill="#fce265"/>
            <path id="Trazado_1043707" data-name="Trazado 1043707" d="M1275.469,2499.416c1.293,5.287,2.2,10.651,3.27,15.983.41,2.045.851,4.083,1.277,6.124l.557,4.5c-.256.656-.406.084-.453-.073a32.793,32.793,0,0,1-.935-3.339c-.489-2.55-1.237-5.048-1.542-7.638a1.908,1.908,0,0,0-.448-1.292,101.488,101.488,0,0,0-1.745-12.67c-.12-.54-.394-1.066.02-1.593" transform="translate(-1214.164 -2379.694)" fill="#d8741e"/>
            <path id="Trazado_1043708" data-name="Trazado 1043708" d="M1857.9,2218.649c-.217.445-.522.207-.822.118-4.762-1.41-9.027-3.85-13.251-6.377.669-.542,1.178.045,1.627.33,2.448,1.556,4.994,2.732,8,2.5.537-.041.97.308,1.457.457s1.023.262,1.183-.476c1.366.747,1.543,2.119,1.811,3.444" transform="translate(-1755.509 -2106.205)" fill="#fde061"/>
            <path id="Trazado_1043709" data-name="Trazado 1043709" d="M2176.774,2347.908a6.639,6.639,0,0,1,2.48.27c3.338.606,6.545-.081,9.759-.807q-.345,1.392-.688,2.782c-.13-.567-.549-.336-.891-.326a51.822,51.822,0,0,1-8.833-.507,1.618,1.618,0,0,0-1.57.284,3.67,3.67,0,0,1-.256-1.7" transform="translate(-2072.506 -2234.932)" fill="#f3a833"/>
            <path id="Trazado_1043710" data-name="Trazado 1043710" d="M3346.685,2381.083c-.273-.285.049-.569,0-.854a35.417,35.417,0,0,1,2.778-7.562,24.478,24.478,0,0,1,3.465-4.714c.314-.339.66-.793,1.057-.064v0c-1.22,1.471-1.943,3.263-3.089,4.782l-4.211,8.417" transform="translate(-3186.273 -2254.096)" fill="#fce164"/>
            <path id="Trazado_1043711" data-name="Trazado 1043711" d="M2491.66,1848.46l3.054-2.6,3.751-3.114c1.409-1.8,3.616-2.657,5.147-4.316.861-.624,1.639-1.352,2.48-2a2.025,2.025,0,0,1,1.37-.57l1.962-1.5a4.967,4.967,0,0,1-1.6,2.076c-2.954,3.012-6.537,5.2-9.948,7.616-1.518,1.076-2.949,2.276-4.427,3.41a3.34,3.34,0,0,1-1.79,1" transform="translate(-2372.309 -1746.489)" fill="#f6e083"/>
            <path id="Trazado_1043712" data-name="Trazado 1043712" d="M2474.562,2184.812a4.2,4.2,0,0,1,2.151-3.168,5.006,5.006,0,0,0,1.064-1.049c.478.555,1.019.442,1.644.249a34.087,34.087,0,0,0,7.158-3.143c.379-.222.718-.7,1.215-.2-3.7,2.414-7.827,4.015-11.622,6.241-.555.325-1.075.711-1.61,1.069" transform="translate(-2356.03 -2072.992)" fill="#fbdc5f"/>
            <path id="Trazado_1043713" data-name="Trazado 1043713" d="M1921.934,1625.078c.536-.606,1.328-1.006,1.52-1.889,1.4-2.4,1.094-5.01.95-7.6-.031-.554-.149-1.1-.228-1.655q.033-.153.067-.3c1.387-.036,1.029,1.383,1.655,1.983a11.068,11.068,0,0,1-3.548,10.573,1.624,1.624,0,0,1-1.214.594c-.375-.41-.174-.74.147-1.053.079-.354.372-.494.651-.649" transform="translate(-1828.92 -1536.336)" fill="#fcd8ac"/>
            <path id="Trazado_1043714" data-name="Trazado 1043714" d="M1531.972,1789.35l.332-.639c.3-.061.555-.649.9-.048a30.306,30.306,0,0,0,4.424,5.816c-1.788-1.524-3.8-2.715-5.615-4.161-.391-.311-.543-.625-.038-.968" transform="translate(-1458.285 -1702.731)" fill="#ec9d2b"/>
            <path id="Trazado_1043715" data-name="Trazado 1043715" d="M1678.787,3089.275c-.037,1.318-1.216,1.967-1.8,2.967-1.325,2.28-2.879,4.427-4.362,6.613-.193.285-.3.89-.9.483a3.71,3.71,0,0,1,1.8-3.229l2.8-4.233c.889-.8,1.417-1.943,2.457-2.6" transform="translate(-1591.649 -2941.298)" fill="#fcdaae"/>
            <path id="Trazado_1043716" data-name="Trazado 1043716" d="M2106.873,1396.681c2.852,0,5.7,0,8.555.005.36,0,.817-.158,1.051.185.27.4-.181.677-.36.969-1.559,2.529-3.449,4.733-6.525,5.343-4.442.881-9.062-.146-11.661-4.113a7.367,7.367,0,0,1-.526-.985c-.424-.931-.351-1.449.911-1.419,2.85.068,5.7.021,8.554.021Z" transform="translate(-1996.72 -1329.751)" fill="#f48c61"/>
            <path id="Trazado_1043717" data-name="Trazado 1043717" d="M1900.971,898.9a13.877,13.877,0,0,1,5.244,1.095c.667.283,1.339.662,1.1,1.538-.249.925-.992,1-1.807.814a18.8,18.8,0,0,0-5-.578,13.244,13.244,0,0,0-5.228,1.449c-.745.364-1.549.664-2.085-.273s.183-1.509.829-1.958a11.851,11.851,0,0,1,6.942-2.087" transform="translate(-1802.334 -855.847)" fill="#1a1850"/>
            <path id="Trazado_1043718" data-name="Trazado 1043718" d="M2420.841,899.9a3.041,3.041,0,0,1-1.466-.432,12.981,12.981,0,0,0-8.486-.871c-.812.169-1.914.7-2.289-.526s.739-1.575,1.606-1.883a11.425,11.425,0,0,1,10.931,1.451,1.4,1.4,0,0,1,.708,1.666c-.154.486-.567.571-1.005.594" transform="translate(-2293.156 -852.527)" fill="#19184e"/>
            <path id="Trazado_1043719" data-name="Trazado 1043719" d="M1739.254,851.7a71.179,71.179,0,0,1-4.08-10.825c-.95-2.968-1.782-5.975-2.64-8.972-.11-.386-.592-1.005.078-1.176.7-.179.64.584.783,1.051,1.412,4.625,2.482,9.357,4.338,13.843a2.823,2.823,0,0,0,.658,1.208l.863,4.872" transform="translate(-1649.287 -790.906)" fill="#3f5099"/>
            <path id="Trazado_1043720" data-name="Trazado 1043720" d="M2699.53,824.958c.84-1.885.971-3.943,1.422-5.921.3-1.316.432-2.669.7-3.994.083-.415.091-.963.842-1.135-.342,2.007-.632,3.95-1.01,5.876-.817,4.164-1.678,8.319-2.53,12.476a1.286,1.286,0,0,1-.214.357c.114-2.568.435-5.115.793-7.658" transform="translate(-2569.468 -774.921)" fill="#424986"/>
            <path id="Trazado_1043721" data-name="Trazado 1043721" d="M2232.4,1272.583l.844-.733a2.692,2.692,0,0,1-1.856,3.226,5.131,5.131,0,0,1-6.023-2.175c.5-.334.852.248,1.3.219,1.961.342,3.949.979,5.736-.536" transform="translate(-2118.771 -1210.929)" fill="#24173e"/>
            <path id="Trazado_1043722" data-name="Trazado 1043722" d="M2408.572,1047.156c-1.4-.72-1.445-1.15-.24-1.981,2.143-1.477,4.354-2.041,6.756-.584.424.257.758.448.149.849-.6.52-1.158-.05-1.7-.135a4.956,4.956,0,0,0-4.964,1.851" transform="translate(-2292.155 -993.746)" fill="#e99570"/>
            <path id="Trazado_1043723" data-name="Trazado 1043723" d="M1985.829,1071.008c-.693.036-1.089.224-.444,1.038-2.653-1.2-5.1-1.3-7.244,1.277.5-3.081,4.678-4.188,7.688-2.316" transform="translate(-1883.388 -1018.834)" fill="#261c3c"/>
            <path id="Trazado_1043724" data-name="Trazado 1043724" d="M2429.062,1066.374c-.271-.769.324-1.09.788-1.433,1.889-1.395,3.869-1.214,5.877-.283.4.332.956.519,1.117,1.3a10.947,10.947,0,0,0-3.5-1c-1.645-.059-2.854.956-4.282,1.41" transform="translate(-2312.645 -1012.965)" fill="#201335"/>
            <path id="Trazado_1043725" data-name="Trazado 1043725" d="M2258.223,1287.161c-1.355,1.693-3.194,1.865-5.736.536,1.92-.1,3.878.222,5.736-.536" transform="translate(-2144.592 -1225.506)" fill="#d5886d"/>
            <path id="Trazado_1043726" data-name="Trazado 1043726" d="M1628.184,831.965a1.429,1.429,0,0,1-1.474.322,3.63,3.63,0,0,1-1.381-2.189c-2.195-7.089-4.045-14.274-6.032-21.421-.251-.9-.581-1.772-.912-2.645a1.571,1.571,0,0,1,.469-2.114l-.008.029c1.149-.377,1.305.44,1.523,1.235,1.926,7.043,3.887,14.075,6.048,21.051q.888,2.865,1.767,5.732" transform="translate(-1540.671 -765.348)" fill="#f6d44b"/>
            <path id="Trazado_1043727" data-name="Trazado 1043727" d="M2072,3692.31l18.774-.045,6.146.089c-4.68,1.326-9.306,2.895-14.3,2.51a23.219,23.219,0,0,1-8.235-1.893c-.778-.366-1.693-.088-2.385-.661" transform="translate(-1972.755 -3515.405)" fill="#fac23a"/>
            <path id="Trazado_1043728" data-name="Trazado 1043728" d="M1554.091,3009.431l-1.8,3.23a1.432,1.432,0,0,0-.228.073,23.815,23.815,0,0,1-5.785-14.5c2.975,3.47,5.286,7.408,7.81,11.2" transform="translate(-1472.214 -2854.621)" fill="#e58223"/>
            <path id="Trazado_1043729" data-name="Trazado 1043729" d="M2550.354,3305.638a1.958,1.958,0,0,1-.05-.223c2.88,1.268,5.841.762,8.793.391a43.581,43.581,0,0,0,10.832-3.143,6.125,6.125,0,0,1,.935-.287,1.572,1.572,0,0,1,.5.1,4.188,4.188,0,0,1-2.232,2.2,30.763,30.763,0,0,1-17.414,1.589,2.043,2.043,0,0,1-1.361-.629" transform="translate(-2428.145 -3144.187)" fill="#f39c6b"/>
            <path id="Trazado_1043730" data-name="Trazado 1043730" d="M2551.444,3471.312a.725.725,0,0,1-.047-.27c2.452.514,4.884,1.173,7.361,1.507a27.727,27.727,0,0,0,10.522-.17c.022-.381-.53-.153-.512-.472s.3-.295.521-.3c.87-.01,1.739,0,2.725,0a3.625,3.625,0,0,1-3.2,2.135,44.526,44.526,0,0,1-8.887-.034c-1.337-.122-2.657-.426-3.994-.555-1.694-.163-2.912-1.422-4.487-1.84" transform="translate(-2429.185 -3304.779)" fill="#f6a16f"/>
            <path id="Trazado_1043731" data-name="Trazado 1043731" d="M1564.484,805.222a1.469,1.469,0,0,0-.234,1.441c2.431,6.238,3.614,12.842,5.61,19.207a64.8,64.8,0,0,0,2.48,7.721,10.041,10.041,0,0,0-2.046-.418c-1.642,0-2.15-1.007-2.575-2.366-2.171-6.933-3.936-13.975-5.758-21a5.345,5.345,0,0,0-.884-2.317,10.008,10.008,0,0,1,3.408-2.265" transform="translate(-1486.3 -766.652)" fill="#385db2"/>
            <path id="Trazado_1043732" data-name="Trazado 1043732" d="M916.257,1717.834c-.3,4.845-1.234,4.711-5,3.643a7.673,7.673,0,0,1-3.812-2.467c-1.552-1.8-.331-5.8,1.977-6.425,2.913-.792,6.836,2.222,6.832,5.249" transform="translate(-863.32 -1630.43)" fill="#91cdf9"/>
            <path id="Trazado_1043733" data-name="Trazado 1043733" d="M322.52,1958.227a7.483,7.483,0,0,1,4.14,1.258c1.684,1.082,1.974,2.448.89,4.164a13.243,13.243,0,0,1-1.556,1.965,3.268,3.268,0,0,1-4.5.341c-1.691-1.2-2.511-3.528-1.754-5a12.692,12.692,0,0,0,.732-1.349c.4-1.079,1.085-1.595,2.052-1.379" transform="translate(-304.151 -1864.381)" fill="#92cefa"/>
            <path id="Trazado_1043734" data-name="Trazado 1043734" d="M426.633,2404.706a3.012,3.012,0,0,1,2.635,1.769,2.1,2.1,0,0,1-.389,2.571c-.931,1.1-1.854,2.251-3.538,2.122-.974-.075-2.012-.359-2.349-1.239a3.665,3.665,0,0,1,3.642-5.222" transform="translate(-402.412 -2289.518)" fill="#93cefa"/>
            <path id="Trazado_1043735" data-name="Trazado 1043735" d="M1120.174,1378.458c1.444-1.072,1.454-1.205-.042-2.01-.492-.265-.741-.469-.489-1.062a4.245,4.245,0,0,1,4.522-2.282,2.477,2.477,0,0,1,1.759,3.249,4.636,4.636,0,0,1-3.337,3.206c-1.042.317-1.489-.913-2.413-1.1" transform="translate(-1065.917 -1307.248)" fill="#93cef8"/>
            <path id="Trazado_1043736" data-name="Trazado 1043736" d="M610.51,2048.908c-.186.634-.367,1.354-1.215,1.234a1.351,1.351,0,0,1-1.246-1.427,1.062,1.062,0,0,1,1.233-1.033,1.166,1.166,0,0,1,1.228,1.226" transform="translate(-578.923 -1949.598)" fill="#93d0fa"/>
            <path id="Trazado_1043737" data-name="Trazado 1043737" d="M3516.809,3442.709l-8.191.553c.067.624.532.734.845.962a44.3,44.3,0,0,1,11.257,11.346,9.028,9.028,0,0,1,1.46,5.862c-.031.376-.019.795-.446.941-.4.136-.705-.148-1.011-.361a3.6,3.6,0,0,1-1.235-2.443,18.356,18.356,0,0,0-9.172-12.226,64.655,64.655,0,0,1-6.239-4.489c-.283-.216-.679-.452-.57-.887.133-.531.632-.468,1.042-.481a86.844,86.844,0,0,1,10.308.688c.643.056,1.283.149,1.924.225q.014.155.028.31" transform="translate(-3335.67 -3276.624)" fill="#fce46c"/>
            <path id="Trazado_1043738" data-name="Trazado 1043738" d="M3436.8,2380.324c.8-1.742,1.5-3.548,3.089-4.781a15.553,15.553,0,0,1-3.089,4.781" transform="translate(-3272.181 -2261.754)" fill="#fec53d"/>
            <path id="Trazado_1043739" data-name="Trazado 1043739" d="M2308.021,3083.909a4.859,4.859,0,0,1-4.812,3.83c-.74-.435-1.626-.314-2.4-.669a4.785,4.785,0,0,1-2.72-6.228,5.055,5.055,0,0,1,6.16-3.005c2.889.858,4.105,2.813,3.777,6.072" transform="translate(-2187.693 -2930.211)" fill="#7ebaf0"/>
            <path id="Trazado_1043740" data-name="Trazado 1043740" d="M2299.677,3077.775c-.162-3.409-1.187-4.961-3.8-5.756a4.573,4.573,0,0,0-5.929,3.186,4.393,4.393,0,0,0,3.4,5.637c.531.144,1.279-.006,1.523.763a5.406,5.406,0,0,1-5.779-4.239c-.5-2.222,1.026-4.8,3.437-5.815.3-.126.614-.224.922-.335,2.995-.228,5.234.849,6.431,3.725-.025.947.3,1.919-.2,2.834" transform="translate(-2179.349 -2924.076)" fill="#6697da"/>
            <path id="Trazado_1043741" data-name="Trazado 1043741" d="M1882.36,3151.821l-.54-.049c-.049-.181.019.033-.077-.115-.409-.63.3-1.935-.729-1.984-1.341-.064-2.883-.266-3.958,1l-1.836-.656c1.9-2.63,4.66-2.469,7.3-1.612a29.016,29.016,0,0,0,5.969,1.5c-.4.4-.995.059-1.327.452a10.645,10.645,0,0,1-3.541-.748c-1.029-.377-1.486-.224-1.318.956a12.545,12.545,0,0,1,.057,1.255" transform="translate(-1785.398 -2997.06)" fill="#eb966a"/>
            <path id="Trazado_1043742" data-name="Trazado 1043742" d="M2534.2,2795.413c.711.036,1.044.321,1.031,1.052s-.515.9-1,.878a.99.99,0,0,1-1.052-1.066c.031-.639.5-.832,1.018-.864" transform="translate(-2411.84 -2661.513)" fill="#abc2e3"/>
            <path id="Trazado_1043743" data-name="Trazado 1043743" d="M2141.583,3202.056l3.127,0a5.133,5.133,0,0,1-3.127,0" transform="translate(-2039.001 -3048.677)" fill="#eb966a"/>
            <path id="Trazado_1043744" data-name="Trazado 1043744" d="M1870.8,3319.451a34.944,34.944,0,0,1,6.12.156c-.854-.73-1.952-.494-2.919-.7a24.193,24.193,0,0,0-3.028-.13c4.385-.828,8.313.866,12.358,2.294a1.465,1.465,0,0,1-1.419.536,93.082,93.082,0,0,1-10.844-1.878c-.037-.01-.062-.061-.268-.276" transform="translate(-1781.19 -3159.597)" fill="#f29b6b"/>
            <path id="Trazado_1043745" data-name="Trazado 1043745" d="M1910.011,3174.024c-.421-.712-.044-1.045.607-1.158,1.128-.2,2.261-.383,3.4-.488.89-.083,1.042.552,1.034,1.277a2.614,2.614,0,0,1-.278,1.47l-4.763-1.1" transform="translate(-1818.352 -3020.414)" fill="#f5a736"/>
            <path id="Trazado_1043746" data-name="Trazado 1043746" d="M1925.177,1666.2c2.02-1.975,3.837-4.026,4.283-7.016.207-1.383-.024-2.811.479-4.151,1.83,2.408,3.423,5.008,5.612,7.127,4.048,3.918,8.7,6.7,14.394,7.431,1.052.135,1.3.415.546,1.243a.576.576,0,0,0,.083.953.849.849,0,0,1-.084,1.513c-1.266.773-1.606,2.129-2.294,3.268-8.467.361-15.911-1.95-21.774-8.36a6.143,6.143,0,0,1-1.244-2.009" transform="translate(-1832.961 -1575.756)" fill="#fdbe86"/>
            <path id="Trazado_1043747" data-name="Trazado 1043747" d="M2647.792,1837.95l-3.584,2.875a2.4,2.4,0,0,1-2.919-1.436c-.833-.876-1.985-1.5-2.24-2.833a40.114,40.114,0,0,0,7.136,1.125c.543.021,1.13-.165,1.607.27" transform="translate(-2512.638 -1748.584)" fill="#d45e12"/>
            <path id="Trazado_1043748" data-name="Trazado 1043748" d="M2636.24,1895.706c.726.98,2.011.825,2.919,1.436-1.51,1.734-3.533,2.777-5.412,4.014a13.131,13.131,0,0,1,1.922-2.847c.528-.748,1.206-1.482.267-2.395l.3-.208" transform="translate(-2507.589 -1804.902)" fill="#638bbc"/>
            <path id="Trazado_1043749" data-name="Trazado 1043749" d="M1913.808,1851.091c-.031.4-.323.544-.651.648-.154-.319-.494-.315-.759-.436a1.689,1.689,0,0,1,1.41-.212" transform="translate(-1820.794 -1762.349)" fill="#fdbe86"/>
            <path id="Trazado_1043750" data-name="Trazado 1043750" d="M2125.006,1414.527c5.452-.076,10.707-.026,16.025-.345-2.534,4.888-12.863,5.164-16.025.345" transform="translate(-2023.218 -1346.443)" fill="#fcfbf9"/>
            <path id="Trazado_1043751" data-name="Trazado 1043751" d="M2547.585,2808.949a.518.518,0,0,1-.385.546.447.447,0,0,1-.594-.377.375.375,0,0,1,.354-.469.542.542,0,0,1,.625.3" transform="translate(-2424.613 -2674.105)" fill="#3d5181"/>
          </g>
        </g>
        <g id="Grupo_1203650" data-name="Grupo 1203650" transform="translate(961.88 2262.786)">
          <g id="Grupo_1203651" data-name="Grupo 1203651">
            <g transform="matrix(1, 0, 0, 1, -166.97, -23.85)" filter="url(#Trazado_1043752)">
              <path id="Trazado_1043752-2" data-name="Trazado 1043752" d="M27.45.056A28.833,28.833,0,0,1,52.9,45.042l7.336,14.434-15.69-6.508-3.42,1.782a28.293,28.293,0,0,1-9.488,2.47,28.593,28.593,0,0,1-21.26-6.668A29.822,29.822,0,0,1,.065,30.226a28.338,28.338,0,0,1,6.646-20.2C12.141,3.795,19.279.647,27.45.056" transform="translate(166.97 23.85)" fill="#f6f3ef"/>
            </g>
            <path id="Trazado_1043753" data-name="Trazado 1043753" d="M72.882,51.358l.02.256c.223,4.613-2.822,10.5-5.892,13.746a23.3,23.3,0,0,1-16.072,7.363,22.723,22.723,0,0,1-16.568-6.131A23.3,23.3,0,0,1,27,50.683,22.012,22.012,0,0,1,33.192,34.4a23.254,23.254,0,0,1,32.655-.516c4.031,4.016,7.067,9.8,7.036,15.6a14.762,14.762,0,0,0,0,1.874" transform="translate(-21.041 -21.391)" fill="#fec53d"/>
            <path id="Trazado_1043754" data-name="Trazado 1043754" d="M80.726,104.2c-1.6,0-16.374-.122-16.513-.02a5.207,5.207,0,0,0-.445.99c-.639,1.414-1.4,3.82-2.6,4.771a1.593,1.593,0,0,1-1.3-.242,7.228,7.228,0,0,1-.946-2.55l-1.281-4.906L55.8,108.615l-.957,4.118a5.141,5.141,0,0,1-.8,2.538,1.188,1.188,0,0,1-1.036-.14c-.941-1.5-1.255-4.446-1.636-6.2l-1.96-9.32a14.753,14.753,0,0,1-.886,3.726,1.431,1.431,0,0,1-.906.835,14.423,14.423,0,0,1-2.45.031H39.782a9.555,9.555,0,0,1-2.154-.044,3.094,3.094,0,0,1-.516-.427,1.406,1.406,0,0,1,.165-1.2,9.439,9.439,0,0,1,3.23-.215l6.485.017,1.482-6.509a1.418,1.418,0,0,1,1.107-.594,3.117,3.117,0,0,1,.534.381A5.061,5.061,0,0,1,50.536,97l.878,3.983,2.106,9.119,2.07-6.956c.291-1.037.642-3.3,1.338-4.071.388-.432.624-.369,1.175-.42.853.611.961,1.949,1.193,2.937l1.382,6.038a43.877,43.877,0,0,1,2.593-5.238,54.787,54.787,0,0,1,5.993-.071l11.461.011a14.762,14.762,0,0,0,0,1.874" transform="translate(-28.884 -74.233)" fill="#263173"/>
          </g>
        </g>
        <g id="Grupo_1203653" data-name="Grupo 1203653" transform="translate(1209.192 2330.851)">
          <g id="Grupo_1203652" data-name="Grupo 1203652" clip-path="url(#clip-path-3)">
            <path id="Trazado_1043755" data-name="Trazado 1043755" d="M219.316,72.759c-.019-1.14-.356-3.581.449-4.406.832-.851,4.4-.5,5.7-.5.782,0,2.686-.235,3.237.326a1.8,1.8,0,0,1,.529.961,22.844,22.844,0,0,1,.032,3.521l.015,8.876c.015.945.318,3.536-.188,4.24a2.957,2.957,0,0,1-1.564.089,8.927,8.927,0,0,0-2.073-.089l-4.528.023a2.605,2.605,0,0,1-1.41-.139l-.162-.594a47.465,47.465,0,0,1-.006-6.266Z" transform="translate(-177.505 -54.882)" fill="#747eca"/>
            <path id="Trazado_1043756" data-name="Trazado 1043756" d="M229.819,140.079c.015.945.318,3.536-.188,4.24a2.957,2.957,0,0,1-1.564.089,8.927,8.927,0,0,0-2.073-.089l-4.528.023a2.605,2.605,0,0,1-1.41-.139l-.162-.594.019-3.476Z" transform="translate(-178.041 -113.418)" fill="#303a72"/>
            <path id="Trazado_1043757" data-name="Trazado 1043757" d="M158.236,437.2l4.263-.065a11.566,11.566,0,0,1,2.139.01l.129.012.049,1.577c.436.344,1.258.205,1.821.2l4.941-.007a17.589,17.589,0,0,1,2.916.093c3.894.68,6.058,3.355,7.143,6.973l-39.866.015A7.191,7.191,0,0,1,144.2,441.3c2.488-2.4,5.141-2.361,8.365-2.365l5.676.048Z" transform="translate(-114.79 -353.896)" fill="#303a72"/>
            <path id="Trazado_1043758" data-name="Trazado 1043758" d="M228.273,437.2l4.263-.065a11.566,11.566,0,0,1,2.139.01v1.673a1.2,1.2,0,0,1-.23.209c-.287.147-5.158.028-5.826,0l-.346-.042Z" transform="translate(-184.826 -353.896)" fill="#1a275f"/>
            <path id="Trazado_1043759" data-name="Trazado 1043759" d="M.085,27.286C.224,25.609.09,23.808.09,22.12l0-10.908c0-2.313-.438-5.562.579-7.653a6.174,6.174,0,0,1,3.7-3.2A7.33,7.33,0,0,1,6.843.074L17.757.067A24.484,24.484,0,0,1,22.77.193,6.032,6.032,0,0,1,27.151,4.5,21,21,0,0,1,27.3,8.829l.025,9.051-.01,6.044-.017,7.049c0,1.475.2,3.244-.348,4.625A6.233,6.233,0,0,1,22,39.329a29.211,29.211,0,0,1-3.163.036l-6.119-.012H7.989A11.376,11.376,0,0,1,5.248,39.2a6.783,6.783,0,0,1-3.384-1.816c-2.438-2.512-1.77-6.854-1.78-10.1" transform="translate(0 0)" fill="#303a72"/>
            <path id="Trazado_1043760" data-name="Trazado 1043760" d="M228.088,162.313l4.528-.023a8.928,8.928,0,0,1,2.073.089l.01,6.813-6.625-.013Z" transform="translate(-184.664 -131.389)" fill="#1a275f"/>
            <path id="Trazado_1043761" data-name="Trazado 1043761" d="M143.5,93.932l14.492,0,.034,6.048H143.493Z" transform="translate(-116.182 -76.052)" fill="#6c58aa"/>
            <path id="Trazado_1043762" data-name="Trazado 1043762" d="M228.073,198.557l6.625.013-.055,45.457-.129-.012a11.565,11.565,0,0,0-2.139-.01l-4.263.065Z" transform="translate(-184.664 -160.766)" fill="#747eca"/>
          </g>
        </g>
        <g id="Grupo_1203655" data-name="Grupo 1203655" transform="translate(889.909 2326.017)">
          <g id="Grupo_1203654" data-name="Grupo 1203654" clip-path="url(#clip-path-4)">
            <path id="Trazado_1043763" data-name="Trazado 1043763" d="M61.72,199.541c.2-.358,16.557-8.474,17.909-9a17.391,17.391,0,0,0,2.232,3.234l-11.425,5.693a38.712,38.712,0,0,1-5.6,2.8,1.941,1.941,0,0,1-1.25-.1c-.946-.331-1.334-1.406-1.706-2.248Z" transform="translate(-49.727 -153.514)" fill="#141e54"/>
            <path id="Trazado_1043764" data-name="Trazado 1043764" d="M68.888,144.989c-1.1,2.875-1.512,5.83-.229,8.743l.049.108c-1.352.527-17.707,8.644-17.909,9l-1.973-3.929c-.513-1.018-.9-1.725-.493-2.865a2.33,2.33,0,0,1,.917-1.2,58.212,58.212,0,0,1,6.173-3.136Z" transform="translate(-38.805 -116.815)" fill="#1a275f"/>
            <path id="Trazado_1043765" data-name="Trazado 1043765" d="M241,79.867l.867-.517a28.479,28.479,0,0,0,4.685,10.762l-14.564,7.429a13.827,13.827,0,0,0-.632-4.314c-.9-2.718-2.844-4.39-5.221-5.82Z" transform="translate(-182.191 -63.931)" fill="#1a275f"/>
            <path id="Trazado_1043766" data-name="Trazado 1043766" d="M262.645,79.867l.867-.517A28.479,28.479,0,0,0,268.2,90.112l-14.564,7.429A13.826,13.826,0,0,0,253,93.226l12.212-6.193a29.045,29.045,0,0,1-2.569-7.166" transform="translate(-203.839 -63.931)" fill="#141e54"/>
            <path id="Trazado_1043767" data-name="Trazado 1043767" d="M305.616,35.165a7.755,7.755,0,0,1-.1-4.251c.736-2.264,2.972-3.045,4.9-4.042l4.648-2.364a27.312,27.312,0,0,0,.012,4.606,24.128,24.128,0,0,0,5.85,12.625,17.465,17.465,0,0,0,6.765,4.834l-8.944,4.736a4.437,4.437,0,0,1-2.269.2c-2.261-.379-4.9-3.757-6.175-5.579a28.479,28.479,0,0,1-4.685-10.762" transform="translate(-245.943 -19.746)" fill="#303a72"/>
            <path id="Trazado_1043768" data-name="Trazado 1043768" d="M150.562,120.845l.086-.174a10.029,10.029,0,0,1,5.91-5.156,10.4,10.4,0,0,1,7.864.632c2.377,1.43,4.324,3.1,5.221,5.82a13.826,13.826,0,0,1,.632,4.314,10.937,10.937,0,0,1-4.319,7.523,2.631,2.631,0,0,1-.694.42,5.627,5.627,0,0,1,.154,2.367l-.353.416a17.608,17.608,0,0,1-9.851.276,2.166,2.166,0,0,1-1.086-.881,3.507,3.507,0,0,1,.185-2.228,11.58,11.58,0,0,1-1.7-1.243,17.392,17.392,0,0,1-2.232-3.234l-.049-.108c-1.283-2.913-.872-5.868.229-8.743" transform="translate(-120.479 -92.671)" fill="#303a72"/>
            <path id="Trazado_1043769" data-name="Trazado 1043769" d="M172.795,213.576c2.768,1.394,5.4,2.023,8.442,1.042l2.509-.992a5.627,5.627,0,0,1,.154,2.367l-.353.416a17.608,17.608,0,0,1-9.851.276,2.166,2.166,0,0,1-1.086-.881,3.507,3.507,0,0,1,.185-2.228" transform="translate(-138.964 -172.074)" fill="#1a275f"/>
            <path id="Trazado_1043770" data-name="Trazado 1043770" d="M175.722,134.939a6.7,6.7,0,0,1,3.922.765,6.535,6.535,0,0,1,3.108,3.878,6.185,6.185,0,0,1-.629,4.827,6.306,6.306,0,0,1-9.031,2.149,6.249,6.249,0,0,1-2.684-3.9,6.378,6.378,0,0,1,.859-4.813,6.688,6.688,0,0,1,4.455-2.906" transform="translate(-137.179 -108.694)" fill="#747eca"/>
            <path id="Trazado_1043771" data-name="Trazado 1043771" d="M34.732,228.429a17.608,17.608,0,0,0,9.851-.276,25.874,25.874,0,0,0,2.454,3.791L65.22,257.839l16.32,22.929H77.819L61.341,257.414,45.779,235.386c-.478-.7-2.725-4.373-3.345-4.44L41.4,231c-.4,1.053-.127,2.951-.124,4.115l.029,10.293-.021,28.8,6.537.009a15.339,15.339,0,0,1,2.858.054,1.714,1.714,0,0,1,.8.472c.942.921.506,4.578.507,5.948l-23.444-.006c-.005-1.375-.433-4.979.516-5.964a2.3,2.3,0,0,1,.6-.423,7.973,7.973,0,0,1,2.474-.132l6.2.055-.042-32.743.025-7.555a8.815,8.815,0,0,0-.123-2.9,5.181,5.181,0,0,0-1.525,0L3.713,280.671H0Z" transform="translate(0 -183.818)" fill="#303a72"/>
            <path id="Trazado_1043772" data-name="Trazado 1043772" d="M364.1,0a13.588,13.588,0,0,1,10.321,3.984,14.943,14.943,0,0,1,4.348,10.483c.012,2.706-.874,6.006-2.852,7.946a5.4,5.4,0,0,1-1.251.92l-1.413.735-4.064,2.059-1.244.7a17.465,17.465,0,0,1-6.765-4.834,24.128,24.128,0,0,1-5.85-12.625,27.312,27.312,0,0,1-.012-4.606L356.6,3.99a.661.661,0,0,1,.05-.251c.573-1.542,3.22-2.476,4.608-3.09L362.74.175Z" transform="translate(-286.193 0)" fill="#303a72"/>
            <path id="Trazado_1043773" data-name="Trazado 1043773" d="M384.651,1.372,386.134.9c-.181,1.3-.506,2.576-.588,3.882a19.679,19.679,0,0,0,4.166,13.237A16.47,16.47,0,0,0,395.745,23a9.891,9.891,0,0,1,2.309,1.057l-1.413.735c-3.288-1.475-5.822-3.006-7.952-6.006a21.594,21.594,0,0,1-4.038-17.415" transform="translate(-309.587 -0.724)" fill="#141e54"/>
            <path id="Trazado_1043774" data-name="Trazado 1043774" d="M361.257,3.336A21.594,21.594,0,0,0,365.3,20.751c2.13,3,4.664,4.531,7.952,6.006l-4.064,2.059-1.244.7a17.465,17.465,0,0,1-6.765-4.834,24.128,24.128,0,0,1-5.85-12.625,27.312,27.312,0,0,1-.012-4.606l1.287-.773a.661.661,0,0,1,.05-.251c.573-1.542,3.22-2.476,4.608-3.09" transform="translate(-286.193 -2.688)" fill="#303a72"/>
            <path id="Trazado_1043775" data-name="Trazado 1043775" d="M355.313,21.3l1.287-.773a30.2,30.2,0,0,0-.029,5.058,23.275,23.275,0,0,0,5.779,12.323,17.158,17.158,0,0,0,4.782,3.9,16.425,16.425,0,0,1,2.053.863l-1.244.7a17.465,17.465,0,0,1-6.765-4.834,24.128,24.128,0,0,1-5.85-12.625,27.312,27.312,0,0,1-.012-4.606" transform="translate(-286.193 -16.541)" fill="#141e54"/>
          </g>
        </g>
      </g>
    </g>
  </g>
</svg>
