<svg xmlns="http://www.w3.org/2000/svg" xmlns:xlink="http://www.w3.org/1999/xlink" width="400" height="323" viewBox="0 0 400 323">
  <defs>
    <clipPath id="clip-path">
      <rect id="Rectángulo_421397" data-name="Rectángulo 421397" width="400" height="323" fill="#fff" stroke="#707070" stroke-width="1"/>
    </clipPath>
    <clipPath id="clip-path-2">
      <rect id="Rectángulo_421465" data-name="Rectángulo 421465" width="363.693" height="285.399" fill="none"/>
    </clipPath>
    <clipPath id="clip-path-3">
      <rect id="Rectángulo_421464" data-name="Rectángulo 421464" width="363.694" height="285.399" fill="none"/>
    </clipPath>
    <clipPath id="clip-path-4">
      <rect id="Rectángulo_421433" data-name="Rectángulo 421433" width="216.745" height="112.555" fill="none"/>
    </clipPath>
    <clipPath id="clip-path-5">
      <rect id="Rectángulo_421451" data-name="Rectángulo 421451" width="11.825" height="42.886" fill="none"/>
    </clipPath>
    <clipPath id="clip-path-6">
      <rect id="Rectángulo_421452" data-name="Rectángulo 421452" width="39.106" height="44.945" fill="none"/>
    </clipPath>
    <clipPath id="clip-path-7">
      <rect id="Rectángulo_421453" data-name="Rectángulo 421453" width="13.651" height="14.242" fill="none"/>
    </clipPath>
    <clipPath id="clip-path-8">
      <rect id="Rectángulo_421454" data-name="Rectángulo 421454" width="5.994" height="7.506" fill="none"/>
    </clipPath>
    <clipPath id="clip-path-9">
      <rect id="Rectángulo_421455" data-name="Rectángulo 421455" width="4.278" height="5.875" fill="none"/>
    </clipPath>
    <clipPath id="clip-path-10">
      <rect id="Rectángulo_421457" data-name="Rectángulo 421457" width="4.294" height="2.368" fill="none"/>
    </clipPath>
    <clipPath id="clip-path-11">
      <rect id="Rectángulo_421458" data-name="Rectángulo 421458" width="2.572" height="1.735" fill="none"/>
    </clipPath>
    <clipPath id="clip-path-12">
      <rect id="Rectángulo_421459" data-name="Rectángulo 421459" width="2.685" height="2.848" fill="none"/>
    </clipPath>
    <clipPath id="clip-path-13">
      <rect id="Rectángulo_421460" data-name="Rectángulo 421460" width="9.58" height="3.507" fill="none"/>
    </clipPath>
    <clipPath id="clip-path-14">
      <rect id="Rectángulo_421461" data-name="Rectángulo 421461" width="3.128" height="3.175" fill="none"/>
    </clipPath>
    <clipPath id="clip-path-15">
      <rect id="Rectángulo_421463" data-name="Rectángulo 421463" width="64.495" height="17.801" fill="none"/>
    </clipPath>
  </defs>
  <g id="Enmascarar_grupo_1098813" data-name="Enmascarar grupo 1098813" clip-path="url(#clip-path)">
    <g id="Grupo_1220244" data-name="Grupo 1220244" transform="translate(0 14.287)">
      <rect id="Rectángulo_421385" data-name="Rectángulo 421385" width="400" height="132" rx="17" transform="translate(0 83.713)" fill="#ff9d1c"/>
    </g>
    <g id="Grupo_1220470" data-name="Grupo 1220470" transform="translate(18.154 37.601)">
      <g id="Grupo_1220469" data-name="Grupo 1220469" clip-path="url(#clip-path-2)">
        <rect id="Rectángulo_421426" data-name="Rectángulo 421426" width="240.363" height="140.59" transform="translate(27.158 46.246)" fill="#cfdcf9"/>
        <g id="Grupo_1220468" data-name="Grupo 1220468">
          <g id="Grupo_1220467" data-name="Grupo 1220467" clip-path="url(#clip-path-3)">
            <path id="Trazado_1044710" data-name="Trazado 1044710" d="M315.949,95.041v7.653H75.586V95.041A6.938,6.938,0,0,1,82.524,88.1H309.011a6.938,6.938,0,0,1,6.938,6.938" transform="translate(-48.428 -56.448)" fill="#5669af"/>
            <path id="Trazado_1044711" data-name="Trazado 1044711" d="M100.177,102.428a3.354,3.354,0,1,1-3.354-3.354,3.354,3.354,0,0,1,3.354,3.354" transform="translate(-59.886 -63.477)" fill="#fff"/>
            <path id="Trazado_1044712" data-name="Trazado 1044712" d="M129.031,102.428a3.354,3.354,0,1,1-3.354-3.354,3.354,3.354,0,0,1,3.354,3.354" transform="translate(-78.373 -63.477)" fill="#fff"/>
            <path id="Trazado_1044713" data-name="Trazado 1044713" d="M157.885,102.428a3.354,3.354,0,1,1-3.354-3.354,3.354,3.354,0,0,1,3.354,3.354" transform="translate(-96.859 -63.477)" fill="#fff"/>
            <g id="Grupo_1220433" data-name="Grupo 1220433" transform="translate(38.967 64.791)" style="mix-blend-mode: overlay;isolation: isolate">
              <g id="Grupo_1220432" data-name="Grupo 1220432">
                <g id="Grupo_1220431" data-name="Grupo 1220431" clip-path="url(#clip-path-4)">
                  <rect id="Rectángulo_421427" data-name="Rectángulo 421427" width="216.745" height="0.756" transform="translate(0 0)" fill="#2e3442"/>
                  <rect id="Rectángulo_421428" data-name="Rectángulo 421428" width="216.745" height="0.756" transform="translate(0 22.097)" fill="#2e3442"/>
                  <rect id="Rectángulo_421429" data-name="Rectángulo 421429" width="216.745" height="0.756" transform="translate(0 44.194)" fill="#2e3442"/>
                  <rect id="Rectángulo_421430" data-name="Rectángulo 421430" width="216.745" height="0.756" transform="translate(0 66.291)" fill="#2e3442"/>
                  <rect id="Rectángulo_421431" data-name="Rectángulo 421431" width="216.745" height="0.756" transform="translate(0 88.388)" fill="#2e3442"/>
                  <rect id="Rectángulo_421432" data-name="Rectángulo 421432" width="216.745" height="0.756" transform="translate(0 111.799)" fill="#2e3442"/>
                </g>
              </g>
            </g>
            <path id="Trazado_1044714" data-name="Trazado 1044714" d="M108.455,235.787,121.5,222.846a24.036,24.036,0,0,1,31.546-2.013l36.877,28.26a24.037,24.037,0,0,0,30.871-1.369l5.8-5.322a24.037,24.037,0,0,1,25.755-4.368l72.848,31.36v46.264H108.455Z" transform="translate(-69.487 -138.311)" fill="#fd7977"/>
            <path id="Trazado_1044715" data-name="Trazado 1044715" d="M108.455,324.6l35.419-41.307a24.093,24.093,0,0,1,35.843-.82,24.093,24.093,0,0,0,33.937,1.162l51.078-47.375a24.093,24.093,0,0,1,35.113,2.509L325.2,270.1v54.5Z" transform="translate(-69.487 -147.253)" fill="#e44a4a"/>
            <rect id="Rectángulo_421434" data-name="Rectángulo 421434" width="104.147" height="60.917" transform="translate(113.414 164.726)" fill="#fff"/>
            <path id="Trazado_1044716" data-name="Trazado 1044716" d="M416.8,440.872H318.66a3.005,3.005,0,0,0-3.006,3.005v3.316H419.8v-3.316a3.005,3.005,0,0,0-3.006-3.005" transform="translate(-202.24 -282.467)" fill="#5669af"/>
            <path id="Trazado_1044717" data-name="Trazado 1044717" d="M326.309,447.077a1.453,1.453,0,1,1-1.453-1.453,1.453,1.453,0,0,1,1.453,1.453" transform="translate(-207.204 -285.512)" fill="#fff"/>
            <path id="Trazado_1044718" data-name="Trazado 1044718" d="M338.812,447.077a1.453,1.453,0,1,1-1.453-1.453,1.453,1.453,0,0,1,1.453,1.453" transform="translate(-215.215 -285.512)" fill="#fff"/>
            <path id="Trazado_1044719" data-name="Trazado 1044719" d="M351.314,447.077a1.453,1.453,0,1,1-1.453-1.453,1.453,1.453,0,0,1,1.453,1.453" transform="translate(-223.225 -285.512)" fill="#fff"/>
            <path id="Trazado_1044720" data-name="Trazado 1044720" d="M354.156,476.316a19.057,19.057,0,1,0,19.057,19.057,19.057,19.057,0,0,0-19.057-19.057" transform="translate(-214.698 -305.176)" fill="#cfdcf9"/>
            <path id="Trazado_1044721" data-name="Trazado 1044721" d="M362.507,484.146a16.411,16.411,0,0,0-19.381,11.614c-.05.174-.092.351-.135.525s-.085.354-.121.535c0,0,0,.007,0,.014-.032.163-.064.326-.092.493a.715.715,0,0,0-.014.085q-.043.245-.074.489c-.021.156-.042.312-.057.472-.007.046-.01.1-.014.146-.018.163-.032.326-.043.489s-.021.326-.025.489c-.01.209-.014.425-.014.638a16.386,16.386,0,1,0,19.973-15.99m-3.586,28.25a12.261,12.261,0,0,1-12.26-12.26q0-.239.011-.478c0-.146.011-.287.021-.429.025-.329.064-.656.114-.979.021-.138.042-.276.071-.411.018-.107.039-.209.064-.312.028-.138.06-.273.1-.408.053-.224.117-.447.184-.663a12.274,12.274,0,0,1,14.032-8.352c.146.028.291.057.433.092.05.011.1.021.142.036.153.032.3.071.447.114a.055.055,0,0,0,.021.007c.17.05.341.1.507.16.018,0,.032.011.046.014.142.046.284.1.422.152.174.064.347.135.518.21.149.064.3.131.443.2a.148.148,0,0,0,.036.018c.156.075.312.156.465.238a.262.262,0,0,0,.028.014c.146.078.287.16.429.245s.294.181.44.277.259.17.387.263l.042.032c.28.2.557.415.819.642.132.11.259.223.387.344s.252.238.372.362.238.245.351.369c.131.145.262.294.39.447.085.1.167.205.245.312.124.16.241.319.358.482.089.131.178.262.266.4,0,0,.007.011.011.018.092.146.184.294.27.443.007.014.018.029.025.043.078.138.156.277.227.419s.16.312.234.468.138.295.2.443a.238.238,0,0,1,.014.036c.071.16.135.323.192.486s.128.355.184.536c.053.159.1.319.142.482.039.135.074.269.1.408.018.064.032.131.046.2.032.145.064.294.089.443a.163.163,0,0,0,0,.018c.025.145.05.294.067.443.011.053.018.11.025.166.018.138.035.28.046.422a.281.281,0,0,1,0,.057c.035.358.05.716.05,1.081a12.258,12.258,0,0,1-12.256,12.26" transform="translate(-219.462 -309.941)" fill="#3f4977"/>
            <path id="Trazado_1044722" data-name="Trazado 1044722" d="M362.5,484.85l-1.25,3.954c.144.03.3.061.432.1a.822.822,0,0,1,.144.03c.151.038.3.076.447.114a.027.027,0,0,0,.023.008l.507.159a.107.107,0,0,0,.045.015c.144.053.28.1.424.152.174.068.349.136.515.212.152.061.3.137.447.2a.061.061,0,0,0,.031.015c.159.075.31.159.47.235.007.008.015.015.023.015l.432.25c.151.083.3.174.439.272.129.083.258.175.386.265.015.008.03.023.046.031.28.2.553.416.818.644.129.106.258.227.386.341s.25.235.371.364.235.242.349.371c.136.144.265.287.394.447.083.1.167.2.242.311.129.159.243.318.356.477.091.137.182.265.273.4a.028.028,0,0,1,.008.015c.091.144.182.3.272.447.008.015.015.023.023.038.076.144.152.28.227.424s.159.3.235.462.136.3.2.447c.008.015.008.023.015.038.068.159.129.318.189.485s.129.356.182.53.106.325.144.485c.038.136.076.273.106.409.015.061.03.129.045.2.03.144.061.3.091.439v.023c.023.144.053.288.068.439.008.053.015.114.023.167a3.9,3.9,0,0,1,.046.424.128.128,0,0,1,.008.053c.03.364.045.72.045,1.083,0,.273-.007.545-.03.81a12.256,12.256,0,0,1-24.486-.81c0-.159.008-.318.015-.477a4.145,4.145,0,0,1,.023-.432q.034-.488.114-.977a3.781,3.781,0,0,1,.068-.409c.015-.106.038-.212.06-.311.03-.144.061-.273.1-.409.053-.227.114-.447.182-.667l-4.09-.7c-.053.174-.1.356-.137.53s-.083.356-.121.53c0,.008-.008.008-.008.015-.03.167-.061.326-.091.492-.008.031-.008.061-.015.091-.023.159-.053.326-.068.485s-.045.31-.06.47c-.008.053-.008.1-.015.152-.015.159-.03.326-.038.485s-.023.326-.03.492c-.008.212-.015.424-.015.636a16.384,16.384,0,0,0,32.749.81c.015-.265.023-.538.023-.81a16.391,16.391,0,0,0-12.8-15.988" transform="translate(-219.457 -310.644)" fill="#e44a4a"/>
            <path id="Trazado_1044723" data-name="Trazado 1044723" d="M404.5,531.6a16.38,16.38,0,0,1-16.359,15.579v-4.128A12.254,12.254,0,0,0,400.366,531.6Z" transform="translate(-248.683 -340.599)" fill="#eb9331"/>
            <rect id="Rectángulo_421435" data-name="Rectángulo 421435" width="45.006" height="2.59" transform="translate(165.488 178.798)" fill="#3f4977"/>
            <rect id="Rectángulo_421436" data-name="Rectángulo 421436" width="45.006" height="2.59" transform="translate(165.488 185.534)" fill="#3f4977"/>
            <rect id="Rectángulo_421437" data-name="Rectángulo 421437" width="35.29" height="2.59" transform="translate(165.488 192.27)" fill="#3f4977"/>
            <rect id="Rectángulo_421438" data-name="Rectángulo 421438" width="22.503" height="2.59" transform="translate(165.488 199.006)" fill="#3f4977"/>
            <rect id="Rectángulo_421439" data-name="Rectángulo 421439" width="15.847" height="2.462" transform="translate(128.006 215.616)" fill="#3f4977"/>
            <path id="Trazado_1044724" data-name="Trazado 1044724" d="M337.727,597.97a3.117,3.117,0,1,1-3.117-3.117,3.117,3.117,0,0,1,3.117,3.117" transform="translate(-212.387 -381.123)" fill="#3f4977"/>
            <rect id="Rectángulo_421440" data-name="Rectángulo 421440" width="15.847" height="2.462" transform="translate(159.283 215.616)" fill="#3f4977"/>
            <path id="Trazado_1044725" data-name="Trazado 1044725" d="M424.778,597.97a3.117,3.117,0,1,1-3.117-3.117,3.117,3.117,0,0,1,3.117,3.117" transform="translate(-268.161 -381.123)" fill="#eb9331"/>
            <rect id="Rectángulo_421441" data-name="Rectángulo 421441" width="15.847" height="2.462" transform="translate(190.56 215.616)" fill="#3f4977"/>
            <path id="Trazado_1044726" data-name="Trazado 1044726" d="M511.827,597.97a3.117,3.117,0,1,1-3.117-3.117,3.117,3.117,0,0,1,3.117,3.117" transform="translate(-323.934 -381.123)" fill="#e44a4a"/>
            <rect id="Rectángulo_421442" data-name="Rectángulo 421442" width="68.694" height="89.702" transform="translate(210.278 7.449)" fill="#fff"/>
            <path id="Trazado_1044727" data-name="Trazado 1044727" d="M650.4,0H588.786a3.541,3.541,0,0,0-3.542,3.541V7.449h68.694V3.541A3.541,3.541,0,0,0,650.4,0" transform="translate(-374.967)" fill="#5669af"/>
            <path id="Trazado_1044728" data-name="Trazado 1044728" d="M597.8,7.312A1.713,1.713,0,1,1,596.087,5.6,1.712,1.712,0,0,1,597.8,7.312" transform="translate(-380.816 -3.588)" fill="#fff"/>
            <path id="Trazado_1044729" data-name="Trazado 1044729" d="M612.531,7.312A1.713,1.713,0,1,1,610.819,5.6a1.713,1.713,0,0,1,1.713,1.712" transform="translate(-390.255 -3.588)" fill="#fff"/>
            <path id="Trazado_1044730" data-name="Trazado 1044730" d="M627.263,7.312A1.713,1.713,0,1,1,625.551,5.6a1.713,1.713,0,0,1,1.712,1.712" transform="translate(-399.694 -3.588)" fill="#fff"/>
            <rect id="Rectángulo_421443" data-name="Rectángulo 421443" width="10.716" height="15.592" transform="translate(221.345 48.904)" fill="#5669af"/>
            <rect id="Rectángulo_421444" data-name="Rectángulo 421444" width="10.716" height="26.328" transform="translate(237.554 38.168)" fill="#e44a4a"/>
            <rect id="Rectángulo_421445" data-name="Rectángulo 421445" width="10.716" height="36.064" transform="translate(253.762 28.432)" fill="#eb9331"/>
            <path id="Trazado_1044731" data-name="Trazado 1044731" d="M660.439,40.466a1.433,1.433,0,0,0-.752-.976l-7.746-3.933a1.43,1.43,0,1,0-1.295,2.55l3.973,2.017A36.3,36.3,0,0,0,627,67.222a1.43,1.43,0,0,0,1.167,1.652,1.368,1.368,0,0,0,.244.021,1.43,1.43,0,0,0,1.408-1.188c.036-.207,3.672-19.743,25.694-24.853L652.49,46.6a1.43,1.43,0,1,0,2.225,1.8l5.438-6.73a1.433,1.433,0,0,0,.287-1.2" transform="translate(-401.708 -22.682)" fill="#3f4977"/>
            <rect id="Rectángulo_421446" data-name="Rectángulo 421446" width="52.877" height="2.222" transform="translate(218.186 71.317)" fill="#3f4977"/>
            <rect id="Rectángulo_421447" data-name="Rectángulo 421447" width="52.877" height="2.222" transform="translate(218.186 77.094)" fill="#3f4977"/>
            <rect id="Rectángulo_421448" data-name="Rectángulo 421448" width="41.462" height="2.222" transform="translate(223.894 82.872)" fill="#3f4977"/>
            <rect id="Rectángulo_421449" data-name="Rectángulo 421449" width="26.438" height="2.222" transform="translate(231.405 88.649)" fill="#3f4977"/>
            <path id="Trazado_1044732" data-name="Trazado 1044732" d="M841.928,63.869H809.534a2.6,2.6,0,0,1-2.6-2.6V28.871a2.6,2.6,0,0,1,2.6-2.6h32.395a2.6,2.6,0,0,1,2.6,2.6V61.266a2.6,2.6,0,0,1-2.6,2.6" transform="translate(-517.002 -16.831)" fill="#fcc549"/>
            <line id="Línea_1183" data-name="Línea 1183" x1="2.67" y2="2.803" transform="translate(305.318 28.872)" fill="#fff"/>
            <rect id="Rectángulo_421450" data-name="Rectángulo 421450" width="3.871" height="1.455" transform="matrix(0.69, -0.724, 0.724, 0.69, 304.791, 31.174)" fill="#fff"/>
            <path id="Trazado_1044733" data-name="Trazado 1044733" d="M835.978,86.348l-6.986,7.333a1.044,1.044,0,0,1-1.475.066l-.384-.367-.719-.681a1.05,1.05,0,0,1,0-1.481l6.986-7.333a1.05,1.05,0,0,1,1.479-.066l.739.706h0l.359.342a1.047,1.047,0,0,1,0,1.481" transform="translate(-529.288 -53.527)" fill="#fff"/>
            <path id="Trazado_1044734" data-name="Trazado 1044734" d="M863.8,49.21a7.839,7.839,0,1,0-4.082,10.306A7.839,7.839,0,0,0,863.8,49.21m-9.729-2.746a6.383,6.383,0,1,1-3.324,8.393,6.39,6.39,0,0,1,3.324-8.393" transform="translate(-543.802 -28.5)" fill="#fff"/>
            <path id="Trazado_1044735" data-name="Trazado 1044735" d="M40.359,222.294H5.056A5.056,5.056,0,0,0,0,227.35v35.3a5.056,5.056,0,0,0,5.056,5.056h35.3a5.055,5.055,0,0,0,5.055-5.055v-35.3a5.056,5.056,0,0,0-5.056-5.056" transform="translate(0 -142.424)" fill="#fcc549"/>
            <path id="Trazado_1044736" data-name="Trazado 1044736" d="M45.529,267.761a16.561,16.561,0,0,0,2.982-4.243l.02-.041-2.5-1.227a13.73,13.73,0,0,0,1.257-4.125l2.763.387a16.508,16.508,0,0,0-.1-5.187l-2.749.488a13.913,13.913,0,0,0-1.406-4.077l2.467-1.31a16.511,16.511,0,0,0-3.121-4.145l-1.937,2.007a13.734,13.734,0,0,0-3.5-2.462l-.03-.014,1.221-2.5a16.563,16.563,0,0,0-4.957-1.521l-.389,2.762a13.775,13.775,0,0,0-4.312.079l-.486-2.75a16.646,16.646,0,0,0-4.9,1.685l1.308,2.468a13.76,13.76,0,0,0-3.45,2.588L21.7,244.682a16.58,16.58,0,0,0-2.963,4.224l-.01.021,2.5,1.214a13.742,13.742,0,0,0-1.269,4.136l-2.761-.392a16.5,16.5,0,0,0,.087,5.188l2.749-.484a13.914,13.914,0,0,0,1.4,4.081l-2.468,1.3a16.5,16.5,0,0,0,3.113,4.15l1.94-2a13.742,13.742,0,0,0,3.52,2.477l.01,0-1.224,2.5a16.569,16.569,0,0,0,4.954,1.529l.395-2.76a13.766,13.766,0,0,0,4.312-.073l.481,2.75a16.627,16.627,0,0,0,4.9-1.676l-1.3-2.469a13.777,13.777,0,0,0,3.454-2.583Zm-15.115-5.007a7.287,7.287,0,1,1,9.753-3.331,7.3,7.3,0,0,1-9.753,3.331" transform="translate(-10.918 -153.633)" fill="#fff"/>
            <path id="Trazado_1044737" data-name="Trazado 1044737" d="M792.386,760.417l-2.8-18.741c-2.065-1.032-15.689,1.2-15.689,1.2s-1.816,4.672-4.913,5.7-19.271-1.408-19.271,11.841Z" transform="translate(-480.343 -475.018)" fill="#2e3442"/>
            <path id="Trazado_1044738" data-name="Trazado 1044738" d="M914.586,760.417l-2.8-18.741c-2.065-1.032-15.689,1.2-15.689,1.2s-1.816,4.672-4.913,5.7-19.271-1.408-19.271,11.841Z" transform="translate(-558.636 -475.018)" fill="#2e3442"/>
            <path id="Trazado_1044739" data-name="Trazado 1044739" d="M811.727,434.475l-11.22,59.531-1.776,55.338s19.256,2.143,26.9,0l.21-51.971,7.973-36.3,6.385,89.618s20.386,1.634,28.7-1.347l-9.448-114.869Z" transform="translate(-511.747 -278.369)" fill="#112c40"/>
            <path id="Trazado_1044740" data-name="Trazado 1044740" d="M797.569,315.676c-.744,1.387-4.078,3.73-6.967,5.616-2.156,1.408-4.064,2.555-4.462,2.86-.8.5-1.606.956-2.411,1.38-7.922,4.175-18.988,5-18.988,5l.476-21.443,11.847-2.755s8.857-33.889,10.65-38.668,11.052-8.217,11.052-8.217l-.9,6.439.151,29.1c-.248,7,2.526,15.119-.449,20.681" transform="translate(-489.971 -166.232)" fill="#205277"/>
            <path id="Trazado_1044741" data-name="Trazado 1044741" d="M759.4,408.334c0,5.921-6.814,10.721-6.814,10.721s-6.814-4.8-6.814-10.721,6.814-10.721,6.814-10.721,6.814,4.8,6.814,10.721" transform="translate(-477.82 -254.751)" fill="#12314f"/>
            <g id="Grupo_1220436" data-name="Grupo 1220436" transform="translate(293.758 116.414)" opacity="0.7" style="mix-blend-mode: overlay;isolation: isolate">
              <g id="Grupo_1220435" data-name="Grupo 1220435">
                <g id="Grupo_1220434" data-name="Grupo 1220434" clip-path="url(#clip-path-5)">
                  <path id="Trazado_1044742" data-name="Trazado 1044742" d="M829.413,324l-4.951,38.646c-2.156,1.408-4.064,2.555-4.463,2.86-.8.5-1.606.956-2.411,1.38Z" transform="translate(-817.588 -324.003)" fill="#2e3442"/>
                </g>
              </g>
            </g>
            <path id="Trazado_1044743" data-name="Trazado 1044743" d="M878.87,317.622l.439,3.98c-6.8,4.28-24.07,4.76-34.911,3.585-7.256-.793-17.388-4.1-18.226-4.75l9.519-53.272-2.339-16.941.027-.013c.381-.175,5.364-2.505,10.249-4.719.65-.287,1.295-.578,1.927-.86,3.518-1.582,6.646-2.922,7.48-3.128,2.156.107,8.614.354,8.614.354,1.08.327,2.2.713,3.33,1.134,7.242,2.684,15.685,6.637,15.685,6.637l-6.709,23.21.166,1.515Z" transform="translate(-529.329 -154.731)" fill="#205277"/>
            <g id="Grupo_1220439" data-name="Grupo 1220439" transform="translate(310.435 117.945)" opacity="0.7" style="mix-blend-mode: overlay;isolation: isolate">
              <g id="Grupo_1220438" data-name="Grupo 1220438">
                <g id="Grupo_1220437" data-name="Grupo 1220437" clip-path="url(#clip-path-6)">
                  <path id="Trazado_1044744" data-name="Trazado 1044744" d="M903.108,373.211C876.335,366.2,864,355.594,864,355.594l26.908-6.53,5.234-20.8,2.214,1.676Z" transform="translate(-864.002 -328.266)" fill="#2e3442"/>
                </g>
              </g>
            </g>
            <path id="Trazado_1044745" data-name="Trazado 1044745" d="M901.132,205.156l-.081,4.352,0,.094-.165,8.968c-.444,1.528-5.024,14.068-10.035,13.821-3.11-.148-3.536-5-3.415-8.649.022-.677.063-1.313.112-1.869.1-1.273.237-2.134.237-2.134l.1-.43,1.192-5a6.449,6.449,0,0,1,.34-.784,9.791,9.791,0,0,1,2.694-3.146,46.242,46.242,0,0,1,9.021-5.221" transform="translate(-568.568 -131.444)" fill="#ffa37e"/>
            <g id="Grupo_1220442" data-name="Grupo 1220442" transform="translate(318.864 78.055)" opacity="0.7" style="mix-blend-mode: multiply;isolation: isolate">
              <g id="Grupo_1220441" data-name="Grupo 1220441">
                <g id="Grupo_1220440" data-name="Grupo 1220440" clip-path="url(#clip-path-7)">
                  <path id="Trazado_1044746" data-name="Trazado 1044746" d="M901.115,217.243a.9.9,0,0,1-.036.1c-.354,1.093-3.738,10.675-13.615,14.139.022-.677.063-1.313.112-1.869.1-1.273.237-2.133.237-2.133l.1-.43,1.192-5a6.387,6.387,0,0,1,.34-.784c.74-.574,1.564-1.089,2.219-1.613l9.416-2.4Z" transform="translate(-887.464 -217.243)" fill="#ffa37e"/>
                </g>
              </g>
            </g>
            <path id="Trazado_1044747" data-name="Trazado 1044747" d="M817.359,373.523c-1.49,5.032-3.541,2.65-3.541,2.65l.317-1.637a4.657,4.657,0,0,1-1.134,1.89,2.357,2.357,0,0,1-2.913.2l.687-1.665a3.957,3.957,0,0,1-1.136,1.26,2.648,2.648,0,0,1-2.892-.009s2.6-6.633,3.131-7.112,4.286-2.679,4.286-2.679l-4.223,1.1s-.2.661-2.563,3.285a4,4,0,0,1-5.176.77c.466-.517,5.209-6.888,5.581-7.155s6.2-2.714,7.3-2.665,10.716,2.083,10.716,2.083l.6,8.24c-4.041,4.6-9.04,1.446-9.04,1.446" transform="translate(-513.971 -231.776)" fill="#ffa37e"/>
            <g id="Grupo_1220445" data-name="Grupo 1220445" transform="translate(295.666 136.936)" opacity="0.7" style="mix-blend-mode: multiply;isolation: isolate">
              <g id="Grupo_1220444" data-name="Grupo 1220444">
                <g id="Grupo_1220443" data-name="Grupo 1220443" clip-path="url(#clip-path-8)">
                  <path id="Trazado_1044748" data-name="Trazado 1044748" d="M822.9,388.626l2.434-5.179,3.56-2.328a32.111,32.111,0,0,0-3.109,2.591c-.337.494-1.749,3.655-1.749,3.655a3.959,3.959,0,0,1-1.137,1.26" transform="translate(-822.899 -381.12)" fill="#ffa37e"/>
                </g>
              </g>
            </g>
            <g id="Grupo_1220448" data-name="Grupo 1220448" transform="translate(299.029 138.775)" opacity="0.7" style="mix-blend-mode: multiply;isolation: isolate">
              <g id="Grupo_1220447" data-name="Grupo 1220447">
                <g id="Grupo_1220446" data-name="Grupo 1220446" clip-path="url(#clip-path-9)">
                  <path id="Trazado_1044749" data-name="Trazado 1044749" d="M832.259,392.113a30.217,30.217,0,0,1,1.812-4.7,18.572,18.572,0,0,1,2.466-1.173c-.212.114-2,1.069-2.179,1.493-.192.455-.965,2.492-.965,2.492a4.663,4.663,0,0,1-1.134,1.89" transform="translate(-832.259 -386.238)" fill="#ffa37e"/>
                </g>
              </g>
            </g>
            <path id="Trazado_1044750" data-name="Trazado 1044750" d="M904.75,264.112c7.132,3.278,17.027,55.514,9.9,60.628s-50.791-10.249-50.791-10.249-.713-9.714,1.991-13.959l32.368,4.621s-2.048-12.09-2.219-17.991c.277-12.175,8.756-23.05,8.756-23.05" transform="translate(-553.418 -169.217)" fill="#205277"/>
            <path id="Trazado_1044751" data-name="Trazado 1044751" d="M719.447,334.427a.936.936,0,0,0-.9-.684H670.81a.936.936,0,0,0-.9,1.188l8.631,30.857h49.679Z" transform="translate(-429.189 -213.83)" fill="#3b4556"/>
            <rect id="Rectángulo_421456" data-name="Rectángulo 421456" width="31.416" height="2.514" transform="translate(285.46 149.444)" fill="#2e3442"/>
            <path id="Trazado_1044752" data-name="Trazado 1044752" d="M728.093,425.2,719,424.548a2.99,2.99,0,0,1,3.119-2.762,44.544,44.544,0,0,1,6.965.5Z" transform="translate(-460.667 -270.23)" fill="#ffa37e"/>
            <path id="Trazado_1044753" data-name="Trazado 1044753" d="M715.862,334.427a.936.936,0,0,0-.9-.684H667.225a.936.936,0,0,0-.9,1.188l8.631,30.857h49.679Z" transform="translate(-426.892 -213.83)" fill="#2e3442"/>
            <path id="Trazado_1044754" data-name="Trazado 1044754" d="M736.971,373.963c0,1.3-3.486,2.353-7.787,2.353s-7.787-1.053-7.787-2.353,3.486-2.353,7.787-2.353,7.787,1.053,7.787,2.353" transform="translate(-462.2 -238.091)" fill="#3b4556"/>
            <path id="Trazado_1044755" data-name="Trazado 1044755" d="M746.15,404.834c-.412,1.61-1.36,4.161-3.325,4.836-2.933,1.007-11.245,1.741-12.77.221s-4.789-12.763-4.789-12.763a2.738,2.738,0,0,1,3.251,1.416c1,2.1,2.954,7.588,2.954,7.588l-1.112-11.474a2.534,2.534,0,0,1,2.428.988c.889,1.277,1.569,8.852,1.569,8.852l-.828-9.4a2.3,2.3,0,0,1,2.68,2.039c.409,2.425,1.259,8.079,1.259,8.079l-.62-6.548a2.606,2.606,0,0,1,2.6,2.169c.281,1.745.772,3.9.772,3.9Z" transform="translate(-464.678 -252.84)" fill="#ffa37e"/>
            <path id="Trazado_1044756" data-name="Trazado 1044756" d="M882.994,182.6c-1.8,3.732-8.054,10.76-13.013,11.055-2.2.251-7.006-2.634-9.567-5.808a9.588,9.588,0,0,1-1.292-3.916c-.077-.472-.141-.969-.2-1.478a64.575,64.575,0,0,1,.005-12.19c.488-2.792,4.736-5.077,9.433-5.776,9.336-1.394,11.378,3.018,11.382,3.022a20.545,20.545,0,0,1,2.124,3.887c1.778,4.353,2.233,8.9,1.126,11.2" transform="translate(-550.131 -105.215)" fill="#ffa37e"/>
            <g id="Grupo_1220451" data-name="Grupo 1220451" transform="translate(323.174 74.447)" opacity="0.7" style="mix-blend-mode: multiply;isolation: isolate">
              <g id="Grupo_1220450" data-name="Grupo 1220450">
                <g id="Grupo_1220449" data-name="Grupo 1220449" clip-path="url(#clip-path-10)">
                  <path id="Trazado_1044757" data-name="Trazado 1044757" d="M899.457,209.184a2.927,2.927,0,0,0,4.294-1.6,2.927,2.927,0,0,0-4.294,1.6" transform="translate(-899.457 -207.202)" fill="#ffa37e"/>
                </g>
              </g>
            </g>
            <g id="Grupo_1220454" data-name="Grupo 1220454" transform="translate(308.792 77.103)" opacity="0.7" style="mix-blend-mode: multiply;isolation: isolate">
              <g id="Grupo_1220453" data-name="Grupo 1220453">
                <g id="Grupo_1220452" data-name="Grupo 1220452" clip-path="url(#clip-path-11)">
                  <path id="Trazado_1044758" data-name="Trazado 1044758" d="M862,215.567a2.83,2.83,0,0,1-1.841.759,1.771,1.771,0,0,1-.532-.115c-.077-.472-.141-.969-.2-1.478a2.023,2.023,0,0,1,.833-.135,2.811,2.811,0,0,1,1.739.969" transform="translate(-859.431 -214.594)" fill="#ffa37e"/>
                </g>
              </g>
            </g>
            <path id="Trazado_1044759" data-name="Trazado 1044759" d="M869.023,206.206c.186,1.079-.023,2.015-.467,2.091s-.955-.736-1.14-1.814.023-2.015.467-2.091.955.736,1.14,1.814" transform="translate(-555.711 -130.951)" fill="#2e3442"/>
            <path id="Trazado_1044760" data-name="Trazado 1044760" d="M888.635,202.827c.186,1.079-.023,2.015-.467,2.091s-.955-.736-1.14-1.814.023-2.015.467-2.091.955.736,1.141,1.814" transform="translate(-568.276 -128.786)" fill="#2e3442"/>
            <path id="Trazado_1044761" data-name="Trazado 1044761" d="M884.559,194.773a5.6,5.6,0,0,1,6.755,1.283s-3.716-6.167-6.755-1.283" transform="translate(-566.738 -123.586)" fill="#2e3442"/>
            <path id="Trazado_1044762" data-name="Trazado 1044762" d="M864.426,197.874a4.505,4.505,0,0,0-4.7,2.468s1.357-5.392,4.7-2.468" transform="translate(-550.827 -126.222)" fill="#2e3442"/>
            <g id="Grupo_1220457" data-name="Grupo 1220457" transform="translate(313.982 76.708)" opacity="0.7" style="mix-blend-mode: multiply;isolation: isolate">
              <g id="Grupo_1220456" data-name="Grupo 1220456">
                <g id="Grupo_1220455" data-name="Grupo 1220455" clip-path="url(#clip-path-12)">
                  <path id="Trazado_1044763" data-name="Trazado 1044763" d="M876.437,213.822c-.268-.031-.534-.06-.8-.074a4.718,4.718,0,0,0-.781.008,1.789,1.789,0,0,0-.359.077.426.426,0,0,0-.236.164.6.6,0,0,0-.056.3,1.474,1.474,0,0,0,.055.354,2.256,2.256,0,0,0,.829,1.209,2.191,2.191,0,0,0,1.471.373,1.95,1.95,0,0,1-1.226.022,1.971,1.971,0,0,1-.388-.176,2.269,2.269,0,0,1-1.01-1.341,1.755,1.755,0,0,1-.062-.438.822.822,0,0,1,.006-.115.8.8,0,0,1,.018-.118.834.834,0,0,1,.034-.119.645.645,0,0,1,.06-.119l.041-.056c.016-.018.034-.035.052-.052a.342.342,0,0,1,.052-.042.53.53,0,0,1,.053-.034,1.014,1.014,0,0,1,.218-.092,1.613,1.613,0,0,1,.431-.058,3.627,3.627,0,0,1,.82.091,4.877,4.877,0,0,1,.776.236" transform="translate(-873.875 -213.495)" fill="#ffa37e"/>
                </g>
              </g>
            </g>
            <g id="Grupo_1220460" data-name="Grupo 1220460" transform="translate(313.189 78.652)" opacity="0.7" style="mix-blend-mode: multiply;isolation: isolate">
              <g id="Grupo_1220459" data-name="Grupo 1220459">
                <g id="Grupo_1220458" data-name="Grupo 1220458" clip-path="url(#clip-path-13)">
                  <path id="Trazado_1044764" data-name="Trazado 1044764" d="M875.608,222.359a6.874,6.874,0,0,1-2.254-.092,5.46,5.46,0,0,1-.646-.17,4.845,4.845,0,0,1-.937-.4.217.217,0,0,1,.224-.372,4.527,4.527,0,0,0,.848.358,4.933,4.933,0,0,0,.6.157,7.017,7.017,0,0,0,5.331-1.124c.122-.075.243-.157.363-.241a12.431,12.431,0,0,0,1.738-1.506.217.217,0,0,1,.312.3,12.793,12.793,0,0,1-1.8,1.559c-.128.09-.256.176-.382.254a8.085,8.085,0,0,1-3.4,1.274" transform="translate(-871.667 -218.904)" fill="#ffa37e"/>
                </g>
              </g>
            </g>
            <path id="Trazado_1044765" data-name="Trazado 1044765" d="M924.344,189.166s.6-4.056,3.043-4.42,4.185,12.371-2.449,8.411Z" transform="translate(-592.229 -118.362)" fill="#ffa37e"/>
            <g id="Grupo_1220463" data-name="Grupo 1220463" transform="translate(332.909 69.579)" opacity="0.7" style="mix-blend-mode: multiply;isolation: isolate">
              <g id="Grupo_1220462" data-name="Grupo 1220462">
                <g id="Grupo_1220461" data-name="Grupo 1220461" clip-path="url(#clip-path-14)">
                  <path id="Trazado_1044766" data-name="Trazado 1044766" d="M926.724,196.826a.149.149,0,0,0,.127-.141c0-.01.052-.988.587-1.324a1.03,1.03,0,0,1,.975.021.15.15,0,0,0,.117-.275,1.3,1.3,0,0,0-1.252,0,1.12,1.12,0,0,0-.218.181c.247-.741.687-1.281,1.175-1.332a.987.987,0,0,1,.844.381,2.023,2.023,0,0,1,.314.469.149.149,0,0,0,.273-.121c-.02-.046-.51-1.126-1.463-1.026-.921.1-1.678,1.48-1.652,3.021a.15.15,0,0,0,.148.147l.024,0" transform="translate(-926.552 -193.653)" fill="#ffa37e"/>
                </g>
              </g>
            </g>
            <path id="Trazado_1044767" data-name="Trazado 1044767" d="M871.309,163.116s-4.181-.615-4.762-4.088c-1.45,1.012-8.122,2.315-12.5.672a24.052,24.052,0,0,0,4.007,3.174c-12.212,1.389-13.888-6.8-13.888-6.8s7.373-10.009,16.248-11.2c10.115-1.737,10.115,3.193,10.115,3.193a8,8,0,0,1,4.8,1.568c2.535,1.951-.253,9.7-.253,9.7s-1.986,1.641-2.04,3.579l-.065,5.866s-1.965-3.508-1.664-5.659" transform="translate(-540.858 -92.583)" fill="#2e3442"/>
            <path id="Trazado_1044768" data-name="Trazado 1044768" d="M136.935,446.7V562.96a5.258,5.258,0,0,1-5.255,5.266H58.158a5.267,5.267,0,0,1-5.266-5.266V446.7a5.274,5.274,0,0,1,5.266-5.266H131.68a5.265,5.265,0,0,1,5.255,5.266" transform="translate(-33.888 -282.827)" fill="#cfdcf9"/>
            <path id="Trazado_1044769" data-name="Trazado 1044769" d="M136.935,446.7v36.819H52.892V446.7a5.274,5.274,0,0,1,5.266-5.266H131.68a5.265,5.265,0,0,1,5.255,5.266" transform="translate(-33.888 -282.827)" fill="#3f4977"/>
            <rect id="Rectángulo_421462" data-name="Rectángulo 421462" width="70.314" height="17.801" transform="translate(25.874 177.039)" fill="#eb9331"/>
            <g id="Grupo_1220466" data-name="Grupo 1220466" transform="translate(27.81 177.039)" opacity="0.1">
              <g id="Grupo_1220465" data-name="Grupo 1220465">
                <g id="Grupo_1220464" data-name="Grupo 1220464" clip-path="url(#clip-path-15)">
                  <path id="Trazado_1044770" data-name="Trazado 1044770" d="M185.215,492.736l-11.853,17.8H145.013l11.853-17.8Z" transform="translate(-120.72 -492.736)" fill="#fff"/>
                  <path id="Trazado_1044771" data-name="Trazado 1044771" d="M103.422,492.736l-11.842,17.8H77.4l11.842-17.8Z" transform="translate(-77.4 -492.736)" fill="#fff"/>
                </g>
              </g>
            </g>
            <path id="Trazado_1044772" data-name="Trazado 1044772" d="M84.554,599.538H74.35a2.38,2.38,0,0,0-2.336,2.422v5.385a2.38,2.38,0,0,0,2.336,2.422h10.2a2.38,2.38,0,0,0,2.336-2.422V601.96a2.38,2.38,0,0,0-2.336-2.422" transform="translate(-46.139 -384.125)" fill="#2e3442"/>
            <path id="Trazado_1044773" data-name="Trazado 1044773" d="M135.98,599.538h-10.2a2.38,2.38,0,0,0-2.336,2.422v5.385a2.38,2.38,0,0,0,2.336,2.422h10.2a2.38,2.38,0,0,0,2.336-2.422V601.96a2.38,2.38,0,0,0-2.336-2.422" transform="translate(-79.088 -384.125)" fill="#2e3442"/>
            <path id="Trazado_1044774" data-name="Trazado 1044774" d="M187.407,599.538H177.2a2.38,2.38,0,0,0-2.336,2.422v5.385a2.38,2.38,0,0,0,2.336,2.422h10.2a2.38,2.38,0,0,0,2.336-2.422V601.96a2.38,2.38,0,0,0-2.336-2.422" transform="translate(-112.038 -384.125)" fill="#2e3442"/>
            <path id="Trazado_1044775" data-name="Trazado 1044775" d="M238.833,599.538h-10.2a2.38,2.38,0,0,0-2.336,2.422v5.385a2.38,2.38,0,0,0,2.336,2.422h10.2a2.38,2.38,0,0,0,2.336-2.422V601.96a2.38,2.38,0,0,0-2.336-2.422" transform="translate(-144.986 -384.125)" fill="#2e3442"/>
            <path id="Trazado_1044776" data-name="Trazado 1044776" d="M84.554,636.9H74.35a2.38,2.38,0,0,0-2.336,2.422V644.7a2.38,2.38,0,0,0,2.336,2.422h10.2A2.38,2.38,0,0,0,86.89,644.7v-5.386a2.38,2.38,0,0,0-2.336-2.422" transform="translate(-46.139 -408.061)" fill="#2e3442"/>
            <path id="Trazado_1044777" data-name="Trazado 1044777" d="M135.98,636.9h-10.2a2.38,2.38,0,0,0-2.336,2.422V644.7a2.38,2.38,0,0,0,2.336,2.422h10.2a2.38,2.38,0,0,0,2.336-2.422v-5.386a2.38,2.38,0,0,0-2.336-2.422" transform="translate(-79.088 -408.061)" fill="#2e3442"/>
            <path id="Trazado_1044778" data-name="Trazado 1044778" d="M187.407,636.9H177.2a2.38,2.38,0,0,0-2.336,2.422V644.7a2.38,2.38,0,0,0,2.336,2.422h10.2a2.38,2.38,0,0,0,2.336-2.422v-5.386a2.38,2.38,0,0,0-2.336-2.422" transform="translate(-112.038 -408.061)" fill="#2e3442"/>
            <path id="Trazado_1044779" data-name="Trazado 1044779" d="M238.833,636.9h-10.2a2.38,2.38,0,0,0-2.336,2.422V644.7a2.38,2.38,0,0,0,2.336,2.422h10.2a2.38,2.38,0,0,0,2.336-2.422v-5.386a2.38,2.38,0,0,0-2.336-2.422" transform="translate(-144.986 -408.061)" fill="#2e3442"/>
            <path id="Trazado_1044780" data-name="Trazado 1044780" d="M84.554,674.255H74.35a2.38,2.38,0,0,0-2.336,2.422v5.386a2.38,2.38,0,0,0,2.336,2.422h10.2a2.38,2.38,0,0,0,2.336-2.422v-5.386a2.38,2.38,0,0,0-2.336-2.422" transform="translate(-46.139 -431.996)" fill="#2e3442"/>
            <path id="Trazado_1044781" data-name="Trazado 1044781" d="M135.98,674.255h-10.2a2.38,2.38,0,0,0-2.336,2.422v5.386a2.38,2.38,0,0,0,2.336,2.422h10.2a2.38,2.38,0,0,0,2.336-2.422v-5.386a2.38,2.38,0,0,0-2.336-2.422" transform="translate(-79.088 -431.996)" fill="#2e3442"/>
            <path id="Trazado_1044782" data-name="Trazado 1044782" d="M187.407,674.255H177.2a2.38,2.38,0,0,0-2.336,2.422v5.386a2.38,2.38,0,0,0,2.336,2.422h10.2a2.38,2.38,0,0,0,2.336-2.422v-5.386a2.38,2.38,0,0,0-2.336-2.422" transform="translate(-112.038 -431.996)" fill="#2e3442"/>
            <path id="Trazado_1044783" data-name="Trazado 1044783" d="M238.833,674.255h-10.2a2.38,2.38,0,0,0-2.336,2.422v5.386a2.38,2.38,0,0,0,2.336,2.422h10.2a2.38,2.38,0,0,0,2.336-2.422v-5.386a2.38,2.38,0,0,0-2.336-2.422" transform="translate(-144.986 -431.996)" fill="#2e3442"/>
            <path id="Trazado_1044784" data-name="Trazado 1044784" d="M84.554,711.614H74.35a2.38,2.38,0,0,0-2.336,2.422v5.386a2.38,2.38,0,0,0,2.336,2.422h10.2a2.38,2.38,0,0,0,2.336-2.422v-5.386a2.38,2.38,0,0,0-2.336-2.422" transform="translate(-46.139 -455.932)" fill="#2e3442"/>
            <path id="Trazado_1044785" data-name="Trazado 1044785" d="M135.98,711.614h-10.2a2.38,2.38,0,0,0-2.336,2.422v5.386a2.38,2.38,0,0,0,2.336,2.422h10.2a2.38,2.38,0,0,0,2.336-2.422v-5.386a2.38,2.38,0,0,0-2.336-2.422" transform="translate(-79.088 -455.932)" fill="#2e3442"/>
            <path id="Trazado_1044786" data-name="Trazado 1044786" d="M187.407,711.614H177.2a2.38,2.38,0,0,0-2.336,2.422v5.386a2.38,2.38,0,0,0,2.336,2.422h10.2a2.38,2.38,0,0,0,2.336-2.422v-5.386a2.38,2.38,0,0,0-2.336-2.422" transform="translate(-112.038 -455.932)" fill="#2e3442"/>
            <path id="Trazado_1044787" data-name="Trazado 1044787" d="M84.554,748.973H74.35a2.38,2.38,0,0,0-2.336,2.422v5.385A2.38,2.38,0,0,0,74.35,759.2h10.2a2.38,2.38,0,0,0,2.336-2.422V751.4a2.38,2.38,0,0,0-2.336-2.422" transform="translate(-46.139 -479.868)" fill="#2e3442"/>
            <path id="Trazado_1044788" data-name="Trazado 1044788" d="M135.98,748.973h-10.2a2.38,2.38,0,0,0-2.336,2.422v5.385a2.38,2.38,0,0,0,2.336,2.422h10.2a2.38,2.38,0,0,0,2.336-2.422V751.4a2.38,2.38,0,0,0-2.336-2.422" transform="translate(-79.088 -479.868)" fill="#2e3442"/>
            <path id="Trazado_1044789" data-name="Trazado 1044789" d="M187.407,748.973H177.2a2.38,2.38,0,0,0-2.336,2.422v5.385A2.38,2.38,0,0,0,177.2,759.2h10.2a2.38,2.38,0,0,0,2.336-2.422V751.4a2.38,2.38,0,0,0-2.336-2.422" transform="translate(-112.038 -479.868)" fill="#2e3442"/>
            <path id="Trazado_1044790" data-name="Trazado 1044790" d="M241.168,714.036a2.38,2.38,0,0,0-2.336-2.422h-10.2a2.38,2.38,0,0,0-2.336,2.422v5.386c0,.086.016.168.024.252-.008.114-.024.225-.024.342v7.309c0,.026.005.051.006.077s-.006.038-.006.057v5.386a2.38,2.38,0,0,0,2.336,2.422h10.2a2.379,2.379,0,0,0,2.336-2.422v-5.386c0-.019-.005-.037-.005-.057s.005-.051.005-.077v-7.309c0-.117-.016-.228-.024-.342a2.442,2.442,0,0,0,.024-.252Z" transform="translate(-144.986 -455.932)" fill="#2e3442"/>
            <path id="Trazado_1044791" data-name="Trazado 1044791" d="M84,569.309H73.514a1.5,1.5,0,0,0-1.5,1.5v4.133a1.5,1.5,0,0,0,1.5,1.5H84a1.5,1.5,0,0,0,1.5-1.5v-4.133a1.5,1.5,0,0,0-1.5-1.5" transform="translate(-46.139 -364.757)" fill="#e44a4a"/>
            <path id="Trazado_1044792" data-name="Trazado 1044792" d="M242.146,569.309H231.659a1.5,1.5,0,0,0-1.5,1.5v4.133a1.5,1.5,0,0,0,1.5,1.5h10.487a1.5,1.5,0,0,0,1.5-1.5v-4.133a1.5,1.5,0,0,0-1.5-1.5" transform="translate(-147.463 -364.757)" fill="#e44a4a"/>
            <path id="Trazado_1044793" data-name="Trazado 1044793" d="M128.431,569.309h-7.143a1.5,1.5,0,0,0-1.5,1.5v4.133a1.5,1.5,0,0,0,1.5,1.5h7.143a1.5,1.5,0,0,0,1.5-1.5v-4.133a1.5,1.5,0,0,0-1.5-1.5" transform="translate(-76.748 -364.757)" fill="#2e3442"/>
            <path id="Trazado_1044794" data-name="Trazado 1044794" d="M164.649,569.309h-7.143a1.5,1.5,0,0,0-1.5,1.5v4.133a1.5,1.5,0,0,0,1.5,1.5h7.143a1.5,1.5,0,0,0,1.5-1.5v-4.133a1.5,1.5,0,0,0-1.5-1.5" transform="translate(-99.953 -364.757)" fill="#2e3442"/>
            <path id="Trazado_1044795" data-name="Trazado 1044795" d="M200.868,569.309h-7.143a1.5,1.5,0,0,0-1.5,1.5v4.133a1.5,1.5,0,0,0,1.5,1.5h7.143a1.5,1.5,0,0,0,1.5-1.5v-4.133a1.5,1.5,0,0,0-1.5-1.5" transform="translate(-123.159 -364.757)" fill="#2e3442"/>
            <path id="Trazado_1044796" data-name="Trazado 1044796" d="M94.252,460.8H74.784a2.769,2.769,0,0,0,0,5.538H94.252a2.769,2.769,0,0,0,0-5.538" transform="translate(-46.14 -295.235)" fill="#fff"/>
            <path id="Trazado_1044797" data-name="Trazado 1044797" d="M499.189,570.128l-44.081,13.321,6.893,7.6-31.493,31.3-24.927-27.509-63.692,55.836h29.6l32.52-28.506L429.771,650.6l45.353-45.07,6.5,7.17Z" transform="translate(-219.049 -365.282)" fill="#eb9331"/>
          </g>
        </g>
      </g>
    </g>
  </g>
</svg>
