<svg xmlns="http://www.w3.org/2000/svg" xmlns:xlink="http://www.w3.org/1999/xlink" width="108" height="108" viewBox="0 0 108 108">
  <defs>
    <filter id="Trazado_904820" x="0" y="0" width="108" height="108" filterUnits="userSpaceOnUse">
      <feOffset dy="3" input="SourceAlpha"/>
      <feGaussianBlur stdDeviation="3" result="blur"/>
      <feFlood flood-opacity="0.161"/>
      <feComposite operator="in" in2="blur"/>
      <feComposite in="SourceGraphic"/>
    </filter>
  </defs>
  <g id="Grupo_1220245" data-name="Grupo 1220245" transform="translate(9 6)">
    <g id="Grupo_1177315" data-name="Grupo 1177315" transform="translate(0 0)">
      <g id="Grupo_1173585" data-name="Grupo 1173585">
        <g id="Grupo_1173428" data-name="Grupo 1173428">
          <g id="Grupo_1171958" data-name="Grupo 1171958">
            <g id="Grupo_1167341" data-name="Grupo 1167341">
              <g id="Grupo_1166792" data-name="Grupo 1166792">
                <g transform="matrix(1, 0, 0, 1, -9, -6)" filter="url(#Trazado_904820)">
                  <g id="Trazado_904820-2" data-name="Trazado 904820" transform="translate(9 6)" fill="#f4f4f4">
                    <path d="M 44.99996566772461 88.50004577636719 C 39.1268424987793 88.50004577636719 33.43020248413086 87.35012054443359 28.06827735900879 85.08220672607422 C 22.88851547241211 82.891357421875 18.23628997802734 79.75463104248047 14.24084091186523 75.75917816162109 C 10.24540328979492 71.76373291015625 7.108690738677979 67.11149597167969 4.91782808303833 61.93173217773438 C 2.649928092956543 56.56979370117188 1.500003218650818 50.87314224243164 1.500003218650818 45.00001907348633 C 1.500003218650818 39.12689590454102 2.649928092956543 33.43024444580078 4.91782808303833 28.06830596923828 C 7.108690738677979 22.88853073120117 10.24540328979492 18.23630714416504 14.24084091186523 14.24086952209473 C 18.23628997802734 10.2454195022583 22.88850402832031 7.108694076538086 28.06827735900879 4.917831420898438 C 33.43020248413086 2.649931669235229 39.1268424987793 1.500006556510925 44.99996566772461 1.500006556510925 C 50.87308883666992 1.500006556510925 56.56972885131836 2.649931669235229 61.9316520690918 4.917831420898438 C 67.11142730712891 7.108694076538086 71.76364135742188 10.2454195022583 75.75909423828125 14.24086952209473 C 79.75453186035156 18.23630714416504 82.89124298095703 22.88853073120117 85.08209991455078 28.06830596923828 C 87.35000610351562 33.43024444580078 88.49993133544922 39.12689590454102 88.49993133544922 45.00001907348633 C 88.49993133544922 50.87314224243164 87.35000610351562 56.56979370117188 85.08209991455078 61.93173217773438 C 82.89124298095703 67.11149597167969 79.75453186035156 71.76373291015625 75.75909423828125 75.75917816162109 C 71.76364135742188 79.75463104248047 67.11141204833984 82.891357421875 61.9316520690918 85.08220672607422 C 56.56972885131836 87.35012054443359 50.87308883666992 88.50004577636719 44.99996566772461 88.50004577636719 Z" stroke="none"/>
                    <path d="M 44.99996566772461 3.000007629394531 C 39.32867813110352 3.000007629394531 33.82863616943359 4.110061645507812 28.65260696411133 6.299346923828125 C 23.65163421630859 8.414573669433594 19.15968322753906 11.44334411621094 15.30149078369141 15.30152130126953 C 11.44332122802734 19.15969085693359 8.414566040039062 23.65166473388672 6.299324035644531 28.65263366699219 C 4.110054016113281 33.82867431640625 2.999992370605469 39.32873153686523 2.999992370605469 45.00001907348633 C 2.999992370605469 50.67130661010742 4.110054016113281 56.17136383056641 6.299324035644531 61.34738922119141 C 8.414566040039062 66.34837341308594 11.44332122802734 70.84033203125 15.30150604248047 74.69851684570312 C 19.15968322753906 78.55668640136719 23.65163421630859 81.58546447753906 28.65260696411133 83.70069122314453 C 33.82863616943359 85.88997650146484 39.32867813110352 87.00003051757812 44.99996566772461 87.00003051757812 C 50.6712532043457 87.00003051757812 56.17129516601562 85.88997650146484 61.34732055664062 83.70069122314453 C 66.34829711914062 81.58546447753906 70.84025573730469 78.55668640136719 74.69842529296875 74.69851684570312 C 78.55659484863281 70.84033203125 81.58536529541016 66.34837341308594 83.70059204101562 61.34740447998047 C 85.88986206054688 56.17136383056641 86.99992370605469 50.67130661010742 86.99992370605469 45.00001907348633 C 86.99992370605469 39.32873153686523 85.88986206054688 33.82867431640625 83.70059204101562 28.65263366699219 C 81.58536529541016 23.65166473388672 78.55659484863281 19.15969085693359 74.69842529296875 15.30152130126953 C 70.84025573730469 11.44334411621094 66.34829711914062 8.414573669433594 61.34732055664062 6.299346923828125 C 56.17129516601562 4.110061645507812 50.6712532043457 3.000007629394531 44.99996566772461 3.000007629394531 M 44.99996566772461 7.62939453125e-06 C 69.85276794433594 7.62939453125e-06 89.99992370605469 20.14719390869141 89.99992370605469 45.00001907348633 C 89.99992370605469 69.85282897949219 69.85276794433594 90.00003051757812 44.99996566772461 90.00003051757812 C 20.14716339111328 90.00003051757812 -7.62939453125e-06 69.85282897949219 -7.62939453125e-06 45.00001907348633 C -7.62939453125e-06 20.14719390869141 20.14716339111328 7.62939453125e-06 44.99996566772461 7.62939453125e-06 Z" stroke="none" fill="#8a552c"/>
                  </g>
                </g>
              </g>
            </g>
          </g>
        </g>
      </g>
    </g>
    <g id="inspire-idea_14781819_6_" data-name="inspire-idea_14781819 (6)" transform="translate(18.124 17.124)">
      <g id="Grupo_1178505" data-name="Grupo 1178505" transform="translate(0 0)">
        <path id="Trazado_1040214" data-name="Trazado 1040214" d="M88.532,15.978c0,10.593-11.354,26.939-21.947,26.939-1.527,0-2.976-4.675-4.411-10.332V18.171A10.669,10.669,0,0,1,76.432,8.132l.811,1.107.811-1.109a10.567,10.567,0,0,1,6.814-.11C88.16,10.32,88.532,13.919,88.532,15.978Z" transform="translate(-56.321 -7.503)" fill="#d78878"/>
        <path id="Trazado_1040215" data-name="Trazado 1040215" d="M92.289,22.448v35.6H62.173V36.855A19.2,19.2,0,0,0,84.866,12.29,10.648,10.648,0,0,1,92.289,22.448Z" transform="translate(-56.32 -11.772)" fill="#ca6e59"/>
        <path id="Trazado_1040216" data-name="Trazado 1040216" d="M69.952,416.79l.651,1.029c1.19,3.406-2.8,2.895-2.959,5.8l-1.918.765H39.643l-1.013-.417c-3-1.851-5.109-1.967-3.146-7.146,1.706-1.161,3.836-1.5,5.807-2.013.517-.134,22.583-.145,23.179,0A18.727,18.727,0,0,1,69.952,416.79Z" transform="translate(-31.837 -370.666)" fill="#8ac9fe"/>
        <path id="Trazado_1040217" data-name="Trazado 1040217" d="M15.858,441.511v.332h-7.5a.3.3,0,0,1-.3-.3,9.335,9.335,0,0,1,.877-4.02,8.158,8.158,0,0,1,2.643-3.153l.125-.088C15.858,436.3,15.7,438.6,15.858,441.511Z" transform="translate(-8.053 -388.123)" fill="#60b7ff"/>
        <path id="Trazado_1040218" data-name="Trazado 1040218" d="M331.324,440.868l-2.7.7H321.4v-.332c.157-2.908,0-5.213,4.16-7.231l.066-.034a7.539,7.539,0,0,1,1.783,1.529Z" transform="translate(-287.514 -387.847)" fill="#60b7ff"/>
        <path id="Trazado_1040219" data-name="Trazado 1040219" d="M120.018,342.61a2.6,2.6,0,0,0,2.065-2.459c0-.028,0-.054,0-.079v-5.124h9.03v5.124q0,.031,0,.067A2.592,2.592,0,0,0,133.2,342.6l1.95.407-2.466,3.534-6,.212-7.331-.175-1.835-3.509Z" transform="translate(-105.677 -299.535)" fill="#ffb09e"/>
        <path id="Trazado_1040220" data-name="Trazado 1040220" d="M49.428,185.865a6.18,6.18,0,0,1-4.748-5.931h0a2.434,2.434,0,0,1,2.439-2.429h2.234l2.82,4.766Z" transform="translate(-40.719 -159.12)" fill="#ffb09e"/>
        <path id="Trazado_1040221" data-name="Trazado 1040221" d="M110.015,92.037a8.628,8.628,0,0,0,2.44-6.011V78.809a1.575,1.575,0,0,1-1.5-1.073l-.933-2.787a8.257,8.257,0,0,0-3.6-4.468l-6.1-3.595a.324.324,0,0,0-.329,0l-6.049,3.564a8.266,8.266,0,0,0-3.646,4.5l-.933,2.787a1.575,1.575,0,0,1-1.5,1.073v7.217a8.639,8.639,0,0,0,2.75,6.316l4.144,3.865a7.918,7.918,0,0,0,10.79,0Z" transform="translate(-79.245 -60.424)" fill="#ffcebf"/>
        <path id="Trazado_1040222" data-name="Trazado 1040222" d="M182.842,275.4a.324.324,0,0,1,.324.309c.036.861-.1,3.221-2.632,3.221-2.513,0-2.66-2.357-2.63-3.219a.324.324,0,0,1,.324-.311Z" transform="translate(-159.532 -246.431)" fill="#eaf6ff"/>
        <path id="Trazado_1040223" data-name="Trazado 1040223" d="M188.114,444.5v3.34a1.881,1.881,0,0,1-1.885,1.907h0a1.881,1.881,0,0,1-1.885-1.877V444.5l1.939-.39Z" transform="translate(-165.278 -396.89)" fill="#c4e2ff"/>
        <path id="Trazado_1040224" data-name="Trazado 1040224" d="M94.821,399.994l-3,.648a.631.631,0,0,0-.491.711l.1.654a5.929,5.929,0,0,0,8.483,4.424l3.409-1.679h0a11.023,11.023,0,0,1-7.86-4.514A.629.629,0,0,0,94.821,399.994Z" transform="translate(-82.318 -357.533)" fill="#eaf6ff"/>
        <path id="Trazado_1040225" data-name="Trazado 1040225" d="M210.771,399.994l3,.648a.631.631,0,0,1,.491.711l-.1.654a5.929,5.929,0,0,1-8.483,4.424l-3.409-1.679h0a11.023,11.023,0,0,0,7.86-4.514A.629.629,0,0,1,210.771,399.994Z" transform="translate(-181.264 -357.533)" fill="#eaf6ff"/>
        <g id="Grupo_1178502" data-name="Grupo 1178502" transform="translate(38.964 29.338)">
          <path id="Trazado_1040226" data-name="Trazado 1040226" d="M381.174,387.922v4.159a12.667,12.667,0,0,1-.285,2.521,8.854,8.854,0,0,1-1.025,1.843c-.655,1.1-.368,2.239-.364,3.522l-.831.531h-8.2v-1.78A4.473,4.473,0,0,0,369.3,395.7a3.7,3.7,0,0,1-.972-2.5v-1.792a2.194,2.194,0,0,1,.937-1.8Z" transform="translate(-368.323 -376.117)" fill="#ffcebf"/>
          <g id="Grupo_1178501" data-name="Grupo 1178501" transform="translate(10.003 6.983)">
            <path id="Trazado_1040227" data-name="Trazado 1040227" d="M463.663,344.048v4.124a.865.865,0,0,1-.347.774c-.26.26-1.172-.137-1.567-.134l-.705-.754-.228-2.681.748-.578a1.45,1.45,0,0,1,1.412-1.448C463.452,343.527,463.663,343.772,463.663,344.048Z" transform="translate(-460.815 -343.35)" fill="#ffcebf"/>
            <path id="Trazado_1040228" data-name="Trazado 1040228" d="M472.161,344.789v3.259a1.452,1.452,0,0,1-2.625.852l-.093-.1a1.451,1.451,0,0,0,1.438-1.451v-3.255a1.442,1.442,0,0,0-.211-.754h.039A1.45,1.45,0,0,1,472.161,344.789Z" transform="translate(-468.51 -343.34)" fill="#ffb09e"/>
          </g>
          <path id="Trazado_1040229" data-name="Trazado 1040229" d="M467.255,386.87v4.338a7.073,7.073,0,0,1-.995,3.618,7.075,7.075,0,0,0-.994,3.645l0,.764a.325.325,0,0,1-.325.326h-1l0-1.09a7.087,7.087,0,0,1,.995-3.645,7.073,7.073,0,0,0,.995-3.618v-4.151Z" transform="translate(-453.601 -375.179)" fill="#ffb09e"/>
          <path id="Trazado_1040230" data-name="Trazado 1040230" d="M381.934,281.423v11.715c0,.841-1.377,1.529-2.218,1.529l.715-1.911-.989-.94V281.423a1.531,1.531,0,0,1,.9-1.393A1.415,1.415,0,0,1,381.934,281.423Z" transform="translate(-378.24 -279.894)" fill="#ffcebf"/>
          <path id="Trazado_1040231" data-name="Trazado 1040231" d="M408.217,332.244v3.844c0,.62-1.006,1.156-1.538,1.4a1.533,1.533,0,0,1-.905-1.4l-.373-.083v-3.629l.373-.132a1.533,1.533,0,0,1,.905-1.394C407.962,331.014,408.217,331.625,408.217,332.244Z" transform="translate(-401.39 -325.217)" fill="#ffcebf"/>
          <path id="Trazado_1040232" data-name="Trazado 1040232" d="M437.825,332.244v4.076c0,.619-1.119,1.155-1.651,1.394a1.531,1.531,0,0,1-.905-1.394l-.364-.233v-3.678l.364-.165a1.533,1.533,0,0,1,.905-1.394C437.624,331.047,437.825,331.625,437.825,332.244Z" transform="translate(-427.703 -325.217)" fill="#ffcebf"/>
          <path id="Trazado_1040233" data-name="Trazado 1040233" d="M390.063,280.3v11.092a.692.692,0,0,1-1.378,0V280.3a1.533,1.533,0,0,0-.9-1.393,1.505,1.505,0,0,1,.627-.136h.122A1.533,1.533,0,0,1,390.063,280.3Z" transform="translate(-385.679 -278.77)" fill="#ffb09e"/>
          <path id="Trazado_1040234" data-name="Trazado 1040234" d="M419.5,331.129v3.844a1.534,1.534,0,0,1-1.529,1.53h-.123a1.493,1.493,0,0,1-.624-.135,1.533,1.533,0,0,0,.905-1.4v-3.844a1.533,1.533,0,0,0-.905-1.394,1.494,1.494,0,0,1,.624-.135h.123A1.534,1.534,0,0,1,419.5,331.129Z" transform="translate(-411.934 -324.103)" fill="#ffb09e"/>
          <path id="Trazado_1040235" data-name="Trazado 1040235" d="M448.92,331.129v4.076a1.534,1.534,0,0,1-1.53,1.529h-.122a1.49,1.49,0,0,1-.624-.135,1.531,1.531,0,0,0,.9-1.394v-4.076a1.533,1.533,0,0,0-.9-1.394,1.49,1.49,0,0,1,.624-.135h.122A1.535,1.535,0,0,1,448.92,331.129Z" transform="translate(-438.173 -324.103)" fill="#ffb09e"/>
          <path id="Trazado_1040236" data-name="Trazado 1040236" d="M390.178,367.16a3.285,3.285,0,0,1-.07.673c-.154.739-.794,1.421-2.133,1.635-.608.1-3.653-.425-4.308-.357l-1.17,1.795-3.058-1.6v-1.383l2.711-1.949a3.038,3.038,0,0,1,1.736-.565l4.5-.042A1.794,1.794,0,0,1,390.178,367.16Z" transform="translate(-378.237 -356.002)" fill="#ffb09e"/>
          <path id="Trazado_1040237" data-name="Trazado 1040237" d="M381.108,381.2l1.281-1.723a.325.325,0,0,1,.221-.129l2.767-.335a2.2,2.2,0,0,0,1.514-2.106.739.739,0,0,0-.744-.723h-4.072a2.749,2.749,0,0,0-1.577.5l-3.514,2.459Z" transform="translate(-376.048 -365.644)" fill="#ffcebf"/>
        </g>
        <g id="Grupo_1178504" data-name="Grupo 1178504" transform="translate(30.122 2.495)">
          <path id="Trazado_1040238" data-name="Trazado 1040238" d="M308.259,39.235a12.6,12.6,0,0,1-12.51,12.793c-2.282,0-7.292-1.675-7.944-3.494l.123-.5a.321.321,0,0,0-.028-.226,11.809,11.809,0,0,1,18.286-14.3A11.211,11.211,0,0,1,308.259,39.235Z" transform="translate(-286.565 -30.57)" fill="#eaf6ff"/>
          <path id="Trazado_1040239" data-name="Trazado 1040239" d="M311.136,69.159a11.827,11.827,0,0,1-17.726,7.552.323.323,0,0,0-.229-.042l-4.87.928a.325.325,0,0,1-.376-.4l1.083-4.38A12.736,12.736,0,0,0,307.4,57.8,11.781,11.781,0,0,1,311.136,69.159Z" transform="translate(-287.777 -54.855)" fill="#d8ecfe"/>
          <g id="Grupo_1178503" data-name="Grupo 1178503" transform="translate(5.715 2.942)">
            <path id="Trazado_1040240" data-name="Trazado 1040240" d="M350.2,64.517c0,3.164-3.324,6.225-6.553,6.225-.49,0-1.019.333-1.875-.931a6.879,6.879,0,0,0-.846-1.488,5.862,5.862,0,0,1,3.308-9.706C348.673,58.617,350.2,61.7,350.2,64.517Z" transform="translate(-339.409 -58.526)" fill="#ffe177"/>
            <path id="Trazado_1040241" data-name="Trazado 1040241" d="M369.155,63.634a5.841,5.841,0,0,1-1.492,3.906,7.077,7.077,0,0,0-1.419,4.22v.366l-5.9.019v-.324a9.9,9.9,0,0,0-.725-3.225,5.935,5.935,0,0,0,1.42.171c3.229,0,6.027-2.1,6.027-5.267a5.763,5.763,0,0,0-4.806-5.637,5.866,5.866,0,0,1,6.9,5.77Z" transform="translate(-357.431 -57.772)" fill="#ffd15b"/>
            <path id="Trazado_1040242" data-name="Trazado 1040242" d="M370.979,188.445l.917,1.792c0,.972-.583,1.792-2.677,1.792h-.46a1.76,1.76,0,0,1-1.76-1.76v-1.823h3.979Z" transform="translate(-364.016 -174.312)" fill="#5e6577"/>
            <path id="Trazado_1040243" data-name="Trazado 1040243" d="M391.059,188.446v1.823a1.76,1.76,0,0,1-1.76,1.76h-1.776a1.759,1.759,0,0,0,1.759-1.76v-1.823Z" transform="translate(-382.319 -174.313)" fill="#4d5263"/>
            <path id="Trazado_1040244" data-name="Trazado 1040244" d="M358.541,169.551c0,.389.236.831,0,1.087a7.087,7.087,0,0,1-2.352.558H351.86a1.362,1.362,0,0,1-1.307-1.411,1.47,1.47,0,0,1,.382-1,1.259,1.259,0,0,1,.924-.413h4.329C356.91,168.374,358.541,168.771,358.541,169.551Z" transform="translate(-349.348 -156.412)" fill="#73788c"/>
            <path id="Trazado_1040245" data-name="Trazado 1040245" d="M406.336,169.786a1.468,1.468,0,0,1-.382,1,1.26,1.26,0,0,1-.924.413h-2.371a1.258,1.258,0,0,0,.924-.413,1.468,1.468,0,0,0,.382-1,1.362,1.362,0,0,0-1.307-1.411h2.371A1.362,1.362,0,0,1,406.336,169.786Z" transform="translate(-395.818 -156.412)" fill="#5e6577"/>
          </g>
        </g>
      </g>
      <g id="Grupo_1178513" data-name="Grupo 1178513" transform="translate(0)">
        <line id="Línea_1020" data-name="Línea 1020" y1="20.294" transform="translate(35.969 24.627)" fill="none" stroke="#000" stroke-linecap="round" stroke-linejoin="round" stroke-miterlimit="10" stroke-width="1"/>
        <line id="Línea_1021" data-name="Línea 1021" y2="6.866" transform="translate(5.853 38.054)" fill="none" stroke="#000" stroke-linecap="round" stroke-linejoin="round" stroke-miterlimit="10" stroke-width="1"/>
        <line id="Línea_1022" data-name="Línea 1022" y2="8.905" transform="translate(5.853 25.365)" fill="none" stroke="#000" stroke-linecap="round" stroke-linejoin="round" stroke-miterlimit="10" stroke-width="1"/>
        <path id="Trazado_1040246" data-name="Trazado 1040246" d="M90.712,12.585A10.682,10.682,0,0,0,78,8.146h0a2.258,2.258,0,0,1-1.526,0l-.026-.009a10.67,10.67,0,0,0-14.28,10.031v7.719" transform="translate(-56.319 -7.5)" fill="none" stroke="#000" stroke-linecap="round" stroke-linejoin="round" stroke-miterlimit="10" stroke-width="1"/>
        <g id="Grupo_1178506" data-name="Grupo 1178506" transform="translate(0 36.716)">
          <path id="Trazado_1040247" data-name="Trazado 1040247" d="M17.059,416.711a15.573,15.573,0,0,0-5.486,1.987,8.605,8.605,0,0,0-3.52,7.173v.3" transform="translate(-8.053 -409.17)" fill="none" stroke="#000" stroke-linecap="round" stroke-linejoin="round" stroke-miterlimit="10" stroke-width="1"/>
          <path id="Trazado_1040248" data-name="Trazado 1040248" d="M136.663,346.985v3.822c0,.024,0,.051,0,.079a2.6,2.6,0,0,1-2.065,2.459l-.735.157" transform="translate(-120.256 -346.985)" fill="none" stroke="#000" stroke-linecap="round" stroke-linejoin="round" stroke-miterlimit="10" stroke-width="1"/>
          <path id="Trazado_1040249" data-name="Trazado 1040249" d="M246.175,353.51l-.842-.173a2.592,2.592,0,0,1-2.083-2.462c0-.024,0-.046,0-.067v-3.822" transform="translate(-217.812 -346.985)" fill="none" stroke="#000" stroke-linecap="round" stroke-linejoin="round" stroke-miterlimit="10" stroke-width="1"/>
          <path id="Trazado_1040250" data-name="Trazado 1040250" d="M319.12,419.008a14.891,14.891,0,0,0-5.9-2.445" transform="translate(-280.211 -409.038)" fill="none" stroke="#000" stroke-linecap="round" stroke-linejoin="round" stroke-miterlimit="10" stroke-width="1"/>
        </g>
        <path id="Trazado_1040251" data-name="Trazado 1040251" d="M41.768,434.275c4.159,2.018,4,4.324,4.159,7.232v.332" transform="translate(-38.122 -388.118)" fill="none" stroke="#000" stroke-linecap="round" stroke-linejoin="round" stroke-miterlimit="10" stroke-width="1"/>
        <path id="Trazado_1040252" data-name="Trazado 1040252" d="M325.566,434.275c-4.159,2.018-4,4.324-4.159,7.232v.363" transform="translate(-287.517 -388.118)" fill="none" stroke="#000" stroke-linecap="round" stroke-linejoin="round" stroke-miterlimit="10" stroke-width="1"/>
        <line id="Línea_1023" data-name="Línea 1023" y1="5.304" transform="translate(20.922 0.886)" fill="none" stroke="#000" stroke-linecap="round" stroke-linejoin="round" stroke-miterlimit="10" stroke-width="1"/>
        <path id="Trazado_1040253" data-name="Trazado 1040253" d="M49.352,185.865a6.112,6.112,0,0,1-4.672-5.931h0a2.434,2.434,0,0,1,2.439-2.429h2.234" transform="translate(-40.719 -159.12)" fill="none" stroke="#000" stroke-linecap="round" stroke-linejoin="round" stroke-miterlimit="10" stroke-width="1"/>
        <path id="Trazado_1040254" data-name="Trazado 1040254" d="M93.952,100.213a8.266,8.266,0,0,0-3.646,4.5l-.933,2.787a1.575,1.575,0,0,1-1.5,1.073v7.217a8.638,8.638,0,0,0,2.75,6.316l4.144,3.865a7.918,7.918,0,0,0,10.79,0l4.454-4.17a8.628,8.628,0,0,0,2.44-6.011v-.679" transform="translate(-79.244 -90.186)" fill="none" stroke="#000" stroke-linecap="round" stroke-linejoin="round" stroke-miterlimit="10" stroke-width="1"/>
        <path id="Trazado_1040255" data-name="Trazado 1040255" d="M186.841,73.045a8.26,8.26,0,0,0-2.937-2.994l-6.263-3.692-2.894,1.705" transform="translate(-156.719 -59.993)" fill="none" stroke="#000" stroke-linecap="round" stroke-linejoin="round" stroke-miterlimit="10" stroke-width="1"/>
        <g id="Grupo_1178508" data-name="Grupo 1178508" transform="translate(14.16 16.691)">
          <g id="Grupo_1178507" data-name="Grupo 1178507" transform="translate(0)">
            <path id="Trazado_1040256" data-name="Trazado 1040256" d="M194.017,240.769a2.5,2.5,0,0,1-2.271,0" transform="translate(-186.039 -232.232)" fill="none" stroke="#000" stroke-linecap="round" stroke-linejoin="round" stroke-miterlimit="10" stroke-width="1"/>
            <path id="Trazado_1040257" data-name="Trazado 1040257" d="M143.13,162.366a4.321,4.321,0,0,0-4.154,0" transform="translate(-138.976 -161.834)" fill="none" stroke="#000" stroke-linecap="round" stroke-linejoin="round" stroke-miterlimit="10" stroke-width="1"/>
            <path id="Trazado_1040258" data-name="Trazado 1040258" d="M231.26,162.366a4.321,4.321,0,0,0-4.154,0" transform="translate(-217.575 -161.834)" fill="none" stroke="#000" stroke-linecap="round" stroke-linejoin="round" stroke-miterlimit="10" stroke-width="1"/>
            <line id="Línea_1024" data-name="Línea 1024" y1="1.84" transform="translate(11.609 3.12)" fill="none" stroke="#000" stroke-linecap="round" stroke-linejoin="round" stroke-miterlimit="10" stroke-width="1"/>
            <line id="Línea_1025" data-name="Línea 1025" y1="1.84" transform="translate(2.077 3.12)" fill="none" stroke="#000" stroke-linecap="round" stroke-linejoin="round" stroke-miterlimit="10" stroke-width="1"/>
          </g>
          <path id="Trazado_1040259" data-name="Trazado 1040259" d="M183.143,275.4s.492,3.53-2.607,3.53c-3.076,0-2.607-3.53-2.607-3.53Z" transform="translate(-173.692 -263.122)" fill="none" stroke="#000" stroke-linecap="round" stroke-linejoin="round" stroke-miterlimit="10" stroke-width="1"/>
        </g>
        <path id="Trazado_1040260" data-name="Trazado 1040260" d="M188.114,452.962v2.772a1.881,1.881,0,0,1-1.885,1.907h0a1.881,1.881,0,0,1-1.885-1.877V453.02" transform="translate(-165.278 -404.784)" fill="none" stroke="#000" stroke-linecap="round" stroke-linejoin="round" stroke-miterlimit="10" stroke-width="1"/>
        <path id="Trazado_1040261" data-name="Trazado 1040261" d="M94.821,399.994l-3,.648a.631.631,0,0,0-.491.711l.1.654a5.929,5.929,0,0,0,8.483,4.424l3.409-1.679h0a11.023,11.023,0,0,1-7.86-4.514A.629.629,0,0,0,94.821,399.994Z" transform="translate(-82.318 -357.532)" fill="none" stroke="#000" stroke-linecap="round" stroke-linejoin="round" stroke-miterlimit="10" stroke-width="1"/>
        <path id="Trazado_1040262" data-name="Trazado 1040262" d="M210.771,399.994l3,.648a.631.631,0,0,1,.491.711l-.1.654a5.929,5.929,0,0,1-8.483,4.424l-3.409-1.679h0a11.023,11.023,0,0,0,7.86-4.514A.629.629,0,0,1,210.771,399.994Z" transform="translate(-181.264 -357.532)" fill="none" stroke="#000" stroke-linecap="round" stroke-linejoin="round" stroke-miterlimit="10" stroke-width="1"/>
        <g id="Grupo_1178511" data-name="Grupo 1178511" transform="translate(38.964 29.369)">
          <g id="Grupo_1178509" data-name="Grupo 1178509" transform="translate(10.752 6.983)">
            <path id="Trazado_1040263" data-name="Trazado 1040263" d="M470.639,345.076a1.449,1.449,0,0,0-1.449-1.449h0a1.451,1.451,0,0,0-1.451,1.451v3.255a1.451,1.451,0,0,0,1.451,1.451h0a1.451,1.451,0,0,0,1.451-1.451Z" transform="translate(-467.736 -343.626)" fill="none" stroke="#000" stroke-linecap="round" stroke-linejoin="round" stroke-miterlimit="10" stroke-width="1"/>
            <path id="Trazado_1040264" data-name="Trazado 1040264" d="M481.155,400.563" transform="translate(-479.704 -394.405)" fill="none" stroke="#000" stroke-linecap="round" stroke-linejoin="round" stroke-miterlimit="10" stroke-width="1"/>
          </g>
          <g id="Grupo_1178510" data-name="Grupo 1178510" transform="translate(11.665 11.732)">
            <path id="Trazado_1040265" data-name="Trazado 1040265" d="M478.171,387.53v4.338a7.045,7.045,0,0,1-.995,3.578h0a7.08,7.08,0,0,0-.995,3.645l0,1.09" transform="translate(-476.182 -387.53)" fill="none" stroke="#000" stroke-linecap="round" stroke-linejoin="round" stroke-miterlimit="10" stroke-width="1"/>
          </g>
          <path id="Trazado_1040266" data-name="Trazado 1040266" d="M424.183,414.75a5.934,5.934,0,0,1,1.267,5.425l-.045.173" transform="translate(-418.142 -400.075)" fill="none" stroke="#000" stroke-linecap="round" stroke-linejoin="round" stroke-miterlimit="10" stroke-width="1"/>
          <path id="Trazado_1040267" data-name="Trazado 1040267" d="M379.439,292.294V280.586a1.534,1.534,0,0,1,1.529-1.529h.123a1.534,1.534,0,0,1,1.529,1.529V290.1" transform="translate(-378.237 -279.057)" fill="none" stroke="#000" stroke-linecap="round" stroke-linejoin="round" stroke-miterlimit="10" stroke-width="1"/>
          <path id="Trazado_1040268" data-name="Trazado 1040268" d="M408.856,331.422a1.534,1.534,0,0,1,1.529-1.529h.123a1.534,1.534,0,0,1,1.529,1.529V334.9" transform="translate(-404.472 -324.395)" fill="none" stroke="#000" stroke-linecap="round" stroke-linejoin="round" stroke-miterlimit="10" stroke-width="1"/>
          <path id="Trazado_1040269" data-name="Trazado 1040269" d="M438.271,334.866v-3.444a1.534,1.534,0,0,1,1.529-1.529h.123a1.534,1.534,0,0,1,1.529,1.529v1.46" transform="translate(-430.706 -324.395)" fill="none" stroke="#000" stroke-linecap="round" stroke-linejoin="round" stroke-miterlimit="10" stroke-width="1"/>
          <path id="Trazado_1040270" data-name="Trazado 1040270" d="M373.384,381.484l1.364-1.835,2.732-.352a2.2,2.2,0,0,0,1.514-2.086.743.743,0,0,0-.744-.743h-3.9a2.749,2.749,0,0,0-1.577.5l-3.514,2.459a2.195,2.195,0,0,0-.937,1.8v1.792a3.7,3.7,0,0,0,.973,2.5,4.474,4.474,0,0,1,1.176,3.023v1.78" transform="translate(-368.324 -365.933)" fill="none" stroke="#000" stroke-linecap="round" stroke-linejoin="round" stroke-miterlimit="10" stroke-width="1"/>
        </g>
        <path id="Trazado_1040271" data-name="Trazado 1040271" d="M310,44.474q-.036.2-.08.4a11.826,11.826,0,0,1-17.832,7.486l-5.49,1.046,1.355-5.488a11.809,11.809,0,1,1,22.119-7.229" transform="translate(-256.442 -28.073)" fill="none" stroke="#000" stroke-linecap="round" stroke-linejoin="round" stroke-miterlimit="10" stroke-width="1"/>
        <g id="Grupo_1178512" data-name="Grupo 1178512" transform="translate(36.011 5.988)">
          <path id="Trazado_1040272" data-name="Trazado 1040272" d="M343.495,74.468a6.714,6.714,0,0,0-1-1.928,5.679,5.679,0,0,1,2.24-9.143" transform="translate(-341.02 -63.339)" fill="none" stroke="#000" stroke-linecap="round" stroke-linejoin="round" stroke-miterlimit="10" stroke-width="1"/>
          <path id="Trazado_1040273" data-name="Trazado 1040273" d="M410.351,62.863a5.678,5.678,0,0,1,2.43,9.172,7.015,7.015,0,0,0-1.019,1.934" transform="translate(-402.853 -62.863)" fill="none" stroke="#000" stroke-linecap="round" stroke-linejoin="round" stroke-miterlimit="10" stroke-width="1"/>
          <line id="Línea_1026" data-name="Línea 1026" y1="4.045" transform="translate(5.687 6.924)" fill="none" stroke="#000" stroke-linecap="round" stroke-linejoin="round" stroke-miterlimit="10" stroke-width="1"/>
          <path id="Trazado_1040274" data-name="Trazado 1040274" d="M373.376,193.7v.562a2.163,2.163,0,0,1-2.163,2.163h-1.258a2.163,2.163,0,0,1-2.163-2.163V193.7" transform="translate(-364.897 -179.551)" fill="none" stroke="#000" stroke-linecap="round" stroke-linejoin="round" stroke-miterlimit="10" stroke-width="1"/>
          <path id="Trazado_1040275" data-name="Trazado 1040275" d="M361.2,168.722h-5.575a1.48,1.48,0,0,1-1.48-1.48h0a1.48,1.48,0,0,1,1.48-1.48H361.2a1.48,1.48,0,0,1,1.48,1.48h0A1.48,1.48,0,0,1,361.2,168.722Z" transform="translate(-352.725 -154.632)" fill="none" stroke="#000" stroke-linecap="round" stroke-linejoin="round" stroke-miterlimit="10" stroke-width="1"/>
          <line id="Línea_1027" data-name="Línea 1027" x2="3.641" transform="translate(3.943 6.915)" fill="none" stroke="#000" stroke-linecap="round" stroke-linejoin="round" stroke-miterlimit="10" stroke-width="1"/>
        </g>
      </g>
    </g>
  </g>
</svg>
