<svg xmlns="http://www.w3.org/2000/svg" xmlns:xlink="http://www.w3.org/1999/xlink" width="113" height="113" viewBox="0 0 113 113">
  <defs>
    <filter id="Trazado_982547" x="0" y="0" width="113" height="113" filterUnits="userSpaceOnUse">
      <feOffset dy="3" input="SourceAlpha"/>
      <feGaussianBlur stdDeviation="3" result="blur"/>
      <feFlood flood-opacity="0.161"/>
      <feComposite operator="in" in2="blur"/>
      <feComposite in="SourceGraphic"/>
    </filter>
  </defs>
  <g id="Grupo_1220486" data-name="Grupo 1220486" transform="translate(-901.061 -3822.334)">
    <g id="Grupo_1202674" data-name="Grupo 1202674" transform="translate(629.061 1137.428)">
      <g id="Grupo_1178487" data-name="Grupo 1178487" transform="translate(281 2690.906)">
        <g id="Grupo_1172010" data-name="Grupo 1172010" transform="translate(0)">
          <g id="Grupo_1171046" data-name="Grupo 1171046">
            <g id="Grupo_1148525" data-name="Grupo 1148525">
              <g transform="matrix(1, 0, 0, 1, -9, -6)" filter="url(#Trazado_982547)">
                <g id="Trazado_982547-2" data-name="Trazado 982547" transform="translate(9 6)" fill="#fef4ec">
                  <path d="M 47.5 93.5 C 41.28937149047852 93.5 35.26533508300781 92.28397369384766 29.59518623352051 89.88570404052734 C 24.11771965026855 87.56893157958984 19.19813346862793 84.25196075439453 14.97309303283691 80.02691650390625 C 10.74804019927979 75.80186462402344 7.431066513061523 70.88229370117188 5.114293098449707 65.40481567382812 C 2.716026782989502 59.73468017578125 1.5 53.71062850952148 1.5 47.5 C 1.5 41.28937149047852 2.716026782989502 35.26533508300781 5.114293098449707 29.59518623352051 C 7.431066513061523 24.11771965026855 10.74804019927979 19.19813346862793 14.97309303283691 14.97309303283691 C 19.19813346862793 10.74804019927979 24.11771965026855 7.431066513061523 29.59518623352051 5.114293098449707 C 35.26533508300781 2.716026782989502 41.28937149047852 1.5 47.5 1.5 C 53.71062850952148 1.5 59.73468017578125 2.716026782989502 65.40481567382812 5.114293098449707 C 70.88229370117188 7.431066513061523 75.80186462402344 10.74804019927979 80.02691650390625 14.97309303283691 C 84.25196075439453 19.19813346862793 87.56893157958984 24.11771965026855 89.88570404052734 29.59518623352051 C 92.28397369384766 35.26533508300781 93.5 41.28937149047852 93.5 47.5 C 93.5 53.71062850952148 92.28397369384766 59.73468017578125 89.88570404052734 65.40481567382812 C 87.56893157958984 70.88229370117188 84.25196075439453 75.80186462402344 80.02691650390625 80.02691650390625 C 75.80186462402344 84.25196075439453 70.88229370117188 87.56893157958984 65.40481567382812 89.88570404052734 C 59.73468017578125 92.28397369384766 53.71062850952148 93.5 47.5 93.5 Z" stroke="none"/>
                  <path d="M 47.5 3 C 41.49121475219727 3 35.66376876831055 4.176155090332031 30.17950439453125 6.495796203613281 C 24.88084411621094 8.736953735351562 20.12152099609375 11.94598388671875 16.03375244140625 16.03375244140625 C 11.94598388671875 20.12152099609375 8.736953735351562 24.88084411621094 6.495796203613281 30.17950439453125 C 4.176155090332031 35.66376876831055 3 41.49121475219727 3 47.5 C 3 53.50878524780273 4.176155090332031 59.33623123168945 6.495796203613281 64.82049560546875 C 8.736953735351562 70.11915588378906 11.94598388671875 74.87847900390625 16.03375244140625 78.96624755859375 C 20.12152099609375 83.05401611328125 24.88084411621094 86.26304626464844 30.17950439453125 88.50419616699219 C 35.66376876831055 90.82384490966797 41.49121475219727 92 47.5 92 C 53.50878524780273 92 59.33623123168945 90.82384490966797 64.82049560546875 88.50419616699219 C 70.11915588378906 86.26304626464844 74.87847900390625 83.05401611328125 78.96624755859375 78.96624755859375 C 83.05401611328125 74.87847900390625 86.26304626464844 70.11915588378906 88.50419616699219 64.82049560546875 C 90.82384490966797 59.33623123168945 92 53.50878524780273 92 47.5 C 92 41.49121475219727 90.82384490966797 35.66376876831055 88.50419616699219 30.17950439453125 C 86.26304626464844 24.88084411621094 83.05401611328125 20.12152099609375 78.96624755859375 16.03375244140625 C 74.87847900390625 11.94598388671875 70.11915588378906 8.736953735351562 64.82049560546875 6.495796203613281 C 59.33623123168945 4.176155090332031 53.50878524780273 3 47.5 3 M 47.5 0 C 73.7335205078125 0 95 21.2664794921875 95 47.5 C 95 73.7335205078125 73.7335205078125 95 47.5 95 C 21.2664794921875 95 0 73.7335205078125 0 47.5 C 0 21.2664794921875 21.2664794921875 0 47.5 0 Z" stroke="none" fill="#fe9d52"/>
                </g>
              </g>
            </g>
          </g>
        </g>
      </g>
    </g>
    <g id="Grupo_1220334" data-name="Grupo 1220334">
      <g id="simpleline" transform="translate(926.16 3843.441)">
        <path id="Trazado_1044415" data-name="Trazado 1044415" d="M9.018,19H53.97a2.018,2.018,0,0,1,2.018,2.018V54.271H7V21.018A2.018,2.018,0,0,1,9.018,19Z" transform="translate(-0.101 -0.344)" fill="#f9c33d"/>
        <path id="Trazado_1044416" data-name="Trazado 1044416" d="M55.988,46.433v7.838H7V21.018A2.018,2.018,0,0,1,9.018,19h6.8V38.6a7.838,7.838,0,0,0,7.838,7.838Z" transform="translate(-0.101 -0.344)" fill="#f7a83e"/>
        <path id="Trazado_1044417" data-name="Trazado 1044417" d="M21.615,51v1.96a1.96,1.96,0,0,0,1.96,1.96H41.21a1.96,1.96,0,0,0,1.96-1.96V51H59.826v5.418a4.38,4.38,0,0,1-4.38,4.38H7.38A4.38,4.38,0,0,1,3,56.418V51Z" transform="translate(-0.02 -0.992)" fill="#534741"/>
        <path id="Trazado_1044418" data-name="Trazado 1044418" d="M59.826,56.879a4.389,4.389,0,0,1-4.36,3.919H7.38A4.38,4.38,0,0,1,3,56.418V51H7.9v1.5a4.38,4.38,0,0,0,4.38,4.38Z" transform="translate(-0.02 -0.992)" fill="#3f312b"/>
        <path id="Trazado_1044419" data-name="Trazado 1044419" d="M32.123,12.8l-2.43-4.2,3.361-2.861,3.635,3.145a12.58,12.58,0,0,1,2.939-1.107L40.441,3H44.83l.745,4.791A12.58,12.58,0,0,1,48.514,8.9l3.635-3.165L55.51,8.594l-2.361,4.2a12.952,12.952,0,0,1,1.587,2.773h4.781l.754,4.321-4.517,1.626a12.443,12.443,0,0,1-.549,3.155l3.7,3.086-2.185,3.85-4.487-1.695a13.139,13.139,0,0,1-2.43,2.048l.882,4.791-4.135,1.519L44.2,34.039a12.737,12.737,0,0,1-3.155,0l-2.332,4.233-4.125-1.519.882-4.791a13.139,13.139,0,0,1-2.43-2.048l-4.5,1.695-2.185-3.85,3.7-3.086a12.443,12.443,0,0,1-.549-3.155L25,19.891l.754-4.38h4.781A12.952,12.952,0,0,1,32.123,12.8Z" transform="translate(-0.466 -0.02)" fill="#f7616c"/>
        <path id="Trazado_1044420" data-name="Trazado 1044420" d="M49.886,32.449l.8,4.37-4.135,1.509L44.2,34.1a12.737,12.737,0,0,1-3.155,0l-2.332,4.233-4.125-1.519.882-4.791a13.139,13.139,0,0,1-2.43-2.048l-4.5,1.695-2.185-3.85,3.7-3.086a12.443,12.443,0,0,1-.549-3.155L25,19.947l.754-4.38h4.781a12.952,12.952,0,0,1,1.587-2.714l-2.43-4.2L33.054,5.79,36.169,8.5A15.676,15.676,0,0,0,49.494,32.449Z" transform="translate(-0.466 -0.077)" fill="#ea3d53"/>
        <path id="Trazado_1044421" data-name="Trazado 1044421" d="M42.939,22.757h0a2.293,2.293,0,0,1-2.224-2.1L40,14.5A3.067,3.067,0,0,1,42.939,11h0a3.067,3.067,0,0,1,2.939,3.5l-.7,6.163a2.293,2.293,0,0,1-2.244,2.1Z" transform="translate(-0.769 -0.182)" fill="#fff"/>
        <circle id="Elipse_12673" data-name="Elipse 12673" cx="1.96" cy="1.96" r="1.96" transform="translate(40.21 26.494)" fill="#fff"/>
        <path id="Trazado_1044422" data-name="Trazado 1044422" d="M6.98,47.393a.98.98,0,0,0,.98-.98V21A1.048,1.048,0,0,1,9,19.96H20.853a.98.98,0,0,0,0-1.96H9a3,3,0,0,0-3,3V46.413A.98.98,0,0,0,6.98,47.393Z" transform="translate(-0.081 -0.324)"/>
        <path id="Trazado_1044423" data-name="Trazado 1044423" d="M56,36.16v10.6a.98.98,0,0,0,1.96,0V36.16a.98.98,0,0,0-1.96,0Z" transform="translate(-1.093 -0.672)"/>
        <path id="Trazado_1044424" data-name="Trazado 1044424" d="M59.806,50H43.15a.98.98,0,0,0-.98.98v1.96a.98.98,0,0,1-.98.98H23.555a.98.98,0,0,1-.98-.98V50.98A.98.98,0,0,0,21.6,50H2.98a.98.98,0,0,0-.98.98V56.4a5.359,5.359,0,0,0,5.359,5.359H55.426A5.359,5.359,0,0,0,60.785,56.4V50.98A.98.98,0,0,0,59.806,50Zm-.98,6.4a3.41,3.41,0,0,1-3.4,3.4H7.359a3.41,3.41,0,0,1-3.4-3.4V51.96H20.615v.98a2.939,2.939,0,0,0,2.939,2.939H41.19a2.939,2.939,0,0,0,2.939-2.939v-.98h14.7Z" transform="translate(0 -0.972)"/>
        <path id="Trazado_1044425" data-name="Trazado 1044425" d="M24.646,20.792,28.565,22.2a13.717,13.717,0,0,0,.333,2.106l-3.214,2.685a.98.98,0,0,0-.225,1.234l2.185,3.85a.98.98,0,0,0,1.205.431l3.919-1.479a13.765,13.765,0,0,0,1.6,1.342L33.6,36.536a.98.98,0,0,0,.627,1.088l4.115,1.528a.98.98,0,0,0,1.2-.441l2.038-3.674a14.7,14.7,0,0,0,2.077,0l2.038,3.674a.962.962,0,0,0,1.186.46l4.115-1.528a.98.98,0,0,0,.627-1.088l-.754-4.184a13.766,13.766,0,0,0,1.607-1.362L56.39,32.49a.98.98,0,0,0,1.205-.431l2.185-3.85a.98.98,0,0,0-.225-1.234l-3.223-2.665a13.716,13.716,0,0,0,.363-2.106l3.919-1.411A.98.98,0,0,0,61.23,19.7l-.764-4.38a.98.98,0,0,0-.98-.813H55.352a14.53,14.53,0,0,0-1.058-1.852L56.41,9.025a.98.98,0,0,0-.216-1.146L52.834,4.939a.98.98,0,0,0-1.274,0L48.415,7.7a13.344,13.344,0,0,0-1.96-.715L45.77,2.823A.98.98,0,0,0,44.79,2H40.42a.98.98,0,0,0-.98.823l-.686,4.164A13.344,13.344,0,0,0,36.8,7.7L33.67,4.939a.98.98,0,0,0-1.274,0L29.036,7.879a.98.98,0,0,0-.216,1.234l2.116,3.635a14.529,14.529,0,0,0-1.058,1.8H25.744a.98.98,0,0,0-.98.813L24,19.7A.98.98,0,0,0,24.646,20.792Zm1.911-4.311h3.919a.98.98,0,0,0,.911-.6,12.482,12.482,0,0,1,1.47-2.577.98.98,0,0,0,.059-1.078L30.927,8.79l2.1-1.783,3,2.606a.98.98,0,0,0,1.1.127,11.757,11.757,0,0,1,2.743-.98.98.98,0,0,0,.794-.833l.6-3.968h2.724l.647,3.968a.98.98,0,0,0,.745.8,11.757,11.757,0,0,1,2.743.98.98.98,0,0,0,1.1-.127l3-2.606L54.3,8.76l-2.018,3.468a.98.98,0,0,0,.059,1.078,12.482,12.482,0,0,1,1.47,2.577.921.921,0,0,0,.911.6h3.919l.47,2.743-3.7,1.391a.98.98,0,0,0-.647.872,12.571,12.571,0,0,1-.509,2.939.98.98,0,0,0,.3,1.039l3.076,2.567-1.372,2.381-3.694-1.4a.98.98,0,0,0-1.058.245,12.972,12.972,0,0,1-2.253,1.911.98.98,0,0,0-.431.98l.725,3.919-2.557.98-1.96-3.5a.98.98,0,0,0-.852-.5h-.127a11.052,11.052,0,0,1-2.939,0,.98.98,0,0,0-.98.5l-1.96,3.5-2.557-.98.725-3.919a.98.98,0,0,0-.431-.98,12.972,12.972,0,0,1-2.253-1.911.98.98,0,0,0-1.058-.245l-3.635,1.4-1.372-2.4,3.076-2.567a.98.98,0,0,0,.3-1.039,12.57,12.57,0,0,1-.509-2.939.98.98,0,0,0-.647-.872l-3.733-1.352Z" transform="translate(-0.445 0)"/>
        <path id="Trazado_1044426" data-name="Trazado 1044426" d="M39.728,20.777a3.2,3.2,0,0,0,6.388,0l.725-6.182a4.213,4.213,0,0,0-.98-3.292,3.792,3.792,0,0,0-5.722,0,4.213,4.213,0,0,0-.98,3.292Zm1.793-8.142a1.842,1.842,0,0,1,2.8,0,2.244,2.244,0,0,1,.539,1.764l-.686,6.153a1.254,1.254,0,0,1-2.508,0l-.705-6.182a2.244,2.244,0,0,1,.558-1.764Z" transform="translate(-0.752 -0.162)"/>
        <path id="Trazado_1044427" data-name="Trazado 1044427" d="M42.939,26a2.939,2.939,0,1,0,2.939,2.939A2.939,2.939,0,0,0,42.939,26Zm0,3.919a.98.98,0,1,1,.98-.98A.98.98,0,0,1,42.939,29.919Z" transform="translate(-0.769 -0.486)"/>
      </g>
      <g id="down-arrow_12208786" transform="translate(926.486 3855.951)">
        <path id="Trazado_1044428" data-name="Trazado 1044428" d="M29.137,23.286a6.28,6.28,0,1,0,6.28,6.28A6.287,6.287,0,0,0,29.137,23.286Zm2.7,8.753-2.24,2.1a.679.679,0,0,1-.92,0l-2.24-2.1a.6.6,0,0,1-.154-.671.652.652,0,0,1,.615-.406h.895l-.86-5.487c-.056-.283-.009-.481.141-.589.323-.235.946.117,1.668.525l.1.056c.13.072.215.129.271.167l.026.017.026-.017c.056-.038.142-.095.272-.167l.1-.056c.721-.408,1.344-.76,1.668-.525.149.108.2.307.141.589l-.86,5.487h.895a.652.652,0,0,1,.615.406.6.6,0,0,1-.154.671Z" transform="translate(-13.623 -13.623)" fill="#2b3990"/>
        <path id="Trazado_1044429" data-name="Trazado 1044429" d="M153.48,86.033h-.895l.86-5.487c.056-.283.009-.481-.141-.589-.323-.235-.946.117-1.668.525l-.1.056c-.13.073-.216.13-.272.167l-.026.017-.026-.017c-.056-.038-.142-.095-.271-.167l-.1-.056c-.721-.408-1.344-.76-1.668-.525-.149.108-.2.307-.141.589l.86,5.487H149a.652.652,0,0,0-.615.406.6.6,0,0,0,.154.671l2.24,2.1a.679.679,0,0,0,.92,0l2.24-2.1a.6.6,0,0,0,.154-.671.652.652,0,0,0-.615-.406Zm.2.8-2.24,2.1a.3.3,0,0,1-.4,0l-2.24-2.1a.225.225,0,0,1-.062-.257A.273.273,0,0,1,149,86.41h1.115a.189.189,0,0,0,.186-.218l-.895-5.708v-.008a.391.391,0,0,1-.007-.214c.016-.005.112-.027.423.108.248.108.547.277.836.44l.1.057c.117.065.192.115.246.152a.334.334,0,0,0,.47,0c.054-.036.129-.086.247-.152l.1-.056c.289-.163.588-.332.836-.44.31-.135.407-.114.423-.108a.391.391,0,0,1-.007.214v.008l-.895,5.708a.189.189,0,0,0,.186.218h1.115a.273.273,0,0,1,.264.168.225.225,0,0,1-.062.257Z" transform="translate(-135.726 -68.693)"/>
        <path id="Trazado_1044430" data-name="Trazado 1044430" d="M15.514,9.286a6.657,6.657,0,1,0,6.657,6.657,6.665,6.665,0,0,0-6.657-6.657Zm0,12.937a6.28,6.28,0,1,1,6.28-6.28A6.287,6.287,0,0,1,15.514,22.223Z"/>
      </g>
    </g>
  </g>
</svg>
