<svg xmlns="http://www.w3.org/2000/svg" xmlns:xlink="http://www.w3.org/1999/xlink" width="103" height="103" viewBox="0 0 103 103">
  <defs>
    <filter id="Trazado_978624" x="0" y="0" width="103" height="103" filterUnits="userSpaceOnUse">
      <feOffset dy="3" input="SourceAlpha"/>
      <feGaussianBlur stdDeviation="3" result="blur"/>
      <feFlood flood-opacity="0.161"/>
      <feComposite operator="in" in2="blur"/>
      <feComposite in="SourceGraphic"/>
    </filter>
  </defs>
  <g id="Grupo_1220363" data-name="Grupo 1220363" transform="translate(-185 -5347)">
    <g id="Grupo_1220033" data-name="Grupo 1220033" transform="translate(0 -4046)">
      <g id="Grupo_1178463" data-name="Grupo 1178463" transform="translate(14 6527)">
        <g id="Grupo_1176881" data-name="Grupo 1176881">
          <g id="Grupo_1175148" data-name="Grupo 1175148" transform="translate(0 1580)">
            <g id="Grupo_1173798" data-name="Grupo 1173798" transform="translate(-3 -3520)">
              <g id="Grupo_1171925" data-name="Grupo 1171925" transform="translate(-22 -2246)">
                <g id="Grupo_1164524" data-name="Grupo 1164524" transform="translate(205 7058)">
                  <g id="Grupo_1144123" data-name="Grupo 1144123">
                    <g transform="matrix(1, 0, 0, 1, -9, -6)" filter="url(#Trazado_978624)">
                      <g id="Trazado_978624-2" data-name="Trazado 978624" transform="translate(9 6)" fill="#f4f4f4">
                        <path d="M 42.5 83.5 C 36.96437835693359 83.5 31.59512901306152 82.41617584228516 26.54141235351562 80.27863311767578 C 21.65934181213379 78.21369171142578 17.27447128295898 75.25723266601562 13.50862312316895 71.49137878417969 C 9.742764472961426 67.72553253173828 6.786305904388428 63.34066009521484 4.721364498138428 58.45858764648438 C 2.583823442459106 53.40486907958984 1.5 48.03562164306641 1.5 42.5 C 1.5 36.96437835693359 2.583823442459106 31.59512901306152 4.721364498138428 26.54141235351562 C 6.786305904388428 21.65934181213379 9.742764472961426 17.27447128295898 13.50862312316895 13.50862312316895 C 17.27447128295898 9.742764472961426 21.65934181213379 6.786305904388428 26.54141235351562 4.721364498138428 C 31.59512901306152 2.583823442459106 36.96437835693359 1.5 42.5 1.5 C 48.03562164306641 1.5 53.40486907958984 2.583823442459106 58.45858764648438 4.721364498138428 C 63.34066009521484 6.786305904388428 67.72553253173828 9.742764472961426 71.49137878417969 13.50862312316895 C 75.25723266601562 17.27447128295898 78.21369171142578 21.65934181213379 80.27863311767578 26.54141235351562 C 82.41617584228516 31.59512901306152 83.5 36.96437835693359 83.5 42.5 C 83.5 48.03562164306641 82.41617584228516 53.40486907958984 80.27863311767578 58.45858764648438 C 78.21369171142578 63.34066009521484 75.25723266601562 67.72553253173828 71.49137878417969 71.49137878417969 C 67.72553253173828 75.25723266601562 63.34066009521484 78.21369171142578 58.45858764648438 80.27863311767578 C 53.40486907958984 82.41617584228516 48.03562164306641 83.5 42.5 83.5 Z" stroke="none"/>
                        <path d="M 42.5 3 C 37.16621398925781 3 31.99356079101562 4.043960571289062 27.125732421875 6.102882385253906 C 22.42246627807617 8.092185974121094 18.19785308837891 10.94070434570312 14.56928253173828 14.56928253173828 C 10.94070434570312 18.19785308837891 8.092185974121094 22.42246627807617 6.102882385253906 27.125732421875 C 4.043960571289062 31.99356079101562 3 37.16621398925781 3 42.5 C 3 47.83378601074219 4.043960571289062 53.00643920898438 6.102882385253906 57.87425231933594 C 8.092185974121094 62.57753372192383 10.94070434570312 66.80213165283203 14.56928253173828 70.43071746826172 C 18.19786834716797 74.05929565429688 22.42246627807617 76.90781402587891 27.125732421875 78.89711761474609 C 31.99356079101562 80.95603942871094 37.16621398925781 82 42.5 82 C 47.83378601074219 82 53.00642395019531 80.95603942871094 57.87425231933594 78.89711761474609 C 62.57753372192383 76.90781402587891 66.80213165283203 74.05929565429688 70.43071746826172 70.43071746826172 C 74.05929565429688 66.80213165283203 76.90781402587891 62.57753372192383 78.89711761474609 57.87425231933594 C 80.95603942871094 53.00642395019531 82 47.83378601074219 82 42.5 C 82 37.16621398925781 80.95603942871094 31.99356079101562 78.89711761474609 27.125732421875 C 76.90781402587891 22.42246627807617 74.05929565429688 18.19786834716797 70.43071746826172 14.56928253173828 C 66.80213165283203 10.94070434570312 62.57753372192383 8.092185974121094 57.87425231933594 6.102882385253906 C 53.00643920898438 4.043960571289062 47.83378601074219 3 42.5 3 M 42.5 0 C 65.97209167480469 0 85 19.02789306640625 85 42.5 C 85 65.97209167480469 65.97209167480469 85 42.5 85 C 19.02789306640625 85 0 65.97209167480469 0 42.5 C 0 19.02789306640625 19.02789306640625 0 42.5 0 Z" stroke="none" fill="#797979"/>
                      </g>
                    </g>
                  </g>
                </g>
              </g>
            </g>
          </g>
        </g>
      </g>
    </g>
    <g id="agile_3463031" transform="translate(206.362 5365.862)">
      <g id="Grupo_1220361" data-name="Grupo 1220361" transform="translate(9.314 1.924)">
        <g id="Grupo_1220352" data-name="Grupo 1220352" transform="translate(14.781)">
          <path id="Trazado_1044470" data-name="Trazado 1044470" d="M34.314,2a2.768,2.768,0,0,1,2.771,2.771.927.927,0,0,1-.924.924H26.924A.927.927,0,0,1,26,4.771,2.776,2.776,0,0,1,28.771,2Z" transform="translate(-26 -2)" fill="#fcd770"/>
        </g>
        <g id="Grupo_1220353" data-name="Grupo 1220353" transform="translate(18.476 3.695)">
          <path id="Trazado_1044471" data-name="Trazado 1044471" d="M33.7,6V9.778c-.61-.055-1.219-.083-1.848-.083S30.61,9.723,30,9.778V6Z" transform="translate(-30 -6)" fill="#aab2bd"/>
        </g>
        <g id="Grupo_1220354" data-name="Grupo 1220354" transform="translate(3.695 11.086)">
          <circle id="Elipse_12674" data-name="Elipse 12674" cx="17" cy="17" r="17" transform="translate(-0.372 -0.371)" fill="#69d6f4"/>
        </g>
        <g id="Grupo_1220355" data-name="Grupo 1220355" transform="translate(0 7.39)">
          <path id="Trazado_1044472" data-name="Trazado 1044472" d="M37.455,49.354a20.324,20.324,0,1,1-8.979-39.271c.61-.055,1.219-.083,1.848-.083s1.238.028,1.848.083A20.322,20.322,0,0,1,49.354,37.455a.994.994,0,0,1-.12-.268,1.925,1.925,0,0,0-1.82-1.321H46.49a1.712,1.712,0,0,0-.536.083,16.453,16.453,0,0,0,1-5.626A16.624,16.624,0,1,0,30.324,46.952a16.453,16.453,0,0,0,5.626-1,1.712,1.712,0,0,0-.083.536v.924a1.925,1.925,0,0,0,1.321,1.82.994.994,0,0,1,.268.12Z" transform="translate(-10 -10)" fill="#ccd1d9"/>
        </g>
        <g id="Grupo_1220356" data-name="Grupo 1220356" transform="translate(25.866 22.171)">
          <path id="Trazado_1044473" data-name="Trazado 1044473" d="M41.7,26V39.9a.636.636,0,0,0-.12.1l-.656.656a.636.636,0,0,0-.1.12H38V26Z" transform="translate(-38 -26)" fill="#ff826e"/>
        </g>
        <g id="Grupo_1220357" data-name="Grupo 1220357" transform="translate(18.476 18.476)">
          <path id="Trazado_1044474" data-name="Trazado 1044474" d="M30,22h3.7V40.476H30Z" transform="translate(-30 -22)" fill="#ff826e"/>
        </g>
        <g id="Grupo_1220358" data-name="Grupo 1220358" transform="translate(11.086 27.714)">
          <path id="Trazado_1044475" data-name="Trazado 1044475" d="M22,32h3.7v9.238H22Z" transform="translate(-22 -32)" fill="#ff826e"/>
        </g>
        <g id="Grupo_1220359" data-name="Grupo 1220359" transform="translate(25.866 33.257)">
          <path id="Trazado_1044476" data-name="Trazado 1044476" d="M49.547,38a1.925,1.925,0,0,1,1.82,1.321.994.994,0,0,0,.12.268,1.807,1.807,0,0,0,.97.9l.333.139a1.809,1.809,0,0,0,.73.148,1.866,1.866,0,0,0,.859-.2,1.908,1.908,0,0,1,2.217.351l.656.656a1.911,1.911,0,0,1,.564,1.349,1.942,1.942,0,0,1-.212.868,1.877,1.877,0,0,0-.055,1.589l.139.333A1.89,1.89,0,0,0,58.85,46.8a1.925,1.925,0,0,1,1.321,1.82v.924a1.925,1.925,0,0,1-1.321,1.82,1.89,1.89,0,0,0-1.164,1.09l-.139.333a1.809,1.809,0,0,0-.148.73,1.866,1.866,0,0,0,.2.859,1.908,1.908,0,0,1-.351,2.217l-.656.656a1.911,1.911,0,0,1-1.349.564,1.942,1.942,0,0,1-.868-.212,1.877,1.877,0,0,0-1.589-.055l-.333.139a1.89,1.89,0,0,0-1.09,1.164,1.925,1.925,0,0,1-1.82,1.321h-.924A1.925,1.925,0,0,1,46.8,58.85a1.89,1.89,0,0,0-1.09-1.164l-.333-.139a1.809,1.809,0,0,0-.73-.148,1.866,1.866,0,0,0-.859.2,1.908,1.908,0,0,1-2.217-.351l-.656-.656a1.911,1.911,0,0,1-.564-1.349,1.942,1.942,0,0,1,.212-.868,1.877,1.877,0,0,0,.055-1.589l-.139-.333a1.807,1.807,0,0,0-.9-.97.994.994,0,0,0-.268-.12A1.925,1.925,0,0,1,38,49.547v-.924a1.712,1.712,0,0,1,.083-.536A1.931,1.931,0,0,1,39.321,46.8a1.89,1.89,0,0,0,1.164-1.09l.139-.333a1.809,1.809,0,0,0,.148-.73,1.866,1.866,0,0,0-.2-.859,1.893,1.893,0,0,1,.249-2.1.636.636,0,0,1,.1-.12l.656-.656a.636.636,0,0,1,.12-.1,1.866,1.866,0,0,1,1.229-.462,1.942,1.942,0,0,1,.868.212,1.877,1.877,0,0,0,1.589.055l.333-.139a1.89,1.89,0,0,0,1.09-1.164,1.931,1.931,0,0,1,1.284-1.238A1.712,1.712,0,0,1,48.624,38Zm5.081,11.086a5.543,5.543,0,1,0-5.543,5.543A5.547,5.547,0,0,0,54.628,49.086Z" transform="translate(-38 -38)" fill="#ffc729"/>
        </g>
        <g id="Grupo_1220360" data-name="Grupo 1220360" transform="translate(31.409 38.799)">
          <path id="Trazado_1044477" data-name="Trazado 1044477" d="M49.543,44A5.543,5.543,0,1,1,44,49.543,5.547,5.547,0,0,1,49.543,44Zm1.848,5.543a1.848,1.848,0,1,0-1.848,1.848A1.853,1.853,0,0,0,51.39,49.543Z" transform="translate(-44 -44)" fill="#fcd770"/>
        </g>
      </g>
      <g id="Grupo_1220362" data-name="Grupo 1220362" transform="translate(1 1)">
        <path id="Trazado_1044478" data-name="Trazado 1044478" d="M49.467,43a6.467,6.467,0,1,0,6.467,6.467A6.474,6.474,0,0,0,49.467,43Zm0,11.086a4.619,4.619,0,1,1,4.619-4.619A4.624,4.624,0,0,1,49.467,54.086Z" transform="translate(-4.201 -4.201)"/>
        <path id="Trazado_1044479" data-name="Trazado 1044479" d="M49.771,47a2.771,2.771,0,1,0,2.771,2.771A2.775,2.775,0,0,0,49.771,47Zm0,3.7a.924.924,0,1,1,.924-.924A.925.925,0,0,1,49.771,50.7Z" transform="translate(-4.505 -4.505)"/>
        <path id="Trazado_1044480" data-name="Trazado 1044480" d="M58.5,30.636a25.307,25.307,0,0,1-.252,3.564l1.828.261a27.062,27.062,0,0,0,.272-3.825,26.626,26.626,0,0,0-3.412-13.093l3.12,1.037.583-1.753-8.2-2.725,1.593,2.283A24.781,24.781,0,0,1,58.5,30.636Z" transform="translate(-4.92 -1.998)"/>
        <path id="Trazado_1044481" data-name="Trazado 1044481" d="M2.685,45.494l8.2,2.725L9.294,45.937a24.786,24.786,0,0,1-4.47-14.252,25.307,25.307,0,0,1,.252-3.564l-1.828-.261a27.062,27.062,0,0,0-.272,3.825A26.626,26.626,0,0,0,6.388,44.777L3.268,43.74Z" transform="translate(-1.128 -3.047)"/>
        <path id="Trazado_1044482" data-name="Trazado 1044482" d="M56.321,43.108a.947.947,0,0,1-.6-.549c-.047-.122-.1-.243-.149-.363a.951.951,0,0,1,.035-.806,2.834,2.834,0,0,0-.527-3.29l-.65-.65a2.834,2.834,0,0,0-3.29-.527.946.946,0,0,1-.807.035c-.118-.052-.239-.1-.36-.149a.912.912,0,0,1-.284-.194A21.2,21.2,0,0,0,32.409,8.577V6.543h1.848A1.849,1.849,0,0,0,36.1,4.7a3.7,3.7,0,0,0-3.7-3.7H26.866a3.7,3.7,0,0,0-3.7,3.7,1.849,1.849,0,0,0,1.848,1.848h1.848V8.577a21.239,21.239,0,0,0-5.878,40.46H1v1.848H29.638a21.151,21.151,0,0,0,6.977-1.194.9.9,0,0,1,.194.282c.047.122.1.243.149.363a.951.951,0,0,1-.035.806,2.834,2.834,0,0,0,.527,3.29l.65.651a2.835,2.835,0,0,0,3.29.527.943.943,0,0,1,.807-.035c.119.052.24.1.36.149a.946.946,0,0,1,.551.6,2.838,2.838,0,0,0,2.7,1.953h.92a2.835,2.835,0,0,0,2.7-1.955.947.947,0,0,1,.549-.6c.122-.047.243-.1.363-.149a.948.948,0,0,1,.806.035,2.835,2.835,0,0,0,3.29-.527l.651-.65a2.834,2.834,0,0,0,.527-3.29.95.95,0,0,1-.035-.807c.052-.119.1-.24.149-.36a.946.946,0,0,1,.6-.551,2.838,2.838,0,0,0,1.953-2.7v-.92a2.835,2.835,0,0,0-1.955-2.7ZM26.866,2.848h5.543A1.851,1.851,0,0,1,34.258,4.7H25.019a1.849,1.849,0,0,1,1.848-1.848Zm1.848,3.7h1.848V8.413c-.307-.013-.614-.023-.924-.023s-.617.01-.924.023ZM10.238,29.638a19.4,19.4,0,1,1,38.11,5.131,2.829,2.829,0,0,0-1.622-.512h-.174a17.338,17.338,0,0,0,.637-4.619A17.552,17.552,0,1,0,29.638,47.19a17.338,17.338,0,0,0,4.619-.637v.174a2.829,2.829,0,0,0,.512,1.622,19.4,19.4,0,0,1-24.53-18.711ZM36.922,41.389a.95.95,0,0,1,.035.807c-.052.119-.1.24-.149.36a.946.946,0,0,1-.6.551,2.833,2.833,0,0,0-1.646,1.413A15.532,15.532,0,0,1,17.686,39.8H36.64a2.824,2.824,0,0,0,.282,1.59ZM23.171,37.952H21.324v-7.39h1.848Zm7.39,0H28.714V21.324h1.848Zm7.39-.356-.356.356H36.1V25.019h1.848Zm-3.7-14.425V37.952H32.409V19.476H26.866V37.952H25.019V28.714H19.476v9.238H16.339a15.719,15.719,0,1,1,28.182-3.388,2.841,2.841,0,0,0-1.414,1.648.945.945,0,0,1-.551.6c-.121.047-.241.1-.361.149a.948.948,0,0,1-.806-.035,2.831,2.831,0,0,0-1.59-.283V23.171ZM56.428,46.726a.991.991,0,0,1-.684.943A2.787,2.787,0,0,0,54,49.306c-.039.1-.079.2-.121.294a2.789,2.789,0,0,0,.08,2.376.99.99,0,0,1-.184,1.149l-.651.651a.99.99,0,0,1-1.149.184,2.787,2.787,0,0,0-2.375-.08q-.145.062-.3.122a2.789,2.789,0,0,0-1.636,1.743.991.991,0,0,1-.943.683h-.92a.991.991,0,0,1-.943-.684A2.787,2.787,0,0,0,43.226,54c-.1-.039-.2-.079-.294-.121a2.734,2.734,0,0,0-1.1-.228,2.846,2.846,0,0,0-1.28.308.991.991,0,0,1-1.149-.184l-.651-.651a.99.99,0,0,1-.184-1.149,2.787,2.787,0,0,0,.08-2.375q-.062-.146-.122-.3a2.789,2.789,0,0,0-1.743-1.636.989.989,0,0,1-.683-.942v-.92a.992.992,0,0,1,.683-.943,2.786,2.786,0,0,0,1.743-1.637c.039-.1.079-.2.121-.294a2.789,2.789,0,0,0-.08-2.376.991.991,0,0,1,.184-1.15l.65-.65a.987.987,0,0,1,1.15-.184,2.787,2.787,0,0,0,2.375.08c.1-.042.2-.083.3-.121a2.8,2.8,0,0,0,1.637-1.743.991.991,0,0,1,.943-.684h.92a.991.991,0,0,1,.943.684,2.79,2.79,0,0,0,1.636,1.742c.1.039.2.079.295.121a2.793,2.793,0,0,0,2.376-.08.99.99,0,0,1,1.15.184l.65.65a.991.991,0,0,1,.184,1.15,2.787,2.787,0,0,0-.08,2.375q.062.146.122.3a2.789,2.789,0,0,0,1.743,1.636.991.991,0,0,1,.683.943Z" transform="translate(-1 -1)"/>
      </g>
    </g>
  </g>
</svg>
