<svg xmlns="http://www.w3.org/2000/svg" xmlns:xlink="http://www.w3.org/1999/xlink" width="98" height="98" viewBox="0 0 98 98">
  <defs>
    <filter id="Trazado_982547" x="0" y="0" width="98" height="98" filterUnits="userSpaceOnUse">
      <feOffset dy="3" input="SourceAlpha"/>
      <feGaussianBlur stdDeviation="3" result="blur"/>
      <feFlood flood-opacity="0.161"/>
      <feComposite operator="in" in2="blur"/>
      <feComposite in="SourceGraphic"/>
    </filter>
  </defs>
  <g id="Grupo_1220248" data-name="Grupo 1220248" transform="translate(-191 -951.34)">
    <g id="Grupo_1178927" data-name="Grupo 1178927" transform="translate(-87 -2470.705)">
      <g id="Grupo_1178491" data-name="Grupo 1178491" transform="translate(287 3428.045)">
        <g id="Grupo_1172010" data-name="Grupo 1172010" transform="translate(0)">
          <g id="Grupo_1171046" data-name="Grupo 1171046">
            <g id="Grupo_1148525" data-name="Grupo 1148525">
              <g transform="matrix(1, 0, 0, 1, -9, -6)" filter="url(#Trazado_982547)">
                <g id="Trazado_982547-2" data-name="Trazado 982547" transform="translate(9 6)" fill="#fdeffe">
                  <path d="M 40 78.5 C 34.80187606811523 78.5 29.76003265380859 77.48227691650391 25.01452255249023 75.47509765625 C 20.43014526367188 73.53606414794922 16.31264495849609 70.75986480712891 12.77638912200928 67.22360992431641 C 9.240133285522461 63.68735504150391 6.46393346786499 59.56985473632812 4.524899959564209 54.98547744750977 C 2.517722129821777 50.23996734619141 1.5 45.19812393188477 1.5 40 C 1.5 34.80187606811523 2.517722129821777 29.76003265380859 4.524899959564209 25.01452255249023 C 6.46393346786499 20.43014526367188 9.240133285522461 16.31264495849609 12.77638912200928 12.77638912200928 C 16.31264495849609 9.240133285522461 20.43014526367188 6.46393346786499 25.01452255249023 4.524899959564209 C 29.76003265380859 2.517722129821777 34.80187606811523 1.5 40 1.5 C 45.19812393188477 1.5 50.23996734619141 2.517722129821777 54.98547744750977 4.524899959564209 C 59.56985473632812 6.46393346786499 63.68735504150391 9.240133285522461 67.22360992431641 12.77638912200928 C 70.75986480712891 16.31264495849609 73.53606414794922 20.43014526367188 75.47509765625 25.01452255249023 C 77.48227691650391 29.76003265380859 78.5 34.80187606811523 78.5 40 C 78.5 45.19812393188477 77.48227691650391 50.23996734619141 75.47509765625 54.98547744750977 C 73.53606414794922 59.56985473632812 70.75986480712891 63.68735504150391 67.22360992431641 67.22360992431641 C 63.68735504150391 70.75986480712891 59.56985473632812 73.53606414794922 54.98547744750977 75.47509765625 C 50.23996734619141 77.48227691650391 45.19812393188477 78.5 40 78.5 Z" stroke="none"/>
                  <path d="M 40 3 C 35.00370788574219 3 30.15846633911133 3.977851867675781 25.59885406494141 5.906410217285156 C 21.19327926635742 7.769813537597656 17.23603820800781 10.43806457519531 13.83705139160156 13.83705139160156 C 10.43806457519531 17.23603820800781 7.769813537597656 21.19327926635742 5.906410217285156 25.59885406494141 C 3.977851867675781 30.15846633911133 3 35.00370788574219 3 40 C 3 44.99629211425781 3.977851867675781 49.84153366088867 5.906410217285156 54.40114593505859 C 7.769813537597656 58.80672073364258 10.43806457519531 62.76396179199219 13.83705139160156 66.16294860839844 C 17.23603820800781 69.56193542480469 21.19327926635742 72.23018646240234 25.59885406494141 74.09358978271484 C 30.15846633911133 76.02214813232422 35.00370788574219 77 40 77 C 44.99629211425781 77 49.84153366088867 76.02214813232422 54.40114593505859 74.09358978271484 C 58.80672073364258 72.23018646240234 62.76396179199219 69.56193542480469 66.16294860839844 66.16294860839844 C 69.56193542480469 62.76396179199219 72.23018646240234 58.80672073364258 74.09358978271484 54.40114593505859 C 76.02214813232422 49.84153366088867 77 44.99629211425781 77 40 C 77 35.00370788574219 76.02214813232422 30.15846633911133 74.09358978271484 25.59885406494141 C 72.23018646240234 21.19327926635742 69.56193542480469 17.23603820800781 66.16294860839844 13.83705139160156 C 62.76396179199219 10.43806457519531 58.80672073364258 7.769813537597656 54.40114593505859 5.906410217285156 C 49.84153366088867 3.977851867675781 44.99629211425781 3 40 3 M 40 0 C 62.09138488769531 0 80 17.90861511230469 80 40 C 80 62.09138488769531 62.09138488769531 80 40 80 C 17.90861511230469 80 0 62.09138488769531 0 40 C 0 17.90861511230469 17.90861511230469 0 40 0 Z" stroke="none" fill="#ee70f7"/>
                </g>
              </g>
            </g>
          </g>
        </g>
      </g>
    </g>
    <g id="perfomance_18497195" transform="translate(188.744 912.936)">
      <g id="Grupo_1220247" data-name="Grupo 1220247" transform="translate(25.157 60.189)">
        <path id="Trazado_1044238" data-name="Trazado 1044238" d="M59.722,71.317,58.2,67.27H52.669l-1.522,4.047A19.534,19.534,0,0,0,44.915,73.9L40.976,72.11l-3.913,3.916,1.789,3.939A19.49,19.49,0,0,0,36.271,86.2l-4.051,1.52v5.534l4.051,1.522A19.534,19.534,0,0,0,38.852,101l-1.789,3.939,3.913,3.913,3.939-1.789a19.523,19.523,0,0,0,6.232,2.581l1.522,4.051H58.2l1.52-4.051a19.469,19.469,0,0,0,6.232-2.581l3.939,1.789,3.916-3.913L72.021,101A19.523,19.523,0,0,0,74.6,94.773l4.047-1.522V87.717L74.6,86.2a19.5,19.5,0,0,0-2.581-6.232l1.789-3.939L69.894,72.11,65.955,73.9A19.512,19.512,0,0,0,59.722,71.317Z" transform="translate(-32.22 -67.27)" fill="#00b2ca" fill-rule="evenodd"/>
        <path id="Trazado_1044239" data-name="Trazado 1044239" d="M170.45,198.34a8.078,8.078,0,1,1-8.08,8.076A8.078,8.078,0,0,1,170.45,198.34Z" transform="translate(-147.272 -183.136)" fill="#ffcd05" fill-rule="evenodd"/>
        <path id="Trazado_1044240" data-name="Trazado 1044240" d="M121.842,135.842a16.78,16.78,0,0,1,.493,2.723h-4.791a12.109,12.109,0,0,0-.3-1.489,11.932,11.932,0,0,0-23.35,1.489H89.1a16.694,16.694,0,0,1,32.742-2.723Z" transform="translate(-82.502 -116.947)" fill="#ed1968" fill-rule="evenodd"/>
        <path id="Trazado_1044241" data-name="Trazado 1044241" d="M176.2,200.906a8.435,8.435,0,1,1-10.331-5.965A8.434,8.434,0,0,1,176.2,200.906Z" transform="translate(-144.835 -179.875)" fill="#ffcd05" fill-rule="evenodd"/>
        <path id="Trazado_1044242" data-name="Trazado 1044242" d="M219.291,251.917a1.962,1.962,0,1,1-2.4-1.387A1.963,1.963,0,0,1,219.291,251.917Z" transform="translate(-194.18 -229.212)" fill="#999" fill-rule="evenodd"/>
        <path id="Trazado_1044243" data-name="Trazado 1044243" d="M287.085,309.957v12.578h-6.2V309.957H278.2l2.891-3.225,2.89-3.223,2.894,3.223,2.891,3.225Z" transform="translate(-249.666 -276.106)" fill="#ffcd05" fill-rule="evenodd"/>
        <path id="Trazado_1044244" data-name="Trazado 1044244" d="M391.426,248.757v19.677h-6.208V248.757H382.54l2.891-3.225,2.891-3.223,2.89,3.223,2.891,3.225Z" transform="translate(-341.902 -222.005)" fill="#9695c9" fill-rule="evenodd"/>
        <path id="Trazado_1044245" data-name="Trazado 1044245" d="M182.775,371.131v5.479h-6.208v-5.479H173.89l2.89-3.225,2.891-3.226,2.891,3.226,2.89,3.225Z" transform="translate(-157.456 -330.18)" fill="#ed1968" fill-rule="evenodd"/>
      </g>
      <path id="Trazado_1044246" data-name="Trazado 1044246" d="M51.4,102.068v1.22c.086-.224.382-1.065.48-1.22Zm-.588,5.415a.97.97,0,0,1-.339.063H44.267a.926.926,0,0,1-.927-.927v-3.278a20.374,20.374,0,0,1-5.554-2.3l-3.436,1.559a.93.93,0,0,1-1.092-.161l-3.913-3.916a.932.932,0,0,1-.19-1.036l1.588-3.492a20.38,20.38,0,0,1-2.321-5.606l-3.511-1.319a.931.931,0,0,1-.681-.894V80.636h0a.929.929,0,0,1,.6-.868l3.588-1.344a20.41,20.41,0,0,1,2.321-5.606L29.181,69.38a.926.926,0,0,1,.165-1.092l3.913-3.913a.933.933,0,0,1,1.036-.19l3.492,1.585a20.488,20.488,0,0,1,5.606-2.318l1.319-3.511a.931.931,0,0,1,.894-.681H51.14v0a.926.926,0,0,1,.868.6l1.344,3.588a20.479,20.479,0,0,1,5.606,2.318L62.4,64.212a.922.922,0,0,1,1.088.165L67.4,68.29h0a.927.927,0,0,1,.19,1.036L66,72.817a20.579,20.579,0,0,1,1.368,2.716v0a20.22,20.22,0,0,1,.95,2.887l3.091,1.161a.927.927,0,0,1,.855.3l5.777,6.449a.925.925,0,0,1-.687,1.539v0H75.606v18.749a.926.926,0,0,1-.927.927h-6.2a.929.929,0,0,1-.93-.927V98.335a.94.94,0,0,1-.142.184l-3.9,3.9v4.205a.929.929,0,0,1-.93.927h-6.2a.926.926,0,0,1-.927-.927v-3.9a19.793,19.793,0,0,1-2.092.641l-1.344,3.584a.928.928,0,0,1-1.194.539Zm-9.94-6.935c.027-.029.052-.059.082-.089l5.728-6.386a.921.921,0,0,1,1.378,0l5.78,6.445a.929.929,0,0,1,.23.7l1.371-.5V94.969H53.691a.928.928,0,0,1-.631-1.608l5.725-6.386a.926.926,0,0,1,1.382,0l4.709,5.251a18.573,18.573,0,0,0,1.674-4.361H65.8a.925.925,0,0,1-.631-1.6l4.728-5.278-2.676-1.006a.924.924,0,0,1-.582-.681,19.051,19.051,0,0,0-.966-3.058h0a18.851,18.851,0,0,0-1.489-2.861.925.925,0,0,1-.043-.918l1.506-3.318-3.009-3.006-3.358,1.522A.916.916,0,0,1,58.4,67.6a18.66,18.66,0,0,0-5.936-2.463.918.918,0,0,1-.667-.579L50.5,61.116H46.244l-1.292,3.443a.917.917,0,0,1-.681.582A18.746,18.746,0,0,0,38.352,67.6a.926.926,0,0,1-.918.046l-3.318-1.506-3.006,3.006L32.633,72.5a.916.916,0,0,1-.063.875v0a18.641,18.641,0,0,0-2.463,5.932.918.918,0,0,1-.579.667l-3.443,1.292v4.258l3.443,1.292a.933.933,0,0,1,.586.684,18.725,18.725,0,0,0,2.456,5.918.919.919,0,0,1,.046.914l-1.506,3.318,3.006,3.009,3.357-1.525a.926.926,0,0,1,.875.063h0a19.072,19.072,0,0,0,2.522,1.343Zm8.673,5.14v-4.547a.929.929,0,0,1,.927-.93h.606l-3.709-4.137-3.71,4.137h.606a.932.932,0,0,1,.93.93v4.547Zm18-8.307V90.849a20.4,20.4,0,0,1-1.407,2.916.925.925,0,0,1,.007.532Zm6.208,8.307V86.943a.926.926,0,0,1,.927-.927h.606l-3.709-4.137-3.71,4.135h.608a.928.928,0,0,1,.927.927v18.746h4.351ZM63.506,94.969V99.79l2.131-2.131-1.223-2.69Zm-1.857,10.72V94.042a.928.928,0,0,1,.927-.927h.608l-3.709-4.14-3.71,4.14h.606a.926.926,0,0,1,.927.927v11.647ZM40.876,94.942a.925.925,0,1,1-1.007,1.552,15.6,15.6,0,0,1-7-11.229.927.927,0,1,1,1.841-.22,13.766,13.766,0,0,0,6.167,9.9ZM51.162,82.654a2.888,2.888,0,1,1-5.287-.7h0a2.88,2.88,0,0,1,1.977-1.394l2.927-3.183a.928.928,0,0,1,1.565.9l-1.276,4.071A2.153,2.153,0,0,1,51.162,82.654ZM49.271,83.92a1.038,1.038,0,1,0-.632.484A1.043,1.043,0,0,0,49.271,83.92ZM37.9,71.615l2.061,2.061a12.868,12.868,0,0,1,7.484-3.1V67.663A15.809,15.809,0,0,0,37.9,71.615Zm2.72,3.979-.5.529a11.018,11.018,0,0,0-2.656,5.807.928.928,0,0,1-.918.8v0H31.755a.925.925,0,0,1-.911-1.1,17.618,17.618,0,0,1,35.066.081.93.93,0,0,1-.921,1.013v0H60.2a.929.929,0,0,1-.927-.871A10.634,10.634,0,0,0,59,80.552a11,11,0,0,0-10.568-8.158,10.823,10.823,0,0,0-2.91.378,10.939,10.939,0,0,0-4.907,2.822Zm-1.97-.606L36.59,72.931a15.823,15.823,0,0,0-3.782,7.947h2.956A12.922,12.922,0,0,1,38.648,74.989Zm21.515-2.061L58.1,74.989a12.706,12.706,0,0,1,2.88,5.889h2.959A15.846,15.846,0,0,0,60.163,72.927Zm-3.378.749,2.061-2.061A15.8,15.8,0,0,0,49.3,67.66v2.916A12.922,12.922,0,0,1,56.785,73.677Zm.632,7.3a9.363,9.363,0,1,1-11.466-6.623A9.363,9.363,0,0,1,57.417,80.98Zm-2.539,6.176a7.51,7.51,0,1,0-10.259,2.753A7.508,7.508,0,0,0,54.878,87.156Z" transform="translate(0)"/>
    </g>
  </g>
</svg>
