<svg xmlns="http://www.w3.org/2000/svg" xmlns:xlink="http://www.w3.org/1999/xlink" width="98" height="98" viewBox="0 0 98 98">
  <defs>
    <filter id="Trazado_982547" x="0" y="0" width="98" height="98" filterUnits="userSpaceOnUse">
      <feOffset dy="3" input="SourceAlpha"/>
      <feGaussianBlur stdDeviation="3" result="blur"/>
      <feFlood flood-opacity="0.161"/>
      <feComposite operator="in" in2="blur"/>
      <feComposite in="SourceGraphic"/>
    </filter>
  </defs>
  <g id="Grupo_1220377" data-name="Grupo 1220377" transform="translate(-610.5 -884.84)">
    <g id="Grupo_1220111" data-name="Grupo 1220111" transform="translate(332.5 -2537.205)">
      <g id="Grupo_1178491" data-name="Grupo 1178491" transform="translate(287 3428.045)">
        <g id="Grupo_1172010" data-name="Grupo 1172010" transform="translate(0)">
          <g id="Grupo_1171046" data-name="Grupo 1171046">
            <g id="Grupo_1148525" data-name="Grupo 1148525">
              <g transform="matrix(1, 0, 0, 1, -9, -6)" filter="url(#Trazado_982547)">
                <g id="Trazado_982547-2" data-name="Trazado 982547" transform="translate(9 6)" fill="#fdeffe">
                  <path d="M 40 78.5 C 34.80187606811523 78.5 29.76003265380859 77.48227691650391 25.01452255249023 75.47509765625 C 20.43014526367188 73.53606414794922 16.31264495849609 70.75986480712891 12.77638912200928 67.22360992431641 C 9.240133285522461 63.68735504150391 6.46393346786499 59.56985473632812 4.524899959564209 54.98547744750977 C 2.517722129821777 50.23996734619141 1.5 45.19812393188477 1.5 40 C 1.5 34.80187606811523 2.517722129821777 29.76003265380859 4.524899959564209 25.01452255249023 C 6.46393346786499 20.43014526367188 9.240133285522461 16.31264495849609 12.77638912200928 12.77638912200928 C 16.31264495849609 9.240133285522461 20.43014526367188 6.46393346786499 25.01452255249023 4.524899959564209 C 29.76003265380859 2.517722129821777 34.80187606811523 1.5 40 1.5 C 45.19812393188477 1.5 50.23996734619141 2.517722129821777 54.98547744750977 4.524899959564209 C 59.56985473632812 6.46393346786499 63.68735504150391 9.240133285522461 67.22360992431641 12.77638912200928 C 70.75986480712891 16.31264495849609 73.53606414794922 20.43014526367188 75.47509765625 25.01452255249023 C 77.48227691650391 29.76003265380859 78.5 34.80187606811523 78.5 40 C 78.5 45.19812393188477 77.48227691650391 50.23996734619141 75.47509765625 54.98547744750977 C 73.53606414794922 59.56985473632812 70.75986480712891 63.68735504150391 67.22360992431641 67.22360992431641 C 63.68735504150391 70.75986480712891 59.56985473632812 73.53606414794922 54.98547744750977 75.47509765625 C 50.23996734619141 77.48227691650391 45.19812393188477 78.5 40 78.5 Z" stroke="none"/>
                  <path d="M 40 3 C 35.00370788574219 3 30.15846633911133 3.977851867675781 25.59885406494141 5.906410217285156 C 21.19327926635742 7.769813537597656 17.23603820800781 10.43806457519531 13.83705139160156 13.83705139160156 C 10.43806457519531 17.23603820800781 7.769813537597656 21.19327926635742 5.906410217285156 25.59885406494141 C 3.977851867675781 30.15846633911133 3 35.00370788574219 3 40 C 3 44.99629211425781 3.977851867675781 49.84153366088867 5.906410217285156 54.40114593505859 C 7.769813537597656 58.80672073364258 10.43806457519531 62.76396179199219 13.83705139160156 66.16294860839844 C 17.23603820800781 69.56193542480469 21.19327926635742 72.23018646240234 25.59885406494141 74.09358978271484 C 30.15846633911133 76.02214813232422 35.00370788574219 77 40 77 C 44.99629211425781 77 49.84153366088867 76.02214813232422 54.40114593505859 74.09358978271484 C 58.80672073364258 72.23018646240234 62.76396179199219 69.56193542480469 66.16294860839844 66.16294860839844 C 69.56193542480469 62.76396179199219 72.23018646240234 58.80672073364258 74.09358978271484 54.40114593505859 C 76.02214813232422 49.84153366088867 77 44.99629211425781 77 40 C 77 35.00370788574219 76.02214813232422 30.15846633911133 74.09358978271484 25.59885406494141 C 72.23018646240234 21.19327926635742 69.56193542480469 17.23603820800781 66.16294860839844 13.83705139160156 C 62.76396179199219 10.43806457519531 58.80672073364258 7.769813537597656 54.40114593505859 5.906410217285156 C 49.84153366088867 3.977851867675781 44.99629211425781 3 40 3 M 40 0 C 62.09138488769531 0 80 17.90861511230469 80 40 C 80 62.09138488769531 62.09138488769531 80 40 80 C 17.90861511230469 80 0 62.09138488769531 0 40 C 0 17.90861511230469 17.90861511230469 0 40 0 Z" stroke="none" fill="#ee70f7"/>
                </g>
              </g>
            </g>
          </g>
        </g>
      </g>
    </g>
    <g id="target_2598804" transform="translate(586.398 904.5)">
      <path id="Trazado_1044555" data-name="Trazado 1044555" d="M390.963,232.968h-.45l.68-9.238h2.444a3.112,3.112,0,0,1,3.112,3.112v.34A5.786,5.786,0,0,1,390.963,232.968Z" transform="translate(-303.776 -201.05)" fill="#f9a58e"/>
      <path id="Trazado_1044556" data-name="Trazado 1044556" d="M65.755,232.968h.45l-.68-9.238H63.081a3.112,3.112,0,0,0-3.112,3.112v.34A5.786,5.786,0,0,0,65.755,232.968Z" transform="translate(-6.74 -201.05)" fill="#eaac9d"/>
      <path id="Trazado_1044557" data-name="Trazado 1044557" d="M148.607,424.293v-2.648a14.669,14.669,0,0,1-7.407,2.793,14.669,14.669,0,0,1-7.407-2.793v2.648a3.837,3.837,0,0,1-2.177,3.459l-3.13,1.5a.415.415,0,0,0,.18.79h25.069a.415.415,0,0,0,.18-.79l-3.13-1.5A3.837,3.837,0,0,1,148.607,424.293Z" transform="translate(-68.099 -378.902)" fill="#ffcbbe"/>
      <path id="Trazado_1044558" data-name="Trazado 1044558" d="M141.573,60.118a14.544,14.544,0,1,0-29.009,0l.989,13.428c.521,7.079,9.249,11.985,13.516,11.985s12.994-4.906,13.516-11.985Z" transform="translate(-53.967 -39.994)" fill="#ffcbbe"/>
      <path id="Trazado_1044559" data-name="Trazado 1044559" d="M196.789,51.146a14.527,14.527,0,0,1,6.06,12.911l-.989,13.428c-.521,7.079-9.249,11.985-13.516,11.985a9.94,9.94,0,0,1-3.12-.61A14.466,14.466,0,0,0,192.4,91.5c4.267,0,12.994-4.906,13.516-11.985l.989-13.428A14.551,14.551,0,0,0,196.789,51.146Z" transform="translate(-119.297 -45.961)" fill="#eaac9d"/>
      <path id="Trazado_1044560" data-name="Trazado 1044560" d="M176.291,17.635a10.135,10.135,0,1,0-14.791,9h9.312A10.135,10.135,0,0,0,176.291,17.635Z" transform="translate(-93.055 -6.74)" fill="#f1f4f6"/>
      <path id="Trazado_1044561" data-name="Trazado 1044561" d="M201.284,10.289a10.139,10.139,0,0,1-8.828,17.677,10.153,10.153,0,0,0,1.786,1.18h9.312a10.138,10.138,0,0,0-2.269-18.857Z" transform="translate(-125.796 -9.246)" fill="#dfeaef"/>
      <path id="Trazado_1044562" data-name="Trazado 1044562" d="M144.339,129.782a11.306,11.306,0,0,0-1.6,5.1,1.545,1.545,0,0,0,1.542,1.647h5.28A10.154,10.154,0,0,1,144.339,129.782Z" transform="translate(-81.12 -116.626)" fill="#86f1a7"/>
      <path id="Trazado_1044563" data-name="Trazado 1044563" d="M308.751,134.88a11.306,11.306,0,0,0-1.6-5.1,10.154,10.154,0,0,1-5.226,6.744h5.28A1.546,1.546,0,0,0,308.751,134.88Z" transform="translate(-224.172 -116.627)" fill="#80e29d"/>
      <path id="Trazado_1044564" data-name="Trazado 1044564" d="M146.87,176.308h-4.1q-.019.189-.032.38a1.545,1.545,0,0,0,1.542,1.647h5.28A10.172,10.172,0,0,1,146.87,176.308Z" transform="translate(-81.12 -158.435)" fill="#80e29d"/>
      <path id="Trazado_1044565" data-name="Trazado 1044565" d="M188.621,32.5a7.6,7.6,0,1,0,7.6,7.6A7.6,7.6,0,0,0,188.621,32.5Zm0,12.667a5.067,5.067,0,1,1,5.066-5.067A5.072,5.072,0,0,1,188.621,45.167Z" transform="translate(-115.519 -29.205)" fill="#dd5790"/>
      <path id="Trazado_1044566" data-name="Trazado 1044566" d="M256.8,61.823a7.574,7.574,0,0,0-2.011-5.15,10.149,10.149,0,0,1-6.357,12.713,7.68,7.68,0,0,0,.767.038A7.6,7.6,0,0,0,256.8,61.823Z" transform="translate(-176.096 -50.928)" fill="#da387d"/>
      <circle id="Elipse_12676" data-name="Elipse 12676" cx="2.532" cy="2.532" r="2.532" transform="translate(70.569 8.363)" fill="#dd5790"/>
      <path id="Trazado_1044567" data-name="Trazado 1044567" d="M88.106,32.448l-4.064-1.089.683,3.229,4.064,1.089Z" transform="translate(-28.372 -28.18)" fill="#f6e781"/>
      <path id="Trazado_1044568" data-name="Trazado 1044568" d="M73.084,66.753,69.02,65.664l2.206-2.455L75.29,64.3Z" transform="translate(-14.873 -56.801)" fill="#f4dd45"/>
      <g id="Grupo_1220376" data-name="Grupo 1220376" transform="translate(52.469)">
        <path id="Trazado_1044569" data-name="Trazado 1044569" d="M89.862,21.92H88.236l.128-1.74A15.221,15.221,0,0,0,83.578,7.9,10.9,10.9,0,0,0,62.8,7.348l-1.735-.465-.587-2.772a.76.76,0,0,0-.547-.577L55.866,2.445a.761.761,0,0,0-.941.892l.427,2.017A.76.76,0,0,0,54.96,6.82L53.581,8.354A.761.761,0,0,0,53.95,9.6l4.064,1.089a.76.76,0,0,0,.762-.226l1.894-2.108,1.19.319A15.438,15.438,0,0,0,58.9,13.335a.76.76,0,0,0,1.41.569,13.853,13.853,0,0,1,1.9-3.293,11,11,0,0,0,.2,2.417A11.985,11.985,0,0,0,60.865,18.2a2.307,2.307,0,0,0,2.3,2.458H83.037a2.307,2.307,0,0,0,2.3-2.458,11.985,11.985,0,0,0-1.549-5.175,10.993,10.993,0,0,0,.2-2.424,13.7,13.7,0,0,1,2.855,9.464L85.859,33.5C85.393,39.824,77.4,44.776,73.1,44.776c-4.409,0-12.3-5.054-12.757-11.281l-.989-13.428a13.913,13.913,0,0,1,.091-2.918.76.76,0,0,0-1.506-.208,20.808,20.808,0,0,0,.027,4.978H56.341a3.876,3.876,0,0,0-3.872,3.872v.34a6.554,6.554,0,0,0,6.29,6.541l.069.933c.291,3.948,2.962,7.273,6.107,9.528v2.256a3.092,3.092,0,0,1-1.746,2.774l-3.13,1.5a1.175,1.175,0,0,0,.509,2.235H85.636a1.175,1.175,0,0,0,.508-2.235l-3.13-1.5a3.093,3.093,0,0,1-1.746-2.774V43.135c3.145-2.255,5.816-5.58,6.107-9.528l.069-.933a6.554,6.554,0,0,0,6.29-6.541v-.34a3.876,3.876,0,0,0-3.872-3.872ZM73.1,1.521A9.375,9.375,0,0,1,77.568,19.14H74.5A8.374,8.374,0,0,0,79.888,6.01a.76.76,0,1,0-1.233.889A6.841,6.841,0,1,1,66.338,9.87l.987.264a5.821,5.821,0,0,0,2.015,5.207.76.76,0,0,0,.983-1.16,4.3,4.3,0,0,1-1.512-3.649l1,.268A3.293,3.293,0,1,0,70.2,9.332l-1-.268A4.306,4.306,0,1,1,73.1,15.2a.76.76,0,1,0,0,1.521,5.827,5.827,0,1,0-5.383-8.056L66.731,8.4a6.851,6.851,0,0,1,9.514-3.583.76.76,0,0,0,.7-1.35A8.365,8.365,0,0,0,65.255,8.006l-.983-.263A9.391,9.391,0,0,1,73.1,1.521ZM68.635,19.14a9.364,9.364,0,0,1-4.756-9.929l.983.263A8.372,8.372,0,0,0,71.7,19.14ZM73.3,10.161l-1.545-.414a1.771,1.771,0,1,1-.395,1.468l1.546.414a.76.76,0,0,0,.394-1.469ZM59.087,4.882l.33,1.56L57,5.794l-.33-1.56ZM57.957,9.1l-2.417-.647,1.066-1.186,2.417.648ZM62.382,18.3a10.531,10.531,0,0,1,.692-3.133,10.844,10.844,0,0,0,2.9,3.97H63.166a.784.784,0,0,1-.784-.837Zm21.439,0a.784.784,0,0,1-.784.836H80.23a10.845,10.845,0,0,0,2.9-3.97A10.526,10.526,0,0,1,83.821,18.3ZM53.99,26.132v-.34a2.354,2.354,0,0,1,2.352-2.352h1.738l.567,7.7a5.033,5.033,0,0,1-4.657-5.012Zm28.367,23.4,1.763.846H62.084l1.763-.846a4.621,4.621,0,0,0,2.608-4.145V44.123A14.262,14.262,0,0,0,73.1,46.3a14.262,14.262,0,0,0,6.646-2.174v1.268a4.621,4.621,0,0,0,2.609,4.145Zm9.857-23.4a5.032,5.032,0,0,1-4.657,5.012l.567-7.7h1.738a2.354,2.354,0,0,1,2.352,2.352v.34Z" transform="translate(-52.469)" fill="#222221"/>
        <path id="Trazado_1044570" data-name="Trazado 1044570" d="M175.583,238.288h-6.059a.76.76,0,0,0,0,1.521h6.059a.76.76,0,1,0,0-1.521Z" transform="translate(-156.975 -214.132)" fill="#222221"/>
        <path id="Trazado_1044571" data-name="Trazado 1044571" d="M252.045,245.061v-3.989a1.266,1.266,0,0,1,1.264-1.264h4.034a.76.76,0,0,0,0-1.521h-4.034a2.788,2.788,0,0,0-2.785,2.785v3.989a1.266,1.266,0,0,1-1.264,1.264.76.76,0,1,0,0,1.521A2.788,2.788,0,0,0,252.045,245.061Z" transform="translate(-228.628 -214.131)" fill="#222221"/>
        <path id="Trazado_1044572" data-name="Trazado 1044572" d="M200.695,368.71a.76.76,0,1,0-.682,1.359l.636.319a10.444,10.444,0,0,0,9.324,0l.636-.319a.76.76,0,0,0-.682-1.359l-.636.319a8.917,8.917,0,0,1-7.961,0Z" transform="translate(-184.679 -331.26)" fill="#222221"/>
      </g>
    </g>
  </g>
</svg>
