<svg xmlns="http://www.w3.org/2000/svg" xmlns:xlink="http://www.w3.org/1999/xlink" width="98" height="98" viewBox="0 0 98 98">
  <defs>
    <filter id="Trazado_982547" x="0" y="0" width="98" height="98" filterUnits="userSpaceOnUse">
      <feOffset dy="3" input="SourceAlpha"/>
      <feGaussianBlur stdDeviation="3" result="blur"/>
      <feFlood flood-opacity="0.161"/>
      <feComposite operator="in" in2="blur"/>
      <feComposite in="SourceGraphic"/>
    </filter>
  </defs>
  <g id="Grupo_1220280" data-name="Grupo 1220280" transform="translate(-1030 -951.34)">
    <g id="Grupo_1178929" data-name="Grupo 1178929" transform="translate(752 -2470.705)">
      <g id="Grupo_1178491" data-name="Grupo 1178491" transform="translate(287 3428.045)">
        <g id="Grupo_1172010" data-name="Grupo 1172010" transform="translate(0)">
          <g id="Grupo_1171046" data-name="Grupo 1171046">
            <g id="Grupo_1148525" data-name="Grupo 1148525">
              <g transform="matrix(1, 0, 0, 1, -9, -6)" filter="url(#Trazado_982547)">
                <g id="Trazado_982547-2" data-name="Trazado 982547" transform="translate(9 6)" fill="#fdeffe">
                  <path d="M 40 78.5 C 34.80187606811523 78.5 29.76003265380859 77.48227691650391 25.01452255249023 75.47509765625 C 20.43014526367188 73.53606414794922 16.31264495849609 70.75986480712891 12.77638912200928 67.22360992431641 C 9.240133285522461 63.68735504150391 6.46393346786499 59.56985473632812 4.524899959564209 54.98547744750977 C 2.517722129821777 50.23996734619141 1.5 45.19812393188477 1.5 40 C 1.5 34.80187606811523 2.517722129821777 29.76003265380859 4.524899959564209 25.01452255249023 C 6.46393346786499 20.43014526367188 9.240133285522461 16.31264495849609 12.77638912200928 12.77638912200928 C 16.31264495849609 9.240133285522461 20.43014526367188 6.46393346786499 25.01452255249023 4.524899959564209 C 29.76003265380859 2.517722129821777 34.80187606811523 1.5 40 1.5 C 45.19812393188477 1.5 50.23996734619141 2.517722129821777 54.98547744750977 4.524899959564209 C 59.56985473632812 6.46393346786499 63.68735504150391 9.240133285522461 67.22360992431641 12.77638912200928 C 70.75986480712891 16.31264495849609 73.53606414794922 20.43014526367188 75.47509765625 25.01452255249023 C 77.48227691650391 29.76003265380859 78.5 34.80187606811523 78.5 40 C 78.5 45.19812393188477 77.48227691650391 50.23996734619141 75.47509765625 54.98547744750977 C 73.53606414794922 59.56985473632812 70.75986480712891 63.68735504150391 67.22360992431641 67.22360992431641 C 63.68735504150391 70.75986480712891 59.56985473632812 73.53606414794922 54.98547744750977 75.47509765625 C 50.23996734619141 77.48227691650391 45.19812393188477 78.5 40 78.5 Z" stroke="none"/>
                  <path d="M 40 3 C 35.00370788574219 3 30.15846633911133 3.977851867675781 25.59885406494141 5.906410217285156 C 21.19327926635742 7.769813537597656 17.23603820800781 10.43806457519531 13.83705139160156 13.83705139160156 C 10.43806457519531 17.23603820800781 7.769813537597656 21.19327926635742 5.906410217285156 25.59885406494141 C 3.977851867675781 30.15846633911133 3 35.00370788574219 3 40 C 3 44.99629211425781 3.977851867675781 49.84153366088867 5.906410217285156 54.40114593505859 C 7.769813537597656 58.80672073364258 10.43806457519531 62.76396179199219 13.83705139160156 66.16294860839844 C 17.23603820800781 69.56193542480469 21.19327926635742 72.23018646240234 25.59885406494141 74.09358978271484 C 30.15846633911133 76.02214813232422 35.00370788574219 77 40 77 C 44.99629211425781 77 49.84153366088867 76.02214813232422 54.40114593505859 74.09358978271484 C 58.80672073364258 72.23018646240234 62.76396179199219 69.56193542480469 66.16294860839844 66.16294860839844 C 69.56193542480469 62.76396179199219 72.23018646240234 58.80672073364258 74.09358978271484 54.40114593505859 C 76.02214813232422 49.84153366088867 77 44.99629211425781 77 40 C 77 35.00370788574219 76.02214813232422 30.15846633911133 74.09358978271484 25.59885406494141 C 72.23018646240234 21.19327926635742 69.56193542480469 17.23603820800781 66.16294860839844 13.83705139160156 C 62.76396179199219 10.43806457519531 58.80672073364258 7.769813537597656 54.40114593505859 5.906410217285156 C 49.84153366088867 3.977851867675781 44.99629211425781 3 40 3 M 40 0 C 62.09138488769531 0 80 17.90861511230469 80 40 C 80 62.09138488769531 62.09138488769531 80 40 80 C 17.90861511230469 80 0 62.09138488769531 0 40 C 0 17.90861511230469 17.90861511230469 0 40 0 Z" stroke="none" fill="#ee70f7"/>
                </g>
              </g>
            </g>
          </g>
        </g>
      </g>
    </g>
    <g id="growth-chart_7655710" transform="translate(1049.445 966.7)">
      <g id="Grupo_1220263" data-name="Grupo 1220263" transform="translate(1.919 11.919)">
        <g id="Grupo_1220251" data-name="Grupo 1220251" transform="translate(3.566)">
          <path id="Trazado_1044267" data-name="Trazado 1044267" d="M50.574,12H9.566A3.565,3.565,0,0,0,6,15.566V44.093H54.14V15.566A3.565,3.565,0,0,0,50.574,12Z" transform="translate(-6 -12)" fill="#e2e2e2"/>
        </g>
        <g id="Grupo_1220252" data-name="Grupo 1220252" transform="translate(22.831)" opacity="0.4">
          <path id="Trazado_1044268" data-name="Trazado 1044268" d="M52.919,12h-24.3A25.757,25.757,0,0,0,47.009,44.093h9.476V15.566A3.565,3.565,0,0,0,52.919,12Z" transform="translate(-27.61 -12)" fill="#fff"/>
        </g>
        <g id="Grupo_1220253" data-name="Grupo 1220253" transform="translate(0 32.093)">
          <path id="Trazado_1044269" data-name="Trazado 1044269" d="M2,48a5.353,5.353,0,0,0,5.349,5.349H51.923A5.353,5.353,0,0,0,57.272,48Z" transform="translate(-2 -48)" fill="#4e6575"/>
        </g>
        <g id="Grupo_1220254" data-name="Grupo 1220254" transform="translate(30.141 32.093)" opacity="0.3">
          <path id="Trazado_1044270" data-name="Trazado 1044270" d="M40.677,51.138H59.916A5.308,5.308,0,0,0,60.941,48H35.81a5.343,5.343,0,0,0,4.867,3.138Z" transform="translate(-35.81 -48)" fill="#e2e2e2"/>
        </g>
        <g id="Grupo_1220255" data-name="Grupo 1220255" transform="translate(7.132 3.566)">
          <path id="Trazado_1044271" data-name="Trazado 1044271" d="M10,16H51.008V40.961H10Z" transform="translate(-10 -16)" fill="#7cb5e8"/>
        </g>
        <g id="Grupo_1220260" data-name="Grupo 1220260" transform="translate(20.754 3.566)">
          <g id="Grupo_1220257" data-name="Grupo 1220257" opacity="0.3">
            <g id="Grupo_1220256" data-name="Grupo 1220256">
              <path id="Trazado_1044272" data-name="Trazado 1044272" d="M25.28,20.725A10.573,10.573,0,0,0,35.853,31.3H52.666V16H25.28Z" transform="translate(-25.28 -16)" fill="#fff"/>
            </g>
          </g>
          <g id="Grupo_1220259" data-name="Grupo 1220259" transform="translate(9.191)" opacity="0.3">
            <g id="Grupo_1220258" data-name="Grupo 1220258">
              <path id="Trazado_1044273" data-name="Trazado 1044273" d="M53.785,22.677V16H35.59A2.808,2.808,0,0,0,38.4,18.808H51.307V20.2A2.484,2.484,0,0,0,53.785,22.677Z" transform="translate(-35.59 -16)" fill="#fff"/>
            </g>
          </g>
        </g>
        <g id="Grupo_1220261" data-name="Grupo 1220261" transform="translate(10.698 6.9)">
          <circle id="Elipse_12657" data-name="Elipse 12657" cx="6.24" cy="6.24" r="6.24" fill="#ffab03"/>
        </g>
        <g id="Grupo_1220262" data-name="Grupo 1220262" transform="translate(14.718 6.9)" opacity="0.3">
          <path id="Trazado_1044274" data-name="Trazado 1044274" d="M20.73,19.74a6.206,6.206,0,0,0-1.917.3A6.236,6.236,0,0,0,26.667,27.9,6.236,6.236,0,0,0,20.73,19.74Z" transform="translate(-18.51 -19.74)" fill="#fff"/>
        </g>
      </g>
      <g id="Grupo_1220279" data-name="Grupo 1220279" transform="translate(1.25 11.25)">
        <g id="Grupo_1220264" data-name="Grupo 1220264" transform="translate(0 32.093)">
          <path id="Trazado_1044275" data-name="Trazado 1044275" d="M51.841,53.936H10.414a.669.669,0,1,1,0-1.337H51.841a4.7,4.7,0,0,0,4.636-4.012H2.632A4.7,4.7,0,0,0,7.267,52.6a.669.669,0,1,1,0,1.337A6.027,6.027,0,0,1,1.25,47.919a.673.673,0,0,1,.669-.669H57.19a.673.673,0,0,1,.669.669A6.027,6.027,0,0,1,51.841,53.936Z" transform="translate(-1.25 -47.25)"/>
        </g>
        <g id="Grupo_1220265" data-name="Grupo 1220265" transform="translate(3.566)">
          <path id="Trazado_1044276" data-name="Trazado 1044276" d="M5.919,44.68a.673.673,0,0,1-.669-.669V15.485A4.238,4.238,0,0,1,9.485,11.25H50.493a4.238,4.238,0,0,1,4.235,4.235V38.663a.669.669,0,1,1-1.337,0V15.485a2.9,2.9,0,0,0-2.9-2.9H9.485a2.9,2.9,0,0,0-2.9,2.9V44.012A.673.673,0,0,1,5.919,44.68Z" transform="translate(-5.25 -11.25)"/>
        </g>
        <g id="Grupo_1220266" data-name="Grupo 1220266" transform="translate(51.706 29.419)">
          <path id="Trazado_1044277" data-name="Trazado 1044277" d="M59.919,48.262a.673.673,0,0,1-.669-.669V44.919a.669.669,0,1,1,1.337,0v2.674A.673.673,0,0,1,59.919,48.262Z" transform="translate(-59.25 -44.25)"/>
        </g>
        <g id="Grupo_1220267" data-name="Grupo 1220267" transform="translate(7.132 3.566)">
          <path id="Trazado_1044278" data-name="Trazado 1044278" d="M50.927,41.549H9.919a.673.673,0,0,1-.669-.669V15.919a.673.673,0,0,1,.669-.669h4.769a.669.669,0,0,1,0,1.337h-4.1V40.211H50.258V16.587H17.38a.669.669,0,1,1,0-1.337H50.927a.673.673,0,0,1,.669.669V40.88A.673.673,0,0,1,50.927,41.549Z" transform="translate(-9.25 -15.25)"/>
        </g>
        <g id="Grupo_1220268" data-name="Grupo 1220268" transform="translate(34.643 7.132)">
          <path id="Trazado_1044279" data-name="Trazado 1044279" d="M45.236,25.045a.673.673,0,0,1-.669-.669V20.587H40.779a.669.669,0,0,1,0-1.337h4.457a.673.673,0,0,1,.669.669v4.457A.668.668,0,0,1,45.236,25.045Z" transform="translate(-40.11 -19.25)"/>
        </g>
        <g id="Grupo_1220270" data-name="Grupo 1220270" transform="translate(21.523 7.134)">
          <g id="Grupo_1220269" data-name="Grupo 1220269">
            <path id="Trazado_1044280" data-name="Trazado 1044280" d="M26.059,38.167a.661.661,0,0,1-.472-.2.673.673,0,0,1,0-.945l17.58-17.58a.668.668,0,0,1,.945.945l-17.58,17.58A.661.661,0,0,1,26.059,38.167Z" transform="translate(-25.392 -19.252)"/>
          </g>
        </g>
        <g id="Grupo_1220271" data-name="Grupo 1220271" transform="translate(41.008 15.155)">
          <path id="Trazado_1044281" data-name="Trazado 1044281" d="M47.919,39.393a.673.673,0,0,1-.669-.669V28.919a.669.669,0,0,1,1.337,0v9.806A.673.673,0,0,1,47.919,39.393Z" transform="translate(-47.25 -28.25)"/>
        </g>
        <g id="Grupo_1220272" data-name="Grupo 1220272" transform="translate(44.574 12.481)">
          <path id="Trazado_1044282" data-name="Trazado 1044282" d="M51.919,39.068a.673.673,0,0,1-.669-.669V25.919a.669.669,0,1,1,1.337,0V38.4A.673.673,0,0,1,51.919,39.068Z" transform="translate(-51.25 -25.25)"/>
        </g>
        <g id="Grupo_1220273" data-name="Grupo 1220273" transform="translate(37.442 17.83)">
          <path id="Trazado_1044283" data-name="Trazado 1044283" d="M43.919,39.719a.673.673,0,0,1-.669-.669V31.919a.669.669,0,1,1,1.337,0V39.05A.673.673,0,0,1,43.919,39.719Z" transform="translate(-43.25 -31.25)"/>
        </g>
        <g id="Grupo_1220274" data-name="Grupo 1220274" transform="translate(33.876 20.504)">
          <path id="Trazado_1044284" data-name="Trazado 1044284" d="M39.919,40.045a.673.673,0,0,1-.669-.669V34.919a.669.669,0,0,1,1.337,0v4.457A.673.673,0,0,1,39.919,40.045Z" transform="translate(-39.25 -34.25)"/>
        </g>
        <g id="Grupo_1220275" data-name="Grupo 1220275" transform="translate(10.698 7.132)">
          <path id="Trazado_1044285" data-name="Trazado 1044285" d="M20.159,33.068a6.909,6.909,0,1,1,6.909-6.909A6.921,6.921,0,0,1,20.159,33.068Zm0-12.481a5.572,5.572,0,1,0,5.572,5.572A5.574,5.574,0,0,0,20.159,20.587Z" transform="translate(-13.25 -19.25)"/>
        </g>
        <g id="Grupo_1220276" data-name="Grupo 1220276" transform="translate(15.601 10.698)">
          <path id="Trazado_1044286" data-name="Trazado 1044286" d="M20.756,29.936A2.009,2.009,0,0,1,18.75,27.93a.669.669,0,1,1,1.337,0,.669.669,0,1,0,.669-.669,2.006,2.006,0,1,1,2.006-2.006.669.669,0,0,1-1.337,0,.669.669,0,1,0-.669.669,2.006,2.006,0,1,1,0,4.012Z" transform="translate(-18.75 -23.25)"/>
        </g>
        <g id="Grupo_1220277" data-name="Grupo 1220277" transform="translate(16.938 9.771)">
          <path id="Trazado_1044287" data-name="Trazado 1044287" d="M20.919,24.474a.673.673,0,0,1-.669-.669v-.927a.669.669,0,1,1,1.337,0v.927A.673.673,0,0,1,20.919,24.474Z" transform="translate(-20.25 -22.21)"/>
        </g>
        <g id="Grupo_1220278" data-name="Grupo 1220278" transform="translate(16.938 16.047)">
          <path id="Trazado_1044288" data-name="Trazado 1044288" d="M20.919,31.514a.673.673,0,0,1-.669-.669v-.927a.669.669,0,1,1,1.337,0v.927A.673.673,0,0,1,20.919,31.514Z" transform="translate(-20.25 -29.25)"/>
        </g>
      </g>
    </g>
  </g>
</svg>
