<svg xmlns="http://www.w3.org/2000/svg" xmlns:xlink="http://www.w3.org/1999/xlink" width="98" height="98" viewBox="0 0 98 98">
  <defs>
    <filter id="Trazado_982547" x="0" y="0" width="98" height="98" filterUnits="userSpaceOnUse">
      <feOffset dy="3" input="SourceAlpha"/>
      <feGaussianBlur stdDeviation="3" result="blur"/>
      <feFlood flood-opacity="0.161"/>
      <feComposite operator="in" in2="blur"/>
      <feComposite in="SourceGraphic"/>
    </filter>
  </defs>
  <g id="Grupo_1220396" data-name="Grupo 1220396" transform="translate(-191 -1044.84)">
    <g id="Grupo_1220115" data-name="Grupo 1220115" transform="translate(-87 -2377.205)">
      <g id="Grupo_1178491" data-name="Grupo 1178491" transform="translate(287 3428.045)">
        <g id="Grupo_1172010" data-name="Grupo 1172010" transform="translate(0)">
          <g id="Grupo_1171046" data-name="Grupo 1171046">
            <g id="Grupo_1148525" data-name="Grupo 1148525">
              <g transform="matrix(1, 0, 0, 1, -9, -6)" filter="url(#Trazado_982547)">
                <g id="Trazado_982547-2" data-name="Trazado 982547" transform="translate(9 6)" fill="#fdeffe">
                  <path d="M 40 78.5 C 34.80187606811523 78.5 29.76003265380859 77.48227691650391 25.01452255249023 75.47509765625 C 20.43014526367188 73.53606414794922 16.31264495849609 70.75986480712891 12.77638912200928 67.22360992431641 C 9.240133285522461 63.68735504150391 6.46393346786499 59.56985473632812 4.524899959564209 54.98547744750977 C 2.517722129821777 50.23996734619141 1.5 45.19812393188477 1.5 40 C 1.5 34.80187606811523 2.517722129821777 29.76003265380859 4.524899959564209 25.01452255249023 C 6.46393346786499 20.43014526367188 9.240133285522461 16.31264495849609 12.77638912200928 12.77638912200928 C 16.31264495849609 9.240133285522461 20.43014526367188 6.46393346786499 25.01452255249023 4.524899959564209 C 29.76003265380859 2.517722129821777 34.80187606811523 1.5 40 1.5 C 45.19812393188477 1.5 50.23996734619141 2.517722129821777 54.98547744750977 4.524899959564209 C 59.56985473632812 6.46393346786499 63.68735504150391 9.240133285522461 67.22360992431641 12.77638912200928 C 70.75986480712891 16.31264495849609 73.53606414794922 20.43014526367188 75.47509765625 25.01452255249023 C 77.48227691650391 29.76003265380859 78.5 34.80187606811523 78.5 40 C 78.5 45.19812393188477 77.48227691650391 50.23996734619141 75.47509765625 54.98547744750977 C 73.53606414794922 59.56985473632812 70.75986480712891 63.68735504150391 67.22360992431641 67.22360992431641 C 63.68735504150391 70.75986480712891 59.56985473632812 73.53606414794922 54.98547744750977 75.47509765625 C 50.23996734619141 77.48227691650391 45.19812393188477 78.5 40 78.5 Z" stroke="none"/>
                  <path d="M 40 3 C 35.00370788574219 3 30.15846633911133 3.977851867675781 25.59885406494141 5.906410217285156 C 21.19327926635742 7.769813537597656 17.23603820800781 10.43806457519531 13.83705139160156 13.83705139160156 C 10.43806457519531 17.23603820800781 7.769813537597656 21.19327926635742 5.906410217285156 25.59885406494141 C 3.977851867675781 30.15846633911133 3 35.00370788574219 3 40 C 3 44.99629211425781 3.977851867675781 49.84153366088867 5.906410217285156 54.40114593505859 C 7.769813537597656 58.80672073364258 10.43806457519531 62.76396179199219 13.83705139160156 66.16294860839844 C 17.23603820800781 69.56193542480469 21.19327926635742 72.23018646240234 25.59885406494141 74.09358978271484 C 30.15846633911133 76.02214813232422 35.00370788574219 77 40 77 C 44.99629211425781 77 49.84153366088867 76.02214813232422 54.40114593505859 74.09358978271484 C 58.80672073364258 72.23018646240234 62.76396179199219 69.56193542480469 66.16294860839844 66.16294860839844 C 69.56193542480469 62.76396179199219 72.23018646240234 58.80672073364258 74.09358978271484 54.40114593505859 C 76.02214813232422 49.84153366088867 77 44.99629211425781 77 40 C 77 35.00370788574219 76.02214813232422 30.15846633911133 74.09358978271484 25.59885406494141 C 72.23018646240234 21.19327926635742 69.56193542480469 17.23603820800781 66.16294860839844 13.83705139160156 C 62.76396179199219 10.43806457519531 58.80672073364258 7.769813537597656 54.40114593505859 5.906410217285156 C 49.84153366088867 3.977851867675781 44.99629211425781 3 40 3 M 40 0 C 62.09138488769531 0 80 17.90861511230469 80 40 C 80 62.09138488769531 62.09138488769531 80 40 80 C 17.90861511230469 80 0 62.09138488769531 0 40 C 0 17.90861511230469 17.90861511230469 0 40 0 Z" stroke="none" fill="#ee70f7"/>
                </g>
              </g>
            </g>
          </g>
        </g>
      </g>
    </g>
    <g id="geotargeting_18584668" transform="translate(128.894 1053.914)">
      <g id="Grupo_1220395" data-name="Grupo 1220395" transform="translate(92.84 8.82)">
        <ellipse id="Elipse_12677" data-name="Elipse 12677" cx="18.266" cy="5.714" rx="18.266" ry="5.714" transform="translate(0 44.784)" fill="#c6ea94"/>
        <g id="Grupo_1220393" data-name="Grupo 1220393" transform="translate(0.39 0)">
          <path id="Trazado_1044594" data-name="Trazado 1044594" d="M120.225,66.346s-17.877-22.788-17.877-32.555c0-10.371,8.01-18.791,17.877-18.791S138.1,23.42,138.1,33.791C138.1,43.558,120.225,66.346,120.225,66.346Z" transform="translate(-102.348 -15)" fill="#f76c82" fill-rule="evenodd"/>
          <circle id="Elipse_12678" data-name="Elipse 12678" cx="13.33" cy="13.33" r="13.33" transform="translate(4.546 4.89)" fill="#f4f6f8"/>
        </g>
        <g id="Grupo_1220394" data-name="Grupo 1220394" transform="translate(11.853 9.867)">
          <path id="Trazado_1044595" data-name="Trazado 1044595" d="M229.689,102.221a2.964,2.964,0,1,0,2.965-2.964A2.964,2.964,0,0,0,229.689,102.221Z" transform="translate(-226.24 -99.257)" fill="#efc7a4" fill-rule="evenodd"/>
          <path id="Trazado_1044596" data-name="Trazado 1044596" d="M213.064,170.875c0,3.542-12.826,3.542-12.826,0a6.413,6.413,0,1,1,12.826,0Z" transform="translate(-200.238 -156.825)" fill="#66d4f1" fill-rule="evenodd"/>
        </g>
      </g>
      <path id="Trazado_1044597" data-name="Trazado 1044597" d="M117.291,53.116c5.007.558,9.043,1.785,11.113,3.3a3.716,3.716,0,0,1,1.789,2.9c0,1.174-.82,2.352-2.437,3.327-3.122,1.883-9.406,3.207-16.65,3.207s-13.527-1.324-16.65-3.207c-1.617-.975-2.437-2.153-2.437-3.327a3.716,3.716,0,0,1,1.789-2.9c2.07-1.519,6.106-2.747,11.113-3.3A134.133,134.133,0,0,1,96.364,39.33c-2.326-4.447-3.955-8.694-3.955-11.719C92.41,16.776,100.8,8,111.106,8s18.7,8.776,18.7,19.611c0,3.025-1.629,7.272-3.955,11.719a134.134,134.134,0,0,1-8.558,13.786ZM106,54.653a29.1,29.1,0,0,0-10.255,2.49,5.818,5.818,0,0,0-1.635,1.191,1.515,1.515,0,0,0-.455.984,1.735,1.735,0,0,0,.673,1.208,8.139,8.139,0,0,0,2.355,1.412c3.252,1.387,8.5,2.275,14.418,2.275s11.166-.887,14.418-2.275a8.139,8.139,0,0,0,2.355-1.412,1.735,1.735,0,0,0,.673-1.208,1.515,1.515,0,0,0-.455-.984,5.818,5.818,0,0,0-1.635-1.191,29.1,29.1,0,0,0-10.255-2.49c-2.561,3.6-4.457,6.019-4.457,6.019a.82.82,0,0,1-1.29,0S108.565,58.254,106,54.653Zm5.1,4.17A160.648,160.648,0,0,0,124.4,38.57c2.179-4.167,3.768-8.124,3.768-10.959,0-9.908-7.631-17.972-17.057-17.972S94.049,17.7,94.049,27.611c0,2.835,1.589,6.792,3.768,10.959a160.636,160.636,0,0,0,13.289,20.253ZM96.98,27.86h-.8a.82.82,0,1,1,0-1.64h.8a14.16,14.16,0,0,1,13.307-13.307v-.8a.82.82,0,0,1,1.64,0v.8A14.16,14.16,0,0,1,125.233,26.22h.8a.82.82,0,0,1,0,1.64h-.8a14.16,14.16,0,0,1-13.307,13.307v.8a.82.82,0,0,1-1.64,0v-.8A14.16,14.16,0,0,1,96.98,27.86Zm13.307-13.3A12.52,12.52,0,0,0,98.622,26.22h.747a.82.82,0,0,1,0,1.64h-.747a12.52,12.52,0,0,0,11.664,11.664v-.746a.82.82,0,0,1,1.64,0v.746A12.52,12.52,0,0,0,123.59,27.86h-.747a.82.82,0,1,1,0-1.64h.747a12.52,12.52,0,0,0-11.664-11.664V15.3a.82.82,0,0,1-1.64,0Zm-2.964,7.095a3.784,3.784,0,1,1,3.784,3.784,3.784,3.784,0,0,1-3.784-3.784Zm1.64,0a2.144,2.144,0,1,0,2.145-2.144,2.144,2.144,0,0,0-2.145,2.144Zm9.377,11.086a2.811,2.811,0,0,1-1.777,2.428,14.725,14.725,0,0,1-10.912,0,2.811,2.811,0,0,1-1.777-2.428,7.233,7.233,0,1,1,14.466,0Zm-1.64,0a5.593,5.593,0,1,0-11.187,0c0,.432.39.713.891.972a13.221,13.221,0,0,0,9.4,0C116.309,33.449,116.7,33.169,116.7,32.736Z" fill-rule="evenodd"/>
    </g>
  </g>
</svg>
