<svg xmlns="http://www.w3.org/2000/svg" xmlns:xlink="http://www.w3.org/1999/xlink" width="98" height="98" viewBox="0 0 98 98">
  <defs>
    <filter id="Trazado_982547" x="0" y="0" width="98" height="98" filterUnits="userSpaceOnUse">
      <feOffset dy="3" input="SourceAlpha"/>
      <feGaussianBlur stdDeviation="3" result="blur"/>
      <feFlood flood-opacity="0.161"/>
      <feComposite operator="in" in2="blur"/>
      <feComposite in="SourceGraphic"/>
    </filter>
  </defs>
  <g id="Grupo_1220401" data-name="Grupo 1220401" transform="translate(-610.5 -1044.84)">
    <g id="Grupo_1220114" data-name="Grupo 1220114" transform="translate(332.5 -2377.205)">
      <g id="Grupo_1178491" data-name="Grupo 1178491" transform="translate(287 3428.045)">
        <g id="Grupo_1172010" data-name="Grupo 1172010" transform="translate(0)">
          <g id="Grupo_1171046" data-name="Grupo 1171046">
            <g id="Grupo_1148525" data-name="Grupo 1148525">
              <g transform="matrix(1, 0, 0, 1, -9, -6)" filter="url(#Trazado_982547)">
                <g id="Trazado_982547-2" data-name="Trazado 982547" transform="translate(9 6)" fill="#fdeffe">
                  <path d="M 40 78.5 C 34.80187606811523 78.5 29.76003265380859 77.48227691650391 25.01452255249023 75.47509765625 C 20.43014526367188 73.53606414794922 16.31264495849609 70.75986480712891 12.77638912200928 67.22360992431641 C 9.240133285522461 63.68735504150391 6.46393346786499 59.56985473632812 4.524899959564209 54.98547744750977 C 2.517722129821777 50.23996734619141 1.5 45.19812393188477 1.5 40 C 1.5 34.80187606811523 2.517722129821777 29.76003265380859 4.524899959564209 25.01452255249023 C 6.46393346786499 20.43014526367188 9.240133285522461 16.31264495849609 12.77638912200928 12.77638912200928 C 16.31264495849609 9.240133285522461 20.43014526367188 6.46393346786499 25.01452255249023 4.524899959564209 C 29.76003265380859 2.517722129821777 34.80187606811523 1.5 40 1.5 C 45.19812393188477 1.5 50.23996734619141 2.517722129821777 54.98547744750977 4.524899959564209 C 59.56985473632812 6.46393346786499 63.68735504150391 9.240133285522461 67.22360992431641 12.77638912200928 C 70.75986480712891 16.31264495849609 73.53606414794922 20.43014526367188 75.47509765625 25.01452255249023 C 77.48227691650391 29.76003265380859 78.5 34.80187606811523 78.5 40 C 78.5 45.19812393188477 77.48227691650391 50.23996734619141 75.47509765625 54.98547744750977 C 73.53606414794922 59.56985473632812 70.75986480712891 63.68735504150391 67.22360992431641 67.22360992431641 C 63.68735504150391 70.75986480712891 59.56985473632812 73.53606414794922 54.98547744750977 75.47509765625 C 50.23996734619141 77.48227691650391 45.19812393188477 78.5 40 78.5 Z" stroke="none"/>
                  <path d="M 40 3 C 35.00370788574219 3 30.15846633911133 3.977851867675781 25.59885406494141 5.906410217285156 C 21.19327926635742 7.769813537597656 17.23603820800781 10.43806457519531 13.83705139160156 13.83705139160156 C 10.43806457519531 17.23603820800781 7.769813537597656 21.19327926635742 5.906410217285156 25.59885406494141 C 3.977851867675781 30.15846633911133 3 35.00370788574219 3 40 C 3 44.99629211425781 3.977851867675781 49.84153366088867 5.906410217285156 54.40114593505859 C 7.769813537597656 58.80672073364258 10.43806457519531 62.76396179199219 13.83705139160156 66.16294860839844 C 17.23603820800781 69.56193542480469 21.19327926635742 72.23018646240234 25.59885406494141 74.09358978271484 C 30.15846633911133 76.02214813232422 35.00370788574219 77 40 77 C 44.99629211425781 77 49.84153366088867 76.02214813232422 54.40114593505859 74.09358978271484 C 58.80672073364258 72.23018646240234 62.76396179199219 69.56193542480469 66.16294860839844 66.16294860839844 C 69.56193542480469 62.76396179199219 72.23018646240234 58.80672073364258 74.09358978271484 54.40114593505859 C 76.02214813232422 49.84153366088867 77 44.99629211425781 77 40 C 77 35.00370788574219 76.02214813232422 30.15846633911133 74.09358978271484 25.59885406494141 C 72.23018646240234 21.19327926635742 69.56193542480469 17.23603820800781 66.16294860839844 13.83705139160156 C 62.76396179199219 10.43806457519531 58.80672073364258 7.769813537597656 54.40114593505859 5.906410217285156 C 49.84153366088867 3.977851867675781 44.99629211425781 3 40 3 M 40 0 C 62.09138488769531 0 80 17.90861511230469 80 40 C 80 62.09138488769531 62.09138488769531 80 40 80 C 17.90861511230469 80 0 62.09138488769531 0 40 C 0 17.90861511230469 17.90861511230469 0 40 0 Z" stroke="none" fill="#ee70f7"/>
                </g>
              </g>
            </g>
          </g>
        </g>
      </g>
    </g>
    <g id="Artboard1" transform="translate(635 1067)">
      <path id="Trazado_1044598" data-name="Trazado 1044598" d="M37.11,32.581H21.471A1.47,1.47,0,0,1,20,31.11V15.471A1.47,1.47,0,0,1,21.471,14H37.11a1.47,1.47,0,0,1,1.471,1.471V31.11A1.47,1.47,0,0,1,37.11,32.581Z" transform="translate(-4.29 -2.935)" fill="#615260"/>
      <path id="Trazado_1044599" data-name="Trazado 1044599" d="M37.11,32.581H21.471A1.47,1.47,0,0,1,20,31.11C28.9,28.978,34.666,23.342,37.11,14a1.47,1.47,0,0,1,1.471,1.471V31.11A1.47,1.47,0,0,1,37.11,32.581Z" transform="translate(-4.29 -2.935)" fill="#4e3d4d"/>
      <path id="Trazado_1044600" data-name="Trazado 1044600" d="M24,42H36.387V57.484H24Z" transform="translate(-5.194 -9.258)" fill="#eceaec" fill-rule="evenodd"/>
      <path id="Trazado_1044601" data-name="Trazado 1044601" d="M46,42H58.387V57.484H46Z" transform="translate(-10.161 -9.258)" fill="#eceaec" fill-rule="evenodd"/>
      <path id="Trazado_1044602" data-name="Trazado 1044602" d="M58.387,42C55.723,49.9,51.572,55.016,46,57.484H58.387Z" transform="translate(-10.161 -9.258)" fill="#dbd8db" fill-rule="evenodd"/>
      <g id="Grupo_1220397" data-name="Grupo 1220397" transform="translate(18.806 32.742)">
        <path id="Trazado_1044603" data-name="Trazado 1044603" d="M58.387,42C55.723,49.9,51.572,55.016,46,57.484H58.387Z" transform="translate(-46 -42)" fill="#dbd8db" fill-rule="evenodd"/>
      </g>
      <path id="Trazado_1044604" data-name="Trazado 1044604" d="M2,42H14.387V57.484H2Z" transform="translate(-0.226 -9.258)" fill="#eceaec" fill-rule="evenodd"/>
      <path id="Trazado_1044605" data-name="Trazado 1044605" d="M30,2h3.1V5.1H30Z" transform="translate(-6.548 -0.226)" fill="#fb4455" fill-rule="evenodd"/>
      <path id="Trazado_1044606" data-name="Trazado 1044606" d="M18,2h3.1V5.1H18Z" transform="translate(-3.839 -0.226)" fill="#7ad7ee" fill-rule="evenodd"/>
      <path id="Trazado_1044607" data-name="Trazado 1044607" d="M6,2H9.1V5.1H6Z" transform="translate(-1.129 -0.226)" fill="#ffe077" fill-rule="evenodd"/>
      <path id="Trazado_1044608" data-name="Trazado 1044608" d="M42,2h3.1V5.1H42Z" transform="translate(-9.258 -0.226)" fill="#4ce1a1" fill-rule="evenodd"/>
      <path id="Trazado_1044609" data-name="Trazado 1044609" d="M54,2h3.1V5.1H54Z" transform="translate(-11.968 -0.226)" fill="#7ad7ee" fill-rule="evenodd"/>
      <path id="Trazado_1044610" data-name="Trazado 1044610" d="M30.194,29.407a1.548,1.548,0,0,1-3.1-.02,1.553,1.553,0,0,1-1.548-1.548A1.553,1.553,0,0,1,24,26.29a1.529,1.529,0,0,1,.534-1.161,1.529,1.529,0,0,1,0-2.323A1.529,1.529,0,0,1,24,21.645,1.553,1.553,0,0,1,25.548,20.1,1.553,1.553,0,0,1,27.1,18.548a1.548,1.548,0,0,1,3.1,0,1.548,1.548,0,0,1,3.1,0A1.553,1.553,0,0,1,34.839,20.1a1.553,1.553,0,0,1,1.548,1.548,1.529,1.529,0,0,1-.534,1.161,1.529,1.529,0,0,1,0,2.323,1.529,1.529,0,0,1,.534,1.161,1.553,1.553,0,0,1-1.548,1.548,1.553,1.553,0,0,1-1.548,1.548,1.548,1.548,0,1,1-3.1,0Z" transform="translate(-5.194 -3.613)" fill="#ff7e92"/>
      <g id="Grupo_1220398" data-name="Grupo 1220398" transform="translate(21.906 16.853)">
        <path id="Trazado_1044611" data-name="Trazado 1044611" d="M35.579,22.714a1.547,1.547,0,0,1,.548,1.179,1.529,1.529,0,0,1-.534,1.161,1.529,1.529,0,0,1,0,2.323,1.529,1.529,0,0,1,.534,1.161,1.553,1.553,0,0,1-1.548,1.548,1.553,1.553,0,0,1-1.548,1.548,1.548,1.548,0,1,1-3.1,0v.02a1.548,1.548,0,0,1-3.094.062A20.715,20.715,0,0,0,35.579,22.714Z" transform="translate(-26.839 -22.714)" fill="#fb4455"/>
      </g>
      <g id="Grupo_1220399" data-name="Grupo 1220399" transform="translate(1.774 32.742)">
        <path id="Trazado_1044612" data-name="Trazado 1044612" d="M58.387,42C55.723,49.9,51.572,55.016,46,57.484H58.387Z" transform="translate(-46 -42)" fill="#dbd8db" fill-rule="evenodd"/>
      </g>
      <g id="Grupo_1220400" data-name="Grupo 1220400" transform="translate(1 1)">
        <path id="Trazado_1044613" data-name="Trazado 1044613" d="M24.626,28.31a2.229,2.229,0,0,0,1.548,1.548,2.348,2.348,0,0,0,2.245,1.626,2.162,2.162,0,0,0,1.548-.619,2.162,2.162,0,0,0,1.548.619,2.348,2.348,0,0,0,2.245-1.626A2.229,2.229,0,0,0,35.31,28.31a2.348,2.348,0,0,0,1.626-2.245,2.016,2.016,0,0,0-.31-1.161,2.332,2.332,0,0,0,0-2.323,2.016,2.016,0,0,0,.31-1.161,2.348,2.348,0,0,0-1.626-2.245,2.229,2.229,0,0,0-1.548-1.548A2.348,2.348,0,0,0,31.516,16a2.162,2.162,0,0,0-1.548.619A2.162,2.162,0,0,0,28.419,16a2.348,2.348,0,0,0-2.245,1.626,2.229,2.229,0,0,0-1.548,1.548A2.348,2.348,0,0,0,23,21.419a2.185,2.185,0,0,0,.31,1.161,2.332,2.332,0,0,0,0,2.323A2.185,2.185,0,0,0,23,26.065a2.348,2.348,0,0,0,1.626,2.245Zm.155-4.026a.759.759,0,0,1,0-1.161.772.772,0,0,0,0-1.161.6.6,0,0,1-.232-.542.731.731,0,0,1,.774-.774.731.731,0,0,0,.774-.774.731.731,0,0,1,.774-.774.731.731,0,0,0,.774-.774.774.774,0,0,1,1.548,0V20.49a.774.774,0,1,0,1.548,0V18.323a.774.774,0,0,1,1.548,0,.731.731,0,0,0,.774.774.731.731,0,0,1,.774.774.731.731,0,0,0,.774.774.731.731,0,0,1,.774.774.6.6,0,0,1-.232.542.821.821,0,0,0,0,1.161.821.821,0,0,1,0,1.161.821.821,0,0,0,0,1.161.836.836,0,0,1,.232.542.731.731,0,0,1-.774.774.731.731,0,0,0-.774.774.731.731,0,0,1-.774.774.731.731,0,0,0-.774.774.774.774,0,0,1-1.548,0V23.665a.774.774,0,1,0-1.548,0v5.419a.774.774,0,0,1-1.548,0,.731.731,0,0,0-.774-.774.731.731,0,0,1-.774-.774.731.731,0,0,0-.774-.774.731.731,0,0,1-.774-.774.7.7,0,0,1,.232-.542.766.766,0,0,0,0-1.161Z" transform="translate(-5.968 -4.387)"/>
        <path id="Trazado_1044614" data-name="Trazado 1044614" d="M27.774,50.548h6.194a.774.774,0,0,0,0-1.548H27.774a.774.774,0,0,0,0,1.548Z" transform="translate(-6.871 -11.839)"/>
        <path id="Trazado_1044615" data-name="Trazado 1044615" d="M27.774,54.548h6.194a.774.774,0,0,0,0-1.548H27.774a.774.774,0,0,0,0,1.548Z" transform="translate(-6.871 -12.742)"/>
        <path id="Trazado_1044616" data-name="Trazado 1044616" d="M27.774,58.548h6.194a.774.774,0,0,0,0-1.548H27.774a.774.774,0,0,0,0,1.548Z" transform="translate(-6.871 -13.645)"/>
        <path id="Trazado_1044617" data-name="Trazado 1044617" d="M27.774,46.548h6.194a.774.774,0,0,0,0-1.548H27.774a.774.774,0,0,0,0,1.548Z" transform="translate(-6.871 -10.935)"/>
        <path id="Trazado_1044618" data-name="Trazado 1044618" d="M61.774,53a.731.731,0,0,0-.774.774V55.4a.774.774,0,0,0,1.548,0V53.774A.731.731,0,0,0,61.774,53Z" transform="translate(-14.548 -12.742)"/>
        <path id="Trazado_1044619" data-name="Trazado 1044619" d="M48.226,31.968H42.806V26.548a.731.731,0,0,0-.774-.774H35.065V14.935h3.871a.731.731,0,0,0,.774-.774V11.839h3.871a.731.731,0,0,0,.774-.774V5.645h.774a.731.731,0,0,0,.774-.774V3.323a.774.774,0,1,0-1.548,0V4.1H42.806V2.548h.774a.731.731,0,0,0,.774-.774A.731.731,0,0,0,43.581,1H42.032a.731.731,0,0,0-.774.774v3.1a.731.731,0,0,0,.774.774h.774V10.29H38.935a.731.731,0,0,0-.774.774v2.323h-3.1v-.852a2.247,2.247,0,0,0-2.245-2.245h-2.4V8.742H34.29a.731.731,0,0,0,.774-.774V5.645h.774a.731.731,0,0,0,.774-.774v-3.1A.731.731,0,0,0,35.839,1H34.29a.731.731,0,0,0-.774.774.731.731,0,0,0,.774.774h.774V4.1H33.516V3.323a.774.774,0,0,0-1.548,0V4.871a.731.731,0,0,0,.774.774h.774V7.194H29.645a.731.731,0,0,0-.774.774V10.29h-3.1V5.645h.774a.731.731,0,0,0,.774-.774v-3.1A.731.731,0,0,0,26.548,1h-3.1a.731.731,0,0,0-.774.774v3.1a.731.731,0,0,0,.774.774h.774V10.29h-3.1V7.968a.731.731,0,0,0-.774-.774H16.484V5.645h.774a.731.731,0,0,0,.774-.774v-3.1A.731.731,0,0,0,17.258,1h-3.1a.731.731,0,0,0-.774.774v.852a.731.731,0,0,0,.774.774c.774,0,.774-.852.774-.852h1.548V4.1H15.013a.731.731,0,0,0-.774.774.764.764,0,0,0,.7.774V7.968a.731.731,0,0,0,.774.774h3.871V10.29h-2.4a2.247,2.247,0,0,0-2.245,2.245v.852h-3.1V11.065a.731.731,0,0,0-.774-.774H7.194V5.645h.774a.731.731,0,0,0,.774-.774v-3.1A.731.731,0,0,0,7.968,1h-3.1a.731.731,0,0,0-.774.774v3.1a.731.731,0,0,0,.774.774h.774v5.419a.731.731,0,0,0,.774.774H10.29v2.323a.731.731,0,0,0,.774.774h3.871V25.774H7.968a.731.731,0,0,0-.774.774v5.419H1.774A.731.731,0,0,0,1,32.742V48.226A.731.731,0,0,0,1.774,49h1.7a.774.774,0,0,0,0-1.548H2.548V33.516H13.387V47.452H6.5A.774.774,0,0,0,6.5,49h7.665a.731.731,0,0,0,.774-.774V32.742a.731.731,0,0,0-.774-.774H8.742V27.323h6.194v.852a2.247,2.247,0,0,0,2.245,2.245.774.774,0,0,0,0-1.548.694.694,0,0,1-.7-.7V12.535a.694.694,0,0,1,.7-.7H32.819a.694.694,0,0,1,.7.7V28.174a.694.694,0,0,1-.7.7H20.355a.774.774,0,0,0,0,1.548h3.871v1.548H18.806a.731.731,0,0,0-.774.774v1.7a.774.774,0,1,0,1.548,0v-.929H30.419V47.452H19.581V37.465a.774.774,0,0,0-1.548,0V48.226a.731.731,0,0,0,.774.774H31.194a.731.731,0,0,0,.774-.774V32.742a.731.731,0,0,0-.774-.774H25.774V30.419h7.045a2.247,2.247,0,0,0,2.245-2.245v-.852h6.194v4.645H35.839a.731.731,0,0,0-.774.774V48.226a.731.731,0,0,0,.774.774H48.226A.731.731,0,0,0,49,48.226V46.677a.774.774,0,0,0-1.548,0v.774H36.613V33.516H47.452v5.419a.774.774,0,1,0,1.548,0V32.742A.731.731,0,0,0,48.226,31.968ZM5.645,4.1V2.548H7.194V4.1ZM24.226,2.548h1.548V4.1H24.226Z" transform="translate(-1 -1)"/>
        <path id="Trazado_1044620" data-name="Trazado 1044620" d="M55.968,49H49.774a.774.774,0,1,0,0,1.548h6.194a.774.774,0,0,0,0-1.548Z" transform="translate(-11.839 -11.839)"/>
        <path id="Trazado_1044621" data-name="Trazado 1044621" d="M55.968,53H49.774a.774.774,0,1,0,0,1.548h6.194a.774.774,0,0,0,0-1.548Z" transform="translate(-11.839 -12.742)"/>
        <path id="Trazado_1044622" data-name="Trazado 1044622" d="M55.968,57H49.774a.774.774,0,1,0,0,1.548h6.194a.774.774,0,0,0,0-1.548Z" transform="translate(-11.839 -13.645)"/>
        <path id="Trazado_1044623" data-name="Trazado 1044623" d="M55.968,45H49.774a.774.774,0,0,0,0,1.548h6.194a.774.774,0,0,0,0-1.548Z" transform="translate(-11.839 -10.935)"/>
        <path id="Trazado_1044624" data-name="Trazado 1044624" d="M5.774,50.548h6.194a.774.774,0,1,0,0-1.548H5.774a.774.774,0,1,0,0,1.548Z" transform="translate(-1.903 -11.839)"/>
        <path id="Trazado_1044625" data-name="Trazado 1044625" d="M5.774,54.548h6.194a.774.774,0,1,0,0-1.548H5.774a.774.774,0,1,0,0,1.548Z" transform="translate(-1.903 -12.742)"/>
        <path id="Trazado_1044626" data-name="Trazado 1044626" d="M12.742,57.774A.731.731,0,0,0,11.968,57H5.774a.774.774,0,1,0,0,1.548h6.194A.731.731,0,0,0,12.742,57.774Z" transform="translate(-1.903 -13.645)"/>
        <path id="Trazado_1044627" data-name="Trazado 1044627" d="M5.774,46.548h6.194a.774.774,0,0,0,0-1.548H5.774a.774.774,0,0,0,0,1.548Z" transform="translate(-1.903 -10.935)"/>
      </g>
    </g>
  </g>
</svg>
