<svg xmlns="http://www.w3.org/2000/svg" xmlns:xlink="http://www.w3.org/1999/xlink" width="113" height="113" viewBox="0 0 113 113">
  <defs>
    <filter id="Trazado_982547" x="0" y="0" width="113" height="113" filterUnits="userSpaceOnUse">
      <feOffset dy="3" input="SourceAlpha"/>
      <feGaussianBlur stdDeviation="3" result="blur"/>
      <feFlood flood-opacity="0.161"/>
      <feComposite operator="in" in2="blur"/>
      <feComposite in="SourceGraphic"/>
    </filter>
  </defs>
  <g id="Grupo_1220282" data-name="Grupo 1220282" transform="translate(-792 -2042.504)">
    <g id="Grupo_1202507" data-name="Grupo 1202507" transform="translate(0 1105.881)">
      <g id="Grupo_1202357" data-name="Grupo 1202357" transform="translate(-1.49 -525)">
        <g id="Grupo_1177632" data-name="Grupo 1177632" transform="translate(-4493 -458.649)">
          <g id="Grupo_1176928" data-name="Grupo 1176928" transform="translate(5295.49 1926.273)">
            <g id="Grupo_1172322" data-name="Grupo 1172322" transform="translate(0 0)">
              <g id="Grupo_1164700" data-name="Grupo 1164700">
                <g id="Grupo_1160931" data-name="Grupo 1160931">
                  <g id="Grupo_1160749" data-name="Grupo 1160749">
                    <g id="Grupo_1158891" data-name="Grupo 1158891">
                      <g id="Grupo_1157406" data-name="Grupo 1157406">
                        <g id="Grupo_1155793" data-name="Grupo 1155793">
                          <g id="Grupo_1154704" data-name="Grupo 1154704">
                            <g id="Grupo_1150790" data-name="Grupo 1150790">
                              <g id="Grupo_1154214" data-name="Grupo 1154214">
                                <g id="Grupo_1152583" data-name="Grupo 1152583">
                                  <g id="Grupo_1146973" data-name="Grupo 1146973">
                                    <g id="Grupo_1146954" data-name="Grupo 1146954">
                                      <g transform="matrix(1, 0, 0, 1, -9, -6)" filter="url(#Trazado_982547)">
                                        <g id="Trazado_982547-2" data-name="Trazado 982547" transform="translate(9 6)" fill="#eaf4fb">
                                          <path d="M 47.5000114440918 93.49987030029297 C 41.28938293457031 93.49987030029297 35.26534652709961 92.28384399414062 29.5951976776123 89.88558959960938 C 24.11773109436035 87.56881713867188 19.19814491271973 84.25183868408203 14.97310447692871 80.02680206298828 C 10.74805164337158 75.80176544189453 7.43107795715332 70.88218688964844 5.114304542541504 65.40472412109375 C 2.716038227081299 59.73458862304688 1.500011444091797 53.71054840087891 1.500011444091797 47.49993515014648 C 1.500011444091797 41.28932189941406 2.716038227081299 35.26528167724609 5.114304542541504 29.59514808654785 C 7.43107795715332 24.1176815032959 10.74805164337158 19.1981086730957 14.97310447692871 14.97306823730469 C 19.19814491271973 10.74802875518799 24.11773109436035 7.431055068969727 29.5951976776123 5.11428165435791 C 35.26534652709961 2.716028451919556 41.28938293457031 1.500001788139343 47.5000114440918 1.500001788139343 C 53.71063995361328 1.500001788139343 59.73467636108398 2.716028451919556 65.40482330322266 5.11428165435791 C 70.88229370117188 7.431055068969727 75.8018798828125 10.74802875518799 80.02691650390625 14.97306823730469 C 84.25196838378906 19.1981086730957 87.56894683837891 24.1176815032959 89.88571929931641 29.59514808654785 C 92.28398132324219 35.26528167724609 93.50001525878906 41.28932189941406 93.50001525878906 47.49993515014648 C 93.50001525878906 53.71054840087891 92.28398132324219 59.73458862304688 89.88571929931641 65.40472412109375 C 87.56894683837891 70.88218688964844 84.25196838378906 75.80176544189453 80.02691650390625 80.02680206298828 C 75.8018798828125 84.25183868408203 70.88229370117188 87.56881713867188 65.40482330322266 89.88558959960938 C 59.73467636108398 92.28384399414062 53.71063995361328 93.49987030029297 47.5000114440918 93.49987030029297 Z" stroke="none"/>
                                          <path d="M 47.5000114440918 3 C 41.49122619628906 3 35.66378021240234 4.1761474609375 30.17951965332031 6.495796203613281 C 24.880859375 8.7369384765625 20.12153625488281 11.94596862792969 16.03376770019531 16.03373718261719 C 11.94598388671875 20.12149047851562 8.736968994140625 24.88081359863281 6.495811462402344 30.17947387695312 C 4.176162719726562 35.66371917724609 3.000007629394531 41.49116516113281 3.000007629394531 47.49993515014648 C 3.000007629394531 53.50870513916016 4.176162719726562 59.33615112304688 6.495811462402344 64.82039642333984 C 8.736968994140625 70.11905670166016 11.94598388671875 74.87837982177734 16.03376770019531 78.96613311767578 C 20.12153625488281 83.05390167236328 24.880859375 86.26293182373047 30.17951965332031 88.50407409667969 C 35.66378021240234 90.82372283935547 41.49122619628906 91.99987030029297 47.5000114440918 91.99987030029297 C 53.50879669189453 91.99987030029297 59.33624267578125 90.82372283935547 64.82050323486328 88.50407409667969 C 70.11916351318359 86.26293182373047 74.87848663330078 83.05390167236328 78.96625518798828 78.96613311767578 C 83.05403900146484 74.87837982177734 86.2630615234375 70.11905670166016 88.50421142578125 64.82039642333984 C 90.82386016845703 59.33615112304688 92.00001525878906 53.50870513916016 92.00001525878906 47.49993515014648 C 92.00001525878906 41.49116516113281 90.82386016845703 35.66371917724609 88.50421142578125 30.17947387695312 C 86.2630615234375 24.88081359863281 83.05403900146484 20.12149047851562 78.96625518798828 16.03373718261719 C 74.87848663330078 11.94596862792969 70.11916351318359 8.7369384765625 64.82050323486328 6.495796203613281 C 59.33624267578125 4.1761474609375 53.50879669189453 3 47.5000114440918 3 M 47.5000114440918 0 C 73.73353576660156 0 95.00001525878906 21.26644134521484 95.00001525878906 47.49993515014648 C 95.00001525878906 73.73342895507812 73.73353576660156 94.99987030029297 47.5000114440918 94.99987030029297 C 21.26648712158203 94.99987030029297 7.62939453125e-06 73.73342895507812 7.62939453125e-06 47.49993515014648 C 7.62939453125e-06 21.26644134521484 21.26648712158203 0 47.5000114440918 0 Z" stroke="none" fill="#3c97da"/>
                                        </g>
                                      </g>
                                    </g>
                                  </g>
                                </g>
                              </g>
                            </g>
                          </g>
                        </g>
                      </g>
                    </g>
                  </g>
                </g>
              </g>
            </g>
          </g>
        </g>
      </g>
    </g>
    <g id="integrated-system_18291974" transform="translate(795.462 2045.934)">
      <g id="Grupo_1220281" data-name="Grupo 1220281" transform="translate(26.046 22.556)">
        <path id="Trazado_1044289" data-name="Trazado 1044289" d="M50.832,173.27H96.3a2.74,2.74,0,0,1,2.821,2.638v25.02h-17.1L78.893,206H67.96l-3.134-5.068H48.01v-25.02A2.741,2.741,0,0,1,50.832,173.27Z" transform="translate(-46.075 -155.591)" fill="#5b71b6" fill-rule="evenodd"/>
        <path id="Trazado_1044290" data-name="Trazado 1044290" d="M86.85,208.93h41.619v23.3H116.114l-3.131,5.068H102.051l-3.134-5.068H86.85Z" transform="translate(-80.166 -186.89)" fill="#7b86c2" fill-rule="evenodd"/>
        <path id="Trazado_1044291" data-name="Trazado 1044291" d="M86.85,208.93h40.138c-.011,11.5-26.169,24.455-40.138,18.227Z" transform="translate(-80.166 -186.89)" fill="#e8eaf5" fill-rule="evenodd"/>
        <path id="Trazado_1044292" data-name="Trazado 1044292" d="M32.191,399.44h19.6l2.825,4.056h9.876l2.829-4.056H87.173v5.543c0,2.281-2.256,4.149-5.013,4.149H37.2c-2.756,0-5.013-1.869-5.013-4.149V399.44Z" transform="translate(-32.19 -354.102)" fill="#5b71b6" fill-rule="evenodd"/>
        <path id="Trazado_1044293" data-name="Trazado 1044293" d="M32.2,399.44H51.8l2.825,4.056H64.5l2.829-4.056H83v2.69c0,2.281-2.254,4.149-5.013,4.149H33.035a5.285,5.285,0,0,1-.593-.032,3.457,3.457,0,0,1-.242-1.266Z" transform="translate(-32.199 -354.102)" fill="#7a8bc5" fill-rule="evenodd"/>
        <path id="Trazado_1044294" data-name="Trazado 1044294" d="M139.034,28.7h2.409a1.284,1.284,0,0,1,1.283,1.279v.939a1.269,1.269,0,0,0,.95,1.238,13.21,13.21,0,0,1,3.193,1.321,1.264,1.264,0,0,0,1.546-.2l.662-.665a1.286,1.286,0,0,1,1.814,0l1.706,1.706a1.293,1.293,0,0,1,0,1.814l-.665.662a1.265,1.265,0,0,0-.2,1.546,13.21,13.21,0,0,1,1.321,3.193,1.266,1.266,0,0,0,1.238.95h.939a1.283,1.283,0,0,1,1.279,1.279v2.413a1.285,1.285,0,0,1-1.283,1.283h-.936a1.266,1.266,0,0,0-1.238.95A13.123,13.123,0,0,1,151.73,51.6a1.27,1.27,0,0,0,.2,1.549l.665.662a1.288,1.288,0,0,1,0,1.81l-1.706,1.706a1.286,1.286,0,0,1-1.814,0l-.662-.662a1.27,1.27,0,0,0-1.546-.2,13.075,13.075,0,0,1-3.193,1.324,1.266,1.266,0,0,0-.95,1.238v.936a1.285,1.285,0,0,1-1.283,1.283h-2.409a1.285,1.285,0,0,1-1.283-1.283v-.936a1.266,1.266,0,0,0-.95-1.238,13.075,13.075,0,0,1-3.193-1.324,1.271,1.271,0,0,0-1.546.2l-.662.662a1.281,1.281,0,0,1-1.81,0l-1.706-1.706a1.281,1.281,0,0,1,0-1.81l.662-.662a1.275,1.275,0,0,0,.2-1.549,12.99,12.99,0,0,1-1.324-3.189,1.266,1.266,0,0,0-1.238-.95h-.936a1.285,1.285,0,0,1-1.283-1.283V43.76a1.284,1.284,0,0,1,1.283-1.279h.936a1.266,1.266,0,0,0,1.238-.95,13.211,13.211,0,0,1,1.321-3.193,1.264,1.264,0,0,0-.2-1.546l-.662-.662a1.286,1.286,0,0,1,0-1.814l1.706-1.706a1.281,1.281,0,0,1,1.81,0l.662.665a1.265,1.265,0,0,0,1.546.2,13.21,13.21,0,0,1,3.193-1.321,1.269,1.269,0,0,0,.95-1.238v-.939A1.283,1.283,0,0,1,139.034,28.7Z" transform="translate(-112.746 -28.7)" fill="gray" fill-rule="evenodd"/>
        <path id="Trazado_1044295" data-name="Trazado 1044295" d="M186.472,80.83a9.852,9.852,0,1,1-9.852,9.852A9.854,9.854,0,0,1,186.472,80.83Z" transform="translate(-158.958 -74.455)" fill="#b3b4b4" fill-rule="evenodd"/>
        <path id="Trazado_1044296" data-name="Trazado 1044296" d="M212.992,116.55H222.6a.681.681,0,0,1,.68.68v9.61a.681.681,0,0,1-.68.68h-9.609a.683.683,0,0,1-.682-.68v-9.611A.683.683,0,0,1,212.992,116.55Z" transform="translate(-190.283 -105.807)" fill="#dd6e42" fill-rule="evenodd"/>
        <path id="Trazado_1044297" data-name="Trazado 1044297" d="M220.22,116.55h9.29a.718.718,0,0,1,.714.714v8.191a8.483,8.483,0,0,1-1.914-.045c-4.468-.614-8.091-4.548-8.091-8.784Z" transform="translate(-197.226 -105.807)" fill="#e79676" fill-rule="evenodd"/>
        <path id="Trazado_1044298" data-name="Trazado 1044298" d="M237.79,116.55h4.739v5.483l-2.35-1.591-2.388,1.591Z" transform="translate(-212.647 -105.807)" fill="#f8ed3f" fill-rule="evenodd"/>
        <path id="Trazado_1044299" data-name="Trazado 1044299" d="M115.687,296.709V291.16h3.49v5.549h1.81l-3.554,4.451-3.554-4.451Zm31.389-1.1v5.549h-3.49v-5.549h-1.81l3.554-4.451,3.554,4.451Z" transform="translate(-103.89 -259.064)" fill="#70bf44" fill-rule="evenodd"/>
      </g>
      <path id="Trazado_1044300" data-name="Trazado 1044300" d="M36.991,59.346V54.652a.853.853,0,0,1,.852-.856h3.494a.855.855,0,0,1,.856.856v4.693h.95a.854.854,0,0,1,.635,1.428l-3.518,4.41a.855.855,0,0,1-1.345-.01l-3.546-4.44a.858.858,0,0,1,.669-1.387h.954ZM38.7,55.508V60.2a.851.851,0,0,1-.884.852l1.774,2.229,1.774-2.229a.851.851,0,0,1-.884-.852V55.508Zm31.389,4.451v4.693a.859.859,0,0,1-.856.856h-3.49a.856.856,0,0,1-.856-.856V59.959h-.954a.858.858,0,0,1-.635-1.432l3.518-4.41a.862.862,0,0,1,1.349.011l3.543,4.444a.858.858,0,0,1-.669,1.387ZM68.375,63.8V59.1a.855.855,0,0,1,.888-.856l-1.778-2.226-1.774,2.226a.857.857,0,0,1,.888.856V63.8ZM56.783,34.152v4.631a.854.854,0,0,1-1.4.659l-1.806-1.224-1.914,1.275a.858.858,0,0,1-1.332-.718V34.152h-1.4V43.41h9.256V34.152Zm-4.739,0v3.029l1.06-.7v0a.853.853,0,0,1,.954,0l1.016.686V34.152Zm-3.29-1.71h9.61A1.539,1.539,0,0,1,59.9,33.978v9.61a1.539,1.539,0,0,1-1.536,1.536h-9.61a1.539,1.539,0,0,1-1.536-1.536v-9.61A1.54,1.54,0,0,1,48.755,32.442Zm4.8-4.367A10.708,10.708,0,1,1,42.852,38.783,10.707,10.707,0,0,1,53.56,28.075Zm6.361,4.346a9,9,0,1,0,0,12.722A9,9,0,0,0,59.921,32.421ZM52.333,21.7h2.413a2.138,2.138,0,0,1,2.135,2.135c0,1.81-.215.975,2.059,1.944v0a14.124,14.124,0,0,1,1.653.818.408.408,0,0,0,.514-.07c.669-.669,1.137-1.289,2.173-1.289a2.131,2.131,0,0,1,1.511.624L66.5,27.565a2.137,2.137,0,0,1,0,3.023l-.662.662a.411.411,0,0,0-.07.516,13.949,13.949,0,0,1,1.411,3.4.405.405,0,0,0,.408.316c.947,0,1.712-.108,2.447.627a2.119,2.119,0,0,1,.627,1.508v1.765h5.612a3.6,3.6,0,0,1,3.678,3.494V67.036H81.03a.855.855,0,0,1,.856.856v5.543c0,2.953-2.874,5.005-5.869,5.005H31.059c-2.995,0-5.869-2.052-5.869-5.005V67.892a.856.856,0,0,1,.856-.856h1.079V42.872A3.6,3.6,0,0,1,30.8,39.378h5.612V37.614a2.139,2.139,0,0,1,2.139-2.135h.936a.406.406,0,0,0,.412-.316,14.084,14.084,0,0,1,1.408-3.4.411.411,0,0,0-.066-.516h0c-.669-.669-1.283-1.13-1.283-2.173h0a2.129,2.129,0,0,1,.624-1.508l1.706-1.708a2.143,2.143,0,0,1,3.023,0l.662.665a.408.408,0,0,0,.514.07,14.034,14.034,0,0,1,3.4-1.411.406.406,0,0,0,.312-.408h0v-.939h0a2.141,2.141,0,0,1,2.14-2.136ZM70.376,41.091a2.139,2.139,0,0,1-1.851,1.071v0h-.939v0a.4.4,0,0,0-.408.316c-.115.427-.249.849-.4,1.262h7.575a.855.855,0,0,1,.856.856V67.038h3.033V42.873a1.886,1.886,0,0,0-1.965-1.782ZM66,45.449c-.44.832-.493.614.5,1.6a2.137,2.137,0,0,1,0,3.023l-1.706,1.706a2.139,2.139,0,0,1-3.019,0l-.665-.665a.408.408,0,0,0-.514-.07,14.009,14.009,0,0,1-3.4,1.411.407.407,0,0,0-.315.412c0,.947.108,1.712-.627,2.447a2.132,2.132,0,0,1-1.508.624H52.332a2.139,2.139,0,0,1-2.139-2.135V52.87a.406.406,0,0,0-.312-.412,14.034,14.034,0,0,1-3.4-1.411.409.409,0,0,0-.514.07c-.669.673-1.134,1.289-2.173,1.289a2.131,2.131,0,0,1-1.512-.624l-1.706-1.706a2.143,2.143,0,0,1,0-3.023c.992-.988.936-.777.5-1.6H33.586V67.038h12.06a.849.849,0,0,1,.742.433l2.527,3.619h8.992L60.475,67.4a.854.854,0,0,1,.7-.364v0H73.492V45.449ZM40.3,43.74c-.157-.412-.287-.835-.4-1.262a.407.407,0,0,0-.412-.316c-.947,0-1.712.111-2.447-.624a2.4,2.4,0,0,1-.344-.448H30.8a1.885,1.885,0,0,0-1.965,1.782V67.038h3.036V44.6a.854.854,0,0,1,.856-.856ZM54.746,23.412H52.333a.428.428,0,0,0-.427.423h0v.939h0a2.129,2.129,0,0,1-1.584,2.063,12.427,12.427,0,0,0-2.985,1.234,2.124,2.124,0,0,1-2.579-.336l-.665-.662a.422.422,0,0,0-.6,0l-1.706,1.706v0a.419.419,0,0,0-.121.3h0a.429.429,0,0,0,.125.3l.665.662,0,0a2.12,2.12,0,0,1,.34,2.575,12.351,12.351,0,0,0-1.238,2.985,2.126,2.126,0,0,1-2.063,1.587h-.936a.428.428,0,0,0-.427.423v2.413a.428.428,0,0,0,.427.423,3.211,3.211,0,0,1,2.235.44,2.134,2.134,0,0,1,.763,1.147,12.625,12.625,0,0,0,1.238,2.985,2.135,2.135,0,0,1-.336,2.579l-.665.662a.433.433,0,0,0,0,.6l1.706,1.706a.429.429,0,0,0,.6,0c.614-.614,1.022-1.158,1.9-1.272a2.117,2.117,0,0,1,1.345.27,12.437,12.437,0,0,0,2.985,1.238,2.123,2.123,0,0,1,1.584,2.063v.936a.431.431,0,0,0,.427.427h2.413a.428.428,0,0,0,.423-.427,3.2,3.2,0,0,1,.44-2.235,2.125,2.125,0,0,1,1.143-.763,12.437,12.437,0,0,0,2.985-1.238,2.123,2.123,0,0,1,2.579.336l.665.662a.422.422,0,0,0,.6,0l1.706-1.7a.43.43,0,0,0,0-.6c-.614-.614-1.158-1.019-1.272-1.9-.125-.956.357-1.383.669-2.086a12.461,12.461,0,0,0,.839-2.243,2.126,2.126,0,0,1,2.063-1.587v0h.939v0a.425.425,0,0,0,.423-.423V37.616a.425.425,0,0,0-.423-.423,3.206,3.206,0,0,1-2.239-.44,2.134,2.134,0,0,1-.763-1.147A12.489,12.489,0,0,0,64.29,32.62a2.124,2.124,0,0,1,.336-2.579l.662-.662a.429.429,0,0,0,0-.6l-1.706-1.706a.422.422,0,0,0-.6,0c-.614.61-1.019,1.154-1.9,1.272a2.13,2.13,0,0,1-1.349-.274,12.628,12.628,0,0,0-1.453-.718,12.448,12.448,0,0,0-1.532-.516,2.129,2.129,0,0,1-1.584-2.063v-.939a.425.425,0,0,0-.422-.424ZM45.2,68.75H26.9v4.686a2.983,2.983,0,0,0,1.162,2.271,4.707,4.707,0,0,0,2.995,1.022H76.017a4.7,4.7,0,0,0,2.995-1.022,2.97,2.97,0,0,0,1.162-2.271V68.75H61.621l-2.527,3.619a.856.856,0,0,1-.745.433H48.475v0a.847.847,0,0,1-.7-.364Z" transform="translate(0 0)"/>
    </g>
  </g>
</svg>
