<svg xmlns="http://www.w3.org/2000/svg" width="28.122" height="35.152" viewBox="0 0 28.122 35.152">
  <g id="surface1" transform="translate(-0.25)">
    <path id="Trazado_1041245" data-name="Trazado 1041245" d="M588.54,363.484l-.79.864,3.593,3.294a4.111,4.111,0,0,1,1.328,3.024v14.342h1.172V370.665a5.286,5.286,0,0,0-1.71-3.887Zm0,0" transform="translate(-565.471 -349.855)"/>
    <path id="Trazado_1041246" data-name="Trazado 1041246" d="M18.412,0H3.179A2.933,2.933,0,0,0,.25,2.929V32.223a2.933,2.933,0,0,0,2.929,2.929H17.826V34.1a13.32,13.32,0,0,1,2.245-7.415A.586.586,0,0,0,20,25.95l-4.1-4.1a1.9,1.9,0,0,1,.139-2.812,1.973,1.973,0,0,1,2.623.2l5.783,5.783.828-.828-3.929-3.931V2.929A2.933,2.933,0,0,0,18.412,0ZM20.17,19.091l-.682-.682a3.153,3.153,0,0,0-4.2-.277,3.072,3.072,0,0,0-.222,4.546l3.767,3.767a14.486,14.486,0,0,0-2.177,7.536H3.179a1.758,1.758,0,0,1-1.758-1.758V30.465H16.069V29.294H1.422V4.687H20.17Zm0-15.576H1.422V2.929A1.758,1.758,0,0,1,3.179,1.172H18.412A1.758,1.758,0,0,1,20.17,2.929Zm0,0"/>
    <path id="Trazado_1041247" data-name="Trazado 1041247" d="M63.922,160.937h2.343a1.172,1.172,0,0,0,1.172-1.172v-2.343a1.172,1.172,0,0,0-1.172-1.172H63.922a1.172,1.172,0,0,0-1.172,1.172v2.343A1.172,1.172,0,0,0,63.922,160.937Zm0-3.515h2.343v2.343H63.922Zm0,0" transform="translate(-60.157 -150.391)"/>
    <path id="Trazado_1041248" data-name="Trazado 1041248" d="M220.172,160.937h2.343a1.172,1.172,0,0,0,1.172-1.172v-2.343a1.172,1.172,0,0,0-1.172-1.172h-2.343A1.172,1.172,0,0,0,219,157.422v2.343A1.172,1.172,0,0,0,220.172,160.937Zm0-3.515h2.343v2.343h-2.343Zm0,0" transform="translate(-210.548 -150.391)"/>
    <path id="Trazado_1041249" data-name="Trazado 1041249" d="M376.422,160.937h2.343a1.172,1.172,0,0,0,1.172-1.172v-2.343a1.172,1.172,0,0,0-1.172-1.172h-2.343a1.172,1.172,0,0,0-1.172,1.172v2.343A1.172,1.172,0,0,0,376.422,160.937Zm0-3.515h2.343v2.343h-2.343Zm0,0" transform="translate(-360.939 -150.391)"/>
    <path id="Trazado_1041250" data-name="Trazado 1041250" d="M63.922,317.187h2.343a1.172,1.172,0,0,0,1.172-1.172v-2.344a1.172,1.172,0,0,0-1.172-1.172H63.922a1.172,1.172,0,0,0-1.172,1.172v2.344A1.172,1.172,0,0,0,63.922,317.187Zm0-3.515h2.343v2.344H63.922Zm0,0" transform="translate(-60.157 -300.783)"/>
    <path id="Trazado_1041251" data-name="Trazado 1041251" d="M63.922,473.437h2.343a1.172,1.172,0,0,0,1.172-1.172v-2.344a1.172,1.172,0,0,0-1.172-1.172H63.922a1.172,1.172,0,0,0-1.172,1.172v2.344A1.172,1.172,0,0,0,63.922,473.437Zm0-3.515h2.343v2.344H63.922Zm0,0" transform="translate(-60.157 -451.174)"/>
    <path id="Trazado_1041252" data-name="Trazado 1041252" d="M220.172,317.187h2.343a1.172,1.172,0,0,0,1.172-1.172v-2.344a1.172,1.172,0,0,0-1.172-1.172h-2.343A1.172,1.172,0,0,0,219,313.672v2.344A1.172,1.172,0,0,0,220.172,317.187Zm0-3.515h2.343v2.344h-2.343Zm0,0" transform="translate(-210.548 -300.783)"/>
    <path id="Trazado_1041253" data-name="Trazado 1041253" d="M376.422,317.187h2.343a1.172,1.172,0,0,0,1.172-1.172v-2.344a1.172,1.172,0,0,0-1.172-1.172h-2.343a1.172,1.172,0,0,0-1.172,1.172v2.344A1.172,1.172,0,0,0,376.422,317.187Zm0-3.515h2.343v2.344h-2.343Zm0,0" transform="translate(-360.939 -300.783)"/>
    <path id="Trazado_1041254" data-name="Trazado 1041254" d="M220.172,473.437h2.343a1.172,1.172,0,0,0,1.172-1.172v-2.344a1.172,1.172,0,0,0-1.172-1.172h-2.343A1.172,1.172,0,0,0,219,469.922v2.344A1.172,1.172,0,0,0,220.172,473.437Zm0-3.515h2.343v2.344h-2.343Zm0,0" transform="translate(-210.548 -451.174)"/>
    <path id="Trazado_1041255" data-name="Trazado 1041255" d="M63.922,629.687h2.343a1.172,1.172,0,0,0,1.172-1.172v-2.343A1.172,1.172,0,0,0,66.265,625H63.922a1.172,1.172,0,0,0-1.172,1.172v2.343A1.172,1.172,0,0,0,63.922,629.687Zm0-3.515h2.343v2.343H63.922Zm0,0" transform="translate(-60.157 -601.565)"/>
    <path id="Trazado_1041256" data-name="Trazado 1041256" d="M220.172,629.687h2.343a1.172,1.172,0,0,0,1.172-1.172v-2.343A1.172,1.172,0,0,0,222.515,625h-2.343A1.172,1.172,0,0,0,219,626.172v2.343A1.172,1.172,0,0,0,220.172,629.687Zm0-3.515h2.343v2.343h-2.343Zm0,0" transform="translate(-210.548 -601.565)"/>
    <path id="Trazado_1041257" data-name="Trazado 1041257" d="M265.875,843.75h1.172v1.172h-1.172Zm0,0" transform="translate(-255.665 -812.113)"/>
  </g>
</svg>
